<svg width="139" height="94" viewBox="0 0 139 94" fill="none" xmlns="http://www.w3.org/2000/svg">
<path d="M51.4767 61.8997C51.05 61.8997 50.6433 61.833 50.2567 61.6997C49.8767 61.5663 49.5367 61.3597 49.2367 61.0797C48.9367 60.793 48.7 60.4263 48.5267 59.9797C48.36 59.5263 48.2767 58.9797 48.2767 58.3397V58.1397C48.2767 57.5263 48.36 57.003 48.5267 56.5697C48.7 56.1297 48.9367 55.7697 49.2367 55.4897C49.5367 55.2097 49.8767 55.0063 50.2567 54.8797C50.6433 54.7463 51.05 54.6797 51.4767 54.6797C51.9033 54.6797 52.3067 54.7463 52.6867 54.8797C53.0733 55.0063 53.4167 55.2097 53.7167 55.4897C54.0167 55.7697 54.25 56.1297 54.4167 56.5697C54.59 57.003 54.6767 57.5263 54.6767 58.1397V58.3397C54.6767 58.9797 54.59 59.5263 54.4167 59.9797C54.25 60.4263 54.0167 60.793 53.7167 61.0797C53.4167 61.3597 53.0733 61.5663 52.6867 61.6997C52.3067 61.833 51.9033 61.8997 51.4767 61.8997ZM51.4767 60.8397C51.81 60.8397 52.1233 60.7597 52.4167 60.5997C52.71 60.4397 52.95 60.1797 53.1367 59.8197C53.3233 59.453 53.4167 58.9597 53.4167 58.3397V58.1397C53.4167 57.553 53.3233 57.0863 53.1367 56.7397C52.95 56.3863 52.71 56.133 52.4167 55.9797C52.1233 55.8197 51.81 55.7397 51.4767 55.7397C51.1433 55.7397 50.8267 55.8197 50.5267 55.9797C50.2333 56.133 49.9933 56.3863 49.8067 56.7397C49.6267 57.0863 49.5367 57.553 49.5367 58.1397V58.3397C49.5367 58.9597 49.6267 59.453 49.8067 59.8197C49.9933 60.1797 50.2333 60.4397 50.5267 60.5997C50.8267 60.7597 51.1433 60.8397 51.4767 60.8397ZM56.25 61.7897V54.7897H57.41L60.85 59.7897V54.7897H62.05V61.7897H60.89L57.45 56.7897V61.7897H56.25ZM63.421 59.5097V58.4697H66.521V59.5097H63.421ZM69.2502 61.7897V55.8297H66.9002V54.7897H72.8002V55.8297H70.4502V61.7897H69.2502ZM74.1224 61.7897V54.7897H75.3224V61.7897H74.1224ZM77.3488 61.7897V54.7897H78.5888L80.8188 58.9397L83.0488 54.7897H84.2488V61.7897H83.0488V56.8897L81.1988 60.3397H80.3988L78.5488 56.8897V61.7897H77.3488ZM86.1733 61.7897V54.7897H90.8733V55.8297H87.3733V57.6697H90.5733V58.7097H87.3733V60.7497H90.8733V61.7897H86.1733ZM41.0393 73.7897V66.7897H43.2893C43.996 66.7897 44.5993 66.9163 45.0993 67.1697C45.5993 67.4163 45.9793 67.7897 46.2393 68.2897C46.506 68.783 46.6393 69.3997 46.6393 70.1397V70.3397C46.6393 71.0863 46.5027 71.7163 46.2293 72.2297C45.956 72.743 45.5593 73.133 45.0393 73.3997C44.526 73.6597 43.9093 73.7897 43.1893 73.7897H41.0393ZM42.2393 72.7497H43.0893C43.5493 72.7497 43.9493 72.673 44.2893 72.5197C44.636 72.3597 44.9027 72.103 45.0893 71.7497C45.2827 71.3963 45.3793 70.9263 45.3793 70.3397V70.1397C45.3793 69.593 45.2827 69.1497 45.0893 68.8097C44.896 68.4697 44.6327 68.223 44.2993 68.0697C43.9727 67.9097 43.6027 67.8297 43.1893 67.8297H42.2393V72.7497ZM48.2135 73.7897V66.7897H52.9135V67.8297H49.4135V69.6697H52.6135V70.7097H49.4135V72.7497H52.9135V73.7897H48.2135ZM54.4891 73.7897V66.7897H55.6891V72.7497H59.0891V73.7897H54.4891ZM60.4156 73.7897V66.7897H61.6156V73.7897H60.4156ZM65.592 73.7897L62.892 66.7897H64.172L66.222 72.2797L68.192 66.7897H69.392L66.792 73.7897H65.592ZM70.5623 73.7897V66.7897H75.2623V67.8297H71.7623V69.6697H74.9623V70.7097H71.7623V72.7497H75.2623V73.7897H70.5623ZM76.8379 73.7897V66.7897H79.4879C80.0746 66.7897 80.5613 66.883 80.9479 67.0697C81.3413 67.2563 81.6379 67.513 81.8379 67.8397C82.0379 68.1663 82.1379 68.543 82.1379 68.9697C82.1379 69.4497 82.0079 69.8663 81.7479 70.2197C81.4879 70.5663 81.0979 70.8163 80.5779 70.9697L82.3379 73.7897H81.0179L79.4679 71.1097H78.0379V73.7897H76.8379ZM78.0379 70.1097H79.2879C79.9013 70.1097 80.3279 70.0097 80.5679 69.8097C80.8146 69.6097 80.9379 69.3297 80.9379 68.9697C80.9379 68.6097 80.8146 68.3297 80.5679 68.1297C80.3279 67.9297 79.9013 67.8297 79.2879 67.8297H78.0379V70.1097ZM83.907 73.7897V66.7897H85.107V73.7897H83.907ZM87.1334 73.7897V66.7897H91.8334V67.8297H88.3334V69.6697H91.5334V70.7097H88.3334V72.7497H91.8334V73.7897H87.1334ZM95.7591 73.8997C95.1591 73.8997 94.6624 73.813 94.2691 73.6397C93.8758 73.4663 93.5758 73.2297 93.3691 72.9297C93.1691 72.623 93.0491 72.2763 93.0091 71.8897H94.2091C94.2624 72.163 94.3991 72.3897 94.6191 72.5697C94.8391 72.7497 95.2191 72.8397 95.7591 72.8397C96.3191 72.8397 96.7158 72.7497 96.9491 72.5697C97.1891 72.383 97.3091 72.1563 97.3091 71.8897C97.3091 71.6697 97.2424 71.4897 97.1091 71.3497C96.9758 71.2097 96.7691 71.0897 96.4891 70.9897C96.2158 70.883 95.8658 70.7863 95.4391 70.6997C94.9591 70.593 94.5524 70.4597 94.2191 70.2997C93.8858 70.133 93.6324 69.913 93.4591 69.6397C93.2924 69.3663 93.2091 69.0163 93.2091 68.5897C93.2091 68.2363 93.3058 67.9163 93.4991 67.6297C93.6924 67.343 93.9758 67.113 94.3491 66.9397C94.7291 66.7663 95.1991 66.6797 95.7591 66.6797C96.3058 66.6797 96.7591 66.763 97.1191 66.9297C97.4858 67.0897 97.7658 67.313 97.9591 67.5997C98.1591 67.8863 98.2758 68.2163 98.3091 68.5897H97.1091C97.0558 68.3363 96.9191 68.133 96.6991 67.9797C96.4858 67.8197 96.1724 67.7397 95.7591 67.7397C95.2791 67.7397 94.9324 67.823 94.7191 67.9897C94.5124 68.1563 94.4091 68.3563 94.4091 68.5897C94.4091 68.9097 94.5424 69.1497 94.8091 69.3097C95.0758 69.4697 95.4858 69.6063 96.0391 69.7197C96.4524 69.8063 96.8124 69.9097 97.1191 70.0297C97.4258 70.143 97.6824 70.283 97.8891 70.4497C98.0958 70.6097 98.2491 70.8097 98.3491 71.0497C98.4558 71.283 98.5091 71.563 98.5091 71.8897C98.5091 72.2763 98.4058 72.623 98.1991 72.9297C97.9991 73.2297 97.6958 73.4663 97.2891 73.6397C96.8824 73.813 96.3724 73.8997 95.7591 73.8997Z" fill="#333333"/>
<path d="M36.0156 42.7897V42.4257C38.0316 41.6417 38.3396 41.4177 38.3396 39.2617V27.6137C38.3396 26.2137 37.7516 25.7657 35.5956 25.0937V24.7857L41.6716 22.6297V39.2617C41.6716 41.4177 41.9796 41.6417 43.9956 42.4257V42.7897H36.0156ZM52.7388 43.1537C48.9028 43.1537 45.5988 39.2617 45.5988 32.9897C45.5988 26.5217 49.0988 22.7697 52.7108 22.7697C56.4068 22.7697 59.8508 26.6337 59.8508 33.0457C59.8508 39.3457 56.5468 43.1537 52.7388 43.1537ZM52.7388 41.9217C54.9228 41.9217 56.3788 38.6737 56.3788 32.9617C56.3788 26.7177 54.6428 24.0017 52.6828 24.0017C50.7508 24.0017 49.0428 26.7177 49.0428 32.9617C49.0428 39.2617 50.7788 41.9217 52.7388 41.9217ZM69.0077 43.1537C65.1717 43.1537 61.8677 39.2617 61.8677 32.9897C61.8677 26.5217 65.3677 22.7697 68.9797 22.7697C72.6757 22.7697 76.1197 26.6337 76.1197 33.0457C76.1197 39.3457 72.8157 43.1537 69.0077 43.1537ZM69.0077 41.9217C71.1917 41.9217 72.6477 38.6737 72.6477 32.9617C72.6477 26.7177 70.9117 24.0017 68.9517 24.0017C67.0197 24.0017 65.3117 26.7177 65.3117 32.9617C65.3117 39.2617 67.0477 41.9217 69.0077 41.9217ZM84.0166 43.3217L83.0926 42.8177L96.7286 22.2937L97.6246 22.8257L84.0166 43.3217ZM83.4006 35.4257C80.1526 35.4257 78.0806 32.6817 78.0806 29.2377C78.0806 25.8777 80.0686 22.7977 83.4846 22.7977C86.7046 22.7977 88.8046 25.5417 88.8046 29.0137C88.8046 32.3457 86.8166 35.4257 83.4006 35.4257ZM83.7926 34.5017C85.1366 34.5017 86.2846 33.1297 86.2846 30.1617C86.2846 27.3897 85.2766 23.6937 83.0926 23.6937C81.6646 23.6937 80.5726 25.2337 80.5726 28.0337C80.5726 30.7497 81.6086 34.5017 83.7926 34.5017ZM97.4286 42.9297C94.2086 42.9297 92.1086 40.1857 92.1086 36.7137C92.1086 33.3537 94.0686 30.3017 97.5126 30.3017C100.789 30.3017 102.833 33.0737 102.833 36.4897C102.833 39.8217 100.845 42.9297 97.4286 42.9297ZM97.8206 42.0057C99.1366 42.0057 100.341 40.6897 100.341 37.6937C100.341 34.9217 99.3046 31.2257 97.0926 31.2257C95.7766 31.2257 94.6006 32.5697 94.6006 35.4817C94.6006 38.2817 95.6086 42.0057 97.8206 42.0057Z" fill="#333333"/>
<path d="M115.077 3.12308C117.454 5.29364 117.879 8.70247 117.879 8.70247C117.879 8.70247 114.455 8.58808 112.078 6.41752C109.701 4.24697 109.275 0.838135 109.275 0.838135C109.275 0.838135 112.7 0.952525 115.077 3.12308Z" fill="#333333"/>
<path d="M98.3718 83.1392C96.3258 85.7701 96.2031 88.873 96.2317 88.8844C96.2231 88.9245 100.523 87.7176 102.452 84.8178C104.381 81.9552 103.443 78.9868 103.471 78.9954C103.46 79.024 100.415 80.5339 98.3718 83.1392Z" fill="#333333"/>
<path d="M101.382 92.2446C97.6099 91.6012 96.2003 88.7443 96.2031 88.7672C96.2488 88.7815 100.292 87.6118 103.776 88.0208C107.295 88.4497 109.364 90.6403 109.364 90.6632C109.412 90.6746 105.2 92.8995 101.385 92.2418L101.382 92.2446Z" fill="#333333"/>
<path d="M105.831 79.8561C104.424 82.7387 104.929 85.7558 104.955 85.7615C104.952 85.8015 108.73 83.9227 110.003 80.7912C111.278 77.697 109.826 74.9831 109.854 74.9888C109.848 75.0174 107.237 76.9992 105.831 79.8589V79.8561Z" fill="#333333"/>
<path d="M110.439 88.1437C106.77 88.1551 104.903 85.6299 104.906 85.6528C104.949 85.6585 108.493 83.854 111.875 83.6624C115.29 83.4823 117.681 85.2496 117.684 85.2725C117.73 85.2753 114.146 88.1408 110.436 88.1437H110.439Z" fill="#333333"/>
<path d="M112.271 75.4121C111.472 78.4435 112.537 81.2717 112.56 81.2717C112.56 81.3118 115.798 78.8524 116.446 75.598C117.1 72.3808 115.211 69.9986 115.233 69.9957C115.233 70.0243 113.073 72.4008 112.271 75.4092V75.4121Z" fill="#333333"/>
<path d="M118.238 82.6473C114.737 83.2821 112.488 81.1573 112.494 81.1802C112.531 81.1802 115.559 78.8323 118.778 78.0659C122.028 77.3052 124.664 78.6036 124.67 78.6236C124.713 78.6207 121.777 82.0124 118.238 82.6473Z" fill="#333333"/>
<path d="M117.647 69.9957C117.424 73.0756 118.971 75.6323 118.994 75.6294C118.999 75.6694 121.673 72.7239 121.727 69.4495C121.793 66.2065 119.539 64.219 119.562 64.2133C119.562 64.2419 117.878 66.9357 117.647 69.9928V69.9957Z" fill="#333333"/>
<path d="M124.726 75.9812C121.456 77.2052 118.904 75.5294 118.91 75.5522C118.944 75.5465 121.433 72.7497 124.426 71.4399C127.448 70.133 130.247 70.9337 130.256 70.9538C130.296 70.9423 128.033 74.7572 124.726 75.9841V75.9812Z" fill="#333333"/>
<path d="M121.914 63.7871C122.231 66.827 124.188 69.0404 124.208 69.0347C124.22 69.0719 126.306 65.7403 125.8 62.5374C125.312 59.363 122.773 57.8188 122.796 57.8102C122.804 57.8388 121.606 60.77 121.914 63.7871Z" fill="#333333"/>
<path d="M129.856 68.3685C126.879 70.1329 124.106 68.949 124.117 68.969C124.149 68.9576 126.078 65.8004 128.783 63.993C131.514 62.1828 134.39 62.4659 134.398 62.4859C134.436 62.4688 132.866 66.5926 129.856 68.3656V68.3685Z" fill="#333333"/>
<path d="M125.023 56.9694C125.845 59.8864 128.136 61.6995 128.156 61.688C128.174 61.7224 129.649 58.1019 128.622 55.0505C127.614 52.0278 124.872 50.964 124.889 50.9525C124.901 50.9811 124.216 54.0696 125.023 56.9666V56.9694Z" fill="#333333"/>
<path d="M133.567 60.0379C130.95 62.2914 128.042 61.6251 128.057 61.6423C128.085 61.6251 129.438 58.202 131.786 55.9485C134.158 53.6893 137.022 53.4491 137.037 53.4691C137.071 53.4462 136.218 57.7702 133.57 60.0379H133.567Z" fill="#333333"/>
<path d="M126.935 49.7313C128.225 52.4481 130.77 53.8151 130.787 53.8008C130.807 53.8322 131.652 50.0173 130.142 47.1976C128.653 44.4036 125.788 43.846 125.805 43.8317C125.822 43.8574 125.665 47.0289 126.935 49.7313Z" fill="#333333"/>
<path d="M135.811 51.2128C133.623 53.8924 130.664 53.758 130.678 53.7751C130.701 53.7551 131.46 50.1547 133.383 47.5151C135.329 44.8641 138.094 44.112 138.111 44.1263C138.14 44.1006 138.028 48.5132 135.808 51.2128H135.811Z" fill="#333333"/>
<path d="M127.601 42.2562C129.319 44.707 132.038 45.5935 132.055 45.5792C132.081 45.6078 132.272 41.6956 130.312 39.1762C128.377 36.6768 125.475 36.6367 125.492 36.6224C125.515 36.6453 125.906 39.8225 127.601 42.259V42.2562Z" fill="#333333"/>
<path d="M136.54 42.1217C134.848 45.1617 131.923 45.5592 131.943 45.5735C131.963 45.5506 132.106 41.8644 133.539 38.9045C134.994 35.9304 137.565 34.6835 137.585 34.6978C137.611 34.6663 138.258 39.0618 136.538 42.1246L136.54 42.1217Z" fill="#333333"/>
<path d="M126.976 34.7321C129.082 36.8569 131.895 37.243 131.907 37.2258C131.938 37.2516 131.453 33.3366 129.085 31.1803C126.745 29.0384 123.894 29.5159 123.908 29.4988C123.934 29.5188 124.896 32.6188 126.976 34.735V34.7321Z" fill="#333333"/>
<path d="M135.698 32.9876C134.571 36.3107 131.775 37.2286 131.798 37.2372C131.815 37.2115 131.321 33.5338 132.194 30.328C133.084 27.1051 135.373 25.4007 135.396 25.4093C135.419 25.3749 136.848 29.6388 135.698 32.9876Z" fill="#333333"/>
<path d="M125.012 27.3452C127.469 29.0925 130.286 28.9695 130.294 28.9524C130.331 28.9724 129.147 25.1575 126.41 23.413C123.708 21.6829 120.994 22.6609 121.006 22.6409C121.037 22.6552 122.584 25.6036 125.012 27.3452Z" fill="#333333"/>
<path d="M133.233 24.045C132.743 27.5654 130.166 28.9781 130.192 28.9867C130.203 28.9581 129.059 25.3777 129.301 22.0089C129.561 18.6201 131.464 16.501 131.49 16.5067C131.51 16.4695 133.747 20.4961 133.233 24.045Z" fill="#333333"/>
<path d="M121.668 20.2817C124.43 21.6086 127.163 20.9823 127.172 20.9623C127.215 20.9766 125.309 17.3562 122.247 16.075C119.222 14.7996 116.74 16.2552 116.748 16.2351C116.785 16.2466 118.94 18.9605 121.668 20.2817Z" fill="#333333"/>
<path d="M129.09 15.5144C129.31 19.1378 127.047 21.0109 127.075 21.0138C127.084 20.9852 125.263 17.5935 124.804 14.1532C124.356 10.69 125.78 8.21634 125.808 8.2192C125.823 8.17916 128.89 11.8568 129.087 15.5144H129.09Z" fill="#333333"/>
<path d="M116.895 13.7329C119.919 14.6022 122.482 13.4898 122.488 13.4726C122.536 13.4812 119.888 10.1553 116.541 9.37172C113.236 8.59101 111.076 10.4813 111.082 10.4613C111.125 10.467 113.904 12.8663 116.892 13.7357L116.895 13.7329Z" fill="#333333"/>
<path d="M123.221 7.63295C124.223 11.262 122.374 13.5412 122.405 13.5412C122.408 13.5098 119.897 10.4012 118.662 6.98665C117.435 3.54922 118.279 0.789554 118.311 0.789554C118.322 0.749517 122.237 3.9696 123.221 7.63009V7.63295Z" fill="#333333"/>
<path d="M84.1357 89.8366L84.1956 89.1703C89.6943 89.6679 95.1759 89.0559 100.486 87.3458C105.663 85.6814 110.454 83.0504 114.728 79.5301C123.6 72.2234 129.321 61.7996 130.839 50.1747C132.081 40.6545 131.444 32.1725 128.944 24.963C126.262 17.2188 121.483 11.1619 114.74 6.95515L115.091 6.38892C121.965 10.6786 126.839 16.8556 129.572 24.7457C132.106 32.0552 132.754 40.6402 131.498 50.2633C129.96 62.057 124.153 72.6352 115.151 80.0477C110.81 83.6224 105.945 86.2905 100.689 87.9835C95.2929 89.7194 89.7229 90.3428 84.1328 89.8366H84.1357Z" fill="#333333"/>
<path d="M23.1166 3.1232C20.7396 5.29376 20.3145 8.70259 20.3145 8.70259C20.3145 8.70259 23.7387 8.5882 26.1157 6.41764C28.4898 4.24709 28.9178 0.838257 28.9178 0.838257C28.9178 0.838257 25.4936 0.952647 23.1166 3.1232Z" fill="#333333"/>
<path d="M39.8224 83.1392C41.8684 85.7701 41.9911 88.873 41.9625 88.8844C41.9711 88.9245 37.6708 87.7176 35.7419 84.8178C33.8129 81.9552 34.7517 78.9868 34.7232 78.9954C34.7346 79.024 37.7793 80.5339 39.8224 83.1392Z" fill="#333333"/>
<path d="M36.8098 92.2446C40.5822 91.6012 41.9918 88.7443 41.989 88.7672C41.9433 88.7815 37.8999 87.6118 34.4157 88.0208C30.8973 88.4497 28.8285 90.6403 28.8285 90.6632C28.78 90.6746 32.9918 92.8995 36.807 92.2418L36.8098 92.2446Z" fill="#333333"/>
<path d="M32.3611 79.8562C33.7679 82.7388 33.2628 85.7559 33.2372 85.7616C33.24 85.8016 29.462 83.9228 28.1893 80.7914C26.9138 77.6971 28.3662 74.9832 28.3377 74.9889C28.3434 75.0175 30.9543 76.9993 32.3611 79.8591V79.8562Z" fill="#333333"/>
<path d="M27.7533 88.1438C31.423 88.1552 33.2892 85.6301 33.2863 85.6529C33.2464 85.6587 29.6994 83.8542 26.318 83.6626C22.9023 83.4824 20.5111 85.2497 20.5082 85.2726C20.4626 85.2755 24.0466 88.1409 27.7562 88.1438H27.7533Z" fill="#333333"/>
<path d="M25.9216 75.4121C26.7206 78.4435 25.6562 81.2717 25.6334 81.2717C25.6334 81.3118 22.3946 78.8524 21.7469 75.598C21.0934 72.3808 22.9825 69.9986 22.9596 69.9957C22.9596 70.0243 25.1197 72.4008 25.9216 75.4092V75.4121Z" fill="#333333"/>
<path d="M19.9577 82.6473C23.459 83.2821 25.7075 81.1573 25.7018 81.1802C25.6647 81.1802 22.6371 78.8323 19.4184 78.0659C16.1682 77.3052 13.5316 78.6036 13.5259 78.6236C13.483 78.6207 16.4193 82.0124 19.9577 82.6473Z" fill="#333333"/>
<path d="M20.5468 69.9957C20.7694 73.0756 19.2227 75.6323 19.1999 75.6294C19.1942 75.6694 16.5205 72.7239 16.4662 69.4495C16.4006 66.2065 18.6549 64.219 18.6321 64.2133C18.6321 64.2419 20.3156 66.9357 20.5468 69.9928V69.9957Z" fill="#333333"/>
<path d="M13.4681 75.9812C16.7383 77.2052 19.2893 75.5294 19.2836 75.5522C19.2494 75.5465 16.7611 72.7497 13.7678 71.4399C10.7459 70.133 7.94658 70.9337 7.93802 70.9538C7.89807 70.9423 10.1609 74.7572 13.4681 75.9841V75.9812Z" fill="#333333"/>
<path d="M16.2818 63.7872C15.965 66.8271 14.0075 69.0406 13.9875 69.0349C13.9761 69.072 11.8902 65.7404 12.3953 62.5375C12.8832 59.3632 15.4228 57.8189 15.4 57.8103C15.3915 57.8389 16.5899 60.7701 16.2818 63.7872Z" fill="#333333"/>
<path d="M8.34032 68.3686C11.3165 70.1331 14.0902 68.9491 14.0787 68.9691C14.0474 68.9577 12.1184 65.8005 9.41324 63.9932C6.68243 62.1829 3.80608 62.466 3.79752 62.4861C3.76042 62.4689 5.32986 66.5927 8.34032 68.3657V68.3686Z" fill="#333333"/>
<path d="M13.1687 56.9694C12.3469 59.8864 10.0555 61.6995 10.0355 61.688C10.0184 61.7224 8.54315 58.1019 9.57042 55.0505C10.5777 52.0278 13.3199 50.964 13.3028 50.9525C13.2914 50.9811 13.9763 54.0696 13.1687 56.9666V56.9694Z" fill="#333333"/>
<path d="M4.62817 60.0379C7.24484 62.2914 10.1526 61.6251 10.1412 61.6423C10.1126 61.6251 8.76006 58.202 6.41162 55.9485C4.04034 53.6893 1.17541 53.4491 1.16114 53.4691C1.1269 53.4462 1.9801 57.7702 4.62817 60.0379Z" fill="#333333"/>
<path d="M11.26 49.7315C9.97021 52.4482 7.42487 53.8152 7.40775 53.8009C7.38778 53.8324 6.54314 50.0174 8.05265 47.1977C9.54218 44.4037 12.4071 43.8461 12.39 43.8318C12.3729 43.8575 12.5298 47.029 11.26 49.7315Z" fill="#333333"/>
<path d="M2.38222 51.2128C4.57087 53.8924 7.52997 53.758 7.51571 53.7751C7.49288 53.7551 6.73384 50.1547 4.81057 47.5151C2.86162 44.8641 0.0965559 44.112 0.0794348 44.1263C0.0508996 44.1006 0.162187 48.5132 2.38222 51.2128Z" fill="#333333"/>
<path d="M10.5941 42.2562C8.87631 44.707 6.1569 45.5935 6.13978 45.5792C6.1141 45.6078 5.92291 41.6956 7.88328 39.1762C9.81797 36.6768 12.72 36.6367 12.7029 36.6224C12.68 36.6453 12.2891 39.8225 10.5941 42.259V42.2562Z" fill="#333333"/>
<path d="M1.65363 42.1217C3.34577 45.1617 6.27062 45.5592 6.25065 45.5735C6.23068 45.5506 6.088 41.8644 4.65553 38.9045C3.20024 35.9304 0.629217 34.6835 0.609242 34.6978C0.58356 34.6663 -0.0641887 39.0618 1.65648 42.1246L1.65363 42.1217Z" fill="#333333"/>
<path d="M11.2194 34.7321C9.11349 36.8569 6.29992 37.243 6.2885 37.2258C6.25712 37.2516 6.74221 33.3366 9.11063 31.1803C11.4505 29.0384 14.3012 29.5159 14.2869 29.4988C14.2612 29.5188 13.2996 32.6188 11.2194 34.735V34.7321Z" fill="#333333"/>
<path d="M2.49576 32.9876C3.6229 36.3107 6.41935 37.2286 6.39652 37.2372C6.3794 37.2115 6.87306 33.5338 5.99988 30.328C5.10958 27.1051 2.82106 25.4007 2.79823 25.4093C2.7754 25.3749 1.34579 29.6388 2.49576 32.9876Z" fill="#333333"/>
<path d="M13.1831 27.3452C10.7262 29.0925 7.9098 28.9695 7.90123 28.9524C7.86414 28.9724 9.04835 25.1575 11.7849 23.413C14.4872 21.6829 17.2009 22.6609 17.1894 22.6409C17.1581 22.6552 15.6114 25.6036 13.1831 27.3452Z" fill="#333333"/>
<path d="M4.96136 24.045C5.45216 27.5654 8.02889 28.9781 8.00321 28.9867C7.9918 28.9581 9.13606 25.3777 8.89351 22.0089C8.63384 18.6201 6.73054 16.501 6.70486 16.5067C6.68488 16.4695 4.44772 20.4961 4.96136 24.045Z" fill="#333333"/>
<path d="M16.5286 20.2816C13.7664 21.6085 11.0327 20.9822 11.0241 20.9622C10.9813 20.9765 12.8875 17.3561 15.9493 16.0749C18.974 14.7994 21.4566 16.255 21.448 16.235C21.411 16.2465 19.2565 18.9604 16.5286 20.2816Z" fill="#333333"/>
<path d="M9.10292 15.5144C8.8832 19.1378 11.146 21.0109 11.1175 21.0138C11.1089 20.9852 12.9295 17.5935 13.3889 14.1532C13.8369 10.69 12.413 8.21634 12.3845 8.2192C12.3702 8.17916 9.30266 11.8568 9.10577 15.5144H9.10292Z" fill="#333333"/>
<path d="M21.3006 13.7329C18.2759 14.6022 15.7134 13.4898 15.7077 13.4726C15.6592 13.4812 18.3072 10.1553 21.6544 9.37172C24.9588 8.59101 27.1189 10.4813 27.1132 10.4613C27.0704 10.467 24.2911 12.8663 21.3034 13.7357L21.3006 13.7329Z" fill="#333333"/>
<path d="M14.9716 7.63295C13.97 11.262 15.8191 13.5412 15.7877 13.5412C15.7848 13.5098 18.2959 10.4012 19.5315 6.98665C20.7585 3.54922 19.9167 0.789554 19.8853 0.789554C19.8739 0.749517 15.9589 3.9696 14.9744 7.63009L14.9716 7.63295Z" fill="#333333"/>
<path d="M54.0587 89.8368L53.9988 89.1704C48.5001 89.668 43.0185 89.0561 37.7081 87.3459C32.5318 85.6815 27.7407 83.0506 23.4662 79.5302C14.5946 72.2235 8.87326 61.7997 7.35518 50.1748C6.1139 40.6547 6.75024 32.1726 9.24992 24.9632C11.9322 17.2189 16.7119 11.162 23.4547 6.95527L23.1038 6.38904C16.2296 10.6787 11.3558 16.8557 8.62215 24.7458C6.08822 32.0554 5.44047 40.6404 6.69602 50.2634C8.23407 62.0571 14.041 72.6353 23.0438 80.0478C27.384 83.6225 32.2493 86.2907 37.5055 87.9836C42.9015 89.7195 48.4715 90.3429 54.0616 89.8368H54.0587Z" fill="#333333"/>
<path d="M69.0961 85.7897L64.0625 89.4988L69.0961 93.2107L74.1326 89.4988L69.0961 85.7897Z" fill="#333333"/>
</svg>
