<svg width="139" height="94" viewBox="0 0 139 94" fill="none" xmlns="http://www.w3.org/2000/svg">
<path d="M53.4873 61.7897V54.7897H54.6873V57.6697H58.0873V54.7897H59.2873V61.7897H58.0873V58.7097H54.6873V61.7897H53.4873ZM60.4583 61.7897L63.1083 54.7897H64.3083L66.9583 61.7897H65.6783L65.0883 60.2097H62.2483L61.6583 61.7897H60.4583ZM62.6383 59.1697H64.6983L63.6783 56.2897L62.6383 59.1697ZM68.1285 61.7897V54.7897H70.6785C71.3052 54.7897 71.8218 54.883 72.2285 55.0697C72.6352 55.2497 72.9352 55.5063 73.1285 55.8397C73.3285 56.173 73.4285 56.5663 73.4285 57.0197C73.4285 57.473 73.3285 57.8663 73.1285 58.1997C72.9352 58.533 72.6352 58.793 72.2285 58.9797C71.8218 59.1597 71.3052 59.2497 70.6785 59.2497H69.3285V61.7897H68.1285ZM69.3285 58.2097H70.5785C71.2118 58.2097 71.6452 58.113 71.8785 57.9197C72.1118 57.7197 72.2285 57.4197 72.2285 57.0197C72.2285 56.6263 72.1118 56.3297 71.8785 56.1297C71.6452 55.9297 71.2118 55.8297 70.5785 55.8297H69.3285V58.2097ZM74.8534 61.7897V54.7897H77.4034C78.0301 54.7897 78.5467 54.883 78.9534 55.0697C79.3601 55.2497 79.6601 55.5063 79.8534 55.8397C80.0534 56.173 80.1534 56.5663 80.1534 57.0197C80.1534 57.473 80.0534 57.8663 79.8534 58.1997C79.6601 58.533 79.3601 58.793 78.9534 58.9797C78.5467 59.1597 78.0301 59.2497 77.4034 59.2497H76.0534V61.7897H74.8534ZM76.0534 58.2097H77.3034C77.9367 58.2097 78.3701 58.113 78.6034 57.9197C78.8367 57.7197 78.9534 57.4197 78.9534 57.0197C78.9534 56.6263 78.8367 56.3297 78.6034 56.1297C78.3701 55.9297 77.9367 55.8297 77.3034 55.8297H76.0534V58.2097ZM83.3807 61.7897V59.0897L80.6807 54.7897H82.1007L84.0007 57.8897L85.7607 54.7897H87.0807L84.5807 59.0897V61.7897H83.3807ZM51.982 73.8997C51.4086 73.8997 50.892 73.7797 50.432 73.5397C49.972 73.293 49.6053 72.9097 49.332 72.3897C49.0653 71.863 48.932 71.1797 48.932 70.3397V70.1397C48.932 69.533 49.012 69.013 49.172 68.5797C49.332 68.1397 49.5486 67.7797 49.822 67.4997C50.102 67.2197 50.4253 67.013 50.792 66.8797C51.1653 66.7463 51.562 66.6797 51.982 66.6797C52.3686 66.6797 52.7286 66.7297 53.062 66.8297C53.3953 66.923 53.6886 67.0663 53.942 67.2597C54.1953 67.453 54.3986 67.693 54.552 67.9797C54.7053 68.2663 54.7986 68.603 54.832 68.9897H53.572C53.4853 68.5563 53.2986 68.2397 53.012 68.0397C52.732 67.8397 52.3886 67.7397 51.982 67.7397C51.6886 67.7397 51.4053 67.8163 51.132 67.9697C50.8586 68.1163 50.632 68.363 50.452 68.7097C50.2786 69.0563 50.192 69.533 50.192 70.1397V70.3397C50.192 70.8197 50.2453 71.223 50.352 71.5497C50.4586 71.8697 50.5986 72.123 50.772 72.3097C50.952 72.4963 51.1453 72.633 51.352 72.7197C51.5653 72.7997 51.7753 72.8397 51.982 72.8397C52.462 72.8397 52.832 72.7297 53.092 72.5097C53.3586 72.283 53.5186 71.9763 53.572 71.5897H54.832C54.792 72.003 54.692 72.3563 54.532 72.6497C54.3786 72.943 54.172 73.183 53.912 73.3697C53.6586 73.5497 53.3686 73.683 53.042 73.7697C52.7153 73.8563 52.362 73.8997 51.982 73.8997ZM56.3096 73.7897V66.7897H57.5096V72.7497H60.9096V73.7897H56.3096ZM62.236 73.7897V66.7897H63.436V73.7897H62.236ZM65.4625 73.7897V66.7897H70.1625V67.8297H66.6625V69.6697H69.8625V70.7097H66.6625V72.7497H70.1625V73.7897H65.4625ZM71.7382 73.7897V66.7897H72.8982L76.3382 71.7897V66.7897H77.5382V73.7897H76.3782L72.9382 68.7897V73.7897H71.7382ZM81.1092 73.7897V67.8297H78.7592V66.7897H84.6592V67.8297H82.3092V73.7897H81.1092ZM88.1337 73.8997C87.5337 73.8997 87.037 73.813 86.6437 73.6397C86.2503 73.4663 85.9503 73.2297 85.7437 72.9297C85.5437 72.623 85.4237 72.2763 85.3837 71.8897H86.5837C86.637 72.163 86.7737 72.3897 86.9937 72.5697C87.2137 72.7497 87.5937 72.8397 88.1337 72.8397C88.6937 72.8397 89.0903 72.7497 89.3237 72.5697C89.5637 72.383 89.6837 72.1563 89.6837 71.8897C89.6837 71.6697 89.617 71.4897 89.4837 71.3497C89.3503 71.2097 89.1437 71.0897 88.8637 70.9897C88.5903 70.883 88.2403 70.7863 87.8137 70.6997C87.3337 70.593 86.927 70.4597 86.5937 70.2997C86.2603 70.133 86.007 69.913 85.8337 69.6397C85.667 69.3663 85.5837 69.0163 85.5837 68.5897C85.5837 68.2363 85.6803 67.9163 85.8737 67.6297C86.067 67.343 86.3503 67.113 86.7237 66.9397C87.1037 66.7663 87.5737 66.6797 88.1337 66.6797C88.6803 66.6797 89.1337 66.763 89.4937 66.9297C89.8603 67.0897 90.1403 67.313 90.3337 67.5997C90.5337 67.8863 90.6503 68.2163 90.6837 68.5897H89.4837C89.4303 68.3363 89.2937 68.133 89.0737 67.9797C88.8603 67.8197 88.547 67.7397 88.1337 67.7397C87.6537 67.7397 87.307 67.823 87.0937 67.9897C86.887 68.1563 86.7837 68.3563 86.7837 68.5897C86.7837 68.9097 86.917 69.1497 87.1837 69.3097C87.4503 69.4697 87.8603 69.6063 88.4137 69.7197C88.827 69.8063 89.187 69.9097 89.4937 70.0297C89.8003 70.143 90.057 70.283 90.2637 70.4497C90.4703 70.6097 90.6237 70.8097 90.7237 71.0497C90.8303 71.283 90.8837 71.563 90.8837 71.8897C90.8837 72.2763 90.7803 72.623 90.5737 72.9297C90.3737 73.2297 90.0703 73.4663 89.6637 73.6397C89.257 73.813 88.747 73.8997 88.1337 73.8997Z" fill="#333333"/>
<path d="M35.553 42.7897V42.4257C37.569 41.6417 37.877 41.4177 37.877 39.2617V27.6137C37.877 26.2137 37.289 25.7657 35.133 25.0937V24.7857L41.209 22.6297V39.2617C41.209 41.4177 41.517 41.6417 43.533 42.4257V42.7897H35.553ZM52.2763 43.1537C48.4403 43.1537 45.1363 39.2617 45.1363 32.9897C45.1363 26.5217 48.6363 22.7697 52.2483 22.7697C55.9443 22.7697 59.3883 26.6337 59.3883 33.0457C59.3883 39.3457 56.0843 43.1537 52.2763 43.1537ZM52.2763 41.9217C54.4603 41.9217 55.9163 38.6737 55.9163 32.9617C55.9163 26.7177 54.1803 24.0017 52.2203 24.0017C50.2883 24.0017 48.5803 26.7177 48.5803 32.9617C48.5803 39.2617 50.3163 41.9217 52.2763 41.9217ZM68.5451 43.1537C64.7091 43.1537 61.4051 39.2617 61.4051 32.9897C61.4051 26.5217 64.9051 22.7697 68.5171 22.7697C72.2131 22.7697 75.6571 26.6337 75.6571 33.0457C75.6571 39.3457 72.3531 43.1537 68.5451 43.1537ZM68.5451 41.9217C70.7291 41.9217 72.1851 38.6737 72.1851 32.9617C72.1851 26.7177 70.4491 24.0017 68.4891 24.0017C66.5571 24.0017 64.8491 26.7177 64.8491 32.9617C64.8491 39.2617 66.5851 41.9217 68.5451 41.9217ZM84.814 43.1537C80.978 43.1537 77.674 39.2617 77.674 32.9897C77.674 26.5217 81.174 22.7697 84.786 22.7697C88.482 22.7697 91.926 26.6337 91.926 33.0457C91.926 39.3457 88.622 43.1537 84.814 43.1537ZM84.814 41.9217C86.998 41.9217 88.454 38.6737 88.454 32.9617C88.454 26.7177 86.718 24.0017 84.758 24.0017C82.826 24.0017 81.118 26.7177 81.118 32.9617C81.118 39.2617 82.854 41.9217 84.814 41.9217ZM98.8429 39.1217V34.0257H93.6069V32.8217H98.8429V27.7817H99.9909V32.8217H105.227V34.0257H99.9909V39.1217H98.8429Z" fill="#333333"/>
<path d="M115.885 3.12308C118.262 5.29364 118.687 8.70247 118.687 8.70247C118.687 8.70247 115.263 8.58808 112.886 6.41752C110.509 4.24697 110.084 0.838135 110.084 0.838135C110.084 0.838135 113.508 0.952525 115.885 3.12308Z" fill="#333333"/>
<path d="M99.1804 83.1392C97.1344 85.7701 97.0117 88.873 97.0403 88.8844C97.0317 88.9245 101.332 87.7176 103.261 84.8178C105.19 81.9552 104.251 78.9868 104.28 78.9954C104.268 79.024 101.224 80.5339 99.1804 83.1392Z" fill="#333333"/>
<path d="M102.191 92.2446C98.4185 91.6012 97.0089 88.7443 97.0117 88.7672C97.0574 88.7815 101.101 87.6118 104.585 88.0208C108.103 88.4497 110.172 90.6403 110.172 90.6632C110.221 90.6746 106.009 92.8995 102.194 92.2418L102.191 92.2446Z" fill="#333333"/>
<path d="M106.639 79.8561C105.232 82.7387 105.738 85.7558 105.763 85.7615C105.76 85.8015 109.538 83.9227 110.811 80.7912C112.087 77.697 110.634 74.9831 110.663 74.9888C110.657 75.0174 108.046 76.9992 106.639 79.8589V79.8561Z" fill="#333333"/>
<path d="M111.248 88.1437C107.578 88.1551 105.712 85.6299 105.715 85.6528C105.758 85.6585 109.302 83.854 112.683 83.6624C116.099 83.4823 118.49 85.2496 118.493 85.2725C118.539 85.2753 114.955 88.1408 111.245 88.1437H111.248Z" fill="#333333"/>
<path d="M113.08 75.4121C112.281 78.4435 113.345 81.2717 113.368 81.2717C113.368 81.3118 116.607 78.8524 117.255 75.598C117.908 72.3808 116.019 69.9986 116.042 69.9957C116.042 70.0243 113.882 72.4008 113.08 75.4092V75.4121Z" fill="#333333"/>
<path d="M119.047 82.6473C115.546 83.2821 113.297 81.1573 113.303 81.1802C113.34 81.1802 116.367 78.8323 119.586 78.0659C122.836 77.3052 125.473 78.6036 125.479 78.6236C125.522 78.6207 122.585 82.0124 119.047 82.6473Z" fill="#333333"/>
<path d="M118.455 69.9957C118.233 73.0756 119.78 75.6323 119.802 75.6294C119.808 75.6694 122.482 72.7239 122.536 69.4495C122.602 66.2065 120.347 64.219 120.37 64.2133C120.37 64.2419 118.687 66.9357 118.455 69.9928V69.9957Z" fill="#333333"/>
<path d="M125.534 75.9812C122.264 77.2052 119.713 75.5294 119.719 75.5522C119.753 75.5465 122.241 72.7497 125.235 71.4399C128.256 70.133 131.056 70.9337 131.064 70.9538C131.104 70.9423 128.841 74.7572 125.534 75.9841V75.9812Z" fill="#333333"/>
<path d="M122.723 63.7871C123.039 66.827 124.997 69.0404 125.017 69.0347C125.028 69.0719 127.114 65.7403 126.609 62.5374C126.121 59.363 123.581 57.8188 123.604 57.8102C123.613 57.8388 122.414 60.77 122.723 63.7871Z" fill="#333333"/>
<path d="M130.664 68.3685C127.688 70.1329 124.914 68.949 124.926 68.969C124.957 68.9576 126.886 65.8004 129.591 63.993C132.322 62.1828 135.198 62.4659 135.207 62.4859C135.244 62.4688 133.675 66.5926 130.664 68.3656V68.3685Z" fill="#333333"/>
<path d="M125.832 56.9694C126.654 59.8864 128.945 61.6995 128.965 61.688C128.982 61.7224 130.457 58.1019 129.43 55.0505C128.423 52.0278 125.681 50.964 125.698 50.9525C125.709 50.9811 125.024 54.0696 125.832 56.9666V56.9694Z" fill="#333333"/>
<path d="M134.375 60.0379C131.759 62.2914 128.851 61.6251 128.865 61.6423C128.894 61.6251 130.246 58.202 132.595 55.9485C134.966 53.6893 137.831 53.4491 137.845 53.4691C137.88 53.4462 137.026 57.7702 134.378 60.0379H134.375Z" fill="#333333"/>
<path d="M127.743 49.7313C129.033 52.4481 131.578 53.8151 131.596 53.8008C131.616 53.8322 132.46 50.0173 130.951 47.1976C129.461 44.4036 126.596 43.846 126.613 43.8317C126.63 43.8574 126.474 47.0289 127.743 49.7313Z" fill="#333333"/>
<path d="M136.62 51.2128C134.431 53.8924 131.472 53.758 131.486 53.7751C131.509 53.7551 132.268 50.1547 134.192 47.5151C136.138 44.8641 138.903 44.112 138.92 44.1263C138.948 44.1006 138.837 48.5132 136.617 51.2128H136.62Z" fill="#333333"/>
<path d="M128.41 42.2562C130.127 44.707 132.847 45.5935 132.864 45.5792C132.89 45.6078 133.081 41.6956 131.12 39.1762C129.186 36.6768 126.284 36.6367 126.301 36.6224C126.324 36.6453 126.715 39.8225 128.41 42.259V42.2562Z" fill="#333333"/>
<path d="M137.349 42.1217C135.657 45.1617 132.732 45.5592 132.752 45.5735C132.772 45.5506 132.915 41.8644 134.347 38.9045C135.802 35.9304 138.373 34.6835 138.393 34.6978C138.419 34.6663 139.067 39.0618 137.346 42.1246L137.349 42.1217Z" fill="#333333"/>
<path d="M127.784 34.7321C129.89 36.8569 132.704 37.243 132.715 37.2258C132.747 37.2516 132.262 33.3366 129.893 31.1803C127.553 29.0384 124.703 29.5159 124.717 29.4988C124.743 29.5188 125.704 32.6188 127.784 34.735V34.7321Z" fill="#333333"/>
<path d="M136.507 32.9876C135.38 36.3107 132.583 37.2286 132.606 37.2372C132.623 37.2115 132.13 33.5338 133.003 30.328C133.893 27.1051 136.182 25.4007 136.204 25.4093C136.227 25.3749 137.657 29.6388 136.507 32.9876Z" fill="#333333"/>
<path d="M125.821 27.3452C128.278 29.0925 131.094 28.9695 131.103 28.9524C131.14 28.9724 129.956 25.1575 127.219 23.413C124.517 21.6829 121.803 22.6609 121.814 22.6409C121.846 22.6552 123.392 25.6036 125.821 27.3452Z" fill="#333333"/>
<path d="M134.042 24.045C133.551 27.5654 130.975 28.9781 131 28.9867C131.012 28.9581 129.867 25.3777 130.11 22.0089C130.37 18.6201 132.273 16.501 132.299 16.5067C132.319 16.4695 134.556 20.4961 134.042 24.045Z" fill="#333333"/>
<path d="M122.476 20.2817C125.238 21.6086 127.972 20.9823 127.981 20.9623C128.023 20.9766 126.117 17.3562 123.055 16.075C120.031 14.7996 117.548 16.2552 117.557 16.2351C117.594 16.2466 119.748 18.9605 122.476 20.2817Z" fill="#333333"/>
<path d="M129.899 15.5144C130.118 19.1378 127.855 21.0109 127.884 21.0138C127.892 20.9852 126.072 17.5935 125.613 14.1532C125.165 10.69 126.588 8.21634 126.617 8.2192C126.631 8.17916 129.699 11.8568 129.896 15.5144H129.899Z" fill="#333333"/>
<path d="M117.703 13.7329C120.728 14.6022 123.29 13.4898 123.296 13.4726C123.345 13.4812 120.697 10.1553 117.349 9.37172C114.045 8.59101 111.885 10.4813 111.891 10.4613C111.933 10.467 114.713 12.8663 117.7 13.7357L117.703 13.7329Z" fill="#333333"/>
<path d="M124.03 7.63295C125.032 11.262 123.183 13.5412 123.214 13.5412C123.217 13.5098 120.706 10.4012 119.47 6.98665C118.243 3.54922 119.088 0.789554 119.119 0.789554C119.131 0.749517 123.046 3.9696 124.03 7.63009V7.63295Z" fill="#333333"/>
<path d="M84.9443 89.8366L85.0042 89.1703C90.5029 89.6679 95.9845 89.0559 101.295 87.3458C106.471 85.6814 111.262 83.0504 115.537 79.5301C124.408 72.2234 130.13 61.7996 131.648 50.1747C132.889 40.6545 132.253 32.1725 129.753 24.963C127.071 17.2188 122.291 11.1619 115.548 6.95515L115.899 6.38892C122.773 10.6786 127.647 16.8556 130.381 24.7457C132.915 32.0552 133.563 40.6402 132.307 50.2633C130.769 62.057 124.962 72.6352 115.959 80.0477C111.619 83.6224 106.754 86.2905 101.498 87.9835C96.1015 89.7194 90.5315 90.3428 84.9414 89.8366H84.9443Z" fill="#333333"/>
<path d="M23.9252 3.1232C21.5482 5.29376 21.123 8.70259 21.123 8.70259C21.123 8.70259 24.5473 8.5882 26.9243 6.41764C29.2984 4.24709 29.7264 0.838257 29.7264 0.838257C29.7264 0.838257 26.3022 0.952647 23.9252 3.1232Z" fill="#333333"/>
<path d="M40.631 83.1392C42.677 85.7701 42.7997 88.873 42.7711 88.8844C42.7797 88.9245 38.4794 87.7176 36.5505 84.8178C34.6215 81.9552 35.5603 78.9868 35.5318 78.9954C35.5432 79.024 38.5879 80.5339 40.631 83.1392Z" fill="#333333"/>
<path d="M37.6184 92.2446C41.3908 91.6012 42.8004 88.7443 42.7976 88.7672C42.7519 88.7815 38.7085 87.6118 35.2243 88.0208C31.7059 88.4497 29.6371 90.6403 29.6371 90.6632C29.5886 90.6746 33.8004 92.8995 37.6156 92.2418L37.6184 92.2446Z" fill="#333333"/>
<path d="M33.1697 79.8562C34.5765 82.7388 34.0714 85.7559 34.0458 85.7616C34.0486 85.8016 30.2705 83.9228 28.9979 80.7914C27.7224 77.6971 29.1748 74.9832 29.1463 74.9889C29.152 75.0175 31.7629 76.9993 33.1697 79.8591V79.8562Z" fill="#333333"/>
<path d="M28.5619 88.1438C32.2315 88.1552 34.0977 85.6301 34.0949 85.6529C34.0549 85.6587 30.508 83.8542 27.1266 83.6626C23.7109 83.4824 21.3197 85.2497 21.3168 85.2726C21.2712 85.2755 24.8552 88.1409 28.5648 88.1438H28.5619Z" fill="#333333"/>
<path d="M26.7302 75.4121C27.5292 78.4435 26.4648 81.2717 26.442 81.2717C26.442 81.3118 23.2032 78.8524 22.5555 75.598C21.902 72.3808 23.791 69.9986 23.7682 69.9957C23.7682 70.0243 25.9283 72.4008 26.7302 75.4092V75.4121Z" fill="#333333"/>
<path d="M20.7663 82.6473C24.2675 83.2821 26.5161 81.1573 26.5104 81.1802C26.4733 81.1802 23.4457 78.8323 20.227 78.0659C16.9768 77.3052 14.3402 78.6036 14.3344 78.6236C14.2916 78.6207 17.2279 82.0124 20.7663 82.6473Z" fill="#333333"/>
<path d="M21.3554 69.9957C21.578 73.0756 20.0313 75.6323 20.0085 75.6294C20.0028 75.6694 17.3291 72.7239 17.2748 69.4495C17.2092 66.2065 19.4635 64.219 19.4407 64.2133C19.4407 64.2419 21.1242 66.9357 21.3554 69.9928V69.9957Z" fill="#333333"/>
<path d="M14.2767 75.9812C17.5469 77.2052 20.0979 75.5294 20.0922 75.5522C20.058 75.5465 17.5697 72.7497 14.5764 71.4399C11.5545 70.133 8.75517 70.9337 8.74661 70.9538C8.70667 70.9423 10.9695 74.7572 14.2767 75.9841V75.9812Z" fill="#333333"/>
<path d="M17.0904 63.7872C16.7736 66.8271 14.8161 69.0406 14.7961 69.0349C14.7847 69.072 12.6988 65.7404 13.2039 62.5375C13.6918 59.3632 16.2314 57.8189 16.2086 57.8103C16.2001 57.8389 17.3985 60.7701 17.0904 63.7872Z" fill="#333333"/>
<path d="M9.14891 68.3686C12.1251 70.1331 14.8988 68.9491 14.8873 68.9691C14.856 68.9577 12.927 65.8005 10.2218 63.9932C7.49102 62.1829 4.61467 62.466 4.60611 62.4861C4.56902 62.4689 6.13845 66.5927 9.14891 68.3657V68.3686Z" fill="#333333"/>
<path d="M13.9773 56.9694C13.1555 59.8864 10.8641 61.6995 10.8441 61.688C10.827 61.7224 9.35175 58.1019 10.379 55.0505C11.3863 52.0278 14.1285 50.964 14.1114 50.9525C14.1 50.9811 14.7848 54.0696 13.9773 56.9666V56.9694Z" fill="#333333"/>
<path d="M5.43676 60.0379C8.05344 62.2914 10.9612 61.6251 10.9498 61.6423C10.9212 61.6251 9.56866 58.202 7.22021 55.9485C4.84894 53.6893 1.984 53.4491 1.96973 53.4691C1.93549 53.4462 2.78869 57.7702 5.43676 60.0379Z" fill="#333333"/>
<path d="M12.0686 49.7315C10.7788 52.4482 8.23347 53.8152 8.21635 53.8009C8.19637 53.8324 7.35173 50.0174 8.86124 47.1977C10.3508 44.4037 13.2157 43.8461 13.1986 43.8318C13.1815 43.8575 13.3384 47.029 12.0686 49.7315Z" fill="#333333"/>
<path d="M3.19082 51.2128C5.37947 53.8924 8.33857 53.758 8.3243 53.7751C8.30147 53.7551 7.54244 50.1547 5.61916 47.5151C3.67021 44.8641 0.90515 44.112 0.888029 44.1263C0.859493 44.1006 0.97078 48.5132 3.19082 51.2128Z" fill="#333333"/>
<path d="M11.4027 42.2562C9.6849 44.707 6.9655 45.5935 6.94838 45.5792C6.92269 45.6078 6.73151 41.6956 8.69188 39.1762C10.6266 36.6768 13.5286 36.6367 13.5115 36.6224C13.4886 36.6453 13.0977 39.8225 11.4027 42.259V42.2562Z" fill="#333333"/>
<path d="M2.46222 42.1217C4.15436 45.1617 7.07922 45.5592 7.05924 45.5735C7.03927 45.5506 6.89659 41.8644 5.46413 38.9045C4.00883 35.9304 1.43781 34.6835 1.41784 34.6978C1.39215 34.6663 0.744405 39.0618 2.46508 42.1246L2.46222 42.1217Z" fill="#333333"/>
<path d="M12.028 34.7321C9.92208 36.8569 7.10851 37.243 7.0971 37.2258C7.06571 37.2516 7.55081 33.3366 9.91923 31.1803C12.2591 29.0384 15.1098 29.5159 15.0955 29.4988C15.0698 29.5188 14.1082 32.6188 12.028 34.735V34.7321Z" fill="#333333"/>
<path d="M3.30435 32.9876C4.43149 36.3107 7.22794 37.2286 7.20511 37.2372C7.18799 37.2115 7.68165 33.5338 6.80847 30.328C5.91818 27.1051 3.62965 25.4007 3.60683 25.4093C3.584 25.3749 2.15438 29.6388 3.30435 32.9876Z" fill="#333333"/>
<path d="M13.9917 27.3452C11.5348 29.0925 8.71839 28.9695 8.70983 28.9524C8.67273 28.9724 9.85694 25.1575 12.5935 23.413C15.2958 21.6829 18.0094 22.6609 17.998 22.6409C17.9666 22.6552 16.42 25.6036 13.9917 27.3452Z" fill="#333333"/>
<path d="M5.76995 24.045C6.26076 27.5654 8.83748 28.9781 8.8118 28.9867C8.80039 28.9581 9.94465 25.3777 9.7021 22.0089C9.44243 18.6201 7.53913 16.501 7.51345 16.5067C7.49348 16.4695 5.25632 20.4961 5.76995 24.045Z" fill="#333333"/>
<path d="M17.3372 20.2816C14.575 21.6085 11.8413 20.9822 11.8327 20.9622C11.7899 20.9765 13.6961 17.3561 16.7579 16.0749C19.7826 14.7994 22.2652 16.255 22.2566 16.235C22.2195 16.2465 20.0651 18.9604 17.3372 20.2816Z" fill="#333333"/>
<path d="M9.91151 15.5144C9.69179 19.1378 11.9546 21.0109 11.9261 21.0138C11.9175 20.9852 13.7381 17.5935 14.1975 14.1532C14.6455 10.69 13.2216 8.21634 13.1931 8.2192C13.1788 8.17916 10.1113 11.8568 9.91437 15.5144H9.91151Z" fill="#333333"/>
<path d="M22.1092 13.7329C19.0844 14.6022 16.522 13.4898 16.5163 13.4726C16.4678 13.4812 19.1158 10.1553 22.463 9.37172C25.7674 8.59101 27.9275 10.4813 27.9218 10.4613C27.879 10.467 25.0997 12.8663 22.112 13.7357L22.1092 13.7329Z" fill="#333333"/>
<path d="M15.7802 7.63295C14.7786 11.262 16.6277 13.5412 16.5963 13.5412C16.5934 13.5098 19.1045 10.4012 20.3401 6.98665C21.5671 3.54922 20.7253 0.789554 20.6939 0.789554C20.6825 0.749517 16.7675 3.9696 15.783 7.63009L15.7802 7.63295Z" fill="#333333"/>
<path d="M54.8673 89.8368L54.8074 89.1704C49.3087 89.668 43.8271 89.0561 38.5167 87.3459C33.3404 85.6815 28.5493 83.0506 24.2747 79.5302C15.4032 72.2235 9.68185 61.7997 8.16378 50.1748C6.9225 40.6547 7.55883 32.1726 10.0585 24.9632C12.7408 17.2189 17.5205 11.162 24.2633 6.95527L23.9123 6.38904C17.0382 10.6787 12.1644 16.8557 9.43074 24.7458C6.89681 32.0554 6.24907 40.6404 7.50461 50.2634C9.04266 62.0571 14.8496 72.6353 23.8524 80.0478C28.1926 83.6225 33.0579 86.2907 38.3141 87.9836C43.7101 89.7195 49.2801 90.3429 54.8702 89.8368H54.8673Z" fill="#333333"/>
<path d="M69.9047 85.7897L64.8711 89.4988L69.9047 93.2107L74.9412 89.4988L69.9047 85.7897Z" fill="#333333"/>
</svg>
