<svg width="139" height="94" viewBox="0 0 139 94" fill="none" xmlns="http://www.w3.org/2000/svg">
<path d="M40.5909 61.8997C40.0176 61.8997 39.5009 61.7797 39.0409 61.5397C38.5809 61.293 38.2142 60.9097 37.9409 60.3897C37.6742 59.863 37.5409 59.1797 37.5409 58.3397V58.1397C37.5409 57.533 37.6209 57.013 37.7809 56.5797C37.9409 56.1397 38.1576 55.7797 38.4309 55.4997C38.7109 55.2197 39.0342 55.013 39.4009 54.8797C39.7742 54.7463 40.1709 54.6797 40.5909 54.6797C40.9776 54.6797 41.3376 54.7297 41.6709 54.8297C42.0042 54.923 42.2976 55.0663 42.5509 55.2597C42.8042 55.453 43.0076 55.693 43.1609 55.9797C43.3142 56.2663 43.4076 56.603 43.4409 56.9897H42.1809C42.0942 56.5563 41.9076 56.2397 41.6209 56.0397C41.3409 55.8397 40.9976 55.7397 40.5909 55.7397C40.2976 55.7397 40.0142 55.8163 39.7409 55.9697C39.4676 56.1163 39.2409 56.363 39.0609 56.7097C38.8876 57.0563 38.8009 57.533 38.8009 58.1397V58.3397C38.8009 58.8197 38.8542 59.223 38.9609 59.5497C39.0676 59.8697 39.2076 60.123 39.3809 60.3097C39.5609 60.4963 39.7542 60.633 39.9609 60.7197C40.1742 60.7997 40.3842 60.8397 40.5909 60.8397C41.0709 60.8397 41.4409 60.7297 41.7009 60.5097C41.9676 60.283 42.1276 59.9763 42.1809 59.5897H43.4409C43.4009 60.003 43.3009 60.3563 43.1409 60.6497C42.9876 60.943 42.7809 61.183 42.5209 61.3697C42.2676 61.5497 41.9776 61.683 41.6509 61.7697C41.3242 61.8563 40.9709 61.8997 40.5909 61.8997ZM47.6685 61.8997C47.0885 61.8997 46.5852 61.793 46.1585 61.5797C45.7319 61.3663 45.4019 61.0463 45.1685 60.6197C44.9352 60.1863 44.8185 59.643 44.8185 58.9897V54.7897H46.0185V58.9197C46.0185 59.5797 46.1585 60.0663 46.4385 60.3797C46.7185 60.6863 47.1285 60.8397 47.6685 60.8397C48.2152 60.8397 48.6252 60.6863 48.8985 60.3797C49.1785 60.0663 49.3185 59.583 49.3185 58.9297V54.7897H50.5185V58.9897C50.5185 59.643 50.4019 60.1863 50.1685 60.6197C49.9352 61.0463 49.6052 61.3663 49.1785 61.5797C48.7519 61.793 48.2485 61.8997 47.6685 61.8997ZM54.6965 61.8997C54.0965 61.8997 53.5999 61.813 53.2065 61.6397C52.8132 61.4663 52.5132 61.2297 52.3065 60.9297C52.1065 60.623 51.9865 60.2763 51.9465 59.8897H53.1465C53.1999 60.163 53.3365 60.3897 53.5565 60.5697C53.7765 60.7497 54.1565 60.8397 54.6965 60.8397C55.2565 60.8397 55.6532 60.7497 55.8865 60.5697C56.1265 60.383 56.2465 60.1563 56.2465 59.8897C56.2465 59.6697 56.1799 59.4897 56.0465 59.3497C55.9132 59.2097 55.7065 59.0897 55.4265 58.9897C55.1532 58.883 54.8032 58.7863 54.3765 58.6997C53.8965 58.593 53.4899 58.4597 53.1565 58.2997C52.8232 58.133 52.5699 57.913 52.3965 57.6397C52.2299 57.3663 52.1465 57.0163 52.1465 56.5897C52.1465 56.2363 52.2432 55.9163 52.4365 55.6297C52.6299 55.343 52.9132 55.113 53.2865 54.9397C53.6665 54.7663 54.1365 54.6797 54.6965 54.6797C55.2432 54.6797 55.6965 54.763 56.0565 54.9297C56.4232 55.0897 56.7032 55.313 56.8965 55.5997C57.0965 55.8863 57.2132 56.2163 57.2465 56.5897H56.0465C55.9932 56.3363 55.8565 56.133 55.6365 55.9797C55.4232 55.8197 55.1099 55.7397 54.6965 55.7397C54.2165 55.7397 53.8699 55.823 53.6565 55.9897C53.4499 56.1563 53.3465 56.3563 53.3465 56.5897C53.3465 56.9097 53.4799 57.1497 53.7465 57.3097C54.0132 57.4697 54.4232 57.6063 54.9765 57.7197C55.3899 57.8063 55.7499 57.9097 56.0565 58.0297C56.3632 58.143 56.6199 58.283 56.8265 58.4497C57.0332 58.6097 57.1865 58.8097 57.2865 59.0497C57.3932 59.283 57.4465 59.563 57.4465 59.8897C57.4465 60.2763 57.3432 60.623 57.1365 60.9297C56.9365 61.2297 56.6332 61.4663 56.2265 61.6397C55.8199 61.813 55.3099 61.8997 54.6965 61.8997ZM60.5261 61.7897V55.8297H58.1761V54.7897H64.0761V55.8297H61.7261V61.7897H60.5261ZM67.953 61.8997C67.5263 61.8997 67.1196 61.833 66.733 61.6997C66.353 61.5663 66.013 61.3597 65.713 61.0797C65.413 60.793 65.1763 60.4263 65.003 59.9797C64.8363 59.5263 64.753 58.9797 64.753 58.3397V58.1397C64.753 57.5263 64.8363 57.003 65.003 56.5697C65.1763 56.1297 65.413 55.7697 65.713 55.4897C66.013 55.2097 66.353 55.0063 66.733 54.8797C67.1196 54.7463 67.5263 54.6797 67.953 54.6797C68.3796 54.6797 68.783 54.7463 69.163 54.8797C69.5496 55.0063 69.893 55.2097 70.193 55.4897C70.493 55.7697 70.7263 56.1297 70.893 56.5697C71.0663 57.003 71.153 57.5263 71.153 58.1397V58.3397C71.153 58.9797 71.0663 59.5263 70.893 59.9797C70.7263 60.4263 70.493 60.793 70.193 61.0797C69.893 61.3597 69.5496 61.5663 69.163 61.6997C68.783 61.833 68.3796 61.8997 67.953 61.8997ZM67.953 60.8397C68.2863 60.8397 68.5996 60.7597 68.893 60.5997C69.1863 60.4397 69.4263 60.1797 69.613 59.8197C69.7996 59.453 69.893 58.9597 69.893 58.3397V58.1397C69.893 57.553 69.7996 57.0863 69.613 56.7397C69.4263 56.3863 69.1863 56.133 68.893 55.9797C68.5996 55.8197 68.2863 55.7397 67.953 55.7397C67.6196 55.7397 67.303 55.8197 67.003 55.9797C66.7096 56.133 66.4696 56.3863 66.283 56.7397C66.103 57.0863 66.013 57.553 66.013 58.1397V58.3397C66.013 58.9597 66.103 59.453 66.283 59.8197C66.4696 60.1797 66.7096 60.4397 67.003 60.5997C67.303 60.7597 67.6196 60.8397 67.953 60.8397ZM72.7263 61.7897V54.7897H73.9663L76.1963 58.9397L78.4263 54.7897H79.6263V61.7897H78.4263V56.8897L76.5763 60.3397H75.7763L73.9263 56.8897V61.7897H72.7263ZM81.6508 61.7897V54.7897H82.8508V61.7897H81.6508ZM87.2273 61.8997C86.6273 61.8997 86.1306 61.813 85.7373 61.6397C85.3439 61.4663 85.0439 61.2297 84.8373 60.9297C84.6373 60.623 84.5173 60.2763 84.4773 59.8897H85.6773C85.7306 60.163 85.8673 60.3897 86.0873 60.5697C86.3073 60.7497 86.6873 60.8397 87.2273 60.8397C87.7873 60.8397 88.1839 60.7497 88.4173 60.5697C88.6573 60.383 88.7773 60.1563 88.7773 59.8897C88.7773 59.6697 88.7106 59.4897 88.5773 59.3497C88.4439 59.2097 88.2373 59.0897 87.9573 58.9897C87.6839 58.883 87.3339 58.7863 86.9073 58.6997C86.4273 58.593 86.0206 58.4597 85.6873 58.2997C85.3539 58.133 85.1006 57.913 84.9273 57.6397C84.7606 57.3663 84.6773 57.0163 84.6773 56.5897C84.6773 56.2363 84.7739 55.9163 84.9673 55.6297C85.1606 55.343 85.4439 55.113 85.8173 54.9397C86.1973 54.7663 86.6673 54.6797 87.2273 54.6797C87.7739 54.6797 88.2273 54.763 88.5873 54.9297C88.9539 55.0897 89.2339 55.313 89.4273 55.5997C89.6273 55.8863 89.7439 56.2163 89.7773 56.5897H88.5773C88.5239 56.3363 88.3873 56.133 88.1673 55.9797C87.9539 55.8197 87.6406 55.7397 87.2273 55.7397C86.7473 55.7397 86.4006 55.823 86.1873 55.9897C85.9806 56.1563 85.8773 56.3563 85.8773 56.5897C85.8773 56.9097 86.0106 57.1497 86.2773 57.3097C86.5439 57.4697 86.9539 57.6063 87.5073 57.7197C87.9206 57.8063 88.2806 57.9097 88.5873 58.0297C88.8939 58.143 89.1506 58.283 89.3573 58.4497C89.5639 58.6097 89.7173 58.8097 89.8173 59.0497C89.9239 59.283 89.9773 59.563 89.9773 59.8897C89.9773 60.2763 89.8739 60.623 89.6673 60.9297C89.4673 61.2297 89.1639 61.4663 88.7573 61.6397C88.3506 61.813 87.8406 61.8997 87.2273 61.8997ZM91.5045 61.7897V54.7897H96.2045V55.8297H92.7045V57.6697H95.9045V58.7097H92.7045V60.7497H96.2045V61.7897H91.5045ZM97.7802 61.7897V54.7897H100.03C100.737 54.7897 101.34 54.9163 101.84 55.1697C102.34 55.4163 102.72 55.7897 102.98 56.2897C103.247 56.783 103.38 57.3997 103.38 58.1397V58.3397C103.38 59.0863 103.244 59.7163 102.97 60.2297C102.697 60.743 102.3 61.133 101.78 61.3997C101.267 61.6597 100.65 61.7897 99.9302 61.7897H97.7802ZM98.9802 60.7497H99.8302C100.29 60.7497 100.69 60.673 101.03 60.5197C101.377 60.3597 101.644 60.103 101.83 59.7497C102.024 59.3963 102.12 58.9263 102.12 58.3397V58.1397C102.12 57.593 102.024 57.1497 101.83 56.8097C101.637 56.4697 101.374 56.223 101.04 56.0697C100.714 55.9097 100.344 55.8297 99.9302 55.8297H98.9802V60.7497ZM43.5904 73.7897V66.7897H46.1404C46.7671 66.7897 47.2837 66.883 47.6904 67.0697C48.0971 67.2497 48.3971 67.5063 48.5904 67.8397C48.7904 68.173 48.8904 68.5663 48.8904 69.0197C48.8904 69.473 48.7904 69.8663 48.5904 70.1997C48.3971 70.533 48.0971 70.793 47.6904 70.9797C47.2837 71.1597 46.7671 71.2497 46.1404 71.2497H44.7904V73.7897H43.5904ZM44.7904 70.2097H46.0404C46.6737 70.2097 47.1071 70.113 47.3404 69.9197C47.5737 69.7197 47.6904 69.4197 47.6904 69.0197C47.6904 68.6263 47.5737 68.3297 47.3404 68.1297C47.1071 67.9297 46.6737 67.8297 46.0404 67.8297H44.7904V70.2097ZM50.3153 73.7897V66.7897H52.9653C53.552 66.7897 54.0386 66.883 54.4253 67.0697C54.8186 67.2563 55.1153 67.513 55.3153 67.8397C55.5153 68.1663 55.6153 68.543 55.6153 68.9697C55.6153 69.4497 55.4853 69.8663 55.2253 70.2197C54.9653 70.5663 54.5753 70.8163 54.0553 70.9697L55.8153 73.7897H54.4953L52.9453 71.1097H51.5153V73.7897H50.3153ZM51.5153 70.1097H52.7653C53.3786 70.1097 53.8053 70.0097 54.0453 69.8097C54.292 69.6097 54.4153 69.3297 54.4153 68.9697C54.4153 68.6097 54.292 68.3297 54.0453 68.1297C53.8053 67.9297 53.3786 67.8297 52.7653 67.8297H51.5153V70.1097ZM60.0855 73.8997C59.6588 73.8997 59.2522 73.833 58.8655 73.6997C58.4855 73.5663 58.1455 73.3597 57.8455 73.0797C57.5455 72.793 57.3088 72.4263 57.1355 71.9797C56.9688 71.5263 56.8855 70.9797 56.8855 70.3397V70.1397C56.8855 69.5263 56.9688 69.003 57.1355 68.5697C57.3088 68.1297 57.5455 67.7697 57.8455 67.4897C58.1455 67.2097 58.4855 67.0063 58.8655 66.8797C59.2522 66.7463 59.6588 66.6797 60.0855 66.6797C60.5122 66.6797 60.9155 66.7463 61.2955 66.8797C61.6822 67.0063 62.0255 67.2097 62.3255 67.4897C62.6255 67.7697 62.8588 68.1297 63.0255 68.5697C63.1988 69.003 63.2855 69.5263 63.2855 70.1397V70.3397C63.2855 70.9797 63.1988 71.5263 63.0255 71.9797C62.8588 72.4263 62.6255 72.793 62.3255 73.0797C62.0255 73.3597 61.6822 73.5663 61.2955 73.6997C60.9155 73.833 60.5122 73.8997 60.0855 73.8997ZM60.0855 72.8397C60.4188 72.8397 60.7322 72.7597 61.0255 72.5997C61.3188 72.4397 61.5588 72.1797 61.7455 71.8197C61.9322 71.453 62.0255 70.9597 62.0255 70.3397V70.1397C62.0255 69.553 61.9322 69.0863 61.7455 68.7397C61.5588 68.3863 61.3188 68.133 61.0255 67.9797C60.7322 67.8197 60.4188 67.7397 60.0855 67.7397C59.7522 67.7397 59.4355 67.8197 59.1355 67.9797C58.8422 68.133 58.6022 68.3863 58.4155 68.7397C58.2355 69.0863 58.1455 69.553 58.1455 70.1397V70.3397C58.1455 70.9597 58.2355 71.453 58.4155 71.8197C58.6022 72.1797 58.8422 72.4397 59.1355 72.5997C59.4355 72.7597 59.7522 72.8397 60.0855 72.8397ZM64.8588 73.7897V66.7897H67.1088C67.8155 66.7897 68.4188 66.9163 68.9188 67.1697C69.4188 67.4163 69.7988 67.7897 70.0588 68.2897C70.3255 68.783 70.4588 69.3997 70.4588 70.1397V70.3397C70.4588 71.0863 70.3222 71.7163 70.0488 72.2297C69.7755 72.743 69.3788 73.133 68.8588 73.3997C68.3455 73.6597 67.7288 73.7897 67.0088 73.7897H64.8588ZM66.0588 72.7497H66.9088C67.3688 72.7497 67.7688 72.673 68.1088 72.5197C68.4555 72.3597 68.7222 72.103 68.9088 71.7497C69.1022 71.3963 69.1988 70.9263 69.1988 70.3397V70.1397C69.1988 69.593 69.1022 69.1497 68.9088 68.8097C68.7155 68.4697 68.4522 68.223 68.1188 68.0697C67.7922 67.9097 67.4222 67.8297 67.0088 67.8297H66.0588V72.7497ZM74.783 73.8997C74.203 73.8997 73.6996 73.793 73.273 73.5797C72.8463 73.3663 72.5163 73.0463 72.283 72.6197C72.0496 72.1863 71.933 71.643 71.933 70.9897V66.7897H73.133V70.9197C73.133 71.5797 73.273 72.0663 73.553 72.3797C73.833 72.6863 74.243 72.8397 74.783 72.8397C75.3296 72.8397 75.7396 72.6863 76.013 72.3797C76.293 72.0663 76.433 71.583 76.433 70.9297V66.7897H77.633V70.9897C77.633 71.643 77.5163 72.1863 77.283 72.6197C77.0496 73.0463 76.7196 73.3663 76.293 73.5797C75.8663 73.793 75.363 73.8997 74.783 73.8997ZM82.161 73.8997C81.5876 73.8997 81.071 73.7797 80.611 73.5397C80.151 73.293 79.7843 72.9097 79.511 72.3897C79.2443 71.863 79.111 71.1797 79.111 70.3397V70.1397C79.111 69.533 79.191 69.013 79.351 68.5797C79.511 68.1397 79.7276 67.7797 80.001 67.4997C80.281 67.2197 80.6043 67.013 80.971 66.8797C81.3443 66.7463 81.741 66.6797 82.161 66.6797C82.5476 66.6797 82.9076 66.7297 83.241 66.8297C83.5743 66.923 83.8676 67.0663 84.121 67.2597C84.3743 67.453 84.5776 67.693 84.731 67.9797C84.8843 68.2663 84.9776 68.603 85.011 68.9897H83.751C83.6643 68.5563 83.4776 68.2397 83.191 68.0397C82.911 67.8397 82.5676 67.7397 82.161 67.7397C81.8676 67.7397 81.5843 67.8163 81.311 67.9697C81.0376 68.1163 80.811 68.363 80.631 68.7097C80.4576 69.0563 80.371 69.533 80.371 70.1397V70.3397C80.371 70.8197 80.4243 71.223 80.531 71.5497C80.6376 71.8697 80.7776 72.123 80.951 72.3097C81.131 72.4963 81.3243 72.633 81.531 72.7197C81.7443 72.7997 81.9543 72.8397 82.161 72.8397C82.641 72.8397 83.011 72.7297 83.271 72.5097C83.5376 72.283 83.6976 71.9763 83.751 71.5897H85.011C84.971 72.003 84.871 72.3563 84.711 72.6497C84.5576 72.943 84.351 73.183 84.091 73.3697C83.8376 73.5497 83.5476 73.683 83.221 73.7697C82.8943 73.8563 82.541 73.8997 82.161 73.8997ZM87.9531 73.7897V67.8297H85.6031V66.7897H91.5031V67.8297H89.1531V73.7897H87.9531ZM94.9776 73.8997C94.3776 73.8997 93.8809 73.813 93.4876 73.6397C93.0942 73.4663 92.7942 73.2297 92.5876 72.9297C92.3876 72.623 92.2676 72.2763 92.2276 71.8897H93.4276C93.4809 72.163 93.6176 72.3897 93.8376 72.5697C94.0576 72.7497 94.4376 72.8397 94.9776 72.8397C95.5376 72.8397 95.9342 72.7497 96.1676 72.5697C96.4076 72.383 96.5276 72.1563 96.5276 71.8897C96.5276 71.6697 96.4609 71.4897 96.3276 71.3497C96.1942 71.2097 95.9876 71.0897 95.7076 70.9897C95.4342 70.883 95.0842 70.7863 94.6576 70.6997C94.1776 70.593 93.7709 70.4597 93.4376 70.2997C93.1042 70.133 92.8509 69.913 92.6776 69.6397C92.5109 69.3663 92.4276 69.0163 92.4276 68.5897C92.4276 68.2363 92.5242 67.9163 92.7176 67.6297C92.9109 67.343 93.1942 67.113 93.5676 66.9397C93.9476 66.7663 94.4176 66.6797 94.9776 66.6797C95.5242 66.6797 95.9776 66.763 96.3376 66.9297C96.7042 67.0897 96.9842 67.313 97.1776 67.5997C97.3776 67.8863 97.4942 68.2163 97.5276 68.5897H96.3276C96.2742 68.3363 96.1376 68.133 95.9176 67.9797C95.7042 67.8197 95.3909 67.7397 94.9776 67.7397C94.4976 67.7397 94.1509 67.823 93.9376 67.9897C93.7309 68.1563 93.6276 68.3563 93.6276 68.5897C93.6276 68.9097 93.7609 69.1497 94.0276 69.3097C94.2942 69.4697 94.7042 69.6063 95.2576 69.7197C95.6709 69.8063 96.0309 69.9097 96.3376 70.0297C96.6442 70.143 96.9009 70.283 97.1076 70.4497C97.3142 70.6097 97.4676 70.8097 97.5676 71.0497C97.6742 71.283 97.7276 71.563 97.7276 71.8897C97.7276 72.2763 97.6242 72.623 97.4176 72.9297C97.2176 73.2297 96.9142 73.4663 96.5076 73.6397C96.1009 73.813 95.5909 73.8997 94.9776 73.8997Z" fill="#333333"/>
<path d="M32.3875 42.7897V42.1737C38.2955 36.2657 41.0675 32.1497 41.0675 28.8457C41.0675 26.3537 39.6115 25.0097 37.9035 25.0097C36.2795 25.0097 34.4875 26.2977 33.2275 27.8097L32.7795 27.5017C34.1515 25.0377 36.5595 22.7697 39.3875 22.7697C41.8795 22.7697 44.2035 24.5617 44.2035 27.8377C44.2035 31.0017 42.1035 34.2497 36.0835 39.8217H41.1235C43.3075 39.8217 43.9235 39.2617 45.1555 37.5537L45.5195 37.6097L43.9235 42.7897H32.3875ZM54.3622 43.1537C50.5262 43.1537 47.2222 39.2617 47.2222 32.9897C47.2222 26.5217 50.7222 22.7697 54.3342 22.7697C58.0302 22.7697 61.4742 26.6337 61.4742 33.0457C61.4742 39.3457 58.1702 43.1537 54.3622 43.1537ZM54.3622 41.9217C56.5462 41.9217 58.0022 38.6737 58.0022 32.9617C58.0022 26.7177 56.2662 24.0017 54.3062 24.0017C52.3742 24.0017 50.6662 26.7177 50.6662 32.9617C50.6662 39.2617 52.4022 41.9217 54.3622 41.9217ZM70.6311 43.1537C66.7951 43.1537 63.4911 39.2617 63.4911 32.9897C63.4911 26.5217 66.9911 22.7697 70.6031 22.7697C74.2991 22.7697 77.7431 26.6337 77.7431 33.0457C77.7431 39.3457 74.4391 43.1537 70.6311 43.1537ZM70.6311 41.9217C72.8151 41.9217 74.2711 38.6737 74.2711 32.9617C74.2711 26.7177 72.5351 24.0017 70.5751 24.0017C68.6431 24.0017 66.9351 26.7177 66.9351 32.9617C66.9351 39.2617 68.6711 41.9217 70.6311 41.9217ZM86.9 43.1537C83.064 43.1537 79.76 39.2617 79.76 32.9897C79.76 26.5217 83.26 22.7697 86.872 22.7697C90.568 22.7697 94.012 26.6337 94.012 33.0457C94.012 39.3457 90.708 43.1537 86.9 43.1537ZM86.9 41.9217C89.084 41.9217 90.54 38.6737 90.54 32.9617C90.54 26.7177 88.804 24.0017 86.844 24.0017C84.912 24.0017 83.204 26.7177 83.204 32.9617C83.204 39.2617 84.94 41.9217 86.9 41.9217ZM100.929 39.1217V34.0257H95.6928V32.8217H100.929V27.7817H102.077V32.8217H107.313V34.0257H102.077V39.1217H100.929Z" fill="#333333"/>
<path d="M115.961 3.12308C118.338 5.29364 118.764 8.70247 118.764 8.70247C118.764 8.70247 115.339 8.58808 112.962 6.41752C110.585 4.24697 110.16 0.838135 110.16 0.838135C110.16 0.838135 113.584 0.952525 115.961 3.12308Z" fill="#333333"/>
<path d="M99.2566 83.1392C97.2106 85.7701 97.0879 88.873 97.1164 88.8844C97.1079 88.9245 101.408 87.7176 103.337 84.8178C105.266 81.9552 104.327 78.9868 104.356 78.9954C104.344 79.024 101.3 80.5339 99.2566 83.1392Z" fill="#333333"/>
<path d="M102.267 92.2446C98.4947 91.6012 97.085 88.7443 97.0879 88.7672C97.1336 88.7815 101.177 87.6118 104.661 88.0208C108.18 88.4497 110.248 90.6403 110.248 90.6632C110.297 90.6746 106.085 92.8995 102.27 92.2418L102.267 92.2446Z" fill="#333333"/>
<path d="M106.715 79.8561C105.309 82.7387 105.814 85.7558 105.839 85.7615C105.837 85.8015 109.615 83.9227 110.887 80.7912C112.163 77.697 110.71 74.9831 110.739 74.9888C110.733 75.0174 108.122 76.9992 106.715 79.8589V79.8561Z" fill="#333333"/>
<path d="M111.324 88.1437C107.654 88.1551 105.788 85.6299 105.791 85.6528C105.834 85.6585 109.378 83.854 112.759 83.6624C116.175 83.4823 118.566 85.2496 118.569 85.2725C118.615 85.2753 115.031 88.1408 111.321 88.1437H111.324Z" fill="#333333"/>
<path d="M113.156 75.4121C112.357 78.4435 113.422 81.2717 113.444 81.2717C113.444 81.3118 116.683 78.8524 117.331 75.598C117.984 72.3808 116.095 69.9986 116.118 69.9957C116.118 70.0243 113.958 72.4008 113.156 75.4092V75.4121Z" fill="#333333"/>
<path d="M119.123 82.6473C115.622 83.2821 113.373 81.1573 113.379 81.1802C113.416 81.1802 116.444 78.8323 119.662 78.0659C122.913 77.3052 125.549 78.6036 125.555 78.6236C125.598 78.6207 122.661 82.0124 119.123 82.6473Z" fill="#333333"/>
<path d="M118.532 69.9957C118.309 73.0756 119.856 75.6323 119.879 75.6294C119.884 75.6694 122.558 72.7239 122.612 69.4495C122.678 66.2065 120.424 64.219 120.446 64.2133C120.446 64.2419 118.763 66.9357 118.532 69.9928V69.9957Z" fill="#333333"/>
<path d="M125.61 75.9812C122.34 77.2052 119.789 75.5294 119.795 75.5522C119.829 75.5465 122.317 72.7497 125.311 71.4399C128.333 70.133 131.132 70.9337 131.141 70.9538C131.18 70.9423 128.918 74.7572 125.61 75.9841V75.9812Z" fill="#333333"/>
<path d="M122.799 63.7871C123.115 66.827 125.073 69.0404 125.093 69.0347C125.104 69.0719 127.19 65.7403 126.685 62.5374C126.197 59.363 123.658 57.8188 123.68 57.8102C123.689 57.8388 122.491 60.77 122.799 63.7871Z" fill="#333333"/>
<path d="M130.74 68.3685C127.764 70.1329 124.991 68.949 125.002 68.969C125.033 68.9576 126.962 65.8004 129.667 63.993C132.398 62.1828 135.275 62.4659 135.283 62.4859C135.32 62.4688 133.751 66.5926 130.74 68.3656V68.3685Z" fill="#333333"/>
<path d="M125.908 56.9694C126.73 59.8864 129.021 61.6995 129.041 61.688C129.058 61.7224 130.534 58.1019 129.506 55.0505C128.499 52.0278 125.757 50.964 125.774 50.9525C125.785 50.9811 125.1 54.0696 125.908 56.9666V56.9694Z" fill="#333333"/>
<path d="M134.452 60.0379C131.835 62.2914 128.927 61.6251 128.941 61.6423C128.97 61.6251 130.323 58.202 132.671 55.9485C135.042 53.6893 137.907 53.4491 137.921 53.4691C137.956 53.4462 137.103 57.7702 134.454 60.0379H134.452Z" fill="#333333"/>
<path d="M127.82 49.7313C129.109 52.4481 131.655 53.8151 131.672 53.8008C131.692 53.8322 132.536 50.0173 131.027 47.1976C129.537 44.4036 126.672 43.846 126.69 43.8317C126.707 43.8574 126.55 47.0289 127.82 49.7313Z" fill="#333333"/>
<path d="M136.696 51.2128C134.507 53.8924 131.548 53.758 131.563 53.7751C131.585 53.7551 132.344 50.1547 134.268 47.5151C136.214 44.8641 138.979 44.112 138.996 44.1263C139.025 44.1006 138.913 48.5132 136.693 51.2128H136.696Z" fill="#333333"/>
<path d="M128.486 42.2562C130.204 44.707 132.923 45.5935 132.94 45.5792C132.966 45.6078 133.157 41.6956 131.197 39.1762C129.262 36.6768 126.36 36.6367 126.377 36.6224C126.4 36.6453 126.791 39.8225 128.486 42.259V42.2562Z" fill="#333333"/>
<path d="M137.425 42.1217C135.733 45.1617 132.808 45.5592 132.828 45.5735C132.848 45.5506 132.991 41.8644 134.423 38.9045C135.879 35.9304 138.45 34.6835 138.47 34.6978C138.495 34.6663 139.143 39.0618 137.422 42.1246L137.425 42.1217Z" fill="#333333"/>
<path d="M127.861 34.7321C129.966 36.8569 132.78 37.243 132.791 37.2258C132.823 37.2516 132.338 33.3366 129.969 31.1803C127.629 29.0384 124.779 29.5159 124.793 29.4988C124.819 29.5188 125.78 32.6188 127.861 34.735V34.7321Z" fill="#333333"/>
<path d="M136.583 32.9876C135.456 36.3107 132.659 37.2286 132.682 37.2372C132.699 37.2115 132.206 33.5338 133.079 30.328C133.969 27.1051 136.258 25.4007 136.281 25.4093C136.303 25.3749 137.733 29.6388 136.583 32.9876Z" fill="#333333"/>
<path d="M125.897 27.3452C128.354 29.0925 131.17 28.9695 131.179 28.9524C131.216 28.9724 130.032 25.1575 127.295 23.413C124.593 21.6829 121.879 22.6609 121.891 22.6409C121.922 22.6552 123.469 25.6036 125.897 27.3452Z" fill="#333333"/>
<path d="M134.118 24.045C133.627 27.5654 131.051 28.9781 131.076 28.9867C131.088 28.9581 129.944 25.3777 130.186 22.0089C130.446 18.6201 132.349 16.501 132.375 16.5067C132.395 16.4695 134.632 20.4961 134.118 24.045Z" fill="#333333"/>
<path d="M122.552 20.2817C125.315 21.6086 128.048 20.9823 128.057 20.9623C128.1 20.9766 126.193 17.3562 123.132 16.075C120.107 14.7996 117.624 16.2552 117.633 16.2351C117.67 16.2466 119.824 18.9605 122.552 20.2817Z" fill="#333333"/>
<path d="M129.975 15.5144C130.194 19.1378 127.932 21.0109 127.96 21.0138C127.969 20.9852 126.148 17.5935 125.689 14.1532C125.241 10.69 126.665 8.21634 126.693 8.2192C126.707 8.17916 129.775 11.8568 129.972 15.5144H129.975Z" fill="#333333"/>
<path d="M117.779 13.7329C120.804 14.6022 123.367 13.4898 123.372 13.4726C123.421 13.4812 120.773 10.1553 117.426 9.37172C114.121 8.59101 111.961 10.4813 111.967 10.4613C112.01 10.467 114.789 12.8663 117.777 13.7357L117.779 13.7329Z" fill="#333333"/>
<path d="M124.106 7.63295C125.108 11.262 123.259 13.5412 123.29 13.5412C123.293 13.5098 120.782 10.4012 119.546 6.98665C118.319 3.54922 119.164 0.789554 119.195 0.789554C119.207 0.749517 123.122 3.9696 124.106 7.63009V7.63295Z" fill="#333333"/>
<path d="M85.0204 89.8366L85.0804 89.1703C90.5791 89.6679 96.0607 89.0559 101.371 87.3458C106.547 85.6814 111.338 83.0504 115.613 79.5301C124.485 72.2234 130.206 61.7996 131.724 50.1747C132.965 40.6545 132.329 32.1725 129.829 24.963C127.147 17.2188 122.367 11.1619 115.624 6.95515L115.975 6.38892C122.85 10.6786 127.723 16.8556 130.457 24.7457C132.991 32.0552 133.639 40.6402 132.383 50.2633C130.845 62.057 125.038 72.6352 116.035 80.0477C111.695 83.6224 106.83 86.2905 101.574 87.9835C96.1777 89.7194 90.6076 90.3428 85.0176 89.8366H85.0204Z" fill="#333333"/>
<path d="M24.0014 3.1232C21.6244 5.29376 21.1992 8.70259 21.1992 8.70259C21.1992 8.70259 24.6234 8.5882 27.0004 6.41764C29.3746 4.24709 29.8026 0.838257 29.8026 0.838257C29.8026 0.838257 26.3784 0.952647 24.0014 3.1232Z" fill="#333333"/>
<path d="M40.7072 83.1392C42.7531 85.7701 42.8758 88.873 42.8473 88.8844C42.8559 88.9245 38.5556 87.7176 36.6266 84.8178C34.6977 81.9552 35.6365 78.9868 35.6079 78.9954C35.6193 79.024 38.664 80.5339 40.7072 83.1392Z" fill="#333333"/>
<path d="M37.6946 92.2446C41.467 91.6012 42.8766 88.7443 42.8737 88.7672C42.8281 88.7815 38.7846 87.6118 35.3005 88.0208C31.7821 88.4497 29.7133 90.6403 29.7133 90.6632C29.6648 90.6746 33.8766 92.8995 37.6917 92.2418L37.6946 92.2446Z" fill="#333333"/>
<path d="M33.2459 79.8562C34.6527 82.7388 34.1476 85.7559 34.1219 85.7616C34.1248 85.8016 30.3467 83.9228 29.074 80.7914C27.7985 77.6971 29.251 74.9832 29.2224 74.9889C29.2281 75.0175 31.8391 76.9993 33.2459 79.8591V79.8562Z" fill="#333333"/>
<path d="M28.6381 88.1438C32.3077 88.1552 34.1739 85.6301 34.1711 85.6529C34.1311 85.6587 30.5842 83.8542 27.2028 83.6626C23.7871 83.4824 21.3959 85.2497 21.393 85.2726C21.3474 85.2755 24.9314 88.1409 28.6409 88.1438H28.6381Z" fill="#333333"/>
<path d="M26.8063 75.4121C27.6053 78.4435 26.541 81.2717 26.5181 81.2717C26.5181 81.3118 23.2794 78.8524 22.6316 75.598C21.9782 72.3808 23.8672 69.9986 23.8444 69.9957C23.8444 70.0243 26.0045 72.4008 26.8063 75.4092V75.4121Z" fill="#333333"/>
<path d="M20.8425 82.6473C24.3437 83.2821 26.5923 81.1573 26.5866 81.1802C26.5495 81.1802 23.5219 78.8323 20.3031 78.0659C17.053 77.3052 14.4163 78.6036 14.4106 78.6236C14.3678 78.6207 17.3041 82.0124 20.8425 82.6473Z" fill="#333333"/>
<path d="M21.4315 69.9957C21.6541 73.0756 20.1075 75.6323 20.0847 75.6294C20.079 75.6694 17.4052 72.7239 17.351 69.4495C17.2854 66.2065 19.5397 64.219 19.5168 64.2133C19.5168 64.2419 21.2004 66.9357 21.4315 69.9928V69.9957Z" fill="#333333"/>
<path d="M14.3529 75.9812C17.623 77.2052 20.1741 75.5294 20.1684 75.5522C20.1341 75.5465 17.6459 72.7497 14.6525 71.4399C11.6306 70.133 8.83135 70.9337 8.82279 70.9538C8.78284 70.9423 11.0457 74.7572 14.3529 75.9841V75.9812Z" fill="#333333"/>
<path d="M17.1665 63.7872C16.8498 66.8271 14.8923 69.0406 14.8723 69.0349C14.8609 69.072 12.775 65.7404 13.28 62.5375C13.768 59.3632 16.3076 57.8189 16.2848 57.8103C16.2762 57.8389 17.4747 60.7701 17.1665 63.7872Z" fill="#333333"/>
<path d="M9.22509 68.3686C12.2013 70.1331 14.9749 68.9491 14.9635 68.9691C14.9321 68.9577 13.0031 65.8005 10.298 63.9932C7.56719 62.1829 4.69084 62.466 4.68228 62.4861C4.64519 62.4689 6.21462 66.5927 9.22509 68.3657V68.3686Z" fill="#333333"/>
<path d="M14.0535 56.9694C13.2317 59.8864 10.9403 61.6995 10.9203 61.688C10.9032 61.7224 9.42792 58.1019 10.4552 55.0505C11.4625 52.0278 14.2047 50.964 14.1876 50.9525C14.1762 50.9811 14.861 54.0696 14.0535 56.9666V56.9694Z" fill="#333333"/>
<path d="M5.51293 60.0379C8.12961 62.2914 11.0373 61.6251 11.0259 61.6423C10.9974 61.6251 9.64483 58.202 7.29638 55.9485C4.92511 53.6893 2.06017 53.4491 2.04591 53.4691C2.01166 53.4462 2.86487 57.7702 5.51293 60.0379Z" fill="#333333"/>
<path d="M12.1448 49.7315C10.855 52.4482 8.30964 53.8152 8.29252 53.8009C8.27254 53.8324 7.4279 50.0174 8.93741 47.1977C10.4269 44.4037 13.2919 43.8461 13.2748 43.8318C13.2576 43.8575 13.4146 47.029 12.1448 49.7315Z" fill="#333333"/>
<path d="M3.26699 51.2128C5.45564 53.8924 8.41474 53.758 8.40047 53.7751C8.37764 53.7551 7.61861 50.1547 5.69534 47.5151C3.74638 44.8641 0.981322 44.112 0.9642 44.1263C0.935665 44.1006 1.04695 48.5132 3.26699 51.2128Z" fill="#333333"/>
<path d="M11.4789 42.2562C9.76107 44.707 7.04167 45.5935 7.02455 45.5792C6.99887 45.6078 6.80768 41.6956 8.76805 39.1762C10.7027 36.6768 13.6048 36.6367 13.5876 36.6224C13.5648 36.6453 13.1739 39.8225 11.4789 42.259V42.2562Z" fill="#333333"/>
<path d="M2.5384 42.1217C4.23053 45.1617 7.15539 45.5592 7.13542 45.5735C7.11544 45.5506 6.97276 41.8644 5.5403 38.9045C4.085 35.9304 1.51398 34.6835 1.49401 34.6978C1.46833 34.6663 0.820577 39.0618 2.54125 42.1246L2.5384 42.1217Z" fill="#333333"/>
<path d="M12.1042 34.7321C9.99825 36.8569 7.18468 37.243 7.17327 37.2258C7.14188 37.2516 7.62698 33.3366 9.9954 31.1803C12.3353 29.0384 15.186 29.5159 15.1717 29.4988C15.146 29.5188 14.1844 32.6188 12.1042 34.735V34.7321Z" fill="#333333"/>
<path d="M3.38052 32.9876C4.50766 36.3107 7.30411 37.2286 7.28129 37.2372C7.26416 37.2115 7.75782 33.5338 6.88465 30.328C5.99435 27.1051 3.70583 25.4007 3.683 25.4093C3.66017 25.3749 2.23056 29.6388 3.38052 32.9876Z" fill="#333333"/>
<path d="M14.0679 27.3452C11.611 29.0925 8.79456 28.9695 8.786 28.9524C8.7489 28.9724 9.93311 25.1575 12.6696 23.413C15.3719 21.6829 18.0856 22.6609 18.0742 22.6409C18.0428 22.6552 16.4962 25.6036 14.0679 27.3452Z" fill="#333333"/>
<path d="M5.84612 24.045C6.33693 27.5654 8.91366 28.9781 8.88797 28.9867C8.87656 28.9581 10.0208 25.3777 9.77827 22.0089C9.5186 18.6201 7.6153 16.501 7.58962 16.5067C7.56965 16.4695 5.33249 20.4961 5.84612 24.045Z" fill="#333333"/>
<path d="M17.4133 20.2816C14.6511 21.6085 11.9175 20.9822 11.9089 20.9622C11.8661 20.9765 13.7723 17.3561 16.8341 16.0749C19.8588 14.7994 22.3414 16.255 22.3328 16.235C22.2957 16.2465 20.1413 18.9604 17.4133 20.2816Z" fill="#333333"/>
<path d="M9.98768 15.5144C9.76796 19.1378 12.0308 21.0109 12.0023 21.0138C11.9937 20.9852 13.8143 17.5935 14.2737 14.1532C14.7217 10.69 13.2978 8.21634 13.2692 8.2192C13.255 8.17916 10.1874 11.8568 9.99054 15.5144H9.98768Z" fill="#333333"/>
<path d="M22.1854 13.7329C19.1606 14.6022 16.5982 13.4898 16.5925 13.4726C16.5439 13.4812 19.192 10.1553 22.5392 9.37172C25.8436 8.59101 28.0037 10.4813 27.998 10.4613C27.9552 10.467 25.1758 12.8663 22.1882 13.7357L22.1854 13.7329Z" fill="#333333"/>
<path d="M15.8563 7.63295C14.8547 11.262 16.7038 13.5412 16.6724 13.5412C16.6696 13.5098 19.1807 10.4012 20.4163 6.98665C21.6433 3.54922 20.8015 0.789554 20.7701 0.789554C20.7587 0.749517 16.8436 3.9696 15.8592 7.63009L15.8563 7.63295Z" fill="#333333"/>
<path d="M54.9435 89.8368L54.8836 89.1704C49.3848 89.668 43.9032 89.0561 38.5928 87.3459C33.4165 85.6815 28.6255 83.0506 24.3509 79.5302C15.4793 72.2235 9.75802 61.7997 8.23995 50.1748C6.99867 40.6547 7.635 32.1726 10.1347 24.9632C12.817 17.2189 17.5966 11.162 24.3395 6.95527L23.9885 6.38904C17.1144 10.6787 12.2406 16.8557 9.50691 24.7458C6.97299 32.0554 6.32524 40.6404 7.58079 50.2634C9.11883 62.0571 14.9257 72.6353 23.9286 80.0478C28.2688 83.6225 33.1341 86.2907 38.3902 87.9836C43.7862 89.7195 49.3563 90.3429 54.9464 89.8368H54.9435Z" fill="#333333"/>
<path d="M69.9809 85.7897L64.9473 89.4988L69.9809 93.2107L75.0173 89.4988L69.9809 85.7897Z" fill="#333333"/>
</svg>
