<svg width="139" height="94" viewBox="0 0 139 94" fill="none" xmlns="http://www.w3.org/2000/svg">
<path d="M35.7238 61.8997C35.0838 61.8997 34.5271 61.7663 34.0538 61.4997C33.5805 61.233 33.2138 60.8363 32.9538 60.3097C32.7005 59.7763 32.5738 59.1197 32.5738 58.3397V58.1397C32.5738 57.5863 32.6471 57.0963 32.7938 56.6697C32.9471 56.243 33.1605 55.883 33.4338 55.5897C33.7138 55.2897 34.0471 55.063 34.4338 54.9097C34.8205 54.7563 35.2505 54.6797 35.7238 54.6797C36.0838 54.6797 36.4171 54.7297 36.7238 54.8297C37.0371 54.923 37.3138 55.063 37.5538 55.2497C37.7938 55.4297 37.9938 55.6597 38.1538 55.9397C38.3205 56.213 38.4438 56.5297 38.5238 56.8897H37.2238C37.1305 56.5963 37.0038 56.3663 36.8438 56.1997C36.6838 56.033 36.5071 55.9163 36.3138 55.8497C36.1205 55.7763 35.9238 55.7397 35.7238 55.7397C35.3505 55.7397 35.0205 55.8263 34.7338 55.9997C34.4471 56.173 34.2238 56.4363 34.0638 56.7897C33.9105 57.143 33.8338 57.593 33.8338 58.1397V58.3397C33.8338 58.7663 33.8805 59.1363 33.9738 59.4497C34.0671 59.763 34.1971 60.023 34.3638 60.2297C34.5371 60.4363 34.7371 60.5897 34.9638 60.6897C35.1971 60.7897 35.4505 60.8397 35.7238 60.8397C36.0705 60.8397 36.3705 60.7797 36.6238 60.6597C36.8771 60.5397 37.0805 60.353 37.2338 60.0997C37.3871 59.8463 37.4805 59.5263 37.5138 59.1397H35.9238V58.1397H38.6738V58.5397C38.6738 59.0997 38.6038 59.5897 38.4638 60.0097C38.3305 60.4297 38.1371 60.7797 37.8838 61.0597C37.6305 61.3397 37.3205 61.5497 36.9538 61.6897C36.5938 61.8297 36.1838 61.8997 35.7238 61.8997ZM40.2956 61.7897V54.7897H41.4956V61.7897H40.2956ZM43.522 61.7897V54.7897H48.172V55.8297H44.722V57.8197H47.872V58.8597H44.722V61.7897H43.522ZM51.438 61.7897V55.8297H49.088V54.7897H54.988V55.8297H52.638V61.7897H51.438ZM58.8335 61.7897V54.7897H60.0335V57.6697H63.4335V54.7897H64.6335V61.7897H63.4335V58.7097H60.0335V61.7897H58.8335ZM65.8044 61.7897L68.4544 54.7897H69.6544L72.3044 61.7897H71.0244L70.4344 60.2097H67.5944L67.0044 61.7897H65.8044ZM67.9844 59.1697H70.0444L69.0244 56.2897L67.9844 59.1697ZM73.4746 61.7897V54.7897H74.7146L76.9446 58.9397L79.1747 54.7897H80.3747V61.7897H79.1747V56.8897L77.3247 60.3397H76.5246L74.6746 56.8897V61.7897H73.4746ZM82.2992 61.7897V54.7897H84.8492C85.4758 54.7897 85.9925 54.883 86.3992 55.0697C86.8058 55.2497 87.1058 55.5063 87.2992 55.8397C87.4992 56.173 87.5992 56.5663 87.5992 57.0197C87.5992 57.473 87.4992 57.8663 87.2992 58.1997C87.1058 58.533 86.8058 58.793 86.3992 58.9797C85.9925 59.1597 85.4758 59.2497 84.8492 59.2497H83.4992V61.7897H82.2992ZM83.4992 58.2097H84.7492C85.3825 58.2097 85.8158 58.113 86.0492 57.9197C86.2825 57.7197 86.3992 57.4197 86.3992 57.0197C86.3992 56.6263 86.2825 56.3297 86.0492 56.1297C85.8158 55.9297 85.3825 55.8297 84.7492 55.8297H83.4992V58.2097ZM89.0241 61.7897V54.7897H93.7241V55.8297H90.2241V57.6697H93.4241V58.7097H90.2241V60.7497H93.7241V61.7897H89.0241ZM95.2997 61.7897V54.7897H97.9497C98.5364 54.7897 99.0231 54.883 99.4097 55.0697C99.8031 55.2563 100.1 55.513 100.3 55.8397C100.5 56.1663 100.6 56.543 100.6 56.9697C100.6 57.4497 100.47 57.8663 100.21 58.2197C99.9497 58.5663 99.5597 58.8163 99.0397 58.9697L100.8 61.7897H99.4797L97.9297 59.1097H96.4997V61.7897H95.2997ZM96.4997 58.1097H97.7497C98.3631 58.1097 98.7897 58.0097 99.0297 57.8097C99.2764 57.6097 99.3997 57.3297 99.3997 56.9697C99.3997 56.6097 99.2764 56.3297 99.0297 56.1297C98.7897 55.9297 98.3631 55.8297 97.7497 55.8297H96.4997V58.1097ZM104.57 61.8997C103.97 61.8997 103.473 61.813 103.08 61.6397C102.687 61.4663 102.387 61.2297 102.18 60.9297C101.98 60.623 101.86 60.2763 101.82 59.8897H103.02C103.073 60.163 103.21 60.3897 103.43 60.5697C103.65 60.7497 104.03 60.8397 104.57 60.8397C105.13 60.8397 105.527 60.7497 105.76 60.5697C106 60.383 106.12 60.1563 106.12 59.8897C106.12 59.6697 106.053 59.4897 105.92 59.3497C105.787 59.2097 105.58 59.0897 105.3 58.9897C105.027 58.883 104.677 58.7863 104.25 58.6997C103.77 58.593 103.363 58.4597 103.03 58.2997C102.697 58.133 102.443 57.913 102.27 57.6397C102.103 57.3663 102.02 57.0163 102.02 56.5897C102.02 56.2363 102.117 55.9163 102.31 55.6297C102.503 55.343 102.787 55.113 103.16 54.9397C103.54 54.7663 104.01 54.6797 104.57 54.6797C105.117 54.6797 105.57 54.763 105.93 54.9297C106.297 55.0897 106.577 55.313 106.77 55.5997C106.97 55.8863 107.087 56.2163 107.12 56.5897H105.92C105.867 56.3363 105.73 56.133 105.51 55.9797C105.297 55.8197 104.983 55.7397 104.57 55.7397C104.09 55.7397 103.743 55.823 103.53 55.9897C103.323 56.1563 103.22 56.3563 103.22 56.5897C103.22 56.9097 103.353 57.1497 103.62 57.3097C103.887 57.4697 104.297 57.6063 104.85 57.7197C105.263 57.8063 105.623 57.9097 105.93 58.0297C106.237 58.143 106.493 58.283 106.7 58.4497C106.907 58.6097 107.06 58.8097 107.16 59.0497C107.267 59.283 107.32 59.563 107.32 59.8897C107.32 60.2763 107.217 60.623 107.01 60.9297C106.81 61.2297 106.507 61.4663 106.1 61.6397C105.693 61.813 105.183 61.8997 104.57 61.8997ZM42.7768 73.7897V66.7897H45.0268C45.7335 66.7897 46.3368 66.9163 46.8368 67.1697C47.3368 67.4163 47.7168 67.7897 47.9768 68.2897C48.2435 68.783 48.3768 69.3997 48.3768 70.1397V70.3397C48.3768 71.0863 48.2401 71.7163 47.9668 72.2297C47.6935 72.743 47.2968 73.133 46.7768 73.3997C46.2635 73.6597 45.6468 73.7897 44.9268 73.7897H42.7768ZM43.9768 72.7497H44.8268C45.2868 72.7497 45.6868 72.673 46.0268 72.5197C46.3735 72.3597 46.6401 72.103 46.8268 71.7497C47.0201 71.3963 47.1168 70.9263 47.1168 70.3397V70.1397C47.1168 69.593 47.0201 69.1497 46.8268 68.8097C46.6335 68.4697 46.3701 68.223 46.0368 68.0697C45.7101 67.9097 45.3401 67.8297 44.9268 67.8297H43.9768V72.7497ZM49.9509 73.7897V66.7897H54.6509V67.8297H51.1509V69.6697H54.3509V70.7097H51.1509V72.7497H54.6509V73.7897H49.9509ZM56.2266 73.7897V66.7897H57.4266V72.7497H60.8266V73.7897H56.2266ZM62.153 73.7897V66.7897H63.353V73.7897H62.153ZM67.3295 73.7897L64.6295 66.7897H65.9095L67.9595 72.2797L69.9295 66.7897H71.1295L68.5295 73.7897H67.3295ZM72.2997 73.7897V66.7897H76.9997V67.8297H73.4997V69.6697H76.6997V70.7097H73.4997V72.7497H76.9997V73.7897H72.2997ZM78.5754 73.7897V66.7897H81.2254C81.812 66.7897 82.2987 66.883 82.6854 67.0697C83.0787 67.2563 83.3754 67.513 83.5754 67.8397C83.7754 68.1663 83.8754 68.543 83.8754 68.9697C83.8754 69.4497 83.7454 69.8663 83.4854 70.2197C83.2254 70.5663 82.8354 70.8163 82.3154 70.9697L84.0754 73.7897H82.7554L81.2054 71.1097H79.7754V73.7897H78.5754ZM79.7754 70.1097H81.0254C81.6387 70.1097 82.0654 70.0097 82.3054 69.8097C82.552 69.6097 82.6754 69.3297 82.6754 68.9697C82.6754 68.6097 82.552 68.3297 82.3054 68.1297C82.0654 67.9297 81.6387 67.8297 81.0254 67.8297H79.7754V70.1097ZM85.5444 73.7897V66.7897H90.2444V67.8297H86.7444V69.6697H89.9444V70.7097H86.7444V72.7497H90.2444V73.7897H85.5444ZM91.8201 73.7897V66.7897H94.0701C94.7768 66.7897 95.3801 66.9163 95.8801 67.1697C96.3801 67.4163 96.7601 67.7897 97.0201 68.2897C97.2868 68.783 97.4201 69.3997 97.4201 70.1397V70.3397C97.4201 71.0863 97.2834 71.7163 97.0101 72.2297C96.7368 72.743 96.3401 73.133 95.8201 73.3997C95.3068 73.6597 94.6901 73.7897 93.9701 73.7897H91.8201ZM93.0201 72.7497H93.8701C94.3301 72.7497 94.7301 72.673 95.0701 72.5197C95.4168 72.3597 95.6834 72.103 95.8701 71.7497C96.0634 71.3963 96.1601 70.9263 96.1601 70.3397V70.1397C96.1601 69.593 96.0634 69.1497 95.8701 68.8097C95.6768 68.4697 95.4134 68.223 95.0801 68.0697C94.7534 67.9097 94.3834 67.8297 93.9701 67.8297H93.0201V72.7497Z" fill="#333333"/>
<path d="M37.1074 43.1257C35.3434 43.1257 32.9914 42.5657 31.4234 41.9217L32.9074 38.5617L33.2154 38.6737C33.8594 40.0457 35.2594 41.8937 37.2754 41.8937C39.3474 41.8937 40.9714 39.9897 40.9714 37.3017C40.9714 34.7817 39.5434 33.0177 37.2194 33.0177C36.4914 33.0177 35.6514 33.1857 34.7274 33.5777L34.3914 32.7937C38.0874 30.9737 39.8234 29.4617 39.8234 27.4177C39.8234 25.7097 38.6754 24.8977 36.8834 24.8977C35.2314 24.8977 33.4954 25.6817 32.0674 27.2217L31.6474 26.8297C33.3554 24.4497 35.7354 22.7977 38.3674 22.7977C40.9714 22.7977 42.8194 24.3097 42.8194 26.6057C42.8194 29.0137 40.6634 30.5817 38.5074 31.5057V31.5337C38.7594 31.4777 39.0394 31.4497 39.3194 31.4497C41.4194 31.4497 44.1074 33.0737 44.1074 36.7417C44.1074 40.9137 40.6354 43.1257 37.1074 43.1257ZM53.2997 43.1537C49.4637 43.1537 46.1597 39.2617 46.1597 32.9897C46.1597 26.5217 49.6597 22.7697 53.2717 22.7697C56.9677 22.7697 60.4117 26.6337 60.4117 33.0457C60.4117 39.3457 57.1077 43.1537 53.2997 43.1537ZM53.2997 41.9217C55.4837 41.9217 56.9397 38.6737 56.9397 32.9617C56.9397 26.7177 55.2037 24.0017 53.2437 24.0017C51.3117 24.0017 49.6037 26.7177 49.6037 32.9617C49.6037 39.2617 51.3397 41.9217 53.2997 41.9217ZM69.5686 43.1537C65.7326 43.1537 62.4286 39.2617 62.4286 32.9897C62.4286 26.5217 65.9286 22.7697 69.5406 22.7697C73.2366 22.7697 76.6806 26.6337 76.6806 33.0457C76.6806 39.3457 73.3766 43.1537 69.5686 43.1537ZM69.5686 41.9217C71.7526 41.9217 73.2086 38.6737 73.2086 32.9617C73.2086 26.7177 71.4726 24.0017 69.5126 24.0017C67.5806 24.0017 65.8726 26.7177 65.8726 32.9617C65.8726 39.2617 67.6086 41.9217 69.5686 41.9217ZM91.8855 42.7897L84.8855 33.0177L90.5135 27.1657C91.4375 26.2137 91.8575 25.3737 91.8575 24.7017C91.8575 23.9737 91.3815 23.4417 90.5135 23.1337V22.7697H97.2895V23.1337C95.5535 24.1697 94.0135 25.4577 92.2775 27.1657L88.1335 31.2817L94.6015 40.1297C95.6655 41.6137 96.9255 42.2577 97.7095 42.3977V42.7897H91.8855ZM78.3615 42.7897V42.4257C80.3775 41.6417 80.6855 41.4177 80.6855 39.0657V26.4937C80.6855 24.1417 80.3775 23.9177 78.3615 23.1337V22.7697H86.8455V23.1337C84.8015 23.9177 84.5215 24.1417 84.5215 26.4937V39.0657C84.5215 41.4177 84.8015 41.6417 86.8455 42.4257V42.7897H78.3615ZM102.519 39.1217V34.0257H97.2827V32.8217H102.519V27.7817H103.667V32.8217H108.903V34.0257H103.667V39.1217H102.519Z" fill="#333333"/>
<path d="M115.924 3.12308C118.301 5.29364 118.726 8.70247 118.726 8.70247C118.726 8.70247 115.302 8.58808 112.925 6.41752C110.548 4.24697 110.123 0.838135 110.123 0.838135C110.123 0.838135 113.547 0.952525 115.924 3.12308Z" fill="#333333"/>
<path d="M99.2195 83.1392C97.1735 85.7701 97.0508 88.873 97.0793 88.8844C97.0708 88.9245 101.371 87.7176 103.3 84.8178C105.229 81.9552 104.29 78.9868 104.319 78.9954C104.307 79.024 101.263 80.5339 99.2195 83.1392Z" fill="#333333"/>
<path d="M102.23 92.2446C98.4576 91.6012 97.0479 88.7443 97.0508 88.7672C97.0964 88.7815 101.14 87.6118 104.624 88.0208C108.142 88.4497 110.211 90.6403 110.211 90.6632C110.26 90.6746 106.048 92.8995 102.233 92.2418L102.23 92.2446Z" fill="#333333"/>
<path d="M106.678 79.8561C105.272 82.7387 105.777 85.7558 105.802 85.7615C105.799 85.8015 109.578 83.9227 110.85 80.7912C112.126 77.697 110.673 74.9831 110.702 74.9888C110.696 75.0174 108.085 76.9992 106.678 79.8589V79.8561Z" fill="#333333"/>
<path d="M111.287 88.1437C107.617 88.1551 105.751 85.6299 105.754 85.6528C105.797 85.6585 109.341 83.854 112.722 83.6624C116.138 83.4823 118.529 85.2496 118.532 85.2725C118.578 85.2753 114.994 88.1408 111.284 88.1437H111.287Z" fill="#333333"/>
<path d="M113.119 75.4121C112.32 78.4435 113.385 81.2717 113.407 81.2717C113.407 81.3118 116.646 78.8524 117.294 75.598C117.947 72.3808 116.058 69.9986 116.081 69.9957C116.081 70.0243 113.921 72.4008 113.119 75.4092V75.4121Z" fill="#333333"/>
<path d="M119.086 82.6473C115.585 83.2821 113.336 81.1573 113.342 81.1802C113.379 81.1802 116.406 78.8323 119.625 78.0659C122.875 77.3052 125.512 78.6036 125.518 78.6236C125.561 78.6207 122.624 82.0124 119.086 82.6473Z" fill="#333333"/>
<path d="M118.495 69.9957C118.272 73.0756 119.819 75.6323 119.841 75.6294C119.847 75.6694 122.521 72.7239 122.575 69.4495C122.641 66.2065 120.386 64.219 120.409 64.2133C120.409 64.2419 118.726 66.9357 118.495 69.9928V69.9957Z" fill="#333333"/>
<path d="M125.573 75.9812C122.303 77.2052 119.752 75.5294 119.758 75.5522C119.792 75.5465 122.28 72.7497 125.274 71.4399C128.296 70.133 131.095 70.9337 131.103 70.9538C131.143 70.9423 128.881 74.7572 125.573 75.9841V75.9812Z" fill="#333333"/>
<path d="M122.762 63.7871C123.078 66.827 125.036 69.0404 125.056 69.0347C125.067 69.0719 127.153 65.7403 126.648 62.5374C126.16 59.363 123.621 57.8188 123.643 57.8102C123.652 57.8388 122.453 60.77 122.762 63.7871Z" fill="#333333"/>
<path d="M130.703 68.3685C127.727 70.1329 124.953 68.949 124.965 68.969C124.996 68.9576 126.925 65.8004 129.63 63.993C132.361 62.1828 135.238 62.4659 135.246 62.4859C135.283 62.4688 133.714 66.5926 130.703 68.3656V68.3685Z" fill="#333333"/>
<path d="M125.871 56.9694C126.693 59.8864 128.984 61.6995 129.004 61.688C129.021 61.7224 130.496 58.1019 129.469 55.0505C128.462 52.0278 125.72 50.964 125.737 50.9525C125.748 50.9811 125.063 54.0696 125.871 56.9666V56.9694Z" fill="#333333"/>
<path d="M134.414 60.0379C131.798 62.2914 128.89 61.6251 128.904 61.6423C128.933 61.6251 130.285 58.202 132.634 55.9485C135.005 53.6893 137.87 53.4491 137.884 53.4691C137.919 53.4462 137.065 57.7702 134.417 60.0379H134.414Z" fill="#333333"/>
<path d="M127.782 49.7313C129.072 52.4481 131.618 53.8151 131.635 53.8008C131.655 53.8322 132.499 50.0173 130.99 47.1976C129.5 44.4036 126.635 43.846 126.652 43.8317C126.67 43.8574 126.513 47.0289 127.782 49.7313Z" fill="#333333"/>
<path d="M136.659 51.2128C134.47 53.8924 131.511 53.758 131.525 53.7751C131.548 53.7551 132.307 50.1547 134.231 47.5151C136.177 44.8641 138.942 44.112 138.959 44.1263C138.987 44.1006 138.876 48.5132 136.656 51.2128H136.659Z" fill="#333333"/>
<path d="M128.449 42.2562C130.166 44.707 132.886 45.5935 132.903 45.5792C132.929 45.6078 133.12 41.6956 131.16 39.1762C129.225 36.6768 126.323 36.6367 126.34 36.6224C126.363 36.6453 126.754 39.8225 128.449 42.259V42.2562Z" fill="#333333"/>
<path d="M137.388 42.1217C135.696 45.1617 132.771 45.5592 132.791 45.5735C132.811 45.5506 132.954 41.8644 134.386 38.9045C135.842 35.9304 138.413 34.6835 138.433 34.6978C138.458 34.6663 139.106 39.0618 137.385 42.1246L137.388 42.1217Z" fill="#333333"/>
<path d="M127.823 34.7321C129.929 36.8569 132.743 37.243 132.754 37.2258C132.786 37.2516 132.301 33.3366 129.932 31.1803C127.592 29.0384 124.742 29.5159 124.756 29.4988C124.782 29.5188 125.743 32.6188 127.823 34.735V34.7321Z" fill="#333333"/>
<path d="M136.546 32.9876C135.419 36.3107 132.622 37.2286 132.645 37.2372C132.662 37.2115 132.169 33.5338 133.042 30.328C133.932 27.1051 136.221 25.4007 136.243 25.4093C136.266 25.3749 137.696 29.6388 136.546 32.9876Z" fill="#333333"/>
<path d="M125.86 27.3452C128.317 29.0925 131.133 28.9695 131.142 28.9524C131.179 28.9724 129.995 25.1575 127.258 23.413C124.556 21.6829 121.842 22.6609 121.854 22.6409C121.885 22.6552 123.432 25.6036 125.86 27.3452Z" fill="#333333"/>
<path d="M134.081 24.045C133.59 27.5654 131.014 28.9781 131.039 28.9867C131.051 28.9581 129.906 25.3777 130.149 22.0089C130.409 18.6201 132.312 16.501 132.338 16.5067C132.358 16.4695 134.595 20.4961 134.081 24.045Z" fill="#333333"/>
<path d="M122.515 20.2817C125.277 21.6086 128.011 20.9823 128.02 20.9623C128.062 20.9766 126.156 17.3562 123.094 16.075C120.07 14.7996 117.587 16.2552 117.596 16.2351C117.633 16.2466 119.787 18.9605 122.515 20.2817Z" fill="#333333"/>
<path d="M129.938 15.5144C130.157 19.1378 127.894 21.0109 127.923 21.0138C127.932 20.9852 126.111 17.5935 125.652 14.1532C125.204 10.69 126.627 8.21634 126.656 8.2192C126.67 8.17916 129.738 11.8568 129.935 15.5144H129.938Z" fill="#333333"/>
<path d="M117.742 13.7329C120.767 14.6022 123.33 13.4898 123.335 13.4726C123.384 13.4812 120.736 10.1553 117.388 9.37172C114.084 8.59101 111.924 10.4813 111.93 10.4613C111.973 10.467 114.752 12.8663 117.739 13.7357L117.742 13.7329Z" fill="#333333"/>
<path d="M124.069 7.63295C125.071 11.262 123.222 13.5412 123.253 13.5412C123.256 13.5098 120.745 10.4012 119.509 6.98665C118.282 3.54922 119.127 0.789554 119.158 0.789554C119.17 0.749517 123.085 3.9696 124.069 7.63009V7.63295Z" fill="#333333"/>
<path d="M84.9833 89.8366L85.0432 89.1703C90.542 89.6679 96.0236 89.0559 101.334 87.3458C106.51 85.6814 111.301 83.0504 115.576 79.5301C124.447 72.2234 130.169 61.7996 131.687 50.1747C132.928 40.6545 132.292 32.1725 129.792 24.963C127.11 17.2188 122.33 11.1619 115.587 6.95515L115.938 6.38892C122.812 10.6786 127.686 16.8556 130.42 24.7457C132.954 32.0552 133.602 40.6402 132.346 50.2633C130.808 62.057 125.001 72.6352 115.998 80.0477C111.658 83.6224 106.793 86.2905 101.537 87.9835C96.1406 89.7194 90.5705 90.3428 84.9805 89.8366H84.9833Z" fill="#333333"/>
<path d="M23.9643 3.1232C21.5873 5.29376 21.1621 8.70259 21.1621 8.70259C21.1621 8.70259 24.5863 8.5882 26.9633 6.41764C29.3374 4.24709 29.7655 0.838257 29.7655 0.838257C29.7655 0.838257 26.3412 0.952647 23.9643 3.1232Z" fill="#333333"/>
<path d="M40.6701 83.1392C42.716 85.7701 42.8387 88.873 42.8102 88.8844C42.8188 88.9245 38.5185 87.7176 36.5895 84.8178C34.6605 81.9552 35.5994 78.9868 35.5708 78.9954C35.5822 79.024 38.6269 80.5339 40.6701 83.1392Z" fill="#333333"/>
<path d="M37.6575 92.2446C41.4298 91.6012 42.8395 88.7443 42.8366 88.7672C42.791 88.7815 38.7475 87.6118 35.2634 88.0208C31.745 88.4497 29.6762 90.6403 29.6762 90.6632C29.6277 90.6746 33.8395 92.8995 37.6546 92.2418L37.6575 92.2446Z" fill="#333333"/>
<path d="M33.2088 79.8562C34.6156 82.7388 34.1105 85.7559 34.0848 85.7616C34.0877 85.8016 30.3096 83.9228 29.0369 80.7914C27.7614 77.6971 29.2139 74.9832 29.1853 74.9889C29.191 75.0175 31.802 76.9993 33.2088 79.8591V79.8562Z" fill="#333333"/>
<path d="M28.601 88.1438C32.2706 88.1552 34.1368 85.6301 34.134 85.6529C34.094 85.6587 30.5471 83.8542 27.1657 83.6626C23.75 83.4824 21.3588 85.2497 21.3559 85.2726C21.3102 85.2755 24.8943 88.1409 28.6038 88.1438H28.601Z" fill="#333333"/>
<path d="M26.7692 75.4121C27.5682 78.4435 26.5039 81.2717 26.481 81.2717C26.481 81.3118 23.2423 78.8524 22.5945 75.598C21.9411 72.3808 23.8301 69.9986 23.8073 69.9957C23.8073 70.0243 25.9674 72.4008 26.7692 75.4092V75.4121Z" fill="#333333"/>
<path d="M20.8053 82.6473C24.3066 83.2821 26.5552 81.1573 26.5495 81.1802C26.5124 81.1802 23.4848 78.8323 20.266 78.0659C17.0159 77.3052 14.3792 78.6036 14.3735 78.6236C14.3307 78.6207 17.267 82.0124 20.8053 82.6473Z" fill="#333333"/>
<path d="M21.3944 69.9957C21.617 73.0756 20.0704 75.6323 20.0476 75.6294C20.0419 75.6694 17.3681 72.7239 17.3139 69.4495C17.2483 66.2065 19.5026 64.219 19.4797 64.2133C19.4797 64.2419 21.1633 66.9357 21.3944 69.9928V69.9957Z" fill="#333333"/>
<path d="M14.3158 75.9812C17.5859 77.2052 20.137 75.5294 20.1313 75.5522C20.097 75.5465 17.6088 72.7497 14.6154 71.4399C11.5935 70.133 8.79424 70.9337 8.78568 70.9538C8.74573 70.9423 11.0086 74.7572 14.3158 75.9841V75.9812Z" fill="#333333"/>
<path d="M17.1294 63.7872C16.8127 66.8271 14.8552 69.0406 14.8352 69.0349C14.8238 69.072 12.7378 65.7404 13.2429 62.5375C13.7309 59.3632 16.2705 57.8189 16.2477 57.8103C16.2391 57.8389 17.4376 60.7701 17.1294 63.7872Z" fill="#333333"/>
<path d="M9.18798 68.3686C12.1642 70.1331 14.9378 68.9491 14.9264 68.9691C14.895 68.9577 12.966 65.8005 10.2609 63.9932C7.53008 62.1829 4.65373 62.466 4.64517 62.4861C4.60808 62.4689 6.17751 66.5927 9.18798 68.3657V68.3686Z" fill="#333333"/>
<path d="M14.0164 56.9694C13.1945 59.8864 10.9032 61.6995 10.8832 61.688C10.8661 61.7224 9.39081 58.1019 10.4181 55.0505C11.4254 52.0278 14.1676 50.964 14.1505 50.9525C14.1391 50.9811 14.8239 54.0696 14.0164 56.9666V56.9694Z" fill="#333333"/>
<path d="M5.47582 60.0379C8.0925 62.2914 11.0002 61.6251 10.9888 61.6423C10.9603 61.6251 9.60772 58.202 7.25927 55.9485C4.888 53.6893 2.02306 53.4491 2.0088 53.4691C1.97455 53.4462 2.82776 57.7702 5.47582 60.0379Z" fill="#333333"/>
<path d="M12.1077 49.7315C10.8179 52.4482 8.27253 53.8152 8.25541 53.8009C8.23543 53.8324 7.39079 50.0174 8.9003 47.1977C10.3898 44.4037 13.2548 43.8461 13.2377 43.8318C13.2205 43.8575 13.3775 47.029 12.1077 49.7315Z" fill="#333333"/>
<path d="M3.22988 51.2128C5.41853 53.8924 8.37763 53.758 8.36336 53.7751C8.34053 53.7551 7.5815 50.1547 5.65823 47.5151C3.70927 44.8641 0.944212 44.112 0.927091 44.1263C0.898556 44.1006 1.00984 48.5132 3.22988 51.2128Z" fill="#333333"/>
<path d="M11.4418 42.2562C9.72396 44.707 7.00456 45.5935 6.98744 45.5792C6.96176 45.6078 6.77057 41.6956 8.73094 39.1762C10.6656 36.6768 13.5677 36.6367 13.5505 36.6224C13.5277 36.6453 13.1368 39.8225 11.4418 42.259V42.2562Z" fill="#333333"/>
<path d="M2.50129 42.1217C4.19342 45.1617 7.11828 45.5592 7.09831 45.5735C7.07833 45.5506 6.93566 41.8644 5.50319 38.9045C4.04789 35.9304 1.47687 34.6835 1.4569 34.6978C1.43122 34.6663 0.783468 39.0618 2.50414 42.1246L2.50129 42.1217Z" fill="#333333"/>
<path d="M12.067 34.7321C9.96114 36.8569 7.14757 37.243 7.13616 37.2258C7.10477 37.2516 7.58987 33.3366 9.95829 31.1803C12.2982 29.0384 15.1488 29.5159 15.1346 29.4988C15.1089 29.5188 14.1473 32.6188 12.067 34.735V34.7321Z" fill="#333333"/>
<path d="M3.34341 32.9876C4.47055 36.3107 7.267 37.2286 7.24418 37.2372C7.22706 37.2115 7.72071 33.5338 6.84754 30.328C5.95724 27.1051 3.66872 25.4007 3.64589 25.4093C3.62306 25.3749 2.19345 29.6388 3.34341 32.9876Z" fill="#333333"/>
<path d="M14.0308 27.3452C11.5739 29.0925 8.75745 28.9695 8.74889 28.9524C8.7118 28.9724 9.89601 25.1575 12.6325 23.413C15.3348 21.6829 18.0485 22.6609 18.0371 22.6409C18.0057 22.6552 16.4591 25.6036 14.0308 27.3452Z" fill="#333333"/>
<path d="M5.80901 24.045C6.29982 27.5654 8.87655 28.9781 8.85087 28.9867C8.83945 28.9581 9.98371 25.3777 9.74116 22.0089C9.48149 18.6201 7.5782 16.501 7.55251 16.5067C7.53254 16.4695 5.29538 20.4961 5.80901 24.045Z" fill="#333333"/>
<path d="M17.3762 20.2816C14.614 21.6085 11.8804 20.9822 11.8718 20.9622C11.829 20.9765 13.7351 17.3561 16.797 16.0749C19.8217 14.7994 22.3043 16.255 22.2957 16.235C22.2586 16.2465 20.1042 18.9604 17.3762 20.2816Z" fill="#333333"/>
<path d="M9.95057 15.5144C9.73085 19.1378 11.9937 21.0109 11.9652 21.0138C11.9566 20.9852 13.7771 17.5935 14.2366 14.1532C14.6846 10.69 13.2607 8.21634 13.2321 8.2192C13.2179 8.17916 10.1503 11.8568 9.95343 15.5144H9.95057Z" fill="#333333"/>
<path d="M22.1482 13.7329C19.1235 14.6022 16.5611 13.4898 16.5553 13.4726C16.5068 13.4812 19.1549 10.1553 22.5021 9.37172C25.8065 8.59101 27.9666 10.4813 27.9609 10.4613C27.9181 10.467 25.1387 12.8663 22.1511 13.7357L22.1482 13.7329Z" fill="#333333"/>
<path d="M15.8192 7.63295C14.8176 11.262 16.6667 13.5412 16.6353 13.5412C16.6325 13.5098 19.1436 10.4012 20.3791 6.98665C21.6062 3.54922 20.7644 0.789554 20.733 0.789554C20.7216 0.749517 16.8065 3.9696 15.8221 7.63009L15.8192 7.63295Z" fill="#333333"/>
<path d="M54.9064 89.8368L54.8465 89.1704C49.3477 89.668 43.8661 89.0561 38.5557 87.3459C33.3794 85.6815 28.5884 83.0506 24.3138 79.5302C15.4422 72.2235 9.72091 61.7997 8.20284 50.1748C6.96156 40.6547 7.59789 32.1726 10.0976 24.9632C12.7799 17.2189 17.5595 11.162 24.3024 6.95527L23.9514 6.38904C17.0773 10.6787 12.2035 16.8557 9.4698 24.7458C6.93588 32.0554 6.28813 40.6404 7.54368 50.2634C9.08172 62.0571 14.8886 72.6353 23.8915 80.0478C28.2317 83.6225 33.0969 86.2907 38.3531 87.9836C43.7491 89.7195 49.3192 90.3429 54.9092 89.8368H54.9064Z" fill="#333333"/>
<path d="M69.9438 85.7897L64.9102 89.4988L69.9438 93.2107L74.9802 89.4988L69.9438 85.7897Z" fill="#333333"/>
</svg>
