<svg width="139" height="94" viewBox="0 0 139 94" fill="none" xmlns="http://www.w3.org/2000/svg">
<path d="M40.387 61.7897L43.037 54.7897H44.237L46.887 61.7897H45.607L45.017 60.2097H42.177L41.587 61.7897H40.387ZM42.567 59.1697H44.627L43.607 56.2897L42.567 59.1697ZM50.3584 61.8997C49.7584 61.8997 49.2617 61.813 48.8684 61.6397C48.475 61.4663 48.175 61.2297 47.9684 60.9297C47.7684 60.623 47.6484 60.2763 47.6084 59.8897H48.8084C48.8617 60.163 48.9984 60.3897 49.2184 60.5697C49.4384 60.7497 49.8184 60.8397 50.3584 60.8397C50.9184 60.8397 51.315 60.7497 51.5484 60.5697C51.7884 60.383 51.9084 60.1563 51.9084 59.8897C51.9084 59.6697 51.8417 59.4897 51.7084 59.3497C51.575 59.2097 51.3684 59.0897 51.0884 58.9897C50.815 58.883 50.465 58.7863 50.0384 58.6997C49.5584 58.593 49.1517 58.4597 48.8184 58.2997C48.485 58.133 48.2317 57.913 48.0584 57.6397C47.8917 57.3663 47.8084 57.0163 47.8084 56.5897C47.8084 56.2363 47.905 55.9163 48.0984 55.6297C48.2917 55.343 48.575 55.113 48.9484 54.9397C49.3284 54.7663 49.7984 54.6797 50.3584 54.6797C50.905 54.6797 51.3584 54.763 51.7184 54.9297C52.085 55.0897 52.365 55.313 52.5584 55.5997C52.7584 55.8863 52.875 56.2163 52.9084 56.5897H51.7084C51.655 56.3363 51.5184 56.133 51.2984 55.9797C51.085 55.8197 50.7717 55.7397 50.3584 55.7397C49.8784 55.7397 49.5317 55.823 49.3184 55.9897C49.1117 56.1563 49.0084 56.3563 49.0084 56.5897C49.0084 56.9097 49.1417 57.1497 49.4084 57.3097C49.675 57.4697 50.085 57.6063 50.6384 57.7197C51.0517 57.8063 51.4117 57.9097 51.7184 58.0297C52.025 58.143 52.2817 58.283 52.4884 58.4497C52.695 58.6097 52.8484 58.8097 52.9484 59.0497C53.055 59.283 53.1084 59.563 53.1084 59.8897C53.1084 60.2763 53.005 60.623 52.7984 60.9297C52.5984 61.2297 52.295 61.4663 51.8884 61.6397C51.4817 61.813 50.9717 61.8997 50.3584 61.8997ZM60.0589 61.8997C59.4189 61.8997 58.8623 61.7663 58.3889 61.4997C57.9156 61.233 57.5489 60.8363 57.2889 60.3097C57.0356 59.7763 56.9089 59.1197 56.9089 58.3397V58.1397C56.9089 57.5863 56.9823 57.0963 57.1289 56.6697C57.2823 56.243 57.4956 55.883 57.7689 55.5897C58.0489 55.2897 58.3823 55.063 58.7689 54.9097C59.1556 54.7563 59.5856 54.6797 60.0589 54.6797C60.4189 54.6797 60.7523 54.7297 61.0589 54.8297C61.3723 54.923 61.6489 55.063 61.8889 55.2497C62.1289 55.4297 62.3289 55.6597 62.4889 55.9397C62.6556 56.213 62.7789 56.5297 62.8589 56.8897H61.5589C61.4656 56.5963 61.3389 56.3663 61.1789 56.1997C61.0189 56.033 60.8423 55.9163 60.6489 55.8497C60.4556 55.7763 60.2589 55.7397 60.0589 55.7397C59.6856 55.7397 59.3556 55.8263 59.0689 55.9997C58.7823 56.173 58.5589 56.4363 58.3989 56.7897C58.2456 57.143 58.1689 57.593 58.1689 58.1397V58.3397C58.1689 58.7663 58.2156 59.1363 58.3089 59.4497C58.4023 59.763 58.5323 60.023 58.6989 60.2297C58.8723 60.4363 59.0723 60.5897 59.2989 60.6897C59.5323 60.7897 59.7856 60.8397 60.0589 60.8397C60.4056 60.8397 60.7056 60.7797 60.9589 60.6597C61.2123 60.5397 61.4156 60.353 61.5689 60.0997C61.7223 59.8463 61.8156 59.5263 61.8489 59.1397H60.2589V58.1397H63.0089V58.5397C63.0089 59.0997 62.9389 59.5897 62.7989 60.0097C62.6656 60.4297 62.4723 60.7797 62.2189 61.0597C61.9656 61.3397 61.6556 61.5497 61.2889 61.6897C60.9289 61.8297 60.5189 61.8997 60.0589 61.8997ZM64.6307 61.7897V54.7897H65.8307V61.7897H64.6307ZM67.8572 61.7897V54.7897H72.5072V55.8297H69.0572V57.8197H72.2072V58.8597H69.0572V61.7897H67.8572ZM75.7731 61.7897V55.8297H73.4231V54.7897H79.3231V55.8297H76.9731V61.7897H75.7731ZM80.6452 61.7897V54.7897H81.8452V61.7897H80.6452ZM83.8717 61.7897V54.7897H85.0317L88.4717 59.7897V54.7897H89.6717V61.7897H88.5117L85.0717 56.7897V61.7897H83.8717ZM94.3927 61.8997C93.7527 61.8997 93.196 61.7663 92.7227 61.4997C92.2494 61.233 91.8827 60.8363 91.6227 60.3097C91.3694 59.7763 91.2427 59.1197 91.2427 58.3397V58.1397C91.2427 57.5863 91.316 57.0963 91.4627 56.6697C91.616 56.243 91.8294 55.883 92.1027 55.5897C92.3827 55.2897 92.716 55.063 93.1027 54.9097C93.4894 54.7563 93.9194 54.6797 94.3927 54.6797C94.7527 54.6797 95.086 54.7297 95.3927 54.8297C95.706 54.923 95.9827 55.063 96.2227 55.2497C96.4627 55.4297 96.6627 55.6597 96.8227 55.9397C96.9894 56.213 97.1127 56.5297 97.1927 56.8897H95.8927C95.7994 56.5963 95.6727 56.3663 95.5127 56.1997C95.3527 56.033 95.176 55.9163 94.9827 55.8497C94.7894 55.7763 94.5927 55.7397 94.3927 55.7397C94.0194 55.7397 93.6894 55.8263 93.4027 55.9997C93.116 56.173 92.8927 56.4363 92.7327 56.7897C92.5794 57.143 92.5027 57.593 92.5027 58.1397V58.3397C92.5027 58.7663 92.5494 59.1363 92.6427 59.4497C92.736 59.763 92.866 60.023 93.0327 60.2297C93.206 60.4363 93.406 60.5897 93.6327 60.6897C93.866 60.7897 94.1194 60.8397 94.3927 60.8397C94.7394 60.8397 95.0394 60.7797 95.2927 60.6597C95.546 60.5397 95.7494 60.353 95.9027 60.0997C96.056 59.8463 96.1494 59.5263 96.1827 59.1397H94.5927V58.1397H97.3427V58.5397C97.3427 59.0997 97.2727 59.5897 97.1327 60.0097C96.9994 60.4297 96.806 60.7797 96.5527 61.0597C96.2994 61.3397 95.9894 61.5497 95.6227 61.6897C95.2627 61.8297 94.8527 61.8997 94.3927 61.8997ZM46.3757 73.7897V66.7897H48.9257C49.5524 66.7897 50.069 66.883 50.4757 67.0697C50.8824 67.2497 51.1824 67.5063 51.3757 67.8397C51.5757 68.173 51.6757 68.5663 51.6757 69.0197C51.6757 69.473 51.5757 69.8663 51.3757 70.1997C51.1824 70.533 50.8824 70.793 50.4757 70.9797C50.069 71.1597 49.5524 71.2497 48.9257 71.2497H47.5757V73.7897H46.3757ZM47.5757 70.2097H48.8257C49.459 70.2097 49.8924 70.113 50.1257 69.9197C50.359 69.7197 50.4757 69.4197 50.4757 69.0197C50.4757 68.6263 50.359 68.3297 50.1257 68.1297C49.8924 67.9297 49.459 67.8297 48.8257 67.8297H47.5757V70.2097ZM51.6963 73.7897L54.3463 66.7897H55.5463L58.1963 73.7897H56.9163L56.3263 72.2097H53.4863L52.8963 73.7897H51.6963ZM53.8763 71.1697H55.9363L54.9163 68.2897L53.8763 71.1697ZM59.3665 73.7897V66.7897H62.0165C62.6032 66.7897 63.0898 66.883 63.4765 67.0697C63.8698 67.2563 64.1665 67.513 64.3665 67.8397C64.5665 68.1663 64.6665 68.543 64.6665 68.9697C64.6665 69.4497 64.5365 69.8663 64.2765 70.2197C64.0165 70.5663 63.6265 70.8163 63.1065 70.9697L64.8665 73.7897H63.5465L61.9965 71.1097H60.5665V73.7897H59.3665ZM60.5665 70.1097H61.8165C62.4298 70.1097 62.8565 70.0097 63.0965 69.8097C63.3432 69.6097 63.4665 69.3297 63.4665 68.9697C63.4665 68.6097 63.3432 68.3297 63.0965 68.1297C62.8565 67.9297 62.4298 67.8297 61.8165 67.8297H60.5665V70.1097ZM67.8879 73.7897V67.8297H65.5379V66.7897H71.4379V67.8297H69.0879V73.7897H67.8879ZM72.6601 73.7897V66.7897H73.8201L77.2601 71.7897V66.7897H78.4601V73.7897H77.3001L73.8601 68.7897V73.7897H72.6601ZM80.381 73.7897V66.7897H85.081V67.8297H81.581V69.6697H84.781V70.7097H81.581V72.7497H85.081V73.7897H80.381ZM86.6567 73.7897V66.7897H89.3067C89.8934 66.7897 90.3801 66.883 90.7667 67.0697C91.1601 67.2563 91.4567 67.513 91.6567 67.8397C91.8567 68.1663 91.9567 68.543 91.9567 68.9697C91.9567 69.4497 91.8267 69.8663 91.5667 70.2197C91.3067 70.5663 90.9167 70.8163 90.3967 70.9697L92.1567 73.7897H90.8367L89.2867 71.1097H87.8567V73.7897H86.6567ZM87.8567 70.1097H89.1067C89.7201 70.1097 90.1467 70.0097 90.3867 69.8097C90.6334 69.6097 90.7567 69.3297 90.7567 68.9697C90.7567 68.6097 90.6334 68.3297 90.3867 68.1297C90.1467 67.9297 89.7201 67.8297 89.1067 67.8297H87.8567V70.1097Z" fill="#333333"/>
<path d="M39.2659 43.1257C37.5019 43.1257 35.1499 42.5657 33.5819 41.9217L35.0659 38.5617L35.3739 38.6737C36.0179 40.0457 37.4179 41.8937 39.4339 41.8937C41.5059 41.8937 43.1299 39.9897 43.1299 37.3017C43.1299 34.7817 41.7019 33.0177 39.3779 33.0177C38.6499 33.0177 37.8099 33.1857 36.8859 33.5777L36.5499 32.7937C40.2459 30.9737 41.9819 29.4617 41.9819 27.4177C41.9819 25.7097 40.8339 24.8977 39.0419 24.8977C37.3899 24.8977 35.6539 25.6817 34.2259 27.2217L33.8059 26.8297C35.5139 24.4497 37.8939 22.7977 40.5259 22.7977C43.1299 22.7977 44.9779 24.3097 44.9779 26.6057C44.9779 29.0137 42.8219 30.5817 40.6659 31.5057V31.5337C40.9179 31.4777 41.1979 31.4497 41.4779 31.4497C43.5779 31.4497 46.2659 33.0737 46.2659 36.7417C46.2659 40.9137 42.7939 43.1257 39.2659 43.1257ZM53.2182 39.1217V34.0257H47.9822V32.8217H53.2182V27.7817H54.3662V32.8217H59.6022V34.0257H54.3662V39.1217H53.2182ZM71.0938 42.7897V42.4257C73.1098 41.6417 73.4178 41.4177 73.4178 39.0657V33.8017L68.1258 25.0657C67.6498 24.2817 67.2578 23.7217 65.7738 23.1337V22.7697H74.2018V23.1337C72.8018 23.7217 72.2418 24.0577 72.2418 24.5897C72.2418 24.9537 72.4938 25.4017 72.9138 26.0737L76.6938 32.2897L80.2218 26.2977C80.5578 25.7097 80.7538 25.2337 80.7538 24.7857C80.7538 24.1137 80.2778 23.6097 79.2978 23.1337V22.7697H84.8138V23.1337C83.3578 23.8057 82.4618 24.9537 81.6498 26.2977L77.2538 33.6057V39.0657C77.2538 41.4177 77.5618 41.6417 79.5778 42.4257V42.7897H71.0938ZM83.6313 42.7897V42.4257C85.1433 41.7817 85.5073 41.5017 85.5073 39.3177V33.6617C85.5073 31.7297 85.3393 30.8897 83.6313 30.2177V29.8817C85.3393 29.7417 87.1033 29.4337 88.8113 28.9297L88.7273 31.7577H88.8113C89.2313 30.6097 90.4913 28.9857 92.5633 28.9857C93.1233 28.9857 93.5153 29.0977 93.9073 29.3497L93.5153 33.0737H93.1513C92.5633 32.4017 91.5553 31.6177 90.6313 31.6177C89.7633 31.6177 89.1753 32.4017 88.8953 32.9897V39.3177C88.8953 41.5017 89.3153 41.7817 91.2193 42.4257V42.7897H83.6313ZM100.99 43.1257C99.1984 43.1257 97.3784 42.5097 96.2864 42.0337L95.8944 38.1137L96.2024 38.0297C97.4624 39.8777 99.2264 42.0617 100.99 42.0617C101.886 42.0617 102.726 41.5017 102.726 40.4097C102.726 39.0937 101.522 38.2817 99.7584 37.3577C97.9384 36.4057 95.8664 35.3137 95.8664 32.7657C95.8664 30.1337 98.0784 28.9577 100.346 28.9577C101.718 28.9577 103.314 29.4057 104.462 29.8257L104.77 33.4937L104.434 33.5777C103.37 31.9257 101.718 30.0497 100.346 30.0497C99.5344 30.0497 98.7224 30.5817 98.7224 31.7017C98.7224 33.1857 100.234 33.8017 101.718 34.5857C103.79 35.6777 105.638 36.8257 105.638 39.2057C105.638 41.6137 103.79 43.1257 100.99 43.1257Z" fill="#333333"/>
<path d="M115.039 3.12308C117.416 5.29364 117.842 8.70247 117.842 8.70247C117.842 8.70247 114.417 8.58808 112.04 6.41752C109.663 4.24697 109.238 0.838135 109.238 0.838135C109.238 0.838135 112.663 0.952525 115.039 3.12308Z" fill="#333333"/>
<path d="M98.3347 83.1392C96.2887 85.7701 96.166 88.873 96.1946 88.8844C96.186 88.9245 100.486 87.7176 102.415 84.8178C104.344 81.9552 103.405 78.9868 103.434 78.9954C103.423 79.024 100.378 80.5339 98.3347 83.1392Z" fill="#333333"/>
<path d="M101.345 92.2446C97.5728 91.6012 96.1632 88.7443 96.166 88.7672C96.2117 88.7815 100.255 87.6118 103.739 88.0208C107.258 88.4497 109.326 90.6403 109.326 90.6632C109.375 90.6746 105.163 92.8995 101.348 92.2418L101.345 92.2446Z" fill="#333333"/>
<path d="M105.794 79.8561C104.387 82.7387 104.892 85.7558 104.918 85.7615C104.915 85.8015 108.693 83.9227 109.965 80.7912C111.241 77.697 109.789 74.9831 109.817 74.9888C109.811 75.0174 107.2 76.9992 105.794 79.8589V79.8561Z" fill="#333333"/>
<path d="M110.402 88.1437C106.732 88.1551 104.866 85.6299 104.869 85.6528C104.912 85.6585 108.456 83.854 111.837 83.6624C115.253 83.4823 117.644 85.2496 117.647 85.2725C117.693 85.2753 114.109 88.1408 110.399 88.1437H110.402Z" fill="#333333"/>
<path d="M112.234 75.4121C111.435 78.4435 112.5 81.2717 112.523 81.2717C112.523 81.3118 115.761 78.8524 116.409 75.598C117.063 72.3808 115.173 69.9986 115.196 69.9957C115.196 70.0243 113.036 72.4008 112.234 75.4092V75.4121Z" fill="#333333"/>
<path d="M118.201 82.6473C114.7 83.2821 112.451 81.1573 112.457 81.1802C112.494 81.1802 115.522 78.8323 118.74 78.0659C121.991 77.3052 124.627 78.6036 124.633 78.6236C124.676 78.6207 121.74 82.0124 118.201 82.6473Z" fill="#333333"/>
<path d="M117.61 69.9957C117.387 73.0756 118.934 75.6323 118.957 75.6294C118.962 75.6694 121.636 72.7239 121.69 69.4495C121.756 66.2065 119.502 64.219 119.525 64.2133C119.525 64.2419 117.841 66.9357 117.61 69.9928V69.9957Z" fill="#333333"/>
<path d="M124.689 75.9812C121.418 77.2052 118.867 75.5294 118.873 75.5522C118.907 75.5465 121.396 72.7497 124.389 71.4399C127.411 70.133 130.21 70.9337 130.219 70.9538C130.259 70.9423 127.996 74.7572 124.689 75.9841V75.9812Z" fill="#333333"/>
<path d="M121.877 63.7871C122.194 66.827 124.151 69.0404 124.171 69.0347C124.182 69.0719 126.268 65.7403 125.763 62.5374C125.275 59.363 122.736 57.8188 122.759 57.8102C122.767 57.8388 121.569 60.77 121.877 63.7871Z" fill="#333333"/>
<path d="M129.819 68.3685C126.842 70.1329 124.069 68.949 124.08 68.969C124.112 68.9576 126.04 65.8004 128.746 63.993C131.476 62.1828 134.353 62.4659 134.361 62.4859C134.398 62.4688 132.829 66.5926 129.819 68.3656V68.3685Z" fill="#333333"/>
<path d="M124.986 56.9694C125.808 59.8864 128.099 61.6995 128.119 61.688C128.136 61.7224 129.612 58.1019 128.584 55.0505C127.577 52.0278 124.835 50.964 124.852 50.9525C124.863 50.9811 124.179 54.0696 124.986 56.9666V56.9694Z" fill="#333333"/>
<path d="M133.53 60.0379C130.913 62.2914 128.005 61.6251 128.02 61.6423C128.048 61.6251 129.401 58.202 131.749 55.9485C134.12 53.6893 136.985 53.4491 137 53.4691C137.034 53.4462 136.181 57.7702 133.533 60.0379H133.53Z" fill="#333333"/>
<path d="M126.898 49.7313C128.187 52.4481 130.733 53.8151 130.75 53.8008C130.77 53.8322 131.615 50.0173 130.105 47.1976C128.615 44.4036 125.751 43.846 125.768 43.8317C125.785 43.8574 125.628 47.0289 126.898 49.7313Z" fill="#333333"/>
<path d="M135.774 51.2128C133.586 53.8924 130.626 53.758 130.641 53.7751C130.664 53.7551 131.423 50.1547 133.346 47.5151C135.292 44.8641 138.057 44.112 138.074 44.1263C138.103 44.1006 137.991 48.5132 135.771 51.2128H135.774Z" fill="#333333"/>
<path d="M127.564 42.2562C129.282 44.707 132.001 45.5935 132.018 45.5792C132.044 45.6078 132.235 41.6956 130.275 39.1762C128.34 36.6768 125.438 36.6367 125.455 36.6224C125.478 36.6453 125.869 39.8225 127.564 42.259V42.2562Z" fill="#333333"/>
<path d="M136.503 42.1217C134.811 45.1617 131.886 45.5592 131.906 45.5735C131.926 45.5506 132.069 41.8644 133.501 38.9045C134.957 35.9304 137.528 34.6835 137.548 34.6978C137.573 34.6663 138.221 39.0618 136.501 42.1246L136.503 42.1217Z" fill="#333333"/>
<path d="M126.939 34.7321C129.045 36.8569 131.858 37.243 131.87 37.2258C131.901 37.2516 131.416 33.3366 129.047 31.1803C126.708 29.0384 123.857 29.5159 123.871 29.4988C123.897 29.5188 124.858 32.6188 126.939 34.735V34.7321Z" fill="#333333"/>
<path d="M135.661 32.9876C134.534 36.3107 131.738 37.2286 131.76 37.2372C131.778 37.2115 131.284 33.5338 132.157 30.328C133.047 27.1051 135.336 25.4007 135.359 25.4093C135.382 25.3749 136.811 29.6388 135.661 32.9876Z" fill="#333333"/>
<path d="M124.975 27.3452C127.432 29.0925 130.248 28.9695 130.257 28.9524C130.294 28.9724 129.11 25.1575 126.373 23.413C123.671 21.6829 120.957 22.6609 120.969 22.6409C121 22.6552 122.547 25.6036 124.975 27.3452Z" fill="#333333"/>
<path d="M133.196 24.045C132.706 27.5654 130.129 28.9781 130.155 28.9867C130.166 28.9581 129.022 25.3777 129.264 22.0089C129.524 18.6201 131.427 16.501 131.453 16.5067C131.473 16.4695 133.71 20.4961 133.196 24.045Z" fill="#333333"/>
<path d="M121.63 20.2817C124.393 21.6086 127.126 20.9823 127.135 20.9623C127.178 20.9766 125.272 17.3562 122.21 16.075C119.185 14.7996 116.702 16.2552 116.711 16.2351C116.748 16.2466 118.902 18.9605 121.63 20.2817Z" fill="#333333"/>
<path d="M129.053 15.5144C129.273 19.1378 127.01 21.0109 127.038 21.0138C127.047 20.9852 125.226 17.5935 124.767 14.1532C124.319 10.69 125.743 8.21634 125.771 8.2192C125.786 8.17916 128.853 11.8568 129.05 15.5144H129.053Z" fill="#333333"/>
<path d="M116.858 13.7329C119.882 14.6022 122.445 13.4898 122.45 13.4726C122.499 13.4812 119.851 10.1553 116.504 9.37172C113.199 8.59101 111.039 10.4813 111.045 10.4613C111.088 10.467 113.867 12.8663 116.855 13.7357L116.858 13.7329Z" fill="#333333"/>
<path d="M123.184 7.63295C124.186 11.262 122.337 13.5412 122.368 13.5412C122.371 13.5098 119.86 10.4012 118.624 6.98665C117.397 3.54922 118.242 0.789554 118.273 0.789554C118.285 0.749517 122.2 3.9696 123.184 7.63009V7.63295Z" fill="#333333"/>
<path d="M84.0986 89.8366L84.1585 89.1703C89.6572 89.6679 95.1388 89.0559 100.449 87.3458C105.626 85.6814 110.417 83.0504 114.691 79.5301C123.563 72.2234 129.284 61.7996 130.802 50.1747C132.043 40.6545 131.407 32.1725 128.907 24.963C126.225 17.2188 121.445 11.1619 114.703 6.95515L115.054 6.38892C121.928 10.6786 126.801 16.8556 129.535 24.7457C132.069 32.0552 132.717 40.6402 131.461 50.2633C129.923 62.057 124.116 72.6352 115.113 80.0477C110.773 83.6224 105.908 86.2905 100.652 87.9835C95.2558 89.7194 89.6857 90.3428 84.0957 89.8366H84.0986Z" fill="#333333"/>
<path d="M23.0795 3.1232C20.7025 5.29376 20.2773 8.70259 20.2773 8.70259C20.2773 8.70259 23.7016 8.5882 26.0785 6.41764C28.4527 4.24709 28.8807 0.838257 28.8807 0.838257C28.8807 0.838257 25.4565 0.952647 23.0795 3.1232Z" fill="#333333"/>
<path d="M39.7853 83.1392C41.8313 85.7701 41.954 88.873 41.9254 88.8844C41.934 88.9245 37.6337 87.7176 35.7048 84.8178C33.7758 81.9552 34.7146 78.9868 34.6861 78.9954C34.6975 79.024 37.7422 80.5339 39.7853 83.1392Z" fill="#333333"/>
<path d="M36.7727 92.2446C40.5451 91.6012 41.9547 88.7443 41.9519 88.7672C41.9062 88.7815 37.8628 87.6118 34.3786 88.0208C30.8602 88.4497 28.7914 90.6403 28.7914 90.6632C28.7429 90.6746 32.9547 92.8995 36.7699 92.2418L36.7727 92.2446Z" fill="#333333"/>
<path d="M32.324 79.8562C33.7308 82.7388 33.2257 85.7559 33.2001 85.7616C33.2029 85.8016 29.4248 83.9228 28.1522 80.7914C26.8767 77.6971 28.3291 74.9832 28.3006 74.9889C28.3063 75.0175 30.9172 76.9993 32.324 79.8591V79.8562Z" fill="#333333"/>
<path d="M27.7162 88.1438C31.3858 88.1552 33.252 85.6301 33.2492 85.6529C33.2092 85.6587 29.6623 83.8542 26.2809 83.6626C22.8652 83.4824 20.474 85.2497 20.4711 85.2726C20.4255 85.2755 24.0095 88.1409 27.7191 88.1438H27.7162Z" fill="#333333"/>
<path d="M25.8845 75.4121C26.6835 78.4435 25.6191 81.2717 25.5963 81.2717C25.5963 81.3118 22.3575 78.8524 21.7098 75.598C21.0563 72.3808 22.9453 69.9986 22.9225 69.9957C22.9225 70.0243 25.0826 72.4008 25.8845 75.4092V75.4121Z" fill="#333333"/>
<path d="M19.9206 82.6473C23.4218 83.2821 25.6704 81.1573 25.6647 81.1802C25.6276 81.1802 22.6 78.8323 19.3813 78.0659C16.1311 77.3052 13.4945 78.6036 13.4887 78.6236C13.4459 78.6207 16.3822 82.0124 19.9206 82.6473Z" fill="#333333"/>
<path d="M20.5097 69.9957C20.7322 73.0756 19.1856 75.6323 19.1628 75.6294C19.1571 75.6694 16.4834 72.7239 16.4291 69.4495C16.3635 66.2065 18.6178 64.219 18.595 64.2133C18.595 64.2419 20.2785 66.9357 20.5097 69.9928V69.9957Z" fill="#333333"/>
<path d="M13.431 75.9812C16.7012 77.2052 19.2522 75.5294 19.2465 75.5522C19.2123 75.5465 16.724 72.7497 13.7307 71.4399C10.7088 70.133 7.90947 70.9337 7.90091 70.9538C7.86096 70.9423 10.1238 74.7572 13.431 75.9841V75.9812Z" fill="#333333"/>
<path d="M16.2446 63.7872C15.9279 66.8271 13.9704 69.0406 13.9504 69.0349C13.939 69.072 11.8531 65.7404 12.3582 62.5375C12.8461 59.3632 15.3857 57.8189 15.3629 57.8103C15.3543 57.8389 16.5528 60.7701 16.2446 63.7872Z" fill="#333333"/>
<path d="M8.30321 68.3686C11.2794 70.1331 14.0531 68.9491 14.0416 68.9691C14.0103 68.9577 12.0813 65.8005 9.37613 63.9932C6.64532 62.1829 3.76897 62.466 3.76041 62.4861C3.72331 62.4689 5.29275 66.5927 8.30321 68.3657V68.3686Z" fill="#333333"/>
<path d="M13.1316 56.9694C12.3098 59.8864 10.0184 61.6995 9.99843 61.688C9.98131 61.7224 8.50604 58.1019 9.53331 55.0505C10.5406 52.0278 13.2828 50.964 13.2657 50.9525C13.2543 50.9811 13.9391 54.0696 13.1316 56.9666V56.9694Z" fill="#333333"/>
<path d="M4.59106 60.0379C7.20773 62.2914 10.1155 61.6251 10.1041 61.6423C10.0755 61.6251 8.72295 58.202 6.37451 55.9485C4.00323 53.6893 1.1383 53.4491 1.12403 53.4691C1.08979 53.4462 1.94299 57.7702 4.59106 60.0379Z" fill="#333333"/>
<path d="M11.2229 49.7315C9.9331 52.4482 7.38776 53.8152 7.37064 53.8009C7.35067 53.8324 6.50603 50.0174 8.01554 47.1977C9.50507 44.4037 12.37 43.8461 12.3529 43.8318C12.3358 43.8575 12.4927 47.029 11.2229 49.7315Z" fill="#333333"/>
<path d="M2.34512 51.2128C4.53376 53.8924 7.49286 53.758 7.4786 53.7751C7.45577 53.7551 6.69673 50.1547 4.77346 47.5151C2.82451 44.8641 0.0594466 44.112 0.0423254 44.1263C0.0137902 44.1006 0.125077 48.5132 2.34512 51.2128Z" fill="#333333"/>
<path d="M10.557 42.2562C8.8392 44.707 6.11979 45.5935 6.10267 45.5792C6.07699 45.6078 5.8858 41.6956 7.84617 39.1762C9.78086 36.6768 12.6829 36.6367 12.6658 36.6224C12.6429 36.6453 12.252 39.8225 10.557 42.259V42.2562Z" fill="#333333"/>
<path d="M1.61652 42.1217C3.30866 45.1617 6.23351 45.5592 6.21354 45.5735C6.19357 45.5506 6.05089 41.8644 4.61842 38.9045C3.16313 35.9304 0.592107 34.6835 0.572133 34.6978C0.546451 34.6663 -0.101298 39.0618 1.61937 42.1246L1.61652 42.1217Z" fill="#333333"/>
<path d="M11.1823 34.7321C9.07638 36.8569 6.26281 37.243 6.25139 37.2258C6.22001 37.2516 6.7051 33.3366 9.07352 31.1803C11.4134 29.0384 14.2641 29.5159 14.2498 29.4988C14.2241 29.5188 13.2625 32.6188 11.1823 34.735V34.7321Z" fill="#333333"/>
<path d="M2.45865 32.9876C3.58579 36.3107 6.38224 37.2286 6.35941 37.2372C6.34229 37.2115 6.83595 33.5338 5.96277 30.328C5.07247 27.1051 2.78395 25.4007 2.76112 25.4093C2.73829 25.3749 1.30868 29.6388 2.45865 32.9876Z" fill="#333333"/>
<path d="M13.146 27.3452C10.6891 29.0925 7.87269 28.9695 7.86413 28.9524C7.82703 28.9724 9.01124 25.1575 11.7478 23.413C14.45 21.6829 17.1637 22.6609 17.1523 22.6409C17.1209 22.6552 15.5743 25.6036 13.146 27.3452Z" fill="#333333"/>
<path d="M4.92425 24.045C5.41505 27.5654 7.99178 28.9781 7.9661 28.9867C7.95469 28.9581 9.09895 25.3777 8.8564 22.0089C8.59673 18.6201 6.69343 16.501 6.66775 16.5067C6.64777 16.4695 4.41061 20.4961 4.92425 24.045Z" fill="#333333"/>
<path d="M16.4915 20.2816C13.7293 21.6085 10.9956 20.9822 10.987 20.9622C10.9442 20.9765 12.8504 17.3561 15.9122 16.0749C18.9369 14.7994 21.4195 16.255 21.4109 16.235C21.3738 16.2465 19.2194 18.9604 16.4915 20.2816Z" fill="#333333"/>
<path d="M9.06581 15.5144C8.84609 19.1378 11.1089 21.0109 11.0804 21.0138C11.0718 20.9852 12.8924 17.5935 13.3518 14.1532C13.7998 10.69 12.3759 8.21634 12.3474 8.2192C12.3331 8.17916 9.26556 11.8568 9.06866 15.5144H9.06581Z" fill="#333333"/>
<path d="M21.2635 13.7329C18.2387 14.6022 15.6763 13.4898 15.6706 13.4726C15.6221 13.4812 18.2701 10.1553 21.6173 9.37172C24.9217 8.59101 27.0818 10.4813 27.0761 10.4613C27.0333 10.467 24.254 12.8663 21.2663 13.7357L21.2635 13.7329Z" fill="#333333"/>
<path d="M14.9345 7.63295C13.9329 11.262 15.782 13.5412 15.7506 13.5412C15.7477 13.5098 18.2588 10.4012 19.4944 6.98665C20.7214 3.54922 19.8796 0.789554 19.8482 0.789554C19.8368 0.749517 15.9218 3.9696 14.9373 7.63009L14.9345 7.63295Z" fill="#333333"/>
<path d="M54.0216 89.8368L53.9617 89.1704C48.463 89.668 42.9814 89.0561 37.671 87.3459C32.4947 85.6815 27.7036 83.0506 23.429 79.5302C14.5575 72.2235 8.83615 61.7997 7.31807 50.1748C6.07679 40.6547 6.71313 32.1726 9.21281 24.9632C11.8951 17.2189 16.6748 11.162 23.4176 6.95527L23.0666 6.38904C16.1925 10.6787 11.3187 16.8557 8.58504 24.7458C6.05111 32.0554 5.40336 40.6404 6.65891 50.2634C8.19696 62.0571 14.0039 72.6353 23.0067 80.0478C27.3469 83.6225 32.2122 86.2907 37.4684 87.9836C42.8644 89.7195 48.4344 90.3429 54.0245 89.8368H54.0216Z" fill="#333333"/>
<path d="M69.059 85.7897L64.0254 89.4988L69.059 93.2107L74.0955 89.4988L69.059 85.7897Z" fill="#333333"/>
</svg>
