<svg width="139" height="94" viewBox="0 0 139 94" fill="none" xmlns="http://www.w3.org/2000/svg">
<path d="M25.2507 61.7897V54.7897H26.4507V60.7497H29.8507V61.7897H25.2507ZM31.0771 61.7897V54.7897H35.7771V55.8297H32.2771V57.6697H35.4771V58.7097H32.2771V60.7497H35.7771V61.7897H31.0771ZM36.6028 61.7897L39.2528 54.7897H40.4528L43.1028 61.7897H41.8228L41.2328 60.2097H38.3928L37.8028 61.7897H36.6028ZM38.7828 59.1697H40.8428L39.8228 56.2897L38.7828 59.1697ZM44.273 61.7897V54.7897H46.523C47.2297 54.7897 47.833 54.9163 48.333 55.1697C48.833 55.4163 49.213 55.7897 49.473 56.2897C49.7397 56.783 49.873 57.3997 49.873 58.1397V58.3397C49.873 59.0863 49.7364 59.7163 49.463 60.2297C49.1897 60.743 48.793 61.133 48.273 61.3997C47.7597 61.6597 47.143 61.7897 46.423 61.7897H44.273ZM45.473 60.7497H46.323C46.783 60.7497 47.183 60.673 47.523 60.5197C47.8697 60.3597 48.1364 60.103 48.323 59.7497C48.5164 59.3963 48.613 58.9263 48.613 58.3397V58.1397C48.613 57.593 48.5164 57.1497 48.323 56.8097C48.1297 56.4697 47.8664 56.223 47.533 56.0697C47.2064 55.9097 46.8364 55.8297 46.423 55.8297H45.473V60.7497ZM51.5471 61.7897V54.7897H52.7471V61.7897H51.5471ZM54.7736 61.7897V54.7897H55.9336L59.3736 59.7897V54.7897H60.5736V61.7897H59.4136L55.9736 56.7897V61.7897H54.7736ZM65.2946 61.8997C64.6546 61.8997 64.0979 61.7663 63.6246 61.4997C63.1513 61.233 62.7846 60.8363 62.5246 60.3097C62.2713 59.7763 62.1446 59.1197 62.1446 58.3397V58.1397C62.1446 57.5863 62.2179 57.0963 62.3646 56.6697C62.5179 56.243 62.7313 55.883 63.0046 55.5897C63.2846 55.2897 63.6179 55.063 64.0046 54.9097C64.3913 54.7563 64.8213 54.6797 65.2946 54.6797C65.6546 54.6797 65.9879 54.7297 66.2946 54.8297C66.6079 54.923 66.8846 55.063 67.1246 55.2497C67.3646 55.4297 67.5646 55.6597 67.7246 55.9397C67.8913 56.213 68.0146 56.5297 68.0946 56.8897H66.7946C66.7013 56.5963 66.5746 56.3663 66.4146 56.1997C66.2546 56.033 66.0779 55.9163 65.8846 55.8497C65.6913 55.7763 65.4946 55.7397 65.2946 55.7397C64.9213 55.7397 64.5913 55.8263 64.3046 55.9997C64.0179 56.173 63.7946 56.4363 63.6346 56.7897C63.4813 57.143 63.4046 57.593 63.4046 58.1397V58.3397C63.4046 58.7663 63.4513 59.1363 63.5446 59.4497C63.6379 59.763 63.7679 60.023 63.9346 60.2297C64.1079 60.4363 64.3079 60.5897 64.5346 60.6897C64.7679 60.7897 65.0213 60.8397 65.2946 60.8397C65.6413 60.8397 65.9413 60.7797 66.1946 60.6597C66.4479 60.5397 66.6513 60.353 66.8046 60.0997C66.9579 59.8463 67.0513 59.5263 67.0846 59.1397H65.4946V58.1397H68.2446V58.5397C68.2446 59.0997 68.1746 59.5897 68.0346 60.0097C67.9013 60.4297 67.7079 60.7797 67.4546 61.0597C67.2013 61.3397 66.8913 61.5497 66.5246 61.6897C66.1646 61.8297 65.7546 61.8997 65.2946 61.8997ZM72.3897 61.7897V54.7897H75.1897C75.983 54.7897 76.563 54.9597 76.9297 55.2997C77.303 55.6397 77.4897 56.093 77.4897 56.6597C77.4897 57.0197 77.3964 57.3297 77.2097 57.5897C77.023 57.843 76.7664 58.0263 76.4397 58.1397C76.853 58.233 77.1797 58.423 77.4197 58.7097C77.6664 58.9897 77.7897 59.3563 77.7897 59.8097C77.7897 60.1963 77.7064 60.5397 77.5397 60.8397C77.373 61.1397 77.1097 61.373 76.7497 61.5397C76.3897 61.7063 75.923 61.7897 75.3497 61.7897H72.3897ZM73.5897 60.7497H75.2197C75.7397 60.7497 76.0964 60.6663 76.2897 60.4997C76.4897 60.333 76.5897 60.0763 76.5897 59.7297C76.5897 59.3897 76.4897 59.1297 76.2897 58.9497C76.0897 58.763 75.7297 58.6697 75.2097 58.6697H73.5897V60.7497ZM73.5897 57.7097H75.0397C75.5064 57.7097 75.8297 57.623 76.0097 57.4497C76.1964 57.2763 76.2897 57.043 76.2897 56.7497C76.2897 56.4497 76.1997 56.223 76.0197 56.0697C75.8397 55.9097 75.513 55.8297 75.0397 55.8297H73.5897V57.7097ZM79.2611 61.7897V54.7897H81.9111C82.4977 54.7897 82.9844 54.883 83.3711 55.0697C83.7644 55.2563 84.0611 55.513 84.2611 55.8397C84.4611 56.1663 84.5611 56.543 84.5611 56.9697C84.5611 57.4497 84.4311 57.8663 84.1711 58.2197C83.9111 58.5663 83.5211 58.8163 83.0011 58.9697L84.7611 61.7897H83.4411L81.8911 59.1097H80.4611V61.7897H79.2611ZM80.4611 58.1097H81.7111C82.3244 58.1097 82.7511 58.0097 82.9911 57.8097C83.2377 57.6097 83.3611 57.3297 83.3611 56.9697C83.3611 56.6097 83.2377 56.3297 82.9911 56.1297C82.7511 55.9297 82.3244 55.8297 81.7111 55.8297H80.4611V58.1097ZM85.4801 61.7897L88.1301 54.7897H89.3301L91.9801 61.7897H90.7001L90.1101 60.2097H87.2701L86.6801 61.7897H85.4801ZM87.6601 59.1697H89.7201L88.7001 56.2897L87.6601 59.1697ZM93.1503 61.7897V54.7897H94.3103L97.7503 59.7897V54.7897H98.9503V61.7897H97.7903L94.3503 56.7897V61.7897H93.1503ZM100.871 61.7897V54.7897H103.121C103.828 54.7897 104.431 54.9163 104.931 55.1697C105.431 55.4163 105.811 55.7897 106.071 56.2897C106.338 56.783 106.471 57.3997 106.471 58.1397V58.3397C106.471 59.0863 106.335 59.7163 106.061 60.2297C105.788 60.743 105.391 61.133 104.871 61.3997C104.358 61.6597 103.741 61.7897 103.021 61.7897H100.871ZM102.071 60.7497H102.921C103.381 60.7497 103.781 60.673 104.121 60.5197C104.468 60.3597 104.735 60.103 104.921 59.7497C105.115 59.3963 105.211 58.9263 105.211 58.3397V58.1397C105.211 57.593 105.115 57.1497 104.921 56.8097C104.728 56.4697 104.465 56.223 104.131 56.0697C103.805 55.9097 103.435 55.8297 103.021 55.8297H102.071V60.7497ZM110.395 61.8997C109.795 61.8997 109.299 61.813 108.905 61.6397C108.512 61.4663 108.212 61.2297 108.005 60.9297C107.805 60.623 107.685 60.2763 107.645 59.8897H108.845C108.899 60.163 109.035 60.3897 109.255 60.5697C109.475 60.7497 109.855 60.8397 110.395 60.8397C110.955 60.8397 111.352 60.7497 111.585 60.5697C111.825 60.383 111.945 60.1563 111.945 59.8897C111.945 59.6697 111.879 59.4897 111.745 59.3497C111.612 59.2097 111.405 59.0897 111.125 58.9897C110.852 58.883 110.502 58.7863 110.075 58.6997C109.595 58.593 109.189 58.4597 108.855 58.2997C108.522 58.133 108.269 57.913 108.095 57.6397C107.929 57.3663 107.845 57.0163 107.845 56.5897C107.845 56.2363 107.942 55.9163 108.135 55.6297C108.329 55.343 108.612 55.113 108.985 54.9397C109.365 54.7663 109.835 54.6797 110.395 54.6797C110.942 54.6797 111.395 54.763 111.755 54.9297C112.122 55.0897 112.402 55.313 112.595 55.5997C112.795 55.8863 112.912 56.2163 112.945 56.5897H111.745C111.692 56.3363 111.555 56.133 111.335 55.9797C111.122 55.8197 110.809 55.7397 110.395 55.7397C109.915 55.7397 109.569 55.823 109.355 55.9897C109.149 56.1563 109.045 56.3563 109.045 56.5897C109.045 56.9097 109.179 57.1497 109.445 57.3097C109.712 57.4697 110.122 57.6063 110.675 57.7197C111.089 57.8063 111.449 57.9097 111.755 58.0297C112.062 58.143 112.319 58.283 112.525 58.4497C112.732 58.6097 112.885 58.8097 112.985 59.0497C113.092 59.283 113.145 59.563 113.145 59.8897C113.145 60.2763 113.042 60.623 112.835 60.9297C112.635 61.2297 112.332 61.4663 111.925 61.6397C111.519 61.813 111.009 61.8997 110.395 61.8997ZM39.6117 73.7897V66.7897H42.1617C42.7884 66.7897 43.3051 66.883 43.7117 67.0697C44.1184 67.2497 44.4184 67.5063 44.6117 67.8397C44.8117 68.173 44.9117 68.5663 44.9117 69.0197C44.9117 69.473 44.8117 69.8663 44.6117 70.1997C44.4184 70.533 44.1184 70.793 43.7117 70.9797C43.3051 71.1597 42.7884 71.2497 42.1617 71.2497H40.8117V73.7897H39.6117ZM40.8117 70.2097H42.0617C42.6951 70.2097 43.1284 70.113 43.3617 69.9197C43.5951 69.7197 43.7117 69.4197 43.7117 69.0197C43.7117 68.6263 43.5951 68.3297 43.3617 68.1297C43.1284 67.9297 42.6951 67.8297 42.0617 67.8297H40.8117V70.2097ZM44.9323 73.7897L47.5823 66.7897H48.7823L51.4323 73.7897H50.1523L49.5623 72.2097H46.7223L46.1323 73.7897H44.9323ZM47.1123 71.1697H49.1723L48.1523 68.2897L47.1123 71.1697ZM52.6026 73.7897V66.7897H55.2526C55.8392 66.7897 56.3259 66.883 56.7126 67.0697C57.1059 67.2563 57.4026 67.513 57.6026 67.8397C57.8026 68.1663 57.9026 68.543 57.9026 68.9697C57.9026 69.4497 57.7726 69.8663 57.5126 70.2197C57.2526 70.5663 56.8626 70.8163 56.3426 70.9697L58.1026 73.7897H56.7826L55.2326 71.1097H53.8026V73.7897H52.6026ZM53.8026 70.1097H55.0526C55.6659 70.1097 56.0926 70.0097 56.3326 69.8097C56.5792 69.6097 56.7026 69.3297 56.7026 68.9697C56.7026 68.6097 56.5792 68.3297 56.3326 68.1297C56.0926 67.9297 55.6659 67.8297 55.0526 67.8297H53.8026V70.1097ZM61.1239 73.7897V67.8297H58.7739V66.7897H64.6739V67.8297H62.3239V73.7897H61.1239ZM65.8961 73.7897V66.7897H67.0561L70.4961 71.7897V66.7897H71.6961V73.7897H70.5361L67.0961 68.7897V73.7897H65.8961ZM73.6171 73.7897V66.7897H78.3171V67.8297H74.8171V69.6697H78.0171V70.7097H74.8171V72.7497H78.3171V73.7897H73.6171ZM79.8928 73.7897V66.7897H82.5428C83.1294 66.7897 83.6161 66.883 84.0028 67.0697C84.3961 67.2563 84.6928 67.513 84.8928 67.8397C85.0928 68.1663 85.1928 68.543 85.1928 68.9697C85.1928 69.4497 85.0628 69.8663 84.8028 70.2197C84.5428 70.5663 84.1528 70.8163 83.6328 70.9697L85.3928 73.7897H84.0728L82.5228 71.1097H81.0928V73.7897H79.8928ZM81.0928 70.1097H82.3428C82.9561 70.1097 83.3828 70.0097 83.6228 69.8097C83.8694 69.6097 83.9928 69.3297 83.9928 68.9697C83.9928 68.6097 83.8694 68.3297 83.6228 68.1297C83.3828 67.9297 82.9561 67.8297 82.3428 67.8297H81.0928V70.1097ZM86.8618 73.7897V66.7897H91.5618V67.8297H88.0618V69.6697H91.2618V70.7097H88.0618V72.7497H91.5618V73.7897H86.8618ZM93.1375 73.7897V66.7897H95.3875C96.0941 66.7897 96.6975 66.9163 97.1975 67.1697C97.6975 67.4163 98.0775 67.7897 98.3375 68.2897C98.6041 68.783 98.7375 69.3997 98.7375 70.1397V70.3397C98.7375 71.0863 98.6008 71.7163 98.3275 72.2297C98.0541 72.743 97.6575 73.133 97.1375 73.3997C96.6241 73.6597 96.0075 73.7897 95.2875 73.7897H93.1375ZM94.3375 72.7497H95.1875C95.6475 72.7497 96.0475 72.673 96.3875 72.5197C96.7341 72.3597 97.0008 72.103 97.1875 71.7497C97.3808 71.3963 97.4775 70.9263 97.4775 70.3397V70.1397C97.4775 69.593 97.3808 69.1497 97.1875 68.8097C96.9941 68.4697 96.7308 68.223 96.3975 68.0697C96.0708 67.9097 95.7008 67.8297 95.2875 67.8297H94.3375V72.7497Z" fill="#333333"/>
<path d="M53.9049 43.1537C51.9449 43.1537 49.6489 42.3977 48.3609 41.8377L49.7049 38.0017L50.0689 38.0857C50.8529 40.0737 52.1129 42.0057 53.9889 42.0057C55.6689 42.0057 57.7409 40.4937 57.7409 37.1337C57.7409 33.8017 55.7249 32.5137 53.3729 32.5137C51.6929 32.5137 50.0409 33.1857 49.2009 33.6617L51.6929 23.1337H57.6849C59.8689 23.1337 60.1489 22.5457 61.1289 21.3137L61.4649 21.3697L59.7569 26.0737H52.3089L51.1329 31.1697C51.8609 30.8337 53.1769 30.4417 54.5769 30.4417C58.2729 30.4417 60.9329 33.1017 60.9329 36.6857C60.9329 40.8857 57.3209 43.1537 53.9049 43.1537ZM70.6487 43.1537C66.8127 43.1537 63.5087 39.2617 63.5087 32.9897C63.5087 26.5217 67.0087 22.7697 70.6207 22.7697C74.3167 22.7697 77.7607 26.6337 77.7607 33.0457C77.7607 39.3457 74.4567 43.1537 70.6487 43.1537ZM70.6487 41.9217C72.8327 41.9217 74.2887 38.6737 74.2887 32.9617C74.2887 26.7177 72.5527 24.0017 70.5927 24.0017C68.6607 24.0017 66.9527 26.7177 66.9527 32.9617C66.9527 39.2617 68.6887 41.9217 70.6487 41.9217ZM84.6775 39.1217V34.0257H79.4415V32.8217H84.6775V27.7817H85.8255V32.8217H91.0615V34.0257H85.8255V39.1217H84.6775Z" fill="#333333"/>
<path d="M115 3.12308C117.377 5.29364 117.803 8.70247 117.803 8.70247C117.803 8.70247 114.378 8.58808 112.001 6.41752C109.624 4.24697 109.199 0.838135 109.199 0.838135C109.199 0.838135 112.623 0.952525 115 3.12308Z" fill="#333333"/>
<path d="M98.2956 83.1392C96.2497 85.7701 96.127 88.873 96.1555 88.8844C96.1469 88.9245 100.447 87.7176 102.376 84.8178C104.305 81.9552 103.366 78.9868 103.395 78.9954C103.383 79.024 100.339 80.5339 98.2956 83.1392Z" fill="#333333"/>
<path d="M101.306 92.2446C97.5337 91.6012 96.1241 88.7443 96.127 88.7672C96.1726 88.7815 100.216 87.6118 103.7 88.0208C107.219 88.4497 109.287 90.6403 109.287 90.6632C109.336 90.6746 105.124 92.8995 101.309 92.2418L101.306 92.2446Z" fill="#333333"/>
<path d="M105.755 79.8561C104.348 82.7387 104.853 85.7558 104.878 85.7615C104.876 85.8015 108.654 83.9227 109.926 80.7912C111.202 77.697 109.749 74.9831 109.778 74.9888C109.772 75.0174 107.161 76.9992 105.755 79.8589V79.8561Z" fill="#333333"/>
<path d="M110.363 88.1437C106.693 88.1551 104.827 85.6299 104.83 85.6528C104.873 85.6585 108.417 83.854 111.798 83.6624C115.214 83.4823 117.605 85.2496 117.608 85.2725C117.654 85.2753 114.07 88.1408 110.36 88.1437H110.363Z" fill="#333333"/>
<path d="M112.195 75.4121C111.396 78.4435 112.461 81.2717 112.484 81.2717C112.484 81.3118 115.722 78.8524 116.37 75.598C117.023 72.3808 115.134 69.9986 115.157 69.9957C115.157 70.0243 112.997 72.4008 112.195 75.4092V75.4121Z" fill="#333333"/>
<path d="M118.162 82.6473C114.661 83.2821 112.412 81.1573 112.418 81.1802C112.455 81.1802 115.483 78.8323 118.701 78.0659C121.952 77.3052 124.588 78.6036 124.594 78.6236C124.637 78.6207 121.7 82.0124 118.162 82.6473Z" fill="#333333"/>
<path d="M117.571 69.9957C117.348 73.0756 118.895 75.6323 118.918 75.6294C118.923 75.6694 121.597 72.7239 121.651 69.4495C121.717 66.2065 119.463 64.219 119.485 64.2133C119.485 64.2419 117.802 66.9357 117.571 69.9928V69.9957Z" fill="#333333"/>
<path d="M124.649 75.9812C121.379 77.2052 118.828 75.5294 118.834 75.5522C118.868 75.5465 121.357 72.7497 124.35 71.4399C127.372 70.133 130.171 70.9337 130.18 70.9538C130.22 70.9423 127.957 74.7572 124.649 75.9841V75.9812Z" fill="#333333"/>
<path d="M121.838 63.7871C122.155 66.827 124.112 69.0404 124.132 69.0347C124.143 69.0719 126.229 65.7403 125.724 62.5374C125.236 59.363 122.697 57.8188 122.72 57.8102C122.728 57.8388 121.53 60.77 121.838 63.7871Z" fill="#333333"/>
<path d="M129.779 68.3685C126.803 70.1329 124.03 68.949 124.041 68.969C124.072 68.9576 126.001 65.8004 128.707 63.993C131.437 62.1828 134.314 62.4659 134.322 62.4859C134.359 62.4688 132.79 66.5926 129.779 68.3656V68.3685Z" fill="#333333"/>
<path d="M124.947 56.9694C125.769 59.8864 128.06 61.6995 128.08 61.688C128.097 61.7224 129.573 58.1019 128.545 55.0505C127.538 52.0278 124.796 50.964 124.813 50.9525C124.824 50.9811 124.14 54.0696 124.947 56.9666V56.9694Z" fill="#333333"/>
<path d="M133.491 60.0379C130.874 62.2914 127.966 61.6251 127.981 61.6423C128.009 61.6251 129.362 58.202 131.71 55.9485C134.081 53.6893 136.946 53.4491 136.961 53.4691C136.995 53.4462 136.142 57.7702 133.494 60.0379H133.491Z" fill="#333333"/>
<path d="M126.859 49.7313C128.148 52.4481 130.694 53.8151 130.711 53.8008C130.731 53.8322 131.575 50.0173 130.066 47.1976C128.576 44.4036 125.711 43.846 125.729 43.8317C125.746 43.8574 125.589 47.0289 126.859 49.7313Z" fill="#333333"/>
<path d="M135.735 51.2128C133.546 53.8924 130.587 53.758 130.602 53.7751C130.624 53.7551 131.383 50.1547 133.307 47.5151C135.253 44.8641 138.018 44.112 138.035 44.1263C138.064 44.1006 137.952 48.5132 135.732 51.2128H135.735Z" fill="#333333"/>
<path d="M127.525 42.2562C129.243 44.707 131.962 45.5935 131.979 45.5792C132.005 45.6078 132.196 41.6956 130.236 39.1762C128.301 36.6768 125.399 36.6367 125.416 36.6224C125.439 36.6453 125.83 39.8225 127.525 42.259V42.2562Z" fill="#333333"/>
<path d="M136.464 42.1217C134.772 45.1617 131.847 45.5592 131.867 45.5735C131.887 45.5506 132.03 41.8644 133.462 38.9045C134.918 35.9304 137.489 34.6835 137.509 34.6978C137.534 34.6663 138.182 39.0618 136.461 42.1246L136.464 42.1217Z" fill="#333333"/>
<path d="M126.9 34.7321C129.006 36.8569 131.819 37.243 131.83 37.2258C131.862 37.2516 131.377 33.3366 129.008 31.1803C126.668 29.0384 123.818 29.5159 123.832 29.4988C123.858 29.5188 124.819 32.6188 126.9 34.735V34.7321Z" fill="#333333"/>
<path d="M135.622 32.9876C134.495 36.3107 131.699 37.2286 131.721 37.2372C131.738 37.2115 131.245 33.5338 132.118 30.328C133.008 27.1051 135.297 25.4007 135.32 25.4093C135.342 25.3749 136.772 29.6388 135.622 32.9876Z" fill="#333333"/>
<path d="M124.936 27.3452C127.393 29.0925 130.209 28.9695 130.218 28.9524C130.255 28.9724 129.071 25.1575 126.334 23.413C123.632 21.6829 120.918 22.6609 120.93 22.6409C120.961 22.6552 122.508 25.6036 124.936 27.3452Z" fill="#333333"/>
<path d="M133.157 24.045C132.667 27.5654 130.09 28.9781 130.115 28.9867C130.127 28.9581 128.983 25.3777 129.225 22.0089C129.485 18.6201 131.388 16.501 131.414 16.5067C131.434 16.4695 133.671 20.4961 133.157 24.045Z" fill="#333333"/>
<path d="M121.591 20.2817C124.354 21.6086 127.087 20.9823 127.096 20.9623C127.139 20.9766 125.232 17.3562 122.171 16.075C119.146 14.7996 116.663 16.2552 116.672 16.2351C116.709 16.2466 118.863 18.9605 121.591 20.2817Z" fill="#333333"/>
<path d="M129.014 15.5144C129.233 19.1378 126.971 21.0109 126.999 21.0138C127.008 20.9852 125.187 17.5935 124.728 14.1532C124.28 10.69 125.704 8.21634 125.732 8.2192C125.746 8.17916 128.814 11.8568 129.011 15.5144H129.014Z" fill="#333333"/>
<path d="M116.818 13.7329C119.843 14.6022 122.406 13.4898 122.411 13.4726C122.46 13.4812 119.812 10.1553 116.465 9.37172C113.16 8.59101 111 10.4813 111.006 10.4613C111.049 10.467 113.828 12.8663 116.816 13.7357L116.818 13.7329Z" fill="#333333"/>
<path d="M123.145 7.63295C124.147 11.262 122.298 13.5412 122.329 13.5412C122.332 13.5098 119.821 10.4012 118.585 6.98665C117.358 3.54922 118.203 0.789554 118.234 0.789554C118.246 0.749517 122.161 3.9696 123.145 7.63009V7.63295Z" fill="#333333"/>
<path d="M84.0595 89.8366L84.1194 89.1703C89.6182 89.6679 95.0998 89.0559 100.41 87.3458C105.586 85.6814 110.377 83.0504 114.652 79.5301C123.524 72.2234 129.245 61.7996 130.763 50.1747C132.004 40.6545 131.368 32.1725 128.868 24.963C126.186 17.2188 121.406 11.1619 114.663 6.95515L115.014 6.38892C121.889 10.6786 126.762 16.8556 129.496 24.7457C132.03 32.0552 132.678 40.6402 131.422 50.2633C129.884 62.057 124.077 72.6352 115.074 80.0477C110.734 83.6224 105.869 86.2905 100.613 87.9835C95.2168 89.7194 89.6467 90.3428 84.0566 89.8366H84.0595Z" fill="#333333"/>
<path d="M23.0404 3.1232C20.6635 5.29376 20.2383 8.70259 20.2383 8.70259C20.2383 8.70259 23.6625 8.5882 26.0395 6.41764C28.4136 4.24709 28.8416 0.838257 28.8416 0.838257C28.8416 0.838257 25.4174 0.952647 23.0404 3.1232Z" fill="#333333"/>
<path d="M39.7462 83.1392C41.7922 85.7701 41.9149 88.873 41.8864 88.8844C41.8949 88.9245 37.5947 87.7176 35.6657 84.8178C33.7367 81.9552 34.6755 78.9868 34.647 78.9954C34.6584 79.024 37.7031 80.5339 39.7462 83.1392Z" fill="#333333"/>
<path d="M36.7337 92.2446C40.506 91.6012 41.9157 88.7443 41.9128 88.7672C41.8671 88.7815 37.8237 87.6118 34.3396 88.0208C30.8212 88.4497 28.7524 90.6403 28.7524 90.6632C28.7039 90.6746 32.9157 92.8995 36.7308 92.2418L36.7337 92.2446Z" fill="#333333"/>
<path d="M32.285 79.8562C33.6917 82.7388 33.1867 85.7559 33.161 85.7616C33.1638 85.8016 29.3858 83.9228 28.1131 80.7914C26.8376 77.6971 28.29 74.9832 28.2615 74.9889C28.2672 75.0175 30.8782 76.9993 32.285 79.8591V79.8562Z" fill="#333333"/>
<path d="M27.6772 88.1438C31.3468 88.1552 33.213 85.6301 33.2101 85.6529C33.1702 85.6587 29.6233 83.8542 26.2418 83.6626C22.8262 83.4824 20.4349 85.2497 20.4321 85.2726C20.3864 85.2755 23.9704 88.1409 27.68 88.1438H27.6772Z" fill="#333333"/>
<path d="M25.8454 75.4121C26.6444 78.4435 25.58 81.2717 25.5572 81.2717C25.5572 81.3118 22.3185 78.8524 21.6707 75.598C21.0173 72.3808 22.9063 69.9986 22.8835 69.9957C22.8835 70.0243 25.0436 72.4008 25.8454 75.4092V75.4121Z" fill="#333333"/>
<path d="M19.8815 82.6473C23.3828 83.2821 25.6314 81.1573 25.6256 81.1802C25.5886 81.1802 22.561 78.8323 19.3422 78.0659C16.092 77.3052 13.4554 78.6036 13.4497 78.6236C13.4069 78.6207 16.3431 82.0124 19.8815 82.6473Z" fill="#333333"/>
<path d="M20.4706 69.9957C20.6932 73.0756 19.1466 75.6323 19.1237 75.6294C19.118 75.6694 16.4443 72.7239 16.3901 69.4495C16.3244 66.2065 18.5787 64.219 18.5559 64.2133C18.5559 64.2419 20.2395 66.9357 20.4706 69.9928V69.9957Z" fill="#333333"/>
<path d="M13.392 75.9812C16.6621 77.2052 19.2131 75.5294 19.2074 75.5522C19.1732 75.5465 16.6849 72.7497 13.6916 71.4399C10.6697 70.133 7.87041 70.9337 7.86185 70.9538C7.8219 70.9423 10.0847 74.7572 13.392 75.9841V75.9812Z" fill="#333333"/>
<path d="M16.2056 63.7872C15.8888 66.8271 13.9313 69.0406 13.9114 69.0349C13.8999 69.072 11.814 65.7404 12.3191 62.5375C12.807 59.3632 15.3467 57.8189 15.3238 57.8103C15.3153 57.8389 16.5138 60.7701 16.2056 63.7872Z" fill="#333333"/>
<path d="M8.26415 68.3686C11.2404 70.1331 14.014 68.9491 14.0026 68.9691C13.9712 68.9577 12.0422 65.8005 9.33707 63.9932C6.60625 62.1829 3.72991 62.466 3.72135 62.4861C3.68425 62.4689 5.25369 66.5927 8.26415 68.3657V68.3686Z" fill="#333333"/>
<path d="M13.0925 56.9694C12.2707 59.8864 9.97935 61.6995 9.95937 61.688C9.94225 61.7224 8.46698 58.1019 9.49425 55.0505C10.5015 52.0278 13.2438 50.964 13.2266 50.9525C13.2152 50.9811 13.9001 54.0696 13.0925 56.9666V56.9694Z" fill="#333333"/>
<path d="M4.55199 60.0379C7.16867 62.2914 10.0764 61.6251 10.065 61.6423C10.0365 61.6251 8.68389 58.202 6.33544 55.9485C3.96417 53.6893 1.09924 53.4491 1.08497 53.4691C1.05073 53.4462 1.90393 57.7702 4.55199 60.0379Z" fill="#333333"/>
<path d="M11.1838 49.7315C9.89404 52.4482 7.3487 53.8152 7.33158 53.8009C7.3116 53.8324 6.46696 50.0174 7.97648 47.1977C9.46601 44.4037 12.3309 43.8461 12.3138 43.8318C12.2967 43.8575 12.4536 47.029 11.1838 49.7315Z" fill="#333333"/>
<path d="M2.30605 51.2128C4.4947 53.8924 7.4538 53.758 7.43953 53.7751C7.41671 53.7551 6.65767 50.1547 4.7344 47.5151C2.78544 44.8641 0.0203841 44.112 0.00326294 44.1263C-0.0252723 44.1006 0.0860148 48.5132 2.30605 51.2128Z" fill="#333333"/>
<path d="M10.518 42.2562C8.80014 44.707 6.08073 45.5935 6.06361 45.5792C6.03793 45.6078 5.84674 41.6956 7.80711 39.1762C9.7418 36.6768 12.6438 36.6367 12.6267 36.6224C12.6039 36.6453 12.2129 39.8225 10.518 42.259V42.2562Z" fill="#333333"/>
<path d="M1.57746 42.1217C3.2696 45.1617 6.19445 45.5592 6.17448 45.5735C6.1545 45.5506 6.01183 41.8644 4.57936 38.9045C3.12407 35.9304 0.553045 34.6835 0.53307 34.6978C0.507388 34.6663 -0.140361 39.0618 1.58031 42.1246L1.57746 42.1217Z" fill="#333333"/>
<path d="M11.1432 34.7321C9.03732 36.8569 6.22375 37.243 6.21233 37.2258C6.18094 37.2516 6.66604 33.3366 9.03446 31.1803C11.3743 29.0384 14.225 29.5159 14.2107 29.4988C14.1851 29.5188 13.2234 32.6188 11.1432 34.735V34.7321Z" fill="#333333"/>
<path d="M2.41959 32.9876C3.54673 36.3107 6.34318 37.2286 6.32035 37.2372C6.30323 37.2115 6.79689 33.5338 5.92371 30.328C5.03341 27.1051 2.74489 25.4007 2.72206 25.4093C2.69923 25.3749 1.26962 29.6388 2.41959 32.9876Z" fill="#333333"/>
<path d="M13.1069 27.3452C10.65 29.0925 7.83362 28.9695 7.82506 28.9524C7.78797 28.9724 8.97218 25.1575 11.7087 23.413C14.411 21.6829 17.1247 22.6609 17.1133 22.6409C17.0819 22.6552 15.5353 25.6036 13.1069 27.3452Z" fill="#333333"/>
<path d="M4.88519 24.045C5.37599 27.5654 7.95272 28.9781 7.92704 28.9867C7.91562 28.9581 9.05988 25.3777 8.81734 22.0089C8.55766 18.6201 6.65437 16.501 6.62869 16.5067C6.60871 16.4695 4.37155 20.4961 4.88519 24.045Z" fill="#333333"/>
<path d="M16.4524 20.2816C13.6902 21.6085 10.9565 20.9822 10.948 20.9622C10.9052 20.9765 12.8113 17.3561 15.8731 16.0749C18.8979 14.7994 21.3804 16.255 21.3719 16.235C21.3348 16.2465 19.1804 18.9604 16.4524 20.2816Z" fill="#333333"/>
<path d="M9.02675 15.5144C8.80703 19.1378 11.0699 21.0109 11.0413 21.0138C11.0328 20.9852 12.8533 17.5935 13.3127 14.1532C13.7607 10.69 12.3368 8.21634 12.3083 8.2192C12.294 8.17916 9.22649 11.8568 9.0296 15.5144H9.02675Z" fill="#333333"/>
<path d="M21.2244 13.7329C18.1997 14.6022 15.6372 13.4898 15.6315 13.4726C15.583 13.4812 18.2311 10.1553 21.5783 9.37172C24.8826 8.59101 27.0427 10.4813 27.037 10.4613C26.9942 10.467 24.2149 12.8663 21.2273 13.7357L21.2244 13.7329Z" fill="#333333"/>
<path d="M14.8954 7.63295C13.8938 11.262 15.7429 13.5412 15.7115 13.5412C15.7086 13.5098 18.2197 10.4012 19.4553 6.98665C20.6823 3.54922 19.8405 0.789554 19.8092 0.789554C19.7977 0.749517 15.8827 3.9696 14.8982 7.63009L14.8954 7.63295Z" fill="#333333"/>
<path d="M53.9826 89.8368L53.9226 89.1704C48.4239 89.668 42.9423 89.0561 37.6319 87.3459C32.4556 85.6815 27.6646 83.0506 23.39 79.5302C14.5184 72.2235 8.79708 61.7997 7.27901 50.1748C6.03773 40.6547 6.67407 32.1726 9.17375 24.9632C11.8561 17.2189 16.6357 11.162 23.3786 6.95527L23.0276 6.38904C16.1535 10.6787 11.2796 16.8557 8.54597 24.7458C6.01205 32.0554 5.3643 40.6404 6.61985 50.2634C8.1579 62.0571 13.9648 72.6353 22.9677 80.0478C27.3079 83.6225 32.1731 86.2907 37.4293 87.9836C42.8253 89.7195 48.3954 90.3429 53.9854 89.8368H53.9826Z" fill="#333333"/>
<path d="M69.0199 85.7897L63.9863 89.4988L69.0199 93.2107L74.0564 89.4988L69.0199 85.7897Z" fill="#333333"/>
</svg>
