<svg width="176" height="48" viewBox="0 0 176 48" fill="none" xmlns="http://www.w3.org/2000/svg">
<path fill-rule="evenodd" clip-rule="evenodd" d="M23.3561 0.0519121C22.7577 0.0716872 21.6476 0.143317 20.1661 0.258012C19.8638 0.281302 19.4071 0.329641 19.1519 0.365236C18.8962 0.400832 18.6446 0.414015 18.5926 0.3938C18.5407 0.374025 17.974 0.440382 17.3338 0.541893C16.6936 0.642966 16.0046 0.745357 15.803 0.769526C15.6011 0.793256 15.2548 0.858733 15.033 0.914543C14.8108 0.970792 14.4808 1.03583 14.2996 1.05956C13.816 1.12328 12.9065 1.3474 12.9065 1.40321C12.9061 1.42957 12.8405 1.43397 12.7604 1.41331C12.6808 1.39222 12.5567 1.40013 12.4854 1.43089C12.4146 1.46165 12.3068 1.49637 12.2461 1.50779C12.052 1.54427 11.2737 1.7697 10.6696 1.96438C10.347 2.06809 10.05 2.15685 10.0096 2.16125C9.93961 2.16872 9.82345 2.21003 9.49609 2.34362C9.18017 2.47325 9.05389 2.5128 8.99933 2.50138C8.96809 2.49435 8.81277 2.55543 8.65393 2.63629C8.49509 2.71715 8.31469 2.78306 8.25265 2.78306C8.19017 2.78306 8.13957 2.81602 8.13957 2.85645C8.13957 2.89688 8.08677 2.92984 8.02253 2.92984C7.95829 2.92984 7.81441 2.99444 7.70265 3.07398C7.59089 3.15352 7.47693 3.1957 7.44965 3.16846C7.31985 3.03838 7.44877 18.691 7.58385 19.482C7.65645 19.9052 7.72509 20.3771 7.73697 20.5309C7.76425 20.8895 8.04145 22.0268 8.24033 22.595C8.32481 22.8367 8.39873 23.0591 8.40401 23.0894C8.40973 23.1193 8.42117 23.1522 8.42953 23.1623C8.43745 23.1724 8.45505 23.23 8.46825 23.2906C8.48189 23.3509 8.54569 23.524 8.61037 23.6747C8.67505 23.8259 8.73049 23.974 8.73313 24.0043C8.73621 24.0346 8.77273 24.101 8.81497 24.1511C8.85677 24.2016 8.87085 24.2429 8.84665 24.2429C8.82201 24.2429 8.86733 24.3589 8.94741 24.5013C9.02749 24.6437 9.09305 24.8054 9.09305 24.8617C9.09305 24.9175 9.11769 24.9742 9.14805 24.9873C9.17797 25.001 9.34781 25.2919 9.52469 25.6342C9.70157 25.9765 9.89209 26.2837 9.94797 26.3162C10.0038 26.3492 10.0302 26.4068 10.0069 26.4445C9.98317 26.4823 9.99901 26.5131 10.0417 26.5131C10.0848 26.5131 10.1196 26.568 10.1196 26.6344C10.1196 26.7012 10.2018 26.8638 10.303 26.9956C10.4038 27.1279 10.4861 27.2584 10.4861 27.2861C10.4861 27.33 10.7078 27.6179 11.0295 27.991C11.0876 28.0582 11.1729 28.1843 11.2196 28.2709C11.2662 28.3579 11.3674 28.4919 11.4453 28.5697C11.5227 28.647 11.5861 28.7433 11.5861 28.7837C11.5861 28.8241 11.6358 28.8571 11.6961 28.8571C11.7568 28.8571 11.7982 28.8865 11.788 28.9221C11.7687 28.9903 12.2179 29.5369 12.723 30.0603C12.8841 30.2273 13.1234 30.4879 13.2546 30.6386C13.3857 30.7893 13.493 30.8926 13.493 30.868C13.493 30.8434 13.717 31.0482 13.9911 31.3233C14.6084 31.9429 15.5764 32.8134 15.8044 32.9536C15.8981 33.0116 16.0098 33.1351 16.0525 33.2283C16.0948 33.3214 16.1656 33.3979 16.2092 33.3979C16.2853 33.3979 16.412 33.5025 16.984 34.0386C17.1235 34.1696 17.2634 34.2768 17.2951 34.2768C17.3263 34.2768 17.4253 34.3757 17.5146 34.4965C17.604 34.6173 17.7047 34.7162 17.7386 34.7162C17.7976 34.7162 18.1742 35.0436 18.9262 35.7485C19.1233 35.9335 19.2975 36.0719 19.3129 36.0565C19.3288 36.0411 19.426 36.1286 19.529 36.2512C19.6324 36.3738 19.7388 36.474 19.7652 36.474C19.7921 36.474 19.906 36.5645 20.0182 36.6753C20.4063 37.058 20.7403 37.3529 20.7856 37.3529C20.8107 37.3529 20.9295 37.4535 21.0496 37.5761C21.179 37.708 21.3057 37.7783 21.3589 37.7475C21.4086 37.719 21.4245 37.7233 21.3937 37.7567C21.3356 37.8209 21.6115 38.1584 21.7224 38.1584C21.7958 38.1584 22.1404 38.5332 22.1439 38.6163C22.1487 38.7332 21.9815 38.662 21.7571 38.4519C21.6282 38.3311 21.4808 38.2322 21.4289 38.2322C21.3774 38.2318 21.3158 38.1821 21.2929 38.1219C21.2696 38.0613 21.2058 38.0121 21.1512 38.0121C21.0967 38.0121 20.9928 37.9519 20.9207 37.8785C20.8485 37.8051 20.6738 37.6662 20.533 37.57C20.3918 37.4737 20.2325 37.3441 20.1793 37.2821C20.0974 37.1877 20.0908 37.1872 20.1384 37.2795C20.1696 37.3401 20.0759 37.2905 19.9307 37.1696C19.3618 36.6972 19.1132 36.507 18.9464 36.4169C18.8509 36.365 18.773 36.289 18.773 36.2477C18.773 36.2064 18.744 36.1901 18.7084 36.2121C18.6732 36.2341 18.5658 36.1769 18.4699 36.0851C18.3744 35.9932 18.117 35.792 17.8983 35.6377C17.6796 35.4835 17.4649 35.3284 17.4218 35.2937C17.3782 35.2585 17.1943 35.1135 17.013 34.9711C16.8313 34.8287 16.606 34.6472 16.5119 34.5677C16.4173 34.4882 16.3205 34.4231 16.2958 34.4231C16.2712 34.4231 16.1533 34.3326 16.034 34.2218C15.9144 34.1111 15.8409 34.0698 15.8704 34.1304C15.8998 34.1906 15.8638 34.1744 15.7903 34.0935C15.5901 33.8747 15.033 33.4502 15.033 33.517C15.033 33.5486 14.92 33.4555 14.7822 33.3096C14.6445 33.1637 14.5182 33.0573 14.502 33.0736C14.4857 33.0898 14.3779 33.005 14.2622 32.8846C14.1464 32.7642 14.0224 32.6653 13.9858 32.6653C13.9269 32.6653 13.7592 32.5287 13.3426 32.1406C13.2708 32.0734 13.1987 32.0317 13.1824 32.0475C13.1666 32.0637 12.9589 31.8976 12.7213 31.6783C12.4837 31.4591 12.2773 31.2916 12.2632 31.3057C12.2492 31.3197 12.1634 31.2609 12.0732 31.1747C11.7638 30.8785 11.4409 30.6149 11.3876 30.6149C11.3344 30.6149 11.1641 30.4598 10.8024 30.0836C10.696 29.9729 10.5728 29.8823 10.5283 29.8823C10.4843 29.8823 10.4069 29.8164 10.3567 29.736C10.3061 29.6551 10.2278 29.5892 10.1825 29.5892C10.1367 29.5892 10.0245 29.5154 9.93301 29.4244C9.84149 29.3339 9.60653 29.1146 9.41117 28.9375C8.87701 28.4528 7.93057 27.5388 7.96313 27.5388C7.97897 27.5388 7.88789 27.4399 7.76117 27.319C7.63489 27.1982 7.50597 27.0993 7.47561 27.0993C7.44525 27.0993 7.33305 26.9508 7.22657 26.7697C7.12053 26.5882 7.00569 26.4402 6.97181 26.4402C6.93793 26.4402 6.89173 26.3707 6.86973 26.2863C6.84773 26.2015 6.79669 26.1528 6.75665 26.1774C6.71617 26.202 6.66029 26.1492 6.63169 26.06C6.60353 25.9708 6.54061 25.8579 6.49177 25.8091C6.44337 25.7608 6.29201 25.545 6.15561 25.3297C6.01921 25.1148 5.89029 24.9219 5.86873 24.9021C5.77325 24.8124 5.51849 24.3901 5.31609 23.9863C5.19509 23.7446 5.07145 23.5359 5.04065 23.5222C5.01029 23.5091 5.00413 23.4677 5.02657 23.4308C5.04945 23.3939 5.03317 23.364 4.99049 23.364C4.94781 23.364 4.91305 23.3043 4.91305 23.2313C4.91305 23.1579 4.82549 22.9193 4.71901 22.7C4.61209 22.4812 4.51397 22.236 4.50077 22.1556C4.48757 22.0747 4.41233 21.7869 4.33313 21.5157C4.25437 21.2446 4.17297 20.882 4.15317 20.7102C4.07397 20.0313 4.03393 19.7307 3.99829 19.5554C3.87553 18.9511 3.81437 17.4328 3.81129 14.9148L3.80733 12.0505L4.01017 11.9029C4.12193 11.8216 4.22665 11.7662 4.24293 11.7798C4.25965 11.7934 4.29353 11.7763 4.31817 11.742C4.36701 11.6739 4.97949 11.3487 5.81109 10.9488L6.08609 10.8166V8.70415C6.08609 7.3445 6.06013 6.59173 6.01305 6.59173C5.97257 6.59173 5.93957 6.63041 5.93957 6.67699C5.93957 6.72401 5.91889 6.74202 5.89381 6.71698C5.86873 6.69193 5.72133 6.73587 5.56689 6.81453C5.41201 6.89363 5.23469 6.95779 5.17265 6.95779C5.11017 6.95779 5.05957 6.99295 5.05957 7.03557C5.05957 7.0782 5.02657 7.0927 4.98609 7.06765C4.94605 7.04304 4.91305 7.06282 4.91305 7.11248C4.91305 7.16169 4.89281 7.18191 4.86817 7.1573C4.84353 7.13269 4.64553 7.21267 4.42817 7.33527C4.21081 7.45744 4.03305 7.5361 4.03305 7.50929C4.03305 7.48249 3.93405 7.53127 3.81305 7.61696C3.69205 7.70309 3.59305 7.75275 3.59305 7.72726C3.59305 7.66837 2.98761 7.99532 2.91589 8.09332C2.88597 8.13331 2.86133 8.13946 2.86089 8.1065C2.86001 8.07354 2.76893 8.10826 2.65805 8.1834C2.54717 8.25855 2.36545 8.35874 2.25457 8.40664C2.14369 8.4541 2.05305 8.52266 2.05305 8.55913C2.05305 8.62329 1.77981 8.73974 1.66805 8.72348C1.63769 8.71909 1.61305 8.74853 1.61305 8.78896C1.61305 8.82939 1.56333 8.86235 1.50305 8.86235C1.44233 8.86235 1.39261 8.88696 1.39261 8.91728C1.39261 8.94716 1.21265 9.06889 0.993527 9.1871C0.773967 9.30531 0.614247 9.43406 0.638447 9.47318C0.662647 9.51185 0.646367 9.52195 0.602367 9.49471C0.558367 9.46746 0.439127 9.52855 0.337487 9.62962C0.235847 9.73113 0.119247 9.81419 0.0783266 9.81419C-0.0211134 9.81419 0.0378466 17.3634 0.144327 18.3104C0.187447 18.6927 0.258287 19.2038 0.302287 19.4455C0.346287 19.6872 0.394687 20.033 0.410087 20.2145C0.425047 20.396 0.522287 20.8407 0.625687 21.2033C0.729087 21.5658 0.821927 21.8954 0.832047 21.9358C0.975927 22.5071 1.36313 23.4269 1.50173 23.5275C1.54265 23.557 1.54837 23.582 1.51405 23.5824C1.48017 23.5833 1.53429 23.7235 1.63505 23.8949C1.73537 24.0663 1.82073 24.239 1.82469 24.2794C1.82865 24.3198 1.88497 24.4147 1.95009 24.4908C2.01477 24.5664 2.10761 24.7149 2.15557 24.8204C2.29945 25.1346 2.52561 25.487 2.58457 25.4874C2.61493 25.4879 2.63957 25.5336 2.63957 25.5898C2.63957 25.6461 2.68885 25.7111 2.74957 25.734C2.81029 25.7573 2.85957 25.824 2.85957 25.8825C2.85957 25.9405 2.88553 25.9994 2.91721 26.0126C2.94845 26.0262 3.13193 26.2433 3.32465 26.4951C3.51737 26.7469 3.70041 26.9525 3.73209 26.9525C3.76377 26.9525 3.82713 27.0352 3.87289 27.1358C3.91865 27.2364 4.00665 27.319 4.06781 27.319C4.12941 27.319 4.17957 27.3516 4.17957 27.3916C4.17957 27.5212 5.04505 28.4642 5.13921 28.437C5.17177 28.4278 5.26813 28.5183 5.35393 28.6387C5.43929 28.7587 5.53785 28.8571 5.57261 28.8571C5.60737 28.8571 5.75829 28.9722 5.90789 29.1133C6.05749 29.2544 6.20533 29.3695 6.23657 29.3695C6.26781 29.3695 6.40333 29.4692 6.53797 29.591C7.13373 30.1293 7.37573 30.3209 7.46109 30.3213C7.51169 30.3218 7.55305 30.3552 7.55305 30.396C7.55305 30.4373 7.66833 30.5257 7.80957 30.5929C7.95081 30.6601 8.06609 30.7639 8.06609 30.8236C8.06609 30.8834 8.08897 30.9097 8.11625 30.8821C8.14397 30.8544 8.27597 30.9379 8.40973 31.0671C8.54349 31.1967 8.65305 31.2798 8.65305 31.2516C8.65305 31.2235 8.71333 31.2582 8.78769 31.329C8.86161 31.3993 8.99889 31.5065 9.09305 31.5667C9.18677 31.6274 9.32449 31.7346 9.39841 31.8049C9.47233 31.8752 9.55989 31.9332 9.59245 31.9332C9.62501 31.9332 9.71609 31.9908 9.79397 32.0611C10.0206 32.2654 10.5182 32.6284 10.5719 32.6284C10.5992 32.6289 10.6982 32.6952 10.7919 32.7765C11.1808 33.1127 11.4919 33.321 11.5377 33.2753C11.5645 33.2489 11.5861 33.2621 11.5861 33.3052C11.5861 33.3759 11.8589 33.5816 12.6856 34.1353C12.8401 34.2385 13.0605 34.3963 13.1749 34.4855C13.592 34.8111 14.5196 35.4457 14.5196 35.4053C14.5196 35.3829 14.6212 35.4659 14.7457 35.5898C14.8702 35.7142 14.9978 35.7999 15.0295 35.7801C15.0616 35.7603 15.1906 35.8425 15.3164 35.9629C15.4418 36.0829 15.5698 36.1813 15.6006 36.1813C15.631 36.1813 15.7718 36.2802 15.913 36.4006C16.0538 36.5215 16.2074 36.6203 16.2536 36.6203C16.2994 36.6203 16.357 36.6722 16.3812 36.735C16.4054 36.7979 16.4525 36.8326 16.4855 36.8119C16.5189 36.7917 16.6346 36.8568 16.7429 36.957C16.8511 37.0571 16.9396 37.12 16.9396 37.0967C16.9396 37.073 17.0298 37.1376 17.1406 37.24C17.2511 37.3423 17.369 37.4263 17.4024 37.4263C17.4363 37.4263 17.7008 37.6003 17.9898 37.8134C18.2794 38.0266 18.6072 38.2463 18.718 38.3021C18.8289 38.3575 18.9196 38.4265 18.9196 38.455C18.9196 38.4836 19.0186 38.5477 19.1396 38.5978C19.2606 38.6479 19.3596 38.7178 19.3596 38.7534C19.3596 38.7886 19.3921 38.8176 19.4322 38.8176C19.5004 38.8176 19.6922 38.9569 19.9126 39.1656C19.9654 39.2161 20.0301 39.257 20.0561 39.257C20.0816 39.257 20.211 39.3396 20.343 39.4403C20.4754 39.5409 20.6065 39.6235 20.6351 39.6235C20.6633 39.6235 20.7632 39.7057 20.8564 39.8063C20.9497 39.9074 21.0588 39.9896 21.0984 39.9896C21.1376 39.9896 21.2661 40.0717 21.3831 40.1724C21.5002 40.2734 21.622 40.3556 21.6537 40.3556C21.6854 40.3556 21.6762 40.4215 21.633 40.5024C21.5899 40.5828 21.5142 40.6487 21.4654 40.6487C21.4161 40.6487 21.2357 40.7766 21.0646 40.9331C20.893 41.0895 20.753 41.1976 20.753 41.1734C20.753 41.1488 20.7016 41.202 20.6386 41.2916C20.5762 41.3813 20.4772 41.4542 20.4186 41.4542C20.3606 41.4542 20.313 41.4828 20.313 41.518C20.313 41.5527 19.9993 41.8207 19.6161 42.1134C19.2328 42.4061 18.9196 42.6741 18.9196 42.7093C18.9196 42.744 18.8839 42.7726 18.8404 42.7726C18.7968 42.7726 18.6309 42.9044 18.4708 43.0657C18.311 43.227 18.1562 43.3588 18.1262 43.3588C18.0968 43.3588 18.0176 43.4164 17.9507 43.4867C17.8834 43.5574 17.7404 43.6809 17.6321 43.7613C17.2832 44.021 16.8661 44.4376 16.8661 44.5264C16.8661 44.5734 16.8379 44.5949 16.8036 44.5739C16.7693 44.5523 16.6641 44.6165 16.5708 44.7158C16.4771 44.8151 16.4314 44.8977 16.4683 44.899C16.5057 44.9004 16.4784 44.9346 16.408 44.9759C16.3372 45.0168 16.2796 45.1003 16.2796 45.1609C16.2796 45.2216 16.247 45.2515 16.207 45.2269C16.1638 45.2001 16.1542 45.233 16.1828 45.3077C16.2162 45.3943 16.2039 45.4167 16.1436 45.3794C16.0952 45.3495 16.0626 45.3526 16.071 45.3855C16.0794 45.4189 16.0472 45.578 16.0002 45.7388C15.9526 45.9001 15.9135 46.4687 15.9135 47.0022L15.913 47.973H24.464H33.015L32.9881 46.8194C32.9736 46.1849 32.9296 45.6162 32.8909 45.556C32.8522 45.4954 32.8192 45.4106 32.8183 45.3675C32.8156 45.2686 32.4544 44.8098 32.1196 44.4803C31.5682 43.9375 31.4921 43.8712 31.4213 43.8712C31.3812 43.8712 31.3051 43.8022 31.2523 43.7178C31.1991 43.6334 31.1397 43.5803 31.1199 43.6C31.1001 43.6198 31.0094 43.5653 30.9188 43.4792C30.4788 43.0613 30.0458 42.69 29.8641 42.5744C29.7532 42.5045 29.6094 42.3885 29.5442 42.3169C29.4791 42.2452 29.3872 42.1868 29.3405 42.1868C29.2934 42.1868 29.2358 42.1371 29.2129 42.0769C29.1896 42.0163 29.1425 41.9671 29.1082 41.9671C29.0734 41.9671 28.9111 41.8357 28.7474 41.6753C28.4658 41.3993 28.0861 41.289 28.0861 41.4824C28.0861 41.5206 28.0641 41.5298 28.0372 41.503C28.0104 41.4762 27.936 41.4982 27.8722 41.5522C27.8084 41.6063 27.4164 41.7939 27.0006 41.9688C26.5852 42.1437 26.2284 42.3138 26.2082 42.3467C26.1875 42.3797 26.107 42.4065 26.0286 42.4065C25.9503 42.4065 25.8861 42.4447 25.8861 42.4918C25.8861 42.5388 25.8641 42.5555 25.8372 42.5282C25.81 42.5014 25.7193 42.5234 25.6353 42.5775C25.5517 42.6315 25.1363 42.8319 24.713 43.0231C23.511 43.5658 23.32 43.6537 22.733 43.9349C22.4303 44.0799 22.1663 44.2021 22.1461 44.2056C22.1263 44.2096 21.8174 44.3502 21.4606 44.518C21.1037 44.6859 20.7821 44.8235 20.7456 44.8235C20.7095 44.8235 20.6796 44.8511 20.6796 44.8845C20.6796 44.9179 20.6298 44.9456 20.5696 44.9456C20.4024 44.9456 20.4384 44.8397 20.6246 44.7835C20.7152 44.7562 20.8771 44.6516 20.9845 44.5519C21.0914 44.4517 21.2014 44.3761 21.2287 44.3836C21.256 44.391 21.3743 44.3119 21.4918 44.2074C21.6097 44.1028 21.721 44.0254 21.7404 44.036C21.7593 44.0461 21.842 43.9969 21.9248 43.9261C22.007 43.8558 22.1074 43.7982 22.147 43.7982C22.187 43.7982 22.2196 43.7705 22.2196 43.7367C22.2196 43.7029 22.304 43.6365 22.407 43.5899C22.51 43.5429 22.5746 43.4722 22.55 43.4326C22.5245 43.3913 22.554 43.379 22.6191 43.404C22.6816 43.4278 22.733 43.415 22.733 43.375C22.733 43.3351 22.7907 43.2814 22.8611 43.256C23.0446 43.19 23.2967 43.0358 23.4533 42.8943C23.5272 42.8275 23.6104 42.7726 23.6377 42.7726C23.665 42.7726 23.7833 42.6873 23.9008 42.5827C24.0183 42.4786 24.1309 42.4043 24.1512 42.4179C24.1714 42.432 24.2647 42.3736 24.3588 42.2887C24.4526 42.2039 24.6369 42.0734 24.768 41.9983C24.8992 41.9236 25.0061 41.8365 25.0061 41.8049C25.0061 41.7733 25.0558 41.7473 25.1161 41.7473C25.1768 41.7473 25.2261 41.7144 25.2261 41.674C25.2261 41.634 25.2613 41.601 25.3044 41.601C25.3898 41.601 25.9076 41.2319 25.9472 41.1431C25.9609 41.1128 26.0172 41.0882 26.0731 41.0882C26.129 41.0882 26.283 40.9946 26.4154 40.8808C26.5478 40.7665 26.7634 40.6109 26.8946 40.5354C27.0257 40.4593 27.133 40.3697 27.133 40.3358C27.133 40.3016 27.1599 40.2906 27.1924 40.3108C27.2254 40.331 27.3447 40.2677 27.4582 40.1706C27.5713 40.0735 27.7262 39.9742 27.8018 39.95C27.8775 39.9263 27.9396 39.8828 27.9396 39.8538C27.9396 39.8252 28.0469 39.7395 28.178 39.6639C28.3092 39.5888 28.4658 39.4816 28.5261 39.4266C28.5868 39.3713 28.9331 39.1384 29.2961 38.9085C29.6591 38.6787 30.0199 38.4326 30.0973 38.3619C30.1752 38.2911 30.2988 38.2142 30.3723 38.1909C30.4462 38.1676 30.5061 38.118 30.5061 38.0802C30.5061 38.0428 30.5558 38.0121 30.6161 38.0121C30.6768 38.0121 30.7261 37.9866 30.7261 37.9558C30.7261 37.9246 30.8748 37.8183 31.0561 37.7189C31.2378 37.6201 31.3861 37.5115 31.3861 37.4781C31.3861 37.4447 31.4142 37.4346 31.4486 37.4557C31.4829 37.4768 31.5735 37.4377 31.6501 37.3678C31.8459 37.1907 32.9186 36.474 32.9881 36.474C33.0198 36.474 33.139 36.3764 33.2539 36.2569C33.3683 36.1374 33.488 36.0556 33.5196 36.0754C33.5513 36.0948 33.6112 36.0526 33.653 35.9814C33.6943 35.9098 33.7295 35.8777 33.7308 35.9093C33.7317 35.941 33.8039 35.901 33.8906 35.8201C33.9772 35.7397 34.0762 35.6909 34.1106 35.712C34.1449 35.7331 34.173 35.6988 34.173 35.636C34.173 35.5731 34.1977 35.5288 34.228 35.5371C34.3178 35.5617 34.7125 35.3292 34.863 35.1631C34.9395 35.0783 35.0315 35.0093 35.0676 35.0093C35.1032 35.0093 35.1723 34.9768 35.2211 34.9373C35.6598 34.5796 35.7865 34.4921 35.7883 34.5448C35.7896 34.5787 35.8248 34.5479 35.8662 34.4767C35.908 34.4051 35.9731 34.366 36.0109 34.3893C36.0488 34.413 36.0796 34.4047 36.0796 34.3717C36.0796 34.3383 36.2116 34.2298 36.373 34.1304C36.5341 34.0307 36.6661 33.9239 36.6661 33.8931C36.6661 33.8624 36.6912 33.8452 36.7211 33.8549C36.7849 33.8747 37.4832 33.4089 37.5632 33.2929C37.5932 33.2498 37.6178 33.2392 37.6182 33.2691C37.6196 33.3197 37.803 33.1878 38.0257 32.9769C38.0789 32.9264 38.1427 32.8851 38.1674 32.8851C38.232 32.8851 38.6417 32.5889 38.9008 32.3546C39.0227 32.2439 39.156 32.1525 39.1961 32.1516C39.2366 32.1507 39.4011 32.0352 39.5622 31.895C39.7232 31.7548 39.8939 31.6401 39.9419 31.6401C39.9898 31.6401 40.0937 31.5579 40.1733 31.4569C40.2525 31.3562 40.3489 31.274 40.3876 31.274C40.4263 31.274 40.5473 31.1914 40.656 31.0908C40.7647 30.9902 40.8804 30.9076 40.9125 30.9076C40.9446 30.9076 41.0749 30.8087 41.202 30.6874C41.3292 30.5661 41.433 30.4901 41.433 30.5182C41.433 30.5463 41.4955 30.505 41.5725 30.4272C41.6491 30.349 41.8224 30.2027 41.9575 30.1025C42.0926 30.0019 42.2906 29.8287 42.3975 29.718C42.5044 29.6068 42.6272 29.5163 42.6708 29.5163C42.7139 29.5163 42.8036 29.4337 42.8696 29.333C42.9356 29.2324 43.0236 29.1498 43.0646 29.1498C43.1059 29.1498 43.2111 29.0759 43.2991 28.985C43.3866 28.8945 43.6546 28.6396 43.894 28.419C44.1338 28.1979 44.3212 27.991 44.3106 27.9589C44.3001 27.9268 44.341 27.8815 44.4017 27.8587C44.4624 27.8354 44.4932 27.7857 44.4704 27.7488C44.4475 27.7119 44.458 27.6904 44.4937 27.7018C44.5707 27.7255 45.0261 27.3116 45.0261 27.218C45.0261 27.1819 45.1018 27.0831 45.1946 26.9978C45.287 26.9126 45.492 26.6779 45.6504 26.4766C45.8084 26.2754 45.9721 26.0864 46.0139 26.0565C46.0552 26.0271 46.0632 26.0025 46.031 26.0016C45.9985 26.0011 46.0728 25.8935 46.1956 25.7625C46.3184 25.6316 46.4191 25.4857 46.4191 25.4382C46.4196 25.3908 46.464 25.3077 46.5181 25.2536C46.6677 25.1038 47.04 24.5066 47.0219 24.4442C47.0131 24.4139 47.0448 24.3893 47.0919 24.3893C47.139 24.3893 47.1557 24.3673 47.1288 24.3409C47.102 24.3141 47.1645 24.1823 47.267 24.0478C47.3695 23.9133 47.4346 23.8035 47.4109 23.8035C47.3876 23.8035 47.4694 23.622 47.593 23.4005C47.7162 23.179 47.799 22.9975 47.7765 22.9975C47.7541 22.9975 47.7871 22.8987 47.8496 22.7778C48.008 22.4724 48.4726 20.9717 48.5065 20.6571C48.5219 20.5142 48.5892 20.1504 48.6561 19.8485C48.723 19.5461 48.7824 19.0931 48.7876 18.8413C48.7934 18.5895 48.8202 18.3834 48.847 18.3834C48.8743 18.3834 48.9016 16.4696 48.9082 14.13L48.9201 9.87615L48.6781 9.66346C48.5452 9.54612 48.4079 9.44989 48.3736 9.44945C48.3388 9.44857 48.2108 9.36419 48.088 9.26092C47.9574 9.15106 47.8179 9.09218 47.7497 9.11854C47.6863 9.14271 47.6568 9.14052 47.6841 9.11283C47.7413 9.0557 47.4654 8.8228 47.1253 8.64131C46.9995 8.57407 46.7148 8.42334 46.493 8.30645C46.2708 8.18912 46.0728 8.07442 46.053 8.05113C46.0002 7.99093 45.7327 7.88458 45.668 7.89864C45.6377 7.9048 45.613 7.88063 45.613 7.84415C45.613 7.80812 45.448 7.71891 45.2461 7.6464C45.0446 7.57433 44.8796 7.48293 44.8796 7.44382C44.8796 7.40471 44.8598 7.3924 44.836 7.41657C44.8118 7.4403 44.6512 7.38142 44.4787 7.28518C44.3062 7.18894 44.1443 7.13093 44.1188 7.15598C44.0937 7.18147 44.073 7.16169 44.073 7.11248C44.073 7.06282 44.04 7.04304 43.9996 7.06765C43.9591 7.0927 43.9261 7.0782 43.9261 7.03557C43.9261 6.99295 43.8755 6.95779 43.8139 6.95779C43.7518 6.95779 43.5437 6.87825 43.3506 6.78026C42.8076 6.5056 42.8212 6.45199 42.8432 8.75732L42.863 10.8029L43.5596 11.1492C43.9428 11.3395 44.3208 11.5456 44.3995 11.6071C44.4783 11.6682 44.5812 11.7187 44.6279 11.7187C44.675 11.7187 44.7955 11.7833 44.8967 11.8629C44.9975 11.942 45.1009 11.9859 45.1264 11.9604C45.1598 11.927 45.2043 15.1161 45.1898 16.4792C45.1735 18.0283 44.8747 20.3916 44.5654 21.423C44.4805 21.7051 44.4074 21.9688 44.4026 22.0088C44.3758 22.2325 44.18 22.7778 44.1267 22.7778C44.0924 22.7778 44.0845 22.8108 44.1096 22.8512C44.1346 22.8916 44.1201 22.9246 44.0774 22.9246C44.0343 22.9246 43.9996 22.9655 43.9991 23.016C43.9991 23.1861 43.1966 24.6824 43.1059 24.6824C43.0729 24.6824 43.0461 24.7175 43.0461 24.7602C43.0461 24.8269 42.9048 25.0383 42.5696 25.4729C42.5291 25.5252 42.4142 25.6487 42.3135 25.7476C42.2132 25.8465 42.152 25.9273 42.1771 25.9273C42.2026 25.9273 42.0803 26.0719 41.906 26.249C41.7314 26.4261 41.6029 26.5852 41.6205 26.6027C41.6381 26.6208 41.5703 26.6792 41.4696 26.7328C41.3688 26.7869 41.2861 26.8567 41.2861 26.8879C41.2861 26.9627 39.7813 28.4906 39.7078 28.4906C39.6766 28.4906 39.5322 28.6132 39.387 28.7626C39.2418 28.912 39.1692 29.0056 39.226 28.9709C39.2964 28.9279 39.3122 28.9344 39.2766 28.992C39.248 29.0386 39.1842 29.0768 39.1349 29.0768C39.0856 29.0768 38.9514 29.1836 38.8366 29.3146C38.7213 29.4455 38.6118 29.5409 38.5928 29.5259C38.5735 29.5114 38.3381 29.6964 38.0688 29.9368C37.8 30.1776 37.2504 30.6369 36.8478 30.9576C36.4456 31.2784 36.0708 31.5962 36.0158 31.6638C35.9603 31.7315 35.8706 31.7864 35.8164 31.7864C35.7623 31.7864 35.6827 31.8524 35.6396 31.9332C35.5964 32.0136 35.5208 32.0796 35.4715 32.0796C35.4218 32.0796 35.3404 32.1455 35.2898 32.2259C35.2396 32.3067 35.1644 32.3727 35.1226 32.3727C35.0381 32.3727 34.1502 33.0894 34.1119 33.1883C34.0982 33.223 34.0406 33.2515 33.9834 33.2515C33.9262 33.2515 33.8796 33.2845 33.8796 33.3245C33.8796 33.3649 33.836 33.3979 33.7828 33.3979C33.7295 33.3979 33.6186 33.4722 33.5359 33.5627C33.4536 33.6532 33.2794 33.8101 33.1487 33.9107C33.018 34.0114 32.8671 34.1348 32.8139 34.1854C32.7602 34.2355 32.6898 34.2768 32.6564 34.2768C32.6234 34.2768 32.4641 34.391 32.303 34.5308C31.9018 34.8779 31.918 34.8652 31.423 35.2286C31.181 35.4066 30.9008 35.6276 30.8004 35.7199C30.6997 35.8126 30.5787 35.8882 30.5316 35.8882C30.4841 35.8882 30.4339 35.9146 30.4207 35.9471C30.4071 35.9801 30.1981 36.1528 29.9561 36.3312C29.7141 36.51 29.4897 36.6977 29.4576 36.7482C29.4254 36.7988 29.3568 36.8401 29.3053 36.8401C29.2538 36.8401 29.1342 36.9227 29.0396 37.0233C28.945 37.1239 28.831 37.2066 28.7866 37.2066C28.7421 37.2066 28.651 37.2641 28.5842 37.3344C28.4156 37.5128 28.248 37.646 28.1912 37.646C28.1323 37.646 27.3988 38.2472 27.3649 38.3232C27.3517 38.3535 27.2989 38.3781 27.2474 38.3781C27.1964 38.3781 27.0684 38.4577 26.9636 38.5548C26.7916 38.7139 26.7639 38.7196 26.6781 38.6137C26.5998 38.5174 26.6002 38.5069 26.6794 38.5548C26.7445 38.5939 26.7894 38.5622 26.8162 38.459C26.8387 38.3742 26.8998 38.3052 26.9522 38.3052C27.005 38.3052 27.1964 38.1566 27.3781 37.9756C27.5594 37.7941 27.7429 37.646 27.7856 37.646C27.8278 37.646 27.9171 37.5634 27.9831 37.4628C28.0491 37.3621 28.1406 37.2791 28.1864 37.2782C28.259 37.2764 28.6048 36.9855 29.3542 36.296C29.4668 36.1928 29.5904 36.1079 29.6292 36.1079C29.6679 36.1079 29.6996 36.0574 29.6996 35.9963C29.6996 35.9348 29.7739 35.8553 29.8646 35.8197C30.0661 35.7406 30.2922 35.4813 30.2254 35.4066C30.1981 35.3763 30.2196 35.3771 30.2729 35.4075C30.3327 35.4422 30.444 35.3912 30.5659 35.2734C30.7705 35.0766 30.8849 34.9755 31.5282 34.4231C31.7398 34.2421 32.0144 34.003 32.1394 33.8923C32.2639 33.7815 32.3906 33.691 32.421 33.691C32.4513 33.691 32.4949 33.6321 32.5178 33.56C32.5406 33.4884 32.6564 33.3724 32.7752 33.3021C32.894 33.2322 33.1228 33.052 33.2842 32.9018C33.4457 32.7519 33.7502 32.4803 33.961 32.2993C34.1722 32.1178 34.4133 31.8998 34.4973 31.8141C34.5809 31.7289 34.793 31.539 34.9681 31.3931C35.1432 31.2468 35.2625 31.1273 35.2334 31.1273C35.204 31.1273 35.2656 31.06 35.3707 30.9774C35.622 30.7801 36.2265 30.1754 36.1724 30.1754C36.1495 30.1754 36.2512 30.0585 36.3981 29.9153C36.5455 29.7725 36.6661 29.6428 36.6661 29.627C36.6661 29.6116 36.8064 29.4446 36.978 29.2566C37.1492 29.0685 37.2896 28.8914 37.2896 28.8628C37.2896 28.8342 37.3723 28.7301 37.473 28.6317C37.5738 28.5337 37.6891 28.401 37.7296 28.3372C37.814 28.2036 38.1392 27.7453 38.4758 27.2848C38.6038 27.1094 38.6888 26.9464 38.665 26.9227C38.6412 26.8989 38.6527 26.8796 38.6905 26.8796C38.7284 26.8796 38.841 26.7227 38.9409 26.5316C39.0412 26.3404 39.1807 26.1049 39.2511 26.0091C39.3219 25.9128 39.3796 25.7726 39.3796 25.6979C39.3796 25.6228 39.4082 25.5613 39.4429 25.5613C39.5371 25.5613 39.9335 24.7281 39.9045 24.5905C39.8983 24.5606 39.9278 24.5356 39.9705 24.5356C40.0132 24.5356 40.0294 24.5057 40.0066 24.4688C39.9841 24.4319 39.9986 24.3906 40.04 24.377C40.0809 24.3633 40.1276 24.2847 40.1434 24.2021C40.1592 24.1194 40.2296 23.9217 40.3 23.7626C40.3704 23.604 40.436 23.4348 40.4466 23.3873C40.4567 23.3394 40.55 23.0428 40.6538 22.7282C40.927 21.8989 41.2144 20.7884 41.1726 20.7212C41.1528 20.6896 41.1726 20.505 41.2166 20.3108C41.3833 19.5734 41.5012 18.3051 41.4564 17.726C41.4242 17.3063 41.4352 17.1384 41.4955 17.1384C41.558 17.1384 41.5796 15.36 41.5796 10.1438C41.5796 4.04735 41.5659 3.14956 41.4722 3.14956C41.4128 3.14956 41.2562 3.10386 41.1237 3.04849C40.5874 2.82349 39.684 2.49786 39.2696 2.38009C39.0276 2.31154 38.7803 2.23727 38.7196 2.2153C38.6588 2.19333 38.5436 2.16301 38.463 2.14763C38.3821 2.13268 38.1427 2.05534 37.9311 1.97668C37.719 1.89758 37.5294 1.83254 37.5091 1.8321C37.4893 1.83166 37.4647 1.82771 37.4546 1.82332C37.4444 1.81892 37.3538 1.80969 37.253 1.80266C37.1523 1.79563 36.8522 1.71565 36.5864 1.62513C36.3211 1.53504 36.0074 1.44803 35.8899 1.43177C35.7724 1.41551 35.4618 1.3452 35.1996 1.27489C34.9373 1.20458 34.6403 1.14086 34.5396 1.13383C34.4388 1.12636 34.3068 1.10263 34.2461 1.08065C34.0639 1.0143 32.9859 0.798529 32.633 0.757661C32.4513 0.736568 31.874 0.642966 31.3496 0.549364C30.8251 0.456202 30.2641 0.37842 30.103 0.377101C29.9416 0.375783 29.3638 0.323489 28.8196 0.261088C28.2748 0.198247 27.2356 0.114313 26.5096 0.0747633C25.2472 0.00620984 24.8415 0.00313373 23.3561 0.0519121ZM27.7196 5.15211C28.1406 5.1776 28.9485 5.34459 29.2596 5.47071C29.3198 5.49488 29.4197 5.5252 29.4809 5.53751C29.6322 5.56827 30.6438 6.05429 30.8801 6.20986C31.3786 6.53768 31.5216 6.65414 31.863 7.00921C32.3554 7.5216 32.4861 7.67936 32.4861 7.76066C32.4861 7.79845 32.5327 7.85602 32.5895 7.8881C32.6462 7.92018 32.8064 8.16846 32.9454 8.4396C33.084 8.71074 33.2138 8.91684 33.2332 8.8975C33.2526 8.87817 33.2702 8.90322 33.2724 8.95375C33.2798 9.12689 33.367 9.51404 33.4448 9.71883C33.6882 10.3578 33.719 23.8347 33.4787 24.4991C33.4497 24.5795 33.3881 24.7443 33.3419 24.8652C33.2957 24.986 33.2534 25.11 33.2477 25.1398C33.2424 25.1702 33.2297 25.2115 33.2196 25.2317C33.2094 25.2515 33.1962 25.2928 33.1901 25.3231C33.1606 25.4712 32.7549 26.2191 32.6335 26.3492C32.5574 26.4309 32.512 26.5149 32.5332 26.5355C32.5538 26.5566 32.2714 26.877 31.9053 27.2479C31.5392 27.6187 31.2396 27.9004 31.2396 27.8741C31.2396 27.8297 31.1634 27.8829 30.9219 28.0964C30.8708 28.1417 30.7512 28.2032 30.6552 28.2335C30.5593 28.2643 30.4154 28.3495 30.3358 28.4238C30.2562 28.4981 30.1629 28.5416 30.1286 28.5205C30.0942 28.4994 30.0661 28.517 30.0661 28.5596C30.0661 28.6022 29.9922 28.6383 29.9011 28.6396C29.8104 28.6409 29.6723 28.6901 29.594 28.7494C29.5156 28.8088 29.3898 28.8571 29.3146 28.8571C29.2296 28.8571 29.1975 28.8892 29.2301 28.9415C29.2596 28.9898 29.2503 29.0065 29.2081 28.9801C29.1672 28.9551 28.919 28.996 28.6563 29.0711C28.3941 29.1458 27.9356 29.2284 27.6377 29.2539C27.3398 29.2798 26.9852 29.3207 26.8501 29.3449C26.7146 29.3691 26.4506 29.3963 26.2632 29.4051C25.6608 29.4337 15.8154 29.4433 15.7876 29.4152C15.7586 29.3866 16.5286 28.5464 17.1156 27.9668C17.3131 27.7717 17.446 27.6117 17.4108 27.6117C17.3756 27.6117 17.4205 27.5607 17.5098 27.4979L17.673 27.3836V17.2452V7.10632L17.3796 6.83079C17.2185 6.67918 17.0865 6.52801 17.0865 6.49506C17.0861 6.4265 16.5761 5.93257 16.5053 5.93257C16.4793 5.93257 16.4023 5.83853 16.3346 5.72383C16.2664 5.60913 16.1027 5.40875 15.9702 5.27823L15.7296 5.04181L21.4861 5.08268C24.6523 5.10509 27.4573 5.13629 27.7196 5.15211ZM23.173 17.1472V25.1394L24.768 25.1064C26.4532 25.0717 26.6851 25.0291 27.0411 24.6881C27.1322 24.6011 27.2061 24.5527 27.2061 24.5809C27.2061 24.725 27.5356 24.3027 27.7248 23.916L27.9413 23.4739L27.9382 16.9868C27.9347 9.68718 27.9994 10.4531 27.3315 9.80056C27.1335 9.60677 26.9447 9.46527 26.9117 9.48548C26.8792 9.50569 26.8409 9.49734 26.8277 9.46702C26.7326 9.25301 26.0348 9.15458 24.6211 9.15502H23.173V17.1472ZM136.685 11.822C136.669 11.8365 135.666 11.8677 134.456 11.8914C132.829 11.9235 132.018 11.9714 131.34 12.076C130.836 12.1538 130.406 12.207 130.385 12.1942C130.364 12.181 130.05 12.2342 129.688 12.3124C129.326 12.3907 128.98 12.4649 128.92 12.4781C128.822 12.4988 128.807 13.8905 128.791 24.3778L128.773 36.2543H131.596H134.42V26.6322V17.0101L134.658 16.9556C135.049 16.866 137.012 16.8506 137.116 16.9363C137.168 16.9785 137.229 16.993 137.254 16.9688C137.375 16.8484 138.38 17.562 138.38 17.7686C138.38 17.8248 138.413 17.871 138.453 17.871C138.493 17.871 138.52 17.8956 138.513 17.9259C138.505 17.9558 138.538 18.1127 138.586 18.2735C138.65 18.491 138.672 20.8465 138.673 27.4104L138.673 36.2543H141.168H143.663L143.658 26.8282L143.653 17.4021L144.225 17.2276C145.8 16.7469 147.455 17.1186 147.665 18.0006C147.692 18.1105 147.733 18.2335 147.757 18.2735C147.781 18.3139 147.805 18.3715 147.811 18.4018C147.817 18.4321 147.825 22.461 147.83 27.3555L147.84 36.2543H150.702H153.564L153.541 26.5316C153.52 17.704 153.506 16.7684 153.395 16.3694C153.327 16.1277 153.269 15.8478 153.267 15.7467C153.263 15.6461 153.197 15.4321 153.12 15.2708C153.042 15.1095 152.977 14.9465 152.975 14.9087C152.972 14.8239 152.591 14.2548 152.515 14.2209C152.484 14.2078 152.46 14.1634 152.46 14.1229C152.46 14.0619 152.08 13.6809 151.524 13.1834C151.326 13.0059 150.741 12.6403 150.681 12.6561C150.651 12.664 150.626 12.6403 150.626 12.6033C150.626 12.5664 150.528 12.5141 150.407 12.4878C150.286 12.4614 150.169 12.4091 150.146 12.3722C150.123 12.3348 150.03 12.3045 149.94 12.3045C149.849 12.3045 149.744 12.2777 149.706 12.2448C149.631 12.1806 149.066 12.0334 148.646 11.9688C148.111 11.8866 147.421 11.8699 144.943 11.8791C144.606 11.8805 143.727 12.0123 143.44 12.1041C143.298 12.1494 143.109 12.1775 143.019 12.167C142.929 12.1564 142.814 12.1731 142.764 12.2043C142.714 12.2355 142.622 12.2672 142.561 12.2751C142.382 12.2979 141.136 12.7523 141.063 12.8213C141.025 12.8569 140.914 12.8257 140.807 12.7497C140.576 12.5875 139.871 12.2799 139.729 12.2799C139.672 12.2799 139.626 12.2597 139.626 12.2346C139.626 12.21 139.568 12.1859 139.498 12.1815C139.427 12.1775 139.122 12.1186 138.82 12.0514C138.517 11.9837 137.945 11.9147 137.549 11.8976C137.152 11.8805 136.802 11.8506 136.771 11.8312C136.739 11.8119 136.701 11.8075 136.685 11.822ZM54.8764 12.305C54.8891 12.3889 54.985 12.5554 55.0898 12.6741C55.194 12.7932 55.2649 12.8903 55.2468 12.8903C55.2284 12.8903 55.2974 12.9808 55.4 13.0911C55.5025 13.2014 55.5861 13.3183 55.5861 13.3508C55.5861 13.3829 55.667 13.4963 55.7656 13.6026C55.8642 13.709 55.9284 13.8228 55.9082 13.8558C55.8875 13.8887 55.9016 13.916 55.939 13.916C55.9764 13.916 56.0938 14.0469 56.1999 14.2073L56.3931 14.4987L56.3926 24.2961L56.3922 34.0935L56.1541 34.3475C56.0234 34.4868 55.9161 34.6195 55.9161 34.642C55.9161 34.6644 55.8382 34.7646 55.7427 34.8643C55.6472 34.9641 55.5227 35.153 55.4668 35.284C55.4105 35.4149 55.326 35.5217 55.2798 35.5217C55.2332 35.5217 55.2152 35.5419 55.2398 35.5665C55.2644 35.5912 55.1874 35.6931 55.0686 35.7929C54.4993 36.2714 54.3308 36.2547 59.6011 36.2516C64.9761 36.2481 66.3881 36.1945 67.093 35.966C67.3517 35.8821 67.6487 35.7981 67.753 35.7792C67.9241 35.7485 68.4266 35.534 68.7131 35.3697C68.7733 35.335 69.0136 35.2014 69.2472 35.073C69.8038 34.7668 70.6592 34.0412 70.646 33.8861C70.6402 33.8189 70.6697 33.7639 70.7106 33.7639C70.7951 33.7639 71.1326 33.3939 71.1326 33.3016C71.133 33.2687 71.2122 33.1369 71.3091 33.0085C71.5268 32.7203 71.8643 31.9253 71.9057 31.6041C71.9224 31.4727 71.9783 31.2705 72.0298 31.1545C72.3373 30.4602 72.1622 16.6256 71.8454 16.6256C71.812 16.6256 71.8036 16.5944 71.8274 16.5562C71.8868 16.4599 71.3728 15.3072 71.2703 15.3072C71.243 15.3072 71.1484 15.1675 71.0596 14.9961C70.8858 14.6613 69.923 13.6962 69.7633 13.6962C69.7096 13.6962 69.6652 13.6712 69.6639 13.6413C69.6612 13.5732 69.3207 13.321 69.2028 13.2999C69.1553 13.2915 69.0008 13.2115 68.8596 13.1223C68.7183 13.0336 68.5203 12.9404 68.4196 12.9153C68.3188 12.8907 68.2031 12.8459 68.163 12.8165C68.0729 12.751 67.5435 12.5695 67.3931 12.5528C67.3323 12.5458 66.9482 12.4711 66.539 12.3858C65.6269 12.1969 66.4044 12.2215 60.1511 12.1837L54.853 12.1516L54.8764 12.305ZM75.0684 12.207C75.0416 12.2338 75.0196 17.6552 75.0196 24.2548V36.2543H77.843H80.6661V32.073V27.8916L82.4446 27.9255C83.4227 27.9444 84.289 27.9778 84.3696 27.9997C84.4501 28.0222 84.5328 28.0428 84.5531 28.0459C84.6578 28.0621 84.9864 28.4111 85.0947 28.6202C85.2056 28.8351 85.2174 29.2311 85.2144 32.5568L85.2104 36.2543H88.1105H91.01L90.9858 32.4641C90.9722 30.3793 90.9423 28.5917 90.919 28.4906C90.8952 28.39 90.8398 28.1535 90.7958 27.9655C90.7069 27.5906 90.446 27.0993 90.3346 27.0993C90.2959 27.0993 90.2876 27.0611 90.3166 27.0149C90.3452 26.9684 90.3197 26.8941 90.2594 26.8502C90.1991 26.8058 90.1107 26.6959 90.0627 26.6054C90.0148 26.5153 89.9514 26.4489 89.9224 26.4577C89.8933 26.4665 89.665 26.3342 89.4146 26.1633C89.1643 25.9928 88.7933 25.8148 88.5905 25.7678L88.2218 25.683L88.6054 25.4268C88.8167 25.2862 89.016 25.1271 89.0481 25.073C89.0806 25.0194 89.1427 24.975 89.1867 24.975C89.2756 24.975 89.6131 24.6336 89.6131 24.5435C89.6131 24.5114 89.679 24.4257 89.7596 24.3528C89.8401 24.2798 89.9061 24.1783 89.9061 24.1278C89.9061 24.0768 89.9422 24.0232 89.9857 24.0087C90.0588 23.9845 90.2779 23.4475 90.398 22.9975C90.5516 22.4254 90.486 16.0886 90.3197 15.3806C90.248 15.0761 89.8938 14.282 89.8295 14.282C89.7965 14.282 89.7508 14.2236 89.7279 14.1519C89.679 13.9977 88.9856 13.2568 88.8901 13.2568C88.854 13.2568 88.7814 13.2054 88.7291 13.1421C88.6164 13.0068 87.7633 12.5976 87.4927 12.5497C87.3884 12.5313 87.138 12.4702 86.9361 12.4135C86.7346 12.3573 86.2493 12.2764 85.8577 12.2346C85.0762 12.1507 75.1502 12.1252 75.0684 12.207ZM98.3576 12.239C98.065 12.2729 97.6197 12.3546 97.3676 12.4205C97.1159 12.4865 96.8766 12.548 96.8361 12.5576C96.796 12.5673 96.672 12.613 96.5611 12.6596C96.2236 12.8011 95.9583 12.9008 95.9196 12.9008C95.8993 12.9008 95.8567 12.9479 95.8241 13.0054C95.792 13.063 95.7211 13.11 95.667 13.11C95.6129 13.11 95.4672 13.2045 95.3432 13.3201C95.2195 13.4357 95.1051 13.5174 95.0888 13.5016C95.073 13.4853 94.9652 13.5969 94.8495 13.749C94.7338 13.901 94.5714 14.0917 94.4887 14.1722C94.3514 14.3062 94.2018 14.576 94.1644 14.7579C94.1561 14.7984 94.0988 14.8871 94.0372 14.9548C93.9756 15.0229 93.947 15.1135 93.9734 15.1561C93.9998 15.1991 93.988 15.2343 93.947 15.2343C93.8516 15.2343 93.603 16.0464 93.5651 16.4792C93.5158 17.0479 93.5339 31.655 93.5845 32.0993C93.636 32.5537 93.9822 33.6075 94.1195 33.7275C94.1653 33.7679 94.2445 33.9024 94.2951 34.0267C94.3959 34.2733 95.1087 35.0577 95.2046 35.0269C95.2371 35.0164 95.2829 35.0577 95.3062 35.1183C95.3295 35.179 95.3784 35.2291 95.4153 35.2291C95.4519 35.2291 95.6569 35.3451 95.8707 35.487C96.085 35.6289 96.3345 35.7595 96.4256 35.7766C96.5166 35.7942 96.7785 35.879 97.0072 35.9647C97.6255 36.1967 98.7078 36.2494 102.905 36.2521L106.628 36.2543L106.609 33.9656L106.59 31.6766L103.161 31.6621C101.275 31.6537 99.6908 31.6208 99.6398 31.5887C99.5887 31.5566 99.4567 31.4204 99.3467 31.2868L99.1461 31.0429V28.7415V26.4402H102.444H105.742L105.762 24.188L105.783 21.9358L102.465 21.953L99.1461 21.9701V19.7153V17.4605L99.3445 17.1551C99.642 16.6972 99.6252 16.699 103.301 16.699H106.626V14.4284V12.1582L102.758 12.1674C100.63 12.1727 98.6502 12.2048 98.3576 12.239ZM109.388 12.207C109.362 12.2338 109.34 17.6552 109.34 24.2548V36.2543H112.2H115.06V32.0796V27.9048H117.442H119.825L119.844 32.0611L119.863 36.2178L122.78 36.2367L125.698 36.256L125.674 27.0453C125.652 18.5539 125.64 17.7971 125.522 17.3603C125.451 17.0993 125.385 16.8286 125.374 16.7579C125.363 16.6871 125.332 16.6067 125.304 16.579C125.276 16.5509 125.252 16.4757 125.25 16.412C125.249 16.3483 125.184 16.1642 125.106 16.0033C125.028 15.8421 124.964 15.6689 124.962 15.6188C124.961 15.5683 124.927 15.527 124.886 15.527C124.846 15.527 124.82 15.5024 124.828 15.472C124.858 15.3604 124.358 14.649 124.282 14.696C124.237 14.7237 124.225 14.7096 124.253 14.6635C124.307 14.5769 123.569 13.7692 123.437 13.7692C123.394 13.7692 123.347 13.7446 123.334 13.7143C123.268 13.5657 122.579 13.1439 122.448 13.172C122.418 13.1781 122.393 13.1535 122.393 13.1166C122.393 13.0393 121.279 12.5981 120.986 12.5585C120.877 12.544 120.652 12.4952 120.483 12.4504C120.315 12.4052 120.16 12.3867 120.137 12.4091C120.115 12.4315 120.06 12.4197 120.016 12.3832C119.787 12.1929 109.572 12.0237 109.388 12.207ZM158.656 12.5818C158.583 12.8121 158.461 13.1882 158.385 13.4181C158.308 13.6475 158.233 13.8949 158.218 13.9674C158.202 14.0399 158.055 14.511 157.889 15.0141C157.724 15.5177 157.572 16.024 157.552 16.1396C157.531 16.2551 157.466 16.4432 157.407 16.557C157.348 16.6713 157.286 16.8405 157.268 16.9332C157.251 17.0259 157.232 17.1019 157.226 17.1019C157.22 17.1019 157.204 17.1595 157.19 17.2298C157.168 17.348 157.264 17.3581 158.406 17.3581H159.646V26.8062V36.2543H162.506H165.366V24.2047V12.1551L162.077 12.1595L158.788 12.1639L158.656 12.5818ZM169.442 12.2496C169.371 12.4957 169.16 13.0907 169.096 13.2243C169.056 13.3069 169.032 13.4058 169.042 13.444C169.052 13.4818 169.011 13.6281 168.951 13.7692C168.891 13.9103 168.798 14.1739 168.744 14.3554C168.691 14.5365 168.586 14.8581 168.511 15.0695C168.436 15.2813 168.377 15.4628 168.378 15.4725C168.385 15.5054 168.325 15.7058 168.196 16.0763C168.078 16.4142 168.021 16.6155 167.891 17.1569L167.842 17.3581H169.098H170.353V26.8062V36.2543H173.176H176V24.206V12.1582H172.734C170.185 12.1582 169.462 12.178 169.442 12.2496ZM84.0031 16.5157C84.2649 16.6779 84.4127 16.8414 84.5658 17.1375L84.7735 17.5392L84.755 19.9205L84.7361 22.3019L84.5236 22.6877C84.4065 22.8995 84.2952 23.0577 84.2763 23.0388C84.2574 23.0199 84.1953 23.0511 84.1386 23.1083C83.926 23.3205 83.4711 23.3886 82.078 23.4185L80.6661 23.4484V19.8463V16.2446L82.1572 16.2705L83.648 16.296L84.0031 16.5157ZM118.821 16.4959C119.032 16.6137 119.168 16.655 119.172 16.6023C119.175 16.5548 119.196 16.5654 119.219 16.6256C119.242 16.6862 119.35 16.851 119.459 16.9921C119.816 17.4539 119.826 17.559 119.826 20.5916V23.437H117.443H115.06V19.8392V16.2411L116.768 16.2723C118.449 16.303 118.482 16.3065 118.821 16.4959ZM64.4644 16.5531C64.6835 16.5935 64.9405 16.6418 65.0355 16.6603C65.1301 16.6783 65.2542 16.7315 65.3105 16.7785C65.3669 16.8251 65.413 16.8365 65.413 16.804C65.413 16.771 65.4614 16.8084 65.5204 16.8862C65.5798 16.9644 65.6291 17.0039 65.6304 16.9736C65.6344 16.88 65.9019 17.181 66.1764 17.5884L66.4387 17.9773L66.4206 24.2043C66.4039 30.1442 66.3964 30.4409 66.2662 30.6329C66.191 30.7436 66.15 30.8346 66.1751 30.8346C66.2468 30.8346 65.846 31.2187 65.5336 31.4498C65.1218 31.7548 64.8582 31.8031 63.4146 31.8392L62.1131 31.8721V24.1757V16.4792H63.0894C63.6266 16.4792 64.2453 16.5126 64.4644 16.5531Z" fill="#EC1C24"/>
<path fill-rule="evenodd" clip-rule="evenodd" d="M4.0973 7.44607C4.00534 7.55769 4.01238 7.55988 4.18002 7.47287C4.42598 7.34499 4.44446 7.32434 4.31114 7.32434C4.2491 7.32434 4.15274 7.37883 4.0973 7.44607ZM33.1963 8.91733C33.1597 8.97929 33.2684 9.30184 33.3261 9.30184C33.3463 9.30184 33.3331 9.22274 33.2961 9.12607C33.2596 9.02939 33.2491 8.93051 33.2737 8.90634C33.2979 8.88217 33.2979 8.8624 33.2733 8.8624C33.2486 8.8624 33.2143 8.88701 33.1963 8.91733ZM133.434 11.8555C133.225 11.9003 136.063 11.884 136.51 11.8379C136.631 11.8256 136.037 11.8142 135.19 11.8124C134.343 11.8106 133.553 11.83 133.434 11.8555ZM136.773 11.8185C136.789 11.8335 136.985 11.8642 137.207 11.8871C137.467 11.9139 137.545 11.9069 137.427 11.8678C137.245 11.8071 136.714 11.7671 136.773 11.8185ZM144.943 11.8656C144.849 11.9064 144.928 11.9139 145.163 11.8867C145.365 11.8634 145.544 11.8326 145.56 11.8181C145.624 11.7636 145.083 11.8049 144.943 11.8656ZM145.823 11.8379C146.3 11.8871 148.048 11.899 147.929 11.8519C147.86 11.8247 147.308 11.8049 146.703 11.8089C146.098 11.8124 145.702 11.8256 145.823 11.8379ZM0.0312628 14.3186C0.0312628 15.1645 0.0418228 15.5007 0.0545828 15.0656C0.0677828 14.6301 0.0677828 13.938 0.0545828 13.5275C0.0418228 13.1167 0.0308228 13.4726 0.0312628 14.3186ZM41.4559 17.5414C41.4564 17.7831 41.47 17.8732 41.4863 17.7414C41.503 17.6096 41.5026 17.4118 41.4859 17.3019C41.4691 17.1921 41.4555 17.2997 41.4559 17.5414ZM48.8585 17.6878C48.8594 17.8491 48.8743 17.9062 48.8919 17.8152C48.9095 17.7238 48.9087 17.592 48.8906 17.5221C48.8721 17.4522 48.8576 17.5265 48.8585 17.6878ZM99.2385 21.9495C99.3089 21.968 99.4246 21.968 99.495 21.9495C99.5654 21.9311 99.5078 21.9161 99.3665 21.9161C99.2253 21.9161 99.1676 21.9311 99.2385 21.9495ZM99.9737 21.953C100.167 21.968 100.464 21.968 100.634 21.9526C100.804 21.9372 100.646 21.9249 100.283 21.9249C99.9205 21.9253 99.781 21.9381 99.9737 21.953ZM101.402 21.9535C101.654 21.9675 102.066 21.9675 102.318 21.9535C102.571 21.939 102.364 21.9275 101.86 21.9275C101.356 21.9275 101.149 21.939 101.402 21.9535ZM103.235 21.9535C103.487 21.9675 103.899 21.9675 104.152 21.9535C104.404 21.939 104.198 21.9275 103.693 21.9275C103.189 21.9275 102.983 21.939 103.235 21.9535ZM104.776 21.9508C104.867 21.9684 104.999 21.968 105.069 21.9495C105.139 21.9311 105.065 21.917 104.903 21.9174C104.742 21.9183 104.685 21.9333 104.776 21.9508ZM105.617 21.9451C105.734 21.9794 105.747 22.1688 105.765 24.1929L105.787 26.4033L105.785 24.1705C105.783 21.9921 105.78 21.9372 105.637 21.9227C105.525 21.9113 105.52 21.9166 105.617 21.9451ZM89.3935 26.1506C89.6478 26.3233 89.7926 26.3734 89.6135 26.2271C89.5127 26.1445 89.397 26.0768 89.3565 26.0768C89.3165 26.0763 89.3328 26.1097 89.3935 26.1506Z" fill="#F01C24"/>
<path fill-rule="evenodd" clip-rule="evenodd" d="M4.0973 7.44607C4.00534 7.55769 4.01238 7.55988 4.18002 7.47287C4.42598 7.34499 4.44446 7.32434 4.31114 7.32434C4.2491 7.32434 4.15274 7.37883 4.0973 7.44607ZM33.1963 8.91733C33.1597 8.97929 33.2684 9.30184 33.3261 9.30184C33.3463 9.30184 33.3331 9.22274 33.2961 9.12607C33.2596 9.02939 33.2491 8.93051 33.2737 8.90634C33.2979 8.88217 33.2979 8.8624 33.2733 8.8624C33.2486 8.8624 33.2143 8.88701 33.1963 8.91733ZM133.434 11.8555C133.225 11.9003 136.063 11.884 136.51 11.8379C136.631 11.8256 136.037 11.8142 135.19 11.8124C134.343 11.8106 133.553 11.83 133.434 11.8555ZM136.773 11.8185C136.789 11.8335 136.985 11.8642 137.207 11.8871C137.467 11.9139 137.545 11.9069 137.427 11.8678C137.245 11.8071 136.714 11.7671 136.773 11.8185ZM144.943 11.8656C144.849 11.9064 144.928 11.9139 145.163 11.8867C145.365 11.8634 145.544 11.8326 145.56 11.8181C145.624 11.7636 145.083 11.8049 144.943 11.8656ZM145.823 11.8379C146.3 11.8871 148.048 11.899 147.929 11.8519C147.86 11.8247 147.308 11.8049 146.703 11.8089C146.098 11.8124 145.702 11.8256 145.823 11.8379ZM0.0312628 14.3186C0.0312628 15.1645 0.0418228 15.5007 0.0545828 15.0656C0.0677828 14.6301 0.0677828 13.938 0.0545828 13.5275C0.0418228 13.1167 0.0308228 13.4726 0.0312628 14.3186ZM41.4559 17.5414C41.4564 17.7831 41.47 17.8732 41.4863 17.7414C41.503 17.6096 41.5026 17.4118 41.4859 17.3019C41.4691 17.1921 41.4555 17.2997 41.4559 17.5414ZM48.8585 17.6878C48.8594 17.8491 48.8743 17.9062 48.8919 17.8152C48.9095 17.7238 48.9087 17.592 48.8906 17.5221C48.8721 17.4522 48.8576 17.5265 48.8585 17.6878ZM99.2385 21.9495C99.3089 21.968 99.4246 21.968 99.495 21.9495C99.5654 21.9311 99.5078 21.9161 99.3665 21.9161C99.2253 21.9161 99.1676 21.9311 99.2385 21.9495ZM99.9737 21.953C100.167 21.968 100.464 21.968 100.634 21.9526C100.804 21.9372 100.646 21.9249 100.283 21.9249C99.9205 21.9253 99.781 21.9381 99.9737 21.953ZM101.402 21.9535C101.654 21.9675 102.066 21.9675 102.318 21.9535C102.571 21.939 102.364 21.9275 101.86 21.9275C101.356 21.9275 101.149 21.939 101.402 21.9535ZM103.235 21.9535C103.487 21.9675 103.899 21.9675 104.152 21.9535C104.404 21.939 104.198 21.9275 103.693 21.9275C103.189 21.9275 102.983 21.939 103.235 21.9535ZM104.776 21.9508C104.867 21.9684 104.999 21.968 105.069 21.9495C105.139 21.9311 105.065 21.917 104.903 21.9174C104.742 21.9183 104.685 21.9333 104.776 21.9508ZM105.617 21.9451C105.734 21.9794 105.747 22.1688 105.765 24.1929L105.787 26.4033L105.785 24.1705C105.783 21.9921 105.78 21.9372 105.637 21.9227C105.525 21.9113 105.52 21.9166 105.617 21.9451ZM89.3935 26.1506C89.6478 26.3233 89.7926 26.3734 89.6135 26.2271C89.5127 26.1445 89.397 26.0768 89.3565 26.0768C89.3165 26.0763 89.3328 26.1097 89.3935 26.1506Z" fill="#F01C24"/>
<path fill-rule="evenodd" clip-rule="evenodd" d="M4.0973 7.44607C4.00534 7.55769 4.01238 7.55988 4.18002 7.47287C4.42598 7.34499 4.44446 7.32434 4.31114 7.32434C4.2491 7.32434 4.15274 7.37883 4.0973 7.44607ZM33.1963 8.91733C33.1597 8.97929 33.2684 9.30184 33.3261 9.30184C33.3463 9.30184 33.3331 9.22274 33.2961 9.12607C33.2596 9.02939 33.2491 8.93051 33.2737 8.90634C33.2979 8.88217 33.2979 8.8624 33.2733 8.8624C33.2486 8.8624 33.2143 8.88701 33.1963 8.91733ZM133.434 11.8555C133.225 11.9003 136.063 11.884 136.51 11.8379C136.631 11.8256 136.037 11.8142 135.19 11.8124C134.343 11.8106 133.553 11.83 133.434 11.8555ZM136.773 11.8185C136.789 11.8335 136.985 11.8642 137.207 11.8871C137.467 11.9139 137.545 11.9069 137.427 11.8678C137.245 11.8071 136.714 11.7671 136.773 11.8185ZM144.943 11.8656C144.849 11.9064 144.928 11.9139 145.163 11.8867C145.365 11.8634 145.544 11.8326 145.56 11.8181C145.624 11.7636 145.083 11.8049 144.943 11.8656ZM145.823 11.8379C146.3 11.8871 148.048 11.899 147.929 11.8519C147.86 11.8247 147.308 11.8049 146.703 11.8089C146.098 11.8124 145.702 11.8256 145.823 11.8379ZM0.0312628 14.3186C0.0312628 15.1645 0.0418228 15.5007 0.0545828 15.0656C0.0677828 14.6301 0.0677828 13.938 0.0545828 13.5275C0.0418228 13.1167 0.0308228 13.4726 0.0312628 14.3186ZM41.4559 17.5414C41.4564 17.7831 41.47 17.8732 41.4863 17.7414C41.503 17.6096 41.5026 17.4118 41.4859 17.3019C41.4691 17.1921 41.4555 17.2997 41.4559 17.5414ZM48.8585 17.6878C48.8594 17.8491 48.8743 17.9062 48.8919 17.8152C48.9095 17.7238 48.9087 17.592 48.8906 17.5221C48.8721 17.4522 48.8576 17.5265 48.8585 17.6878ZM99.2385 21.9495C99.3089 21.968 99.4246 21.968 99.495 21.9495C99.5654 21.9311 99.5078 21.9161 99.3665 21.9161C99.2253 21.9161 99.1676 21.9311 99.2385 21.9495ZM99.9737 21.953C100.167 21.968 100.464 21.968 100.634 21.9526C100.804 21.9372 100.646 21.9249 100.283 21.9249C99.9205 21.9253 99.781 21.9381 99.9737 21.953ZM101.402 21.9535C101.654 21.9675 102.066 21.9675 102.318 21.9535C102.571 21.939 102.364 21.9275 101.86 21.9275C101.356 21.9275 101.149 21.939 101.402 21.9535ZM103.235 21.9535C103.487 21.9675 103.899 21.9675 104.152 21.9535C104.404 21.939 104.198 21.9275 103.693 21.9275C103.189 21.9275 102.983 21.939 103.235 21.9535ZM104.776 21.9508C104.867 21.9684 104.999 21.968 105.069 21.9495C105.139 21.9311 105.065 21.917 104.903 21.9174C104.742 21.9183 104.685 21.9333 104.776 21.9508ZM105.617 21.9451C105.734 21.9794 105.747 22.1688 105.765 24.1929L105.787 26.4033L105.785 24.1705C105.783 21.9921 105.78 21.9372 105.637 21.9227C105.525 21.9113 105.52 21.9166 105.617 21.9451ZM89.3935 26.1506C89.6478 26.3233 89.7926 26.3734 89.6135 26.2271C89.5127 26.1445 89.397 26.0768 89.3565 26.0768C89.3165 26.0763 89.3328 26.1097 89.3935 26.1506Z" fill="#F01C24"/>
<path fill-rule="evenodd" clip-rule="evenodd" d="M4.0973 7.44607C4.00534 7.55769 4.01238 7.55988 4.18002 7.47287C4.42598 7.34499 4.44446 7.32434 4.31114 7.32434C4.2491 7.32434 4.15274 7.37883 4.0973 7.44607ZM33.1963 8.91733C33.1597 8.97929 33.2684 9.30184 33.3261 9.30184C33.3463 9.30184 33.3331 9.22274 33.2961 9.12607C33.2596 9.02939 33.2491 8.93051 33.2737 8.90634C33.2979 8.88217 33.2979 8.8624 33.2733 8.8624C33.2486 8.8624 33.2143 8.88701 33.1963 8.91733ZM133.434 11.8555C133.225 11.9003 136.063 11.884 136.51 11.8379C136.631 11.8256 136.037 11.8142 135.19 11.8124C134.343 11.8106 133.553 11.83 133.434 11.8555ZM136.773 11.8185C136.789 11.8335 136.985 11.8642 137.207 11.8871C137.467 11.9139 137.545 11.9069 137.427 11.8678C137.245 11.8071 136.714 11.7671 136.773 11.8185ZM144.943 11.8656C144.849 11.9064 144.928 11.9139 145.163 11.8867C145.365 11.8634 145.544 11.8326 145.56 11.8181C145.624 11.7636 145.083 11.8049 144.943 11.8656ZM145.823 11.8379C146.3 11.8871 148.048 11.899 147.929 11.8519C147.86 11.8247 147.308 11.8049 146.703 11.8089C146.098 11.8124 145.702 11.8256 145.823 11.8379ZM0.0312628 14.3186C0.0312628 15.1645 0.0418228 15.5007 0.0545828 15.0656C0.0677828 14.6301 0.0677828 13.938 0.0545828 13.5275C0.0418228 13.1167 0.0308228 13.4726 0.0312628 14.3186ZM41.4559 17.5414C41.4564 17.7831 41.47 17.8732 41.4863 17.7414C41.503 17.6096 41.5026 17.4118 41.4859 17.3019C41.4691 17.1921 41.4555 17.2997 41.4559 17.5414ZM48.8585 17.6878C48.8594 17.8491 48.8743 17.9062 48.8919 17.8152C48.9095 17.7238 48.9087 17.592 48.8906 17.5221C48.8721 17.4522 48.8576 17.5265 48.8585 17.6878ZM99.2385 21.9495C99.3089 21.968 99.4246 21.968 99.495 21.9495C99.5654 21.9311 99.5078 21.9161 99.3665 21.9161C99.2253 21.9161 99.1676 21.9311 99.2385 21.9495ZM99.9737 21.953C100.167 21.968 100.464 21.968 100.634 21.9526C100.804 21.9372 100.646 21.9249 100.283 21.9249C99.9205 21.9253 99.781 21.9381 99.9737 21.953ZM101.402 21.9535C101.654 21.9675 102.066 21.9675 102.318 21.9535C102.571 21.939 102.364 21.9275 101.86 21.9275C101.356 21.9275 101.149 21.939 101.402 21.9535ZM103.235 21.9535C103.487 21.9675 103.899 21.9675 104.152 21.9535C104.404 21.939 104.198 21.9275 103.693 21.9275C103.189 21.9275 102.983 21.939 103.235 21.9535ZM104.776 21.9508C104.867 21.9684 104.999 21.968 105.069 21.9495C105.139 21.9311 105.065 21.917 104.903 21.9174C104.742 21.9183 104.685 21.9333 104.776 21.9508ZM105.617 21.9451C105.734 21.9794 105.747 22.1688 105.765 24.1929L105.787 26.4033L105.785 24.1705C105.783 21.9921 105.78 21.9372 105.637 21.9227C105.525 21.9113 105.52 21.9166 105.617 21.9451ZM89.3935 26.1506C89.6478 26.3233 89.7926 26.3734 89.6135 26.2271C89.5127 26.1445 89.397 26.0768 89.3565 26.0768C89.3165 26.0763 89.3328 26.1097 89.3935 26.1506Z" fill="#F01C24"/>
</svg>
