<svg width="152" height="28" viewBox="0 0 152 28" fill="none" xmlns="http://www.w3.org/2000/svg">
<g clip-path="url(#clip0_389_613)">
<path d="M53.1294 0.131691C51.8253 0.215673 49.6901 0.513424 48.1344 0.81881C47.1583 1.00968 45.1069 1.50593 44.8018 1.62045L44.6264 1.68916V6.3234L45.717 6.06382C50.9026 4.84227 56.2026 4.64377 58.62 5.5752C59.3979 5.87295 59.8097 6.14016 60.3206 6.65932C61.0451 7.39988 61.4035 8.36948 61.4035 9.6063V10.156H59.2149C54.5554 10.156 50.9255 10.6828 48.3098 11.744C44.8476 13.1411 43.086 15.1796 42.7886 18.1342C42.5064 21.0048 43.4673 23.3563 45.5721 24.9214C46.6244 25.7001 48.6911 26.5858 49.8883 26.7766C50.0332 26.7995 50.445 26.8835 50.7958 26.9675C51.955 27.2347 54.9672 27.4943 56.9423 27.4943C57.7202 27.4943 59.3674 27.3798 60.8163 27.2194C62.25 27.0667 65.2012 26.4254 66.5129 25.9826L67.1611 25.7612L67.1839 17.638C67.2068 8.72831 67.1839 8.04883 66.8103 6.59824C65.6816 2.19305 62.25 0.269115 55.2951 0.139326C54.3571 0.116422 53.381 0.116422 53.1294 0.131691ZM61.0451 14.4925L61.556 14.5383V18.4167C61.556 22.0431 61.5484 22.2951 61.4264 22.3333C60.862 22.4936 59.1691 22.7761 58.1243 22.883C56.6449 23.028 54.441 22.9975 53.1446 22.8066C52.1761 22.6616 50.7806 22.2111 50.1476 21.8446C49.5681 21.5011 48.9046 20.8369 48.6758 20.3559C48.5386 20.0887 48.4775 19.8062 48.4547 19.3787C48.386 18.2106 48.7292 17.3631 49.5909 16.5538C50.8111 15.3934 52.8396 14.775 56.4085 14.4925C57.0033 14.439 60.5341 14.439 61.0451 14.4925ZM83.8618 0.139326C83.0916 0.192769 81.2004 0.482885 80.6742 0.627944C80.3692 0.711925 79.9879 0.81881 79.8277 0.856983C79.6676 0.895157 79.2405 1.05548 78.8821 1.20054C76.0453 2.37628 74.154 4.13225 72.9186 6.75094C72.362 7.92667 72.0493 8.95735 71.7595 10.5454C71.6146 11.3775 71.5917 11.7593 71.5917 13.5229C71.5917 15.7064 71.6985 16.7218 72.1179 18.3098C73.0559 21.8905 75.092 24.5015 78.1424 26.0208C81.9249 27.9218 88.018 27.9676 92.0673 26.1353C95.9947 24.3564 98.4579 20.4551 98.8468 15.4086C99.1137 11.8814 98.6714 9.0337 97.4818 6.61351C95.7964 3.20082 92.7766 1.08602 88.5899 0.39127C86.9732 0.124057 85.3794 0.0324409 83.8618 0.139326ZM86.9427 4.71248C89.7796 5.30035 91.503 6.97998 92.3571 9.98803C92.624 10.9347 92.7079 11.515 92.7842 12.8739C92.8376 13.7748 92.7384 15.485 92.5935 16.3477C92.3724 17.5921 91.7318 19.2718 91.1446 20.1268C89.8558 22.005 87.8045 23.0127 85.2726 23.0127C82.7256 23.0204 80.8496 22.1577 79.5074 20.3712C78.0661 18.4472 77.3569 14.9506 77.7611 11.7898C78.3254 7.43806 80.4836 5.04077 84.2431 4.59033C84.9447 4.50635 86.2411 4.55979 86.9427 4.71248ZM112.688 0.131691C112.566 0.146961 111.994 0.215673 111.43 0.284384C108.898 0.589771 105.863 1.46012 103.544 2.53661L103.323 2.64349L103.369 11.6524C103.399 16.6073 103.422 22.0813 103.422 23.8068V26.9599H109.218L109.233 16.4469L109.256 5.94166L109.866 5.72789C111.208 5.26218 112.596 5.03314 114.137 5.01787C115.128 5.01024 115.357 5.03314 115.853 5.18583C117.34 5.65155 118.301 6.5448 118.88 7.98775L119.094 8.52218L119.117 17.7448L119.132 26.9599H124.927V6.72803L125.339 6.46082C125.934 6.07909 127.04 5.61337 127.894 5.3767C128.535 5.2011 128.771 5.17056 129.846 5.17056C130.784 5.16293 131.181 5.19347 131.562 5.30035C133.171 5.73553 134.216 6.70513 134.734 8.25496C134.872 8.65197 134.879 9.14822 134.902 17.8135L134.925 26.9599H140.713L140.698 16.6684L140.675 6.38447L140.461 5.69735C139.912 3.93375 139.013 2.7122 137.541 1.72733C136.504 1.02495 135.314 0.574501 133.812 0.299654C132.424 0.0400755 130.212 0.0629795 128.557 0.345462C126.27 0.727194 124.295 1.43722 122.754 2.43736C122.274 2.74274 122.205 2.76565 122.06 2.67403C121.976 2.61295 121.58 2.35338 121.191 2.08616C119.307 0.811176 117.096 0.192769 114.213 0.124057C113.504 0.108787 112.817 0.108787 112.688 0.131691ZM1.39507 2.12434C1.93651 2.83436 2.42457 3.4604 2.47795 3.52148C2.53133 3.58255 2.98126 4.17042 3.48457 4.81937C3.98026 5.46831 4.5217 6.1707 4.68947 6.38447C4.84961 6.59061 5.22328 7.07159 5.51307 7.45332C5.80285 7.82742 6.27566 8.44583 6.57307 8.82756C6.86286 9.20166 7.35854 9.84297 7.65595 10.24C7.96099 10.637 8.62444 11.4997 9.13538 12.1486C9.64632 12.8052 10.1039 13.4084 10.1573 13.4923C10.2564 13.6527 9.88272 14.1642 6.96199 17.8746C6.67983 18.2335 6.28329 18.745 6.07739 19.0198C5.87149 19.2947 5.68084 19.5313 5.65796 19.5543C5.62746 19.5772 5.39105 19.8825 5.11652 20.2414C4.84961 20.6002 4.49119 21.0659 4.32342 21.272C4.15565 21.4858 3.92687 21.7759 3.81248 21.921C3.6981 22.0661 3.20241 22.7074 2.70673 23.3487C2.21104 23.9823 1.41794 24.9978 0.952762 25.6085C0.479954 26.2117 0.0757802 26.769 0.0452765 26.8377C-0.00047908 26.9522 0.274054 26.9599 3.27104 26.9599H6.54257L7.31279 25.9521C7.73984 25.3948 8.26603 24.6924 8.4948 24.4023C8.72358 24.1045 9.36416 23.2723 9.92085 22.547C10.4775 21.8141 11.0571 21.0583 11.2096 20.8598C11.3622 20.6613 11.9722 19.8673 12.5518 19.1038C13.566 17.783 13.6194 17.7219 13.7491 17.8517C13.8177 17.9281 14.5727 18.9129 15.4268 20.0505C16.2809 21.1804 17.2112 22.4172 17.501 22.799C17.7908 23.1731 18.6144 24.2648 19.3312 25.2192L20.6429 26.9599H24.1051C26.858 26.9599 27.5444 26.937 27.491 26.8606C27.3156 26.6468 25.5235 24.3183 24.5703 23.0738C24.0059 22.3333 23.434 21.5927 23.2967 21.4247C23.1671 21.2568 22.2444 20.0734 21.2606 18.7908C20.2692 17.5082 19.4151 16.4088 19.3618 16.3477C19.316 16.279 19.1711 16.0958 19.0491 15.9278C18.9194 15.7598 18.7974 15.6071 18.7746 15.5842C18.7517 15.5613 18.3933 15.1032 17.9815 14.5688C17.4781 13.9046 17.2646 13.561 17.3104 13.5C17.3485 13.4465 17.6535 13.0648 17.9815 12.6373C18.3094 12.2173 18.6678 11.7593 18.7746 11.6218C18.95 11.3852 20.0023 10.0338 21.3979 8.25496C21.741 7.81215 22.5723 6.75094 23.2434 5.88822C23.9068 5.0255 24.494 4.26967 24.5474 4.2086C24.6008 4.14752 25.0431 3.57492 25.5311 2.94888C26.0268 2.3152 26.5911 1.58991 26.797 1.3227L27.1783 0.849349H20.4904L19.6439 1.97164C17.2112 5.20874 13.894 9.55285 13.8558 9.55285C13.8482 9.55285 12.3688 7.59075 10.5691 5.2011L7.30516 0.849349H0.403695L1.39507 2.12434ZM31.9674 13.9046V26.9599H37.7631L37.7784 14.1107C37.7936 7.04869 37.7936 1.17764 37.7784 1.05548L37.7555 0.849349H31.9674V13.9046ZM146.204 13.9046V26.9599H152V0.849349H146.204V13.9046ZM103.133 7.83506C103.133 7.95721 103.148 8.00302 103.171 7.92667C103.186 7.85796 103.186 7.75108 103.171 7.69763C103.148 7.65183 103.133 7.70527 103.133 7.83506Z" fill="black"/>
</g>
<defs>
<clipPath id="clip0_389_613">
<rect width="152" height="28" fill="white"/>
</clipPath>
</defs>
</svg>
