<svg width="131" height="72" viewBox="0 0 131 72" fill="none" xmlns="http://www.w3.org/2000/svg">
<path d="M11.3559 63.0732H8.91016V71.9562H11.3559C14.1947 71.9562 16.029 70.2144 16.029 67.5147C16.029 64.815 14.1947 63.0732 11.3559 63.0732ZM10.5916 64.6844H11.2904C13.2339 64.6844 14.3039 65.6859 14.3039 67.5147C14.3039 69.3436 13.2339 70.3451 11.2904 70.3451H10.5916V64.6844Z" fill="#AB1F24"/>
<path d="M19.588 63.0732H17.8848V71.9562H19.588V63.0732Z" fill="#AB1F24"/>
<path d="M21.1816 64.6844H23.6711V71.9562H25.3525V64.6844H27.8201V63.0732H21.1816V64.6844Z" fill="#AB1F24"/>
<path d="M34.3926 63.0732L32.3399 66.6221L30.2654 63.0732H28.3438L31.4883 68.4291V71.9562H33.1697V68.4291L36.2706 63.0732H34.3926Z" fill="#AB1F24"/>
<path d="M54.0029 67.2535C54.4178 66.8398 54.6362 66.2737 54.6362 65.577C54.6362 64.053 53.5662 63.0732 51.8848 63.0732H48.7402V71.9562H52.0595C53.8719 71.9562 55.0293 70.9111 55.0293 69.3C55.0293 68.4074 54.6799 67.6889 54.0029 67.2535ZM51.8192 64.6626C52.5835 64.6626 52.9548 64.9674 52.9548 65.6206C52.9548 66.2737 52.6491 66.5785 51.9503 66.5785H50.4217V64.6626H51.8192ZM50.4435 68.1461H51.9721C52.8674 68.1461 53.3478 68.5162 53.3478 69.2565C53.3478 69.9967 52.9111 70.3668 51.9939 70.3668H50.4435V68.1461Z" fill="#AB1F24"/>
<path d="M58.5666 63.0732H56.8633V71.9562H58.5666V63.0732Z" fill="#AB1F24"/>
<path d="M66.8873 65.9036C66.8873 64.2054 65.6426 63.0732 63.7646 63.0732H60.9258V71.9562H62.6072V68.7122H63.6772L65.6862 71.9562H67.6297L65.3805 68.3638C66.3414 67.9066 66.8873 67.0357 66.8873 65.9036ZM62.5854 64.6844H63.6991C64.6817 64.6844 65.1622 65.098 65.1622 65.9254C65.1622 66.4479 65.0093 67.1228 63.6991 67.1228H62.5854V64.6844Z" fill="#AB1F24"/>
<path d="M70.5763 63.0732H68.873V71.9562H74.2668V70.3668H70.5763V63.0732Z" fill="#AB1F24"/>
<path d="M92.0427 68.7124H94.4447V69.8446C93.9425 70.2147 93.2874 70.3889 92.4794 70.3889C90.7979 70.3889 89.5751 69.1697 89.5751 67.4714C89.5751 65.7732 90.7324 64.554 92.3484 64.554C93.5276 64.554 94.0953 65.0112 94.4884 65.4466L94.7941 65.795L95.9951 64.6629L95.6894 64.3363C94.8378 63.4001 93.7459 62.9429 92.3484 62.9429C89.8153 62.9429 87.8281 64.9241 87.8281 67.4714C87.8281 70.0623 89.8153 72 92.4576 72C93.877 72 94.9688 71.6081 95.9296 70.7808L96.0825 70.6501V67.1231H92.0208V68.7124" fill="#AB1F24"/>
<path d="M104.01 65.8601C104.01 64.1619 102.766 63.0298 100.888 63.0298H98.0488V71.9127H99.7303V68.6687H100.8L102.809 71.9127H104.753L102.504 68.3204C103.464 67.8632 104.01 66.9705 104.01 65.8601ZM99.7303 64.6191H100.844C101.827 64.6191 102.285 65.0328 102.285 65.8601C102.285 66.3827 102.132 67.0576 100.844 67.0576H99.7303V64.6191Z" fill="#AB1F24"/>
<path d="M110.036 62.9429C107.481 62.9429 105.494 64.9241 105.494 67.4714C105.494 70.0188 107.481 72 110.036 72C112.591 72 114.6 70.0188 114.6 67.4714C114.6 64.9241 112.591 62.9429 110.036 62.9429ZM110.036 70.3889C108.398 70.3889 107.197 69.1697 107.197 67.4714C107.197 65.7732 108.398 64.554 110.036 64.554C111.674 64.554 112.875 65.7732 112.875 67.4714C112.875 69.1697 111.674 70.3889 110.036 70.3889Z" fill="#AB1F24"/>
<path d="M121.172 68.6905C121.172 69.8226 120.626 70.3887 119.578 70.3887C118.53 70.3887 117.984 69.8009 117.984 68.6905V63.0298H116.303V68.734C116.303 70.7153 117.591 71.9781 119.578 71.9781C121.565 71.9781 122.854 70.6935 122.854 68.734V63.0298H121.172V68.6905Z" fill="#AB1F24"/>
<path d="M127.899 63.0298H125.082V71.9127H126.763V68.734H127.877C129.777 68.734 131 67.6237 131 65.8819C131.022 64.1619 129.799 63.0298 127.899 63.0298ZM126.785 64.6191H127.855C128.838 64.6191 129.297 65.0328 129.297 65.8819C129.297 66.731 128.816 67.1229 127.855 67.1229H126.785V64.6191Z" fill="#AB1F24"/>
<path d="M0 71.9348H1.65961L2.40207 70.106H5.1972L5.93966 71.9348H7.6211L3.82147 62.7471L0 71.9348ZM3.0135 68.6037L3.79963 66.666L4.58576 68.6037H3.0135Z" fill="#AB1F24"/>
<path d="M35.6602 71.9563H37.3198L38.0404 70.1275H40.8355L41.578 71.9563H43.2594L39.4598 62.7686L35.6602 71.9563ZM38.6518 68.647L39.4379 66.7093L40.2241 68.647H38.6518Z" fill="#AB1F24"/>
<path d="M75.3379 71.9348H76.9975L77.74 70.106H80.5351L81.2775 71.9348H82.959L79.1594 62.7471L75.3379 71.9348ZM78.3296 68.6037L79.1157 66.666L79.9018 68.6037H78.3296Z" fill="#AB1F24"/>
<path d="M110.953 35.5536L98.6804 41.1926L85.207 24.4499L100.253 0H110.953V35.5536Z" fill="#AB1F24"/>
<path d="M110.954 56.433V35.5537L98.6816 41.1926L110.954 56.433Z" fill="#EF7032"/>
<path d="M85.2087 24.4499L65.5117 0H100.254L85.2087 24.4499Z" fill="#EF7032"/>
<path d="M79.7931 33.246L85.1868 24.4719L65.5117 0.0219727V29.3053H65.6427C70.8399 29.2835 75.6878 30.7422 79.7931 33.246Z" fill="#FFD35D"/>
<path d="M65.6427 29.2832H65.5117V56.4328L79.7931 33.2457C75.6659 30.7419 70.8399 29.2832 65.6427 29.2832Z" fill="#AB1F24"/>
<path d="M90.3601 45.0242L98.68 41.1923L85.2066 24.4497L79.791 33.2456C84.3768 36.0324 88.0672 40.1255 90.3601 45.0242Z" fill="#EF7032"/>
<path d="M79.7931 33.2456L65.5117 56.4545L90.3622 45.0242C88.0693 40.1255 84.3789 36.0324 79.7931 33.2456Z" fill="#D31F26"/>
<path d="M98.6812 41.1924L90.3613 45.0242C91.9773 48.486 92.8944 52.3614 92.8944 56.4545H110.954L98.6812 41.1924Z" fill="#FFD35D"/>
<path d="M65.5117 56.4327H92.8734C92.8734 52.3614 91.9781 48.486 90.3622 45.0024L65.5117 56.4327Z" fill="#AB1F24"/>
<path d="M20.0898 35.5536L32.3622 41.1926L45.8356 24.4499L30.79 0H20.0898V35.5536Z" fill="#AB1F24"/>
<path d="M20.0898 56.433V35.5537L32.3622 41.1926L20.0898 56.433Z" fill="#EF7032"/>
<path d="M45.8367 24.4499L65.5118 0H30.791L45.8367 24.4499Z" fill="#EF7032"/>
<path d="M51.2297 33.246L45.8359 24.4719L65.511 0.0219727V29.3053H65.38C60.2047 29.2835 55.3569 30.7422 51.2297 33.246Z" fill="#D31F26"/>
<path d="M65.3805 29.2832H65.5115V56.4328L51.252 33.2457C55.3573 30.7419 60.2051 29.2832 65.3805 29.2832Z" fill="#EF7032"/>
<path d="M40.6812 45.0242L32.3613 41.1923L45.8347 24.4497L51.2285 33.2238C46.6427 36.0324 42.9523 40.1255 40.6812 45.0242Z" fill="#EF7032"/>
<path d="M51.2289 33.2456L65.5103 56.4545L40.6816 45.0242C42.9527 40.1255 46.6431 36.0324 51.2289 33.2456Z" fill="#D31F26"/>
<path d="M32.3622 41.1924L40.6821 45.0242C39.0662 48.486 38.149 52.3614 38.149 56.4545H20.0898L32.3622 41.1924Z" fill="#FFD35D"/>
<path d="M65.5102 56.4327H38.1484C38.1484 52.3614 39.0438 48.486 40.6815 45.0024L65.5102 56.4327Z" fill="#AB1F24"/>
</svg>
