<svg width="249" height="48" viewBox="0 0 249 48" fill="none" xmlns="http://www.w3.org/2000/svg">
<path d="M138.287 40.6836C137.931 40.6836 137.663 40.5944 137.484 40.416C137.306 40.2375 137.217 39.9699 137.217 39.613V11.0631C137.217 10.7062 137.306 10.3493 137.484 10.2601C137.663 10.0817 137.931 9.99245 138.287 9.99245H141.321C141.945 9.99245 142.391 10.3493 142.481 10.9739L142.748 12.0445C143.64 11.2415 144.622 10.5278 145.871 10.0817C147.12 9.63558 148.28 9.36792 149.529 9.36792C152.294 9.36792 154.436 10.3493 156.131 12.4013C157.737 14.4534 158.54 17.1299 158.54 20.6095C158.54 23.0184 158.183 25.0704 157.38 26.7655C156.577 28.5499 155.506 29.8882 154.168 30.8696C152.83 31.851 151.224 32.2971 149.44 32.2971C148.28 32.2971 147.12 32.1186 146.138 31.7618C145.068 31.4049 144.176 30.8696 143.462 30.245V39.613C143.462 39.9699 143.373 40.3267 143.194 40.416C143.016 40.5944 142.748 40.6836 142.391 40.6836H138.287ZM147.655 27.6577C149.261 27.6577 150.421 27.1224 151.224 26.0518C151.938 24.9812 152.384 23.286 152.384 20.9663C152.384 18.5574 152.027 16.8623 151.313 15.7917C150.599 14.721 149.35 14.1857 147.744 14.1857C146.228 14.1857 144.889 14.5426 143.551 15.3456V26.4979C144.711 27.2116 146.138 27.6577 147.655 27.6577Z" fill="#00A8E1"/>
<path d="M163.895 31.8512C163.538 31.8512 163.27 31.762 163.092 31.5835C162.913 31.4051 162.824 31.1374 162.824 30.7806V11.0633C162.824 10.7064 162.913 10.3495 163.092 10.2603C163.27 10.0819 163.538 9.99265 163.895 9.99265H166.928C167.553 9.99265 167.999 10.3495 168.088 10.9741L168.623 13.2937C169.783 12.0447 170.854 11.1525 171.835 10.6172C172.817 10.0819 173.887 9.81421 175.047 9.81421H175.671C176.028 9.81421 176.385 9.90343 176.564 10.0819C176.742 10.2603 176.831 10.528 176.831 10.8848V14.4536C176.831 14.8104 176.742 15.0781 176.564 15.2565C176.385 15.435 176.118 15.5242 175.761 15.5242C175.582 15.5242 175.315 15.5242 174.958 15.5242C174.601 15.5242 174.244 15.5242 173.798 15.5242C173.173 15.5242 172.37 15.6134 171.389 15.7918C170.408 15.9703 169.694 16.2379 168.98 16.5056V30.8698C168.98 31.2266 168.891 31.4943 168.713 31.6727C168.534 31.8512 168.266 31.9404 167.91 31.9404H163.895V31.8512Z" fill="#00A8E1"/>
<path d="M182.981 6.60217C181.91 6.60217 181.018 6.33451 180.393 5.70998C179.769 5.08545 179.412 4.28249 179.412 3.30108C179.412 2.23046 179.769 1.4275 180.393 0.892185C181.018 0.267655 181.91 0 182.981 0C184.051 0 184.944 0.267655 185.568 0.892185C186.193 1.51671 186.549 2.31968 186.549 3.30108C186.549 4.28249 186.193 5.17467 185.568 5.70998C184.944 6.33451 184.141 6.60217 182.981 6.60217ZM180.929 31.851C180.572 31.851 180.304 31.7618 180.126 31.5833C179.947 31.4049 179.858 31.1373 179.858 30.7804V11.0631C179.858 10.7062 179.947 10.3493 180.126 10.2601C180.304 10.0817 180.572 9.99247 180.929 9.99247H185.033C185.39 9.99247 185.747 10.0817 185.836 10.2601C186.014 10.4386 186.103 10.7062 186.103 11.0631V30.7804C186.103 31.1373 186.014 31.4049 185.836 31.5833C185.657 31.7618 185.39 31.851 185.033 31.851H180.929Z" fill="#00A8E1"/>
<path d="M192.53 31.851C192.173 31.851 191.905 31.7618 191.727 31.5833C191.548 31.4049 191.459 31.1372 191.459 30.7804V11.0631C191.459 10.7062 191.548 10.3493 191.727 10.2601C191.905 10.0817 192.173 9.99245 192.53 9.99245H195.563C196.187 9.99245 196.634 10.3493 196.723 10.9739L197.08 12.1337C198.596 11.1523 199.935 10.4385 201.184 9.99245C202.433 9.54636 203.682 9.36792 204.931 9.36792C207.518 9.36792 209.302 10.2601 210.373 12.1337C211.8 11.1523 213.228 10.4385 214.477 10.0817C215.726 9.63558 217.064 9.45714 218.492 9.45714C220.454 9.45714 222.06 9.99245 223.131 11.1523C224.202 12.2229 224.737 13.8288 224.737 15.7917V30.8696C224.737 31.2265 224.648 31.4941 224.469 31.6725C224.291 31.851 224.023 31.9402 223.666 31.9402H219.562C219.205 31.9402 218.938 31.851 218.759 31.6725C218.581 31.4941 218.492 31.2265 218.492 30.8696V17.0407C218.492 15.0779 217.6 14.0965 215.904 14.0965C214.388 14.0965 212.782 14.4534 211.265 15.1671V30.6911C211.265 31.048 211.176 31.3157 210.998 31.4941C210.819 31.6725 210.551 31.7618 210.195 31.7618H206.091C205.734 31.7618 205.466 31.6725 205.288 31.4941C205.109 31.3157 205.02 31.048 205.02 30.6911V17.0407C205.02 15.0779 204.128 14.0965 202.433 14.0965C200.827 14.0965 199.31 14.4534 197.704 15.2563V30.6911C197.704 31.048 197.615 31.3157 197.437 31.4941C197.258 31.6725 196.99 31.7618 196.634 31.7618H192.53V31.851Z" fill="#00A8E1"/>
<path d="M239.554 32.4755C235.985 32.4755 233.309 31.4941 231.435 29.5313C229.561 27.5685 228.58 24.8027 228.58 21.234C228.58 17.4868 229.561 14.6318 231.524 12.4906C233.487 10.3493 236.164 9.36792 239.643 9.36792C242.319 9.36792 244.371 9.99245 245.888 11.3307C247.405 12.5798 248.119 14.3642 248.119 16.4162C248.119 18.5574 247.316 20.1634 245.71 21.234C244.104 22.3046 241.695 22.8399 238.572 22.8399C236.966 22.8399 235.539 22.6615 234.379 22.3938C234.558 24.2674 235.093 25.6949 236.074 26.4979C237.056 27.3008 238.572 27.7469 240.535 27.7469C241.338 27.7469 242.141 27.6577 242.855 27.5685C243.569 27.4793 244.639 27.2116 245.977 26.944C246.067 26.944 246.156 26.8547 246.245 26.8547C246.334 26.8547 246.423 26.8547 246.423 26.8547C246.87 26.8547 247.137 27.2116 247.137 27.8361V29.799C247.137 30.245 247.048 30.6019 246.959 30.7804C246.87 30.9588 246.602 31.1372 246.245 31.3157C244.104 32.1186 241.873 32.4755 239.554 32.4755ZM238.126 19.0927C239.554 19.0927 240.624 18.9143 241.249 18.4682C241.873 18.0221 242.23 17.3084 242.23 16.4162C242.23 14.6318 241.16 13.7396 239.018 13.7396C236.253 13.7396 234.736 15.4348 234.29 18.8251C235.45 18.9143 236.788 19.0927 238.126 19.0927Z" fill="#00A8E1"/>
<path fill-rule="evenodd" clip-rule="evenodd" d="M79.1345 39.6135C71.7295 45.0558 61.0234 48 51.7449 48C38.8084 48 27.121 43.1822 18.2885 35.2418C17.5748 34.6172 18.1993 33.725 19.0914 34.2604C28.6377 39.7919 40.4143 43.1822 52.5478 43.1822C60.7558 43.1822 69.7667 41.4871 78.0639 37.9183C79.3129 37.383 80.2943 38.7213 79.1345 39.6135Z" fill="#00A8E1"/>
<path fill-rule="evenodd" clip-rule="evenodd" d="M82.17 36.1331C81.1887 34.884 75.9249 35.5978 73.516 35.8655C72.8023 35.9547 72.713 35.3301 73.3376 34.884C77.62 31.8506 84.5789 32.7428 85.3819 33.7242C86.1848 34.7056 85.2034 41.6647 81.1887 45.055C80.5641 45.5903 80.0288 45.3226 80.2965 44.6089C81.0994 42.3784 83.1514 37.3822 82.17 36.1331Z" fill="#00A8E1"/>
<path fill-rule="evenodd" clip-rule="evenodd" d="M73.6955 13.8287V10.9738C73.6955 10.5277 74.0524 10.26 74.4093 10.26H87.3457C87.7918 10.26 88.0595 10.5277 88.0595 10.9738V13.4719C88.0595 13.918 87.7026 14.4533 87.0781 15.2562L80.3868 24.8918C82.8849 24.8026 85.5614 25.2487 87.7918 26.4978C88.3271 26.7654 88.4163 27.2115 88.5056 27.6576V30.7803C88.5056 31.2264 88.0595 31.6724 87.5242 31.4048C83.5094 29.3528 78.2456 29.0851 73.7847 31.4048C73.3387 31.6724 72.8926 31.1371 72.8926 30.691V27.7468C72.8926 27.3007 72.8926 26.4978 73.3387 25.784L81.1005 14.6317H74.3201C74.0524 14.5425 73.6955 14.1856 73.6955 13.8287Z" fill="#1A1A1A"/>
<path fill-rule="evenodd" clip-rule="evenodd" d="M99.3898 13.9178C96.4457 13.9178 96.2672 17.8434 96.2672 20.3415C96.2672 22.8396 96.2672 28.1035 99.3006 28.1035C102.334 28.1035 102.512 23.821 102.512 21.2337C102.512 19.5385 102.423 17.4865 101.888 15.8806C101.531 14.4531 100.639 13.9178 99.3898 13.9178ZM99.3006 9.81372C105.189 9.81372 108.312 14.81 108.312 21.2337C108.312 27.3898 104.832 32.2968 99.3006 32.2968C93.5907 32.2968 90.3789 27.3005 90.3789 20.966C90.4681 14.7207 93.5907 9.81372 99.3006 9.81372Z" fill="#1A1A1A"/>
<path fill-rule="evenodd" clip-rule="evenodd" d="M67.3558 31.851C67.0881 32.1187 66.6421 32.1187 66.4636 31.9403C65.1254 30.8696 64.2332 29.3529 64.2332 29.3529C62.092 31.5834 60.5753 32.2079 57.7204 32.2079C54.4193 32.2079 51.832 30.1559 51.832 26.0518C51.832 22.84 53.5272 20.6987 56.0252 19.6281C58.1664 18.6467 61.1998 18.5575 63.4302 18.2898C63.4302 18.2898 63.6087 15.7917 62.9842 14.8995C62.4489 14.1858 61.5567 13.9181 60.7537 13.9181C59.3263 13.9181 57.8988 14.7211 57.6311 16.2378C57.5419 16.6839 57.1851 17.0408 56.9174 17.0408L53.1703 16.5947C52.9026 16.5947 52.4566 16.2378 52.5458 15.7917C53.4379 11.1523 57.6311 9.72485 61.3783 9.72485C63.341 9.72485 65.8391 10.2602 67.3558 11.6877C69.3186 13.472 69.0509 15.8809 69.0509 18.4683V24.6243C69.0509 26.4979 69.8539 27.3009 70.5676 28.2823C70.8353 28.6392 70.8353 29.0853 70.5676 29.3529C69.5862 29.8882 67.3558 31.851 67.3558 31.851ZM63.341 22.2154C63.341 23.7322 63.341 25.0704 62.6273 26.4087C62.0028 27.4793 61.0214 28.1931 59.8616 28.1931C58.3449 28.1931 57.4527 27.0332 57.4527 25.3381C57.4527 21.9478 60.4861 21.3233 63.341 21.3233V22.2154Z" fill="#1A1A1A"/>
<path fill-rule="evenodd" clip-rule="evenodd" d="M15.613 31.8504C15.3453 32.1181 14.8992 32.1181 14.7208 31.9396C13.3826 30.869 12.4904 29.3523 12.4904 29.3523C10.3492 31.5828 8.83248 32.2073 5.97754 32.2073C2.58729 32.1181 0 30.066 0 25.962C0 22.7501 1.69512 20.6089 4.1932 19.5383C6.33441 18.5569 9.36779 18.4676 11.5982 18.2C11.5982 18.2 11.7766 15.7019 11.1521 14.8097C10.6168 14.0959 9.72465 13.8283 8.9217 13.8283C7.49423 13.8283 6.06676 14.6312 5.79911 16.148C5.70989 16.5941 5.35302 16.9509 5.08537 16.9509L1.33826 16.5048C1.0706 16.5048 0.624519 16.148 0.713736 15.7019C1.60591 11.0625 5.79911 9.63501 9.54622 9.63501C11.509 9.63501 14.0071 10.1703 15.5238 11.5978C17.4865 13.3822 17.2189 15.7911 17.2189 18.3784V24.5345C17.2189 26.4081 18.0218 27.2111 18.7356 28.1925C19.0032 28.5493 19.0032 28.9954 18.7356 29.2631C17.8434 29.8876 15.613 31.8504 15.613 31.8504ZM11.5982 22.2148C11.5982 23.7315 11.5982 25.0698 10.8845 26.4081C10.26 27.4787 9.27857 28.1925 8.11875 28.1925C6.60206 28.1925 5.70989 27.0326 5.70989 25.3375C5.70989 21.9472 8.74327 21.3226 11.5982 21.3226V22.2148Z" fill="#1A1A1A"/>
<path fill-rule="evenodd" clip-rule="evenodd" d="M27.1232 20.4316C27.1232 18.1119 27.034 14.8108 29.8889 14.8108C32.6546 14.8108 32.2978 18.1119 32.2978 20.4316V31.1378C32.2978 31.4947 32.5654 31.8516 33.0115 31.8516H36.937C37.3831 31.8516 37.74 31.4947 37.74 31.1378V20.4316C37.74 19.2718 37.74 17.5766 38.0969 16.5952C38.543 15.6138 39.5243 14.9 40.4165 14.9C41.5763 14.9 42.4685 15.2569 42.7362 16.6844C42.9146 17.4874 42.8254 19.6286 42.8254 20.5208V31.227C42.8254 31.5839 43.093 31.9408 43.5391 31.9408H47.4647C47.9107 31.9408 48.2676 31.5839 48.2676 31.227V18.4688C48.2676 16.3275 48.5353 13.8294 47.2862 12.1343C46.2156 10.6176 44.3421 9.90381 42.7362 9.90381C40.4165 9.90381 38.2753 11.0636 37.2939 13.651C36.2233 11.0636 34.6174 9.90381 32.2085 9.90381C29.7997 9.90381 28.0153 11.0636 27.034 13.651H26.9447V11.0636C26.9447 10.6176 26.5879 10.3499 26.231 10.3499H22.5731C22.127 10.3499 21.8594 10.7068 21.8594 11.0636V31.227C21.8594 31.6731 22.2162 31.9408 22.5731 31.9408H26.4987C26.9447 31.9408 27.2124 31.5839 27.2124 31.227L27.1232 20.4316Z" fill="#1A1A1A"/>
<path fill-rule="evenodd" clip-rule="evenodd" d="M116.691 31.1369C116.691 31.583 116.334 31.8507 115.977 31.8507H112.052C111.606 31.8507 111.338 31.4938 111.338 31.1369V10.9736C111.338 10.5275 111.695 10.2598 112.052 10.2598H115.71C116.156 10.2598 116.423 10.6167 116.423 10.7951V13.9178H116.512C117.583 11.152 119.189 9.81372 121.865 9.81372C123.65 9.81372 125.345 10.4383 126.505 12.2226C127.575 13.8286 127.575 16.5943 127.575 18.5571V31.3154C127.575 31.6723 127.219 31.9399 126.862 31.9399H122.936C122.579 31.9399 122.312 31.6723 122.222 31.3154V19.0924C122.222 14.9884 120.616 14.8992 119.724 14.8992C118.654 14.8992 117.851 15.7021 117.494 16.5051C116.959 17.7542 116.869 19.0032 116.869 20.3415L116.691 31.1369Z" fill="#1A1A1A"/>
</svg>
