<svg width="227" height="48" viewBox="0 0 227 48" fill="none" xmlns="http://www.w3.org/2000/svg">
<g clip-path="url(#clip0_389_650)">
<mask id="mask0_389_650" style="mask-type:luminance" maskUnits="userSpaceOnUse" x="0" y="0" width="227" height="48">
<path d="M227 0H0V48H227V0Z" fill="white"/>
</mask>
<g mask="url(#mask0_389_650)">
<path d="M45.7196 11.0049L46.3387 9.78461C47.2719 7.96097 48.0481 6.88029 48.6673 6.52457C49.2865 6.15535 50.0222 5.96172 50.8343 5.96172C51.8214 5.96172 52.3417 6.19587 52.4271 6.63715C52.5123 7.09193 52.1309 8.14109 51.3144 9.77561L50.3452 11.6308C55.3164 12.3467 60.1485 13.0852 64.7518 13.8732C66.1785 11.0094 67.0893 8.9606 67.4706 7.70881C67.9058 6.25441 67.6681 4.91257 66.7303 3.68331C65.8062 2.46304 64.2224 1.54897 61.9791 0.923077C59.7447 0.310695 57.0304 0 53.809 0C50.4216 0.0135084 47.2989 0.35122 44.414 0.986116C41.538 1.66153 39.0436 2.57561 36.9214 3.80037C34.8171 5.00713 33.2289 6.37148 32.197 7.8484C31.9367 8.22213 31.6227 8.70844 31.3086 9.21727C36.2079 9.77111 41.0177 10.379 45.7196 11.0049Z" fill="black"/>
<path d="M35.0771 36.698C38.4555 36.68 41.5871 36.3648 44.4586 35.6984C47.3345 35.0455 49.8335 34.1179 51.9601 32.9022C54.0733 31.6639 55.6347 30.3311 56.671 28.8587C57.7075 27.3998 59.1477 24.8916 60.9468 21.3435L64.0202 15.3052L64.0605 15.2422C59.4753 14.3686 54.6745 13.5491 49.7797 12.7656L43.0363 25.9634C41.9685 28.0302 41.152 29.363 40.5731 29.9034C39.9809 30.4707 39.1644 30.7363 38.0652 30.7408C37.0242 30.7408 36.4724 30.5112 36.4365 30.0159C36.3916 29.5386 36.8941 28.2868 37.935 26.229L45.1719 12.0587C40.425 11.3382 35.6109 10.6673 30.8283 10.0054C30.0207 11.4057 29.047 13.1889 27.9343 15.3502L24.861 21.3884C23.0171 25.0132 21.8639 27.5394 21.4287 29.0072C20.9757 30.4527 21.209 31.8035 22.1466 33.0192C23.0663 34.262 24.6501 35.1762 26.8845 35.775C29.1367 36.3919 31.8602 36.698 35.0771 36.698Z" fill="black"/>
<path d="M77.4698 19.9292L77.398 35.8603L91.0911 35.8423L97.0853 24.135C90.2476 21.0055 79.3183 18.1958 66.5988 15.7192L56.293 35.9008L69.3311 35.8828L77.4698 19.9292Z" fill="black"/>
<path d="M88.884 18.894C92.3612 19.8036 95.4974 20.7896 98.2745 21.8028L109.056 0.702637L96.0312 0.711643L87.9375 16.5391L87.2645 0.734157L74.2443 0.752169L67.3125 14.3191C75.3165 15.7195 82.5983 17.2504 88.884 18.894Z" fill="black"/>
<path d="M98.2477 21.7983L97.0812 24.1354C98.7726 24.9009 100.213 25.7023 101.375 26.5083C108.316 31.3578 107.19 33.9019 101.949 36.3695C93.0792 40.5526 64.3604 42.6239 64.3604 42.6239C66.7563 39.8997 68.7572 36.9278 68.7572 36.9278C52.7401 43.5515 33.5778 46.4738 26.5742 47.4869C59.959 49.3015 99.6251 46.3882 111.968 38.0445C118.088 33.9154 113.098 27.2287 98.2477 21.7983Z" fill="black"/>
<path d="M15.9992 7.58245L0 6.32617C9.43085 7.33931 20.0955 8.57308 30.8903 10.014L31.3838 9.21697L15.9992 7.58245Z" fill="black"/>
<path d="M110.797 2.82804C110.949 2.49484 111.151 2.21567 111.407 1.98152C111.658 1.74738 111.959 1.56726 112.291 1.43668C112.623 1.3106 112.973 1.24756 113.341 1.24756C113.708 1.24756 114.054 1.3106 114.386 1.43668C114.722 1.56275 115.014 1.74287 115.27 1.98152C115.521 2.21567 115.727 2.49934 115.876 2.82804C116.028 3.16126 116.104 3.53048 116.104 3.94024C116.104 4.3545 116.028 4.72823 115.876 5.06144C115.727 5.39015 115.521 5.67383 115.27 5.91247C115.014 6.14662 114.722 6.32674 114.386 6.45282C114.054 6.57439 113.704 6.64194 113.341 6.64194C112.977 6.64194 112.627 6.5789 112.291 6.45282C111.959 6.32674 111.663 6.14662 111.407 5.91247C111.151 5.67383 110.949 5.39015 110.797 5.06144C110.649 4.72823 110.572 4.3545 110.572 3.94024C110.572 3.53048 110.644 3.16126 110.797 2.82804ZM111.465 4.79578C111.573 5.05694 111.712 5.28208 111.896 5.4757C112.075 5.66482 112.295 5.81342 112.542 5.92148C112.789 6.02504 113.053 6.07908 113.341 6.07908C113.619 6.07908 113.883 6.02504 114.13 5.92148C114.377 5.81342 114.592 5.66932 114.776 5.4757C114.96 5.28208 115.104 5.05694 115.211 4.79578C115.319 4.53462 115.373 4.25094 115.373 3.94475C115.373 3.63855 115.319 3.35487 115.211 3.09371C115.104 2.83706 114.96 2.61642 114.776 2.4273C114.592 2.23818 114.381 2.09408 114.13 1.98602C113.883 1.88246 113.623 1.82842 113.341 1.82842C113.058 1.82842 112.793 1.88246 112.542 1.98602C112.295 2.09408 112.08 2.24268 111.896 2.4273C111.712 2.61642 111.573 2.83706 111.465 3.09371C111.357 3.35038 111.304 3.63855 111.304 3.94475C111.304 4.25094 111.357 4.53462 111.465 4.79578ZM113.403 2.42279C113.78 2.42279 114.072 2.49034 114.278 2.62542C114.48 2.76051 114.583 2.99466 114.583 3.31886C114.583 3.45844 114.561 3.57551 114.52 3.67458C114.476 3.77364 114.422 3.85468 114.35 3.91772C114.274 3.98076 114.193 4.0303 114.094 4.06182C114 4.09784 113.897 4.11586 113.785 4.12936L114.592 5.44868H113.964L113.228 4.15638H112.851V5.44868H112.255V2.42279H113.403ZM113.394 3.68808C113.569 3.68808 113.708 3.66558 113.821 3.61604C113.933 3.56651 113.987 3.45394 113.987 3.26932C113.987 3.18827 113.964 3.12074 113.933 3.0757C113.892 3.02618 113.843 2.99015 113.78 2.96314C113.722 2.93611 113.655 2.91811 113.578 2.9091C113.502 2.9001 113.435 2.89559 113.367 2.89559H112.86V3.68808H113.394Z" fill="black"/>
<path d="M133.328 14.8004C132.987 15.2508 131.987 16.3809 131.412 16.7232C130.964 16.9888 130.309 17.2229 129.681 17.2229H125.687C125.032 17.2229 124.4 16.9842 123.956 16.7232C123.377 16.3809 122.354 15.2462 122.04 14.8004C121.699 14.3006 121.596 13.7197 121.596 13.1659V5.23194C121.596 4.65109 121.699 4.07022 122.04 3.57041C122.354 3.14714 123.381 2.01694 123.956 1.67022C124.404 1.40456 125.032 1.17041 125.687 1.17041H129.681C130.313 1.17041 130.968 1.40906 131.412 1.67022C131.991 2.01244 132.987 3.14714 133.328 3.57041C133.669 4.07022 133.773 4.65109 133.773 5.23194V13.1659C133.773 13.7197 133.669 14.3006 133.328 14.8004ZM130.569 5.23194C130.385 4.91676 129.887 4.41694 129.622 4.25484H125.759C125.548 4.41244 125.104 4.80869 124.786 5.25446V13.1659C125.073 13.5621 125.521 14.008 125.732 14.143H129.595C129.806 13.9854 130.277 13.5352 130.569 13.1659V5.23194Z" fill="black"/>
<path d="M147.166 9.02815C146.929 9.39738 146.115 10.1899 145.748 10.451C145.169 10.8743 144.461 11.0589 143.779 11.0589H139.315V17.0972H136.111V1.27881H143.783C144.438 1.27881 145.254 1.51746 145.752 1.88668C146.121 2.17487 146.91 2.99438 147.17 3.33659C147.511 3.80939 147.668 4.49832 147.668 5.07468V7.31708C147.668 7.94747 147.507 8.52834 147.166 9.02815ZM144.461 4.99363C144.33 4.782 144.039 4.49382 143.779 4.36324H139.315V7.9745H143.779C143.859 7.9745 144.303 7.60526 144.461 7.3396V4.99363Z" fill="black"/>
<path d="M156.072 4.36324V17.0972H152.842V4.36324H148.584V1.27881H160.299V4.36324H156.072Z" fill="black"/>
<path d="M162.088 17.0972V1.27881H165.318V17.0972H162.088Z" fill="black"/>
<path d="M178.64 17.0972V7.57824C177.746 9.50095 176.8 11.4282 175.906 13.3238H173.807L171.102 7.60076V17.0927H167.898V1.27881H171.389L174.91 8.45179C176.068 6.0788 177.221 3.62928 178.379 1.27881H181.847V17.0972H178.64Z" fill="black"/>
<path d="M195.845 14.8007C195.531 15.2511 194.531 16.3812 193.951 16.7235C193.481 16.9891 192.848 17.2232 192.219 17.2232H188.464C187.809 17.2232 187.177 16.9846 186.733 16.7235C186.154 16.3812 185.131 15.2466 184.816 14.8007C184.476 14.301 184.373 13.72 184.373 13.1662V1.27881H187.576V13.1437C187.89 13.54 188.339 14.0128 188.55 14.1434H192.148C192.358 14.0128 192.803 13.5895 193.095 13.1662V1.27881H196.299V13.1707C196.289 13.72 196.186 14.301 195.845 14.8007Z" fill="black"/>
<path d="M209.372 17.0972V7.57824C208.479 9.50095 207.532 11.4282 206.64 13.3238H204.54L201.834 7.60076V17.0927H198.631V1.27881H202.125L205.648 8.45179C206.806 6.0788 207.958 3.62928 209.116 1.27881H212.585V17.0972H209.372Z" fill="black"/>
<path d="M129.882 35.4507L124.786 26.1434V35.4507H121.582V19.6323H124.866L129.909 29.0702V19.6323H133.113V35.4507H129.882Z" fill="black"/>
<path d="M147.063 33.1589C146.748 33.6091 145.747 34.7393 145.169 35.0815C144.698 35.3471 144.065 35.5813 143.437 35.5813H139.681C139.027 35.5813 138.394 35.3427 137.949 35.0815C137.371 34.7393 136.348 33.6046 136.034 33.1589C135.693 32.659 135.59 32.0782 135.59 31.5243V19.6323H138.793V31.4973C139.107 31.8935 139.556 32.3663 139.767 32.4969H143.365C143.576 32.3663 144.02 31.943 144.312 31.5198V19.6323H147.515V31.5243C147.511 32.0782 147.403 32.6545 147.063 33.1589Z" fill="black"/>
<path d="M156.574 22.7167V35.4507H153.344V22.7167H149.086V19.6323H160.8V22.7167H156.574Z" fill="black"/>
<path d="M173.543 27.3817C173.304 27.751 172.492 28.5434 172.125 28.8046C171.914 28.9622 171.703 29.0702 171.492 29.1738C172.779 31.5469 174.906 35.4507 174.906 35.4507H171.334L168.207 29.4125H165.686V35.4507H162.482V19.6323H170.155C170.809 19.6323 171.627 19.871 172.125 20.2402C172.492 20.5285 173.282 21.3479 173.543 21.6902C173.883 22.163 174.039 22.8519 174.039 23.4282V25.6706C174.039 26.301 173.883 26.8819 173.543 27.3817ZM170.836 23.3517C170.707 23.1401 170.415 22.8519 170.155 22.7213H165.691V26.3326H170.155C170.235 26.3326 170.68 25.9633 170.836 25.7022V23.3517Z" fill="black"/>
<path d="M176.643 35.4507V19.6323H179.873V35.4507H176.643Z" fill="black"/>
<path d="M189.174 22.7167V35.4507H185.944V22.7167H181.686V19.6323H193.4V22.7167H189.174Z" fill="black"/>
<path d="M195.186 35.4507V19.6323H198.417V35.4507H195.186Z" fill="black"/>
<path d="M212.685 33.1585C212.343 33.6087 211.343 34.7389 210.768 35.0811C210.32 35.3467 209.664 35.5809 209.036 35.5809H205.039C204.384 35.5809 203.751 35.3423 203.307 35.0811C202.729 34.7389 201.706 33.6042 201.391 33.1585C201.05 32.6586 200.947 32.0778 200.947 31.5239V23.5854C200.947 23.0046 201.05 22.4237 201.391 21.9239C201.706 21.5006 202.733 20.3705 203.307 20.0237C203.755 19.7581 204.384 19.5239 205.039 19.5239H209.032C209.664 19.5239 210.32 19.7626 210.764 20.0237C211.343 20.3659 212.339 21.5006 212.679 21.9239C213.021 22.4237 213.124 23.0046 213.124 23.5854V31.5194C213.128 32.0778 213.025 32.6541 212.685 33.1585ZM209.924 23.5854C209.74 23.2702 209.242 22.7705 208.978 22.6083H205.115C204.904 22.7659 204.46 23.1622 204.141 23.6079V31.5194C204.428 31.9157 204.877 32.3614 205.088 32.4965H208.951C209.162 32.3389 209.633 31.8886 209.924 31.5194V23.5854Z" fill="black"/>
<path d="M223.771 35.4507L218.674 26.1434V35.4507H215.471V19.6323H218.754L223.798 29.0702V19.6323H227.001V35.4507H223.771Z" fill="black"/>
</g>
</g>
<defs>
<clipPath id="clip0_389_650">
<rect width="227" height="48" fill="white"/>
</clipPath>
</defs>
</svg>
