<svg width="118" height="48" viewBox="0 0 118 48" fill="none" xmlns="http://www.w3.org/2000/svg">
<path d="M1.7168 45.8998L6.98199 2.5873C7.01933 2.3623 7.13135 2.1748 7.31806 2.0248C7.50477 1.8748 7.69148 1.7998 7.87819 1.7998H13.5541C13.7782 1.7998 13.9276 1.8748 14.0769 2.0248C14.1889 2.1748 14.2636 2.3623 14.1889 2.5873L9.59591 39.9373C9.59591 40.1623 9.70794 40.2748 9.93199 40.2748H23.263C23.487 40.2748 23.6364 40.3498 23.7858 40.4998C23.8978 40.6498 23.9725 40.8373 23.8978 41.0623L23.3377 45.9373C23.3003 46.1623 23.1883 46.3498 23.0389 46.4998C22.8896 46.6498 22.7029 46.7248 22.4788 46.7248H2.38895C1.94085 46.6498 1.7168 46.4248 1.7168 45.8998Z" fill="black"/>
<path d="M47.0129 20.0996C48.0584 18.8996 48.7679 17.2121 49.0667 15.1496C49.104 14.8121 49.1414 14.3246 49.1414 13.6871C49.1414 11.9621 48.7679 10.6496 47.9838 9.63711C47.1996 8.66211 46.154 8.17461 44.8097 8.17461H41.0755C40.8515 8.17461 40.7395 8.28711 40.7395 8.51211L39.1338 21.6371C39.0591 21.8621 39.1338 21.9746 39.3951 21.9746H43.092C44.6603 21.9371 45.93 21.3371 47.0129 20.0996ZM53.7344 4.72461C55.4521 6.71211 56.311 9.33711 56.311 12.5621C56.311 13.5746 56.2736 14.3621 56.1989 14.9246C55.7882 18.7871 54.4065 21.8621 52.166 24.2246C49.8882 26.5871 47.1622 27.7496 43.9508 27.7496H38.723C38.5363 27.7496 38.4243 27.8621 38.3496 28.0871L36.1838 45.8996C36.1464 46.1246 36.0344 46.3121 35.885 46.4621C35.7357 46.6121 35.5489 46.6871 35.3249 46.6871H29.6489C29.1635 46.6871 28.9395 46.4246 28.9395 45.8996L34.3167 2.51211C34.3167 2.28711 34.3914 2.09961 34.5781 1.94961C34.7648 1.79961 34.9515 1.72461 35.1382 1.72461H46.7515C49.7015 1.76211 52.0167 2.73711 53.7344 4.72461Z" fill="black"/>
<path d="M67.1019 40.2748L70.7987 40.1998C72.1431 40.1998 73.338 39.6373 74.3089 38.5123C75.2798 37.3873 75.9146 35.8873 76.2133 34.0123L78.5658 14.5498C78.6032 14.2498 78.6405 13.8373 78.6405 13.2748C78.6405 11.6998 78.3044 10.4623 77.5949 9.5998C76.8855 8.7373 75.9146 8.2873 74.6449 8.2873H71.0228C70.7987 8.2873 70.6867 8.39981 70.6867 8.6248L66.8032 40.0123C66.7658 40.1623 66.8779 40.2748 67.1019 40.2748ZM58.8867 45.8998L64.1519 2.5873C64.1893 2.3623 64.3013 2.1748 64.488 2.0248C64.6747 1.8748 64.8614 1.7998 65.0481 1.7998H75.5785C78.7525 1.7998 81.2918 2.6998 83.1215 4.5373C84.9886 6.33731 85.8848 8.8123 85.8848 11.9248C85.8848 12.4123 85.8475 13.0873 85.7728 14.0248L83.2709 34.3873C82.7855 38.0998 81.3665 41.0623 79.0139 43.2748C76.6241 45.4873 73.6367 46.6123 70.0892 46.6123H59.5589C59.1108 46.6498 58.8867 46.4248 58.8867 45.8998Z" fill="black"/>
<path d="M92.9059 44.5498C91.0388 42.7873 90.1426 40.4248 90.1426 37.4248C90.1426 37.0498 90.1799 36.4123 90.2546 35.5498L92.9806 12.8623C93.3913 9.3748 94.8103 6.5623 97.2002 4.4248C99.59 2.3248 102.54 1.2373 106.088 1.2373C109.262 1.2373 111.801 2.1373 113.705 3.9373C115.61 5.7373 116.543 8.1373 116.543 11.1748C116.543 11.5498 116.506 12.1498 116.431 12.8998L116.095 15.4123C116.058 15.6373 115.946 15.8248 115.796 15.9748C115.647 16.1248 115.46 16.1998 115.236 16.1998H109.486C109.262 16.1998 109.112 16.1248 108.963 15.9748C108.851 15.8248 108.776 15.6373 108.851 15.4123L109.187 12.7873C109.224 12.5623 109.262 12.2623 109.262 11.8873C109.262 10.6123 108.888 9.5623 108.179 8.8123C107.469 8.0248 106.461 7.6498 105.229 7.6498C103.922 7.6498 102.764 8.1373 101.831 9.0748C100.897 10.0123 100.337 11.2498 100.113 12.7873L97.3495 35.6248C97.3122 35.8498 97.2749 36.1498 97.2749 36.5248C97.2749 37.7998 97.6109 38.8498 98.3204 39.5998C99.0299 40.3498 100.001 40.7623 101.233 40.7623C102.577 40.7623 103.772 40.2748 104.743 39.3373C105.714 38.3998 106.312 37.1623 106.461 35.6248L107.17 29.4748C107.245 29.2498 107.17 29.1373 106.909 29.1373H103.138C102.913 29.1373 102.764 29.0623 102.615 28.9123C102.503 28.7623 102.428 28.5748 102.503 28.3498L103.063 23.6623C103.1 23.4373 103.212 23.2498 103.362 23.0998C103.511 22.9498 103.698 22.8748 103.922 22.8748H114.452C114.676 22.8748 114.825 22.9498 114.975 23.0998C115.087 23.2498 115.162 23.4373 115.087 23.6623L113.631 35.5123C113.22 38.9998 111.763 41.8123 109.374 43.9498C106.946 46.0498 103.996 47.1373 100.486 47.1373C97.2749 47.1748 94.773 46.3123 92.9059 44.5498Z" fill="black"/>
<path d="M29.1249 6.07461C29.1996 6.14961 29.1996 6.22461 29.1996 6.33711L28.9382 8.24961C28.9008 8.36211 28.8635 8.43711 28.7888 8.51211C28.7141 8.58711 28.6394 8.62461 28.5274 8.62461H24.7559C24.6812 8.62461 24.6065 8.66211 24.5692 8.77461L24.0837 12.7121C24.0464 12.8246 24.009 12.8996 23.9344 12.9746C23.8597 13.0496 23.785 13.0871 23.673 13.0871H21.8432C21.7312 13.0871 21.6565 13.0496 21.6192 12.9746C21.5445 12.8996 21.5445 12.8246 21.5445 12.7121L22.0299 8.77461C22.0299 8.66211 21.9926 8.62461 21.9179 8.62461H18.1837C17.9597 8.62461 17.8477 8.51211 17.8477 8.28711L18.0717 6.37461C18.109 6.26211 18.1464 6.18711 18.2211 6.11211C18.2958 6.03711 18.3704 5.99961 18.4825 5.99961H22.254C22.366 5.99961 22.4407 5.96211 22.4407 5.84961L22.9261 1.91211C22.9635 1.79961 23.0008 1.72461 23.0755 1.64961C23.1502 1.57461 23.2249 1.53711 23.3369 1.53711H25.1666C25.2787 1.53711 25.3534 1.57461 25.3907 1.64961C25.4654 1.72461 25.4654 1.79961 25.4654 1.91211L24.9799 5.84961C24.9799 5.96211 25.0173 5.99961 25.092 5.99961H28.9008C28.9755 5.96211 29.0502 5.99961 29.1249 6.07461Z" fill="#00A5C6"/>
</svg>
