<svg width="176" height="48" viewBox="0 0 176 48" fill="none" xmlns="http://www.w3.org/2000/svg">
<path fill-rule="evenodd" clip-rule="evenodd" d="M23.3561 0.051668C22.7577 0.071443 21.6476 0.143073 20.1661 0.257768C19.8638 0.281058 19.4071 0.329397 19.1519 0.364992C18.8962 0.400587 18.6446 0.413771 18.5926 0.393556C18.5407 0.373781 17.974 0.440137 17.3338 0.541649C16.6936 0.642722 16.0046 0.745112 15.803 0.769282C15.6011 0.793012 15.2548 0.858489 15.033 0.914299C14.8108 0.970548 14.4808 1.03559 14.2996 1.05932C13.816 1.12304 12.9065 1.34715 12.9065 1.40296C12.9061 1.42933 12.8405 1.43372 12.7604 1.41307C12.6808 1.39198 12.5567 1.39989 12.4854 1.43065C12.4146 1.46141 12.3068 1.49612 12.2461 1.50755C12.052 1.54402 11.2737 1.76946 10.6696 1.96413C10.347 2.06784 10.05 2.15661 10.0096 2.161C9.93961 2.16848 9.82345 2.20978 9.49609 2.34337C9.18017 2.47301 9.05389 2.51256 8.99933 2.50114C8.96809 2.4941 8.81277 2.55519 8.65393 2.63604C8.49509 2.7169 8.31469 2.78282 8.25265 2.78282C8.19017 2.78282 8.13957 2.81578 8.13957 2.85621C8.13957 2.89664 8.08677 2.92959 8.02253 2.92959C7.95829 2.92959 7.81441 2.99419 7.70265 3.07373C7.59089 3.15327 7.47693 3.19546 7.44965 3.16821C7.31985 3.03814 7.44877 18.6907 7.58385 19.4817C7.65645 19.9049 7.72509 20.3769 7.73697 20.5307C7.76425 20.8893 8.04145 22.0266 8.24033 22.5948C8.32481 22.8365 8.39873 23.0588 8.40401 23.0891C8.40973 23.119 8.42117 23.152 8.42953 23.1621C8.43745 23.1722 8.45505 23.2298 8.46825 23.2904C8.48189 23.3506 8.54569 23.5238 8.61037 23.6745C8.67505 23.8256 8.73049 23.9737 8.73313 24.0041C8.73621 24.0344 8.77273 24.1007 8.81497 24.1508C8.85677 24.2014 8.87085 24.2427 8.84665 24.2427C8.82201 24.2427 8.86733 24.3587 8.94741 24.5011C9.02749 24.6435 9.09305 24.8052 9.09305 24.8614C9.09305 24.9172 9.11769 24.9739 9.14805 24.9871C9.17797 25.0007 9.34781 25.2916 9.52469 25.634C9.70157 25.9763 9.89209 26.2835 9.94797 26.316C10.0038 26.3489 10.0302 26.4065 10.0069 26.4443C9.98317 26.4821 9.99901 26.5129 10.0417 26.5129C10.0848 26.5129 10.1196 26.5678 10.1196 26.6341C10.1196 26.7009 10.2018 26.8635 10.303 26.9954C10.4038 27.1276 10.4861 27.2582 10.4861 27.2858C10.4861 27.3298 10.7078 27.6176 11.0295 27.9907C11.0876 28.0579 11.1729 28.1841 11.2196 28.2706C11.2662 28.3576 11.3674 28.4917 11.4453 28.5695C11.5227 28.6468 11.5861 28.743 11.5861 28.7835C11.5861 28.8239 11.6358 28.8569 11.6961 28.8569C11.7568 28.8569 11.7982 28.8863 11.788 28.9219C11.7687 28.99 12.2179 29.5367 12.723 30.0601C12.8841 30.227 13.1234 30.4876 13.2546 30.6384C13.3857 30.7891 13.493 30.8924 13.493 30.8678C13.493 30.8431 13.717 31.0479 13.9911 31.323C14.6084 31.9426 15.5764 32.8132 15.8044 32.9534C15.8981 33.0114 16.0098 33.1349 16.0525 33.228C16.0948 33.3212 16.1656 33.3976 16.2092 33.3976C16.2853 33.3976 16.412 33.5022 16.984 34.0384C17.1235 34.1693 17.2634 34.2765 17.2951 34.2765C17.3263 34.2765 17.4253 34.3754 17.5146 34.4963C17.604 34.6171 17.7047 34.716 17.7386 34.716C17.7976 34.716 18.1742 35.0434 18.9262 35.7482C19.1233 35.9332 19.2975 36.0717 19.3129 36.0563C19.3288 36.0409 19.426 36.1284 19.529 36.251C19.6324 36.3736 19.7388 36.4738 19.7652 36.4738C19.7921 36.4738 19.906 36.5643 20.0182 36.675C20.4063 37.0578 20.7403 37.3526 20.7856 37.3526C20.8107 37.3526 20.9295 37.4533 21.0496 37.5759C21.179 37.7077 21.3057 37.778 21.3589 37.7473C21.4086 37.7187 21.4245 37.7231 21.3937 37.7565C21.3356 37.8207 21.6115 38.1581 21.7224 38.1581C21.7958 38.1581 22.1404 38.533 22.1439 38.6161C22.1487 38.7329 21.9815 38.6618 21.7571 38.4517C21.6282 38.3309 21.4808 38.232 21.4289 38.232C21.3774 38.2315 21.3158 38.1819 21.2929 38.1217C21.2696 38.061 21.2058 38.0118 21.1512 38.0118C21.0967 38.0118 20.9928 37.9516 20.9207 37.8782C20.8485 37.8048 20.6738 37.666 20.533 37.5697C20.3918 37.4735 20.2325 37.3439 20.1793 37.2819C20.0974 37.1874 20.0908 37.187 20.1384 37.2793C20.1696 37.3399 20.0759 37.2902 19.9307 37.1694C19.3618 36.697 19.1132 36.5067 18.9464 36.4166C18.8509 36.3648 18.773 36.2887 18.773 36.2474C18.773 36.2061 18.744 36.1899 18.7084 36.2118C18.6732 36.2338 18.5658 36.1767 18.4699 36.0848C18.3744 35.993 18.117 35.7917 17.8983 35.6375C17.6796 35.4832 17.4649 35.3281 17.4218 35.2934C17.3782 35.2583 17.1943 35.1132 17.013 34.9709C16.8313 34.8285 16.606 34.647 16.5119 34.5674C16.4173 34.4879 16.3205 34.4229 16.2958 34.4229C16.2712 34.4229 16.1533 34.3323 16.034 34.2216C15.9144 34.1109 15.8409 34.0696 15.8704 34.1302C15.8998 34.1904 15.8638 34.1741 15.7903 34.0933C15.5901 33.8744 15.033 33.4499 15.033 33.5167C15.033 33.5484 14.92 33.4552 14.7822 33.3093C14.6445 33.1634 14.5182 33.0571 14.502 33.0733C14.4857 33.0896 14.3779 33.0048 14.2622 32.8844C14.1464 32.764 14.0224 32.6651 13.9858 32.6651C13.9269 32.6651 13.7592 32.5284 13.3426 32.1404C13.2708 32.0732 13.1987 32.0314 13.1824 32.0472C13.1666 32.0635 12.9589 31.8974 12.7213 31.6781C12.4837 31.4588 12.2773 31.2914 12.2632 31.3054C12.2492 31.3195 12.1634 31.2606 12.0732 31.1745C11.7638 30.8783 11.4409 30.6146 11.3876 30.6146C11.3344 30.6146 11.1641 30.4595 10.8024 30.0833C10.696 29.9726 10.5728 29.8821 10.5283 29.8821C10.4843 29.8821 10.4069 29.8162 10.3567 29.7357C10.3061 29.6549 10.2278 29.589 10.1825 29.589C10.1367 29.589 10.0245 29.5151 9.93301 29.4242C9.84149 29.3337 9.60653 29.1144 9.41117 28.9373C8.87701 28.4526 7.93057 27.5385 7.96313 27.5385C7.97897 27.5385 7.88789 27.4396 7.76117 27.3188C7.63489 27.198 7.50597 27.0991 7.47561 27.0991C7.44525 27.0991 7.33305 26.9505 7.22657 26.7695C7.12053 26.588 7.00569 26.4399 6.97181 26.4399C6.93793 26.4399 6.89173 26.3705 6.86973 26.2861C6.84773 26.2013 6.79669 26.1525 6.75665 26.1771C6.71617 26.2017 6.66029 26.149 6.63169 26.0598C6.60353 25.9706 6.54061 25.8576 6.49177 25.8089C6.44337 25.7605 6.29201 25.5448 6.15561 25.3294C6.01921 25.1145 5.89029 24.9216 5.86873 24.9018C5.77325 24.8122 5.51849 24.3899 5.31609 23.986C5.19509 23.7444 5.07145 23.5356 5.04065 23.522C5.01029 23.5088 5.00413 23.4675 5.02657 23.4306C5.04945 23.3937 5.03317 23.3638 4.99049 23.3638C4.94781 23.3638 4.91305 23.304 4.91305 23.2311C4.91305 23.1577 4.82549 22.9191 4.71901 22.6998C4.61209 22.4809 4.51397 22.2357 4.50077 22.1553C4.48757 22.0745 4.41233 21.7866 4.33313 21.5155C4.25437 21.2443 4.17297 20.8818 4.15317 20.71C4.07397 20.031 4.03393 19.7305 3.99829 19.5551C3.87553 18.9509 3.81437 17.4326 3.81129 14.9146L3.80733 12.0503L4.01017 11.9026C4.12193 11.8213 4.22665 11.766 4.24293 11.7796C4.25965 11.7932 4.29353 11.7761 4.31817 11.7418C4.36701 11.6737 4.97949 11.3485 5.81109 10.9486L6.08609 10.8163V8.7039C6.08609 7.34426 6.06013 6.59149 6.01305 6.59149C5.97257 6.59149 5.93957 6.63016 5.93957 6.67674C5.93957 6.72376 5.91889 6.74178 5.89381 6.71673C5.86873 6.69168 5.72133 6.73563 5.56689 6.81429C5.41201 6.89339 5.23469 6.95755 5.17265 6.95755C5.11017 6.95755 5.05957 6.9927 5.05957 7.03533C5.05957 7.07796 5.02657 7.09246 4.98609 7.06741C4.94605 7.0428 4.91305 7.06257 4.91305 7.11223C4.91305 7.16145 4.89281 7.18166 4.86817 7.15706C4.84353 7.13245 4.64553 7.21243 4.42817 7.33503C4.21081 7.4572 4.03305 7.53586 4.03305 7.50905C4.03305 7.48224 3.93405 7.53102 3.81305 7.61672C3.69205 7.70285 3.59305 7.7525 3.59305 7.72702C3.59305 7.66813 2.98761 7.99508 2.91589 8.09307C2.88597 8.13306 2.86133 8.13922 2.86089 8.10626C2.86001 8.0733 2.76893 8.10802 2.65805 8.18316C2.54717 8.2583 2.36545 8.3585 2.25457 8.4064C2.14369 8.45386 2.05305 8.52241 2.05305 8.55889C2.05305 8.62304 1.77981 8.7395 1.66805 8.72324C1.63769 8.71884 1.61305 8.74829 1.61305 8.78872C1.61305 8.82914 1.56333 8.8621 1.50305 8.8621C1.44233 8.8621 1.39261 8.88671 1.39261 8.91703C1.39261 8.94692 1.21265 9.06864 0.993527 9.18685C0.773967 9.30506 0.614247 9.43382 0.638447 9.47293C0.662647 9.5116 0.646367 9.52171 0.602367 9.49446C0.558367 9.46722 0.439127 9.5283 0.337487 9.62937C0.235847 9.73089 0.119247 9.81394 0.0783266 9.81394C-0.0211134 9.81394 0.0378466 17.3632 0.144327 18.3102C0.187447 18.6925 0.258287 19.2036 0.302287 19.4453C0.346287 19.687 0.394687 20.0328 0.410087 20.2143C0.425047 20.3958 0.522287 20.8405 0.625687 21.203C0.729087 21.5656 0.821927 21.8952 0.832047 21.9356C0.975927 22.5069 1.36313 23.4266 1.50173 23.5273C1.54265 23.5567 1.54837 23.5818 1.51405 23.5822C1.48017 23.5831 1.53429 23.7233 1.63505 23.8946C1.73537 24.066 1.82073 24.2387 1.82469 24.2792C1.82865 24.3196 1.88497 24.4145 1.95009 24.4905C2.01477 24.5661 2.10761 24.7146 2.15557 24.8201C2.29945 25.1343 2.52561 25.4868 2.58457 25.4872C2.61493 25.4876 2.63957 25.5333 2.63957 25.5896C2.63957 25.6458 2.68885 25.7109 2.74957 25.7337C2.81029 25.757 2.85957 25.8238 2.85957 25.8822C2.85957 25.9403 2.88553 25.9991 2.91721 26.0123C2.94845 26.0259 3.13193 26.243 3.32465 26.4948C3.51737 26.7466 3.70041 26.9523 3.73209 26.9523C3.76377 26.9523 3.82713 27.0349 3.87289 27.1355C3.91865 27.2362 4.00665 27.3188 4.06781 27.3188C4.12941 27.3188 4.17957 27.3513 4.17957 27.3913C4.17957 27.5209 5.04505 28.464 5.13921 28.4367C5.17177 28.4275 5.26813 28.518 5.35393 28.6385C5.43929 28.7584 5.53785 28.8569 5.57261 28.8569C5.60737 28.8569 5.75829 28.972 5.90789 29.1131C6.05749 29.2541 6.20533 29.3692 6.23657 29.3692C6.26781 29.3692 6.40333 29.469 6.53797 29.5907C7.13373 30.129 7.37573 30.3206 7.46109 30.3211C7.51169 30.3215 7.55305 30.3549 7.55305 30.3958C7.55305 30.4371 7.66833 30.5254 7.80957 30.5927C7.95081 30.6599 8.06609 30.7636 8.06609 30.8234C8.06609 30.8831 8.08897 30.9095 8.11625 30.8818C8.14397 30.8541 8.27597 30.9376 8.40973 31.0668C8.54349 31.1965 8.65305 31.2795 8.65305 31.2514C8.65305 31.2233 8.71333 31.258 8.78769 31.3287C8.86161 31.399 8.99889 31.5063 9.09305 31.5665C9.18677 31.6271 9.32449 31.7343 9.39841 31.8047C9.47233 31.875 9.55989 31.933 9.59245 31.933C9.62501 31.933 9.71609 31.9905 9.79397 32.0608C10.0206 32.2652 10.5182 32.6282 10.5719 32.6282C10.5992 32.6286 10.6982 32.695 10.7919 32.7763C11.1808 33.1124 11.4919 33.3207 11.5377 33.275C11.5645 33.2487 11.5861 33.2619 11.5861 33.3049C11.5861 33.3757 11.8589 33.5813 12.6856 34.135C12.8401 34.2383 13.0605 34.3961 13.1749 34.4853C13.592 34.8109 14.5196 35.4455 14.5196 35.405C14.5196 35.3826 14.6212 35.4657 14.7457 35.5896C14.8702 35.714 14.9978 35.7996 15.0295 35.7799C15.0616 35.7601 15.1906 35.8423 15.3164 35.9627C15.4418 36.0826 15.5698 36.1811 15.6006 36.1811C15.631 36.1811 15.7718 36.28 15.913 36.4004C16.0538 36.5212 16.2074 36.6201 16.2536 36.6201C16.2994 36.6201 16.357 36.6719 16.3812 36.7348C16.4054 36.7976 16.4525 36.8323 16.4855 36.8117C16.5189 36.7915 16.6346 36.8565 16.7429 36.9567C16.8511 37.0569 16.9396 37.1197 16.9396 37.0965C16.9396 37.0727 17.0298 37.1373 17.1406 37.2397C17.2511 37.3421 17.369 37.426 17.4024 37.426C17.4363 37.426 17.7008 37.6001 17.9898 37.8132C18.2794 38.0263 18.6072 38.246 18.718 38.3018C18.8289 38.3572 18.9196 38.4262 18.9196 38.4548C18.9196 38.4833 19.0186 38.5475 19.1396 38.5976C19.2606 38.6477 19.3596 38.7176 19.3596 38.7532C19.3596 38.7883 19.3921 38.8173 19.4322 38.8173C19.5004 38.8173 19.6922 38.9566 19.9126 39.1654C19.9654 39.2159 20.0301 39.2568 20.0561 39.2568C20.0816 39.2568 20.211 39.3394 20.343 39.44C20.4754 39.5406 20.6065 39.6233 20.6351 39.6233C20.6633 39.6233 20.7632 39.7054 20.8564 39.8061C20.9497 39.9071 21.0588 39.9893 21.0984 39.9893C21.1376 39.9893 21.2661 40.0715 21.3831 40.1721C21.5002 40.2732 21.622 40.3554 21.6537 40.3554C21.6854 40.3554 21.6762 40.4213 21.633 40.5022C21.5899 40.5826 21.5142 40.6485 21.4654 40.6485C21.4161 40.6485 21.2357 40.7764 21.0646 40.9328C20.893 41.0892 20.753 41.1974 20.753 41.1732C20.753 41.1486 20.7016 41.2017 20.6386 41.2914C20.5762 41.381 20.4772 41.454 20.4186 41.454C20.3606 41.454 20.313 41.4826 20.313 41.5177C20.313 41.5524 19.9993 41.8205 19.6161 42.1132C19.2328 42.4058 18.9196 42.6739 18.9196 42.709C18.9196 42.7438 18.8839 42.7723 18.8404 42.7723C18.7968 42.7723 18.6309 42.9042 18.4708 43.0654C18.311 43.2267 18.1562 43.3585 18.1262 43.3585C18.0968 43.3585 18.0176 43.4161 17.9507 43.4864C17.8834 43.5572 17.7404 43.6807 17.6321 43.7611C17.2832 44.0208 16.8661 44.4374 16.8661 44.5261C16.8661 44.5732 16.8379 44.5947 16.8036 44.5736C16.7693 44.5521 16.6641 44.6162 16.5708 44.7155C16.4771 44.8149 16.4314 44.8975 16.4683 44.8988C16.5057 44.9001 16.4784 44.9344 16.408 44.9757C16.3372 45.0166 16.2796 45.1001 16.2796 45.1607C16.2796 45.2214 16.247 45.2512 16.207 45.2266C16.1638 45.1998 16.1542 45.2328 16.1828 45.3075C16.2162 45.3941 16.2039 45.4165 16.1436 45.3791C16.0952 45.3492 16.0626 45.3523 16.071 45.3853C16.0794 45.4187 16.0472 45.5777 16.0002 45.7386C15.9526 45.8999 15.9135 46.4685 15.9135 47.002L15.913 47.9727H24.464H33.015L32.9881 46.8192C32.9736 46.1846 32.9296 45.616 32.8909 45.5558C32.8522 45.4951 32.8192 45.4103 32.8183 45.3672C32.8156 45.2684 32.4544 44.8096 32.1196 44.48C31.5682 43.9373 31.4921 43.8709 31.4213 43.8709C31.3812 43.8709 31.3051 43.8019 31.2523 43.7176C31.1991 43.6332 31.1397 43.58 31.1199 43.5998C31.1001 43.6196 31.0094 43.5651 30.9188 43.479C30.4788 43.061 30.0458 42.6897 29.8641 42.5741C29.7532 42.5043 29.6094 42.3882 29.5442 42.3166C29.4791 42.245 29.3872 42.1865 29.3405 42.1865C29.2934 42.1865 29.2358 42.1369 29.2129 42.0767C29.1896 42.016 29.1425 41.9668 29.1082 41.9668C29.0734 41.9668 28.9111 41.8354 28.7474 41.675C28.4658 41.3991 28.0861 41.2888 28.0861 41.4821C28.0861 41.5203 28.0641 41.5296 28.0372 41.5028C28.0104 41.476 27.936 41.4979 27.8722 41.552C27.8084 41.606 27.4164 41.7937 27.0006 41.9686C26.5852 42.1435 26.2284 42.3135 26.2082 42.3465C26.1875 42.3795 26.107 42.4063 26.0286 42.4063C25.9503 42.4063 25.8861 42.4445 25.8861 42.4915C25.8861 42.5385 25.8641 42.5552 25.8372 42.528C25.81 42.5012 25.7193 42.5232 25.6353 42.5772C25.5517 42.6313 25.1363 42.8316 24.713 43.0228C23.511 43.5655 23.32 43.6534 22.733 43.9347C22.4303 44.0797 22.1663 44.2018 22.1461 44.2054C22.1263 44.2093 21.8174 44.3499 21.4606 44.5178C21.1037 44.6857 20.7821 44.8232 20.7456 44.8232C20.7095 44.8232 20.6796 44.8509 20.6796 44.8843C20.6796 44.9177 20.6298 44.9454 20.5696 44.9454C20.4024 44.9454 20.4384 44.8395 20.6246 44.7832C20.7152 44.756 20.8771 44.6514 20.9845 44.5516C21.0914 44.4514 21.2014 44.3759 21.2287 44.3833C21.256 44.3908 21.3743 44.3117 21.4918 44.2071C21.6097 44.1025 21.721 44.0252 21.7404 44.0357C21.7593 44.0458 21.842 43.9966 21.9248 43.9259C22.007 43.8556 22.1074 43.798 22.147 43.798C22.187 43.798 22.2196 43.7703 22.2196 43.7365C22.2196 43.7026 22.304 43.6363 22.407 43.5897C22.51 43.5427 22.5746 43.4719 22.55 43.4324C22.5245 43.3911 22.554 43.3788 22.6191 43.4038C22.6816 43.4275 22.733 43.4148 22.733 43.3748C22.733 43.3348 22.7907 43.2812 22.8611 43.2557C23.0446 43.1898 23.2967 43.0356 23.4533 42.8941C23.5272 42.8273 23.6104 42.7723 23.6377 42.7723C23.665 42.7723 23.7833 42.6871 23.9008 42.5825C24.0183 42.4783 24.1309 42.4041 24.1512 42.4177C24.1714 42.4318 24.2647 42.3733 24.3588 42.2885C24.4526 42.2037 24.6369 42.0732 24.768 41.998C24.8992 41.9233 25.0061 41.8363 25.0061 41.8047C25.0061 41.773 25.0558 41.7471 25.1161 41.7471C25.1768 41.7471 25.2261 41.7141 25.2261 41.6737C25.2261 41.6337 25.2613 41.6008 25.3044 41.6008C25.3898 41.6008 25.9076 41.2316 25.9472 41.1429C25.9609 41.1125 26.0172 41.0879 26.0731 41.0879C26.129 41.0879 26.283 40.9943 26.4154 40.8805C26.5478 40.7663 26.7634 40.6107 26.8946 40.5351C27.0257 40.4591 27.133 40.3694 27.133 40.3356C27.133 40.3013 27.1599 40.2903 27.1924 40.3106C27.2254 40.3308 27.3447 40.2675 27.4582 40.1704C27.5713 40.0733 27.7262 39.9739 27.8018 39.9498C27.8775 39.926 27.9396 39.8825 27.9396 39.8535C27.9396 39.825 28.0469 39.7393 28.178 39.6637C28.3092 39.5885 28.4658 39.4813 28.5261 39.4264C28.5868 39.371 28.9331 39.1381 29.2961 38.9083C29.6591 38.6785 30.0199 38.4324 30.0973 38.3616C30.1752 38.2909 30.2988 38.214 30.3723 38.1907C30.4462 38.1674 30.5061 38.1177 30.5061 38.0799C30.5061 38.0426 30.5558 38.0118 30.6161 38.0118C30.6768 38.0118 30.7261 37.9863 30.7261 37.9556C30.7261 37.9244 30.8748 37.818 31.0561 37.7187C31.2378 37.6198 31.3861 37.5113 31.3861 37.4779C31.3861 37.4445 31.4142 37.4344 31.4486 37.4555C31.4829 37.4766 31.5735 37.4375 31.6501 37.3676C31.8459 37.1905 32.9186 36.4738 32.9881 36.4738C33.0198 36.4738 33.139 36.3762 33.2539 36.2567C33.3683 36.1371 33.488 36.0554 33.5196 36.0752C33.5513 36.0945 33.6112 36.0523 33.653 35.9811C33.6943 35.9095 33.7295 35.8774 33.7308 35.9091C33.7317 35.9407 33.8039 35.9007 33.8906 35.8199C33.9772 35.7394 34.0762 35.6907 34.1106 35.7118C34.1449 35.7329 34.173 35.6986 34.173 35.6357C34.173 35.5729 34.1977 35.5285 34.228 35.5369C34.3178 35.5615 34.7125 35.329 34.863 35.1629C34.9395 35.0781 35.0315 35.0091 35.0676 35.0091C35.1032 35.0091 35.1723 34.9766 35.2211 34.937C35.6598 34.5793 35.7865 34.4919 35.7883 34.5446C35.7896 34.5784 35.8248 34.5477 35.8662 34.4765C35.908 34.4049 35.9731 34.3657 36.0109 34.389C36.0488 34.4128 36.0796 34.4044 36.0796 34.3715C36.0796 34.3381 36.2116 34.2295 36.373 34.1302C36.5341 34.0304 36.6661 33.9237 36.6661 33.8929C36.6661 33.8621 36.6912 33.845 36.7211 33.8547C36.7849 33.8744 37.4832 33.4086 37.5632 33.2926C37.5932 33.2495 37.6178 33.239 37.6182 33.2689C37.6196 33.3194 37.803 33.1876 38.0257 32.9767C38.0789 32.9261 38.1427 32.8848 38.1674 32.8848C38.232 32.8848 38.6417 32.5886 38.9008 32.3544C39.0227 32.2437 39.156 32.1523 39.1961 32.1514C39.2366 32.1505 39.4011 32.0349 39.5622 31.8947C39.7232 31.7546 39.8939 31.6399 39.9419 31.6399C39.9898 31.6399 40.0937 31.5577 40.1733 31.4566C40.2525 31.356 40.3489 31.2738 40.3876 31.2738C40.4263 31.2738 40.5473 31.1912 40.656 31.0906C40.7647 30.9899 40.8804 30.9073 40.9125 30.9073C40.9446 30.9073 41.0749 30.8084 41.202 30.6871C41.3292 30.5659 41.433 30.4898 41.433 30.518C41.433 30.5461 41.4955 30.5048 41.5725 30.427C41.6491 30.3488 41.8224 30.2024 41.9575 30.1022C42.0926 30.0016 42.2906 29.8285 42.3975 29.7177C42.5044 29.6065 42.6272 29.516 42.6708 29.516C42.7139 29.516 42.8036 29.4334 42.8696 29.3328C42.9356 29.2321 43.0236 29.1495 43.0646 29.1495C43.1059 29.1495 43.2111 29.0757 43.2991 28.9847C43.3866 28.8942 43.6546 28.6393 43.894 28.4187C44.1338 28.1977 44.3212 27.9907 44.3106 27.9586C44.3001 27.9265 44.341 27.8813 44.4017 27.8584C44.4624 27.8351 44.4932 27.7855 44.4704 27.7486C44.4475 27.7117 44.458 27.6901 44.4937 27.7016C44.5707 27.7253 45.0261 27.3113 45.0261 27.2177C45.0261 27.1817 45.1018 27.0828 45.1946 26.9976C45.287 26.9123 45.492 26.6776 45.6504 26.4764C45.8084 26.2751 45.9721 26.0862 46.0139 26.0563C46.0552 26.0268 46.0632 26.0022 46.031 26.0013C45.9985 26.0009 46.0728 25.8932 46.1956 25.7623C46.3184 25.6313 46.4191 25.4854 46.4191 25.438C46.4196 25.3905 46.464 25.3075 46.5181 25.2534C46.6677 25.1036 47.04 24.5063 47.0219 24.4439C47.0131 24.4136 47.0448 24.389 47.0919 24.389C47.139 24.389 47.1557 24.367 47.1288 24.3407C47.102 24.3139 47.1645 24.182 47.267 24.0476C47.3695 23.9131 47.4346 23.8032 47.4109 23.8032C47.3876 23.8032 47.4694 23.6217 47.593 23.4003C47.7162 23.1788 47.799 22.9973 47.7765 22.9973C47.7541 22.9973 47.7871 22.8984 47.8496 22.7776C48.008 22.4722 48.4726 20.9715 48.5065 20.6568C48.5219 20.514 48.5892 20.1501 48.6561 19.8482C48.723 19.5459 48.7824 19.0928 48.7876 18.841C48.7934 18.5892 48.8202 18.3831 48.847 18.3831C48.8743 18.3831 48.9016 16.4693 48.9082 14.1297L48.9201 9.8759L48.6781 9.66321C48.5452 9.54588 48.4079 9.44964 48.3736 9.4492C48.3388 9.44832 48.2108 9.36395 48.088 9.26068C47.9574 9.15082 47.8179 9.09193 47.7497 9.1183C47.6863 9.14247 47.6568 9.14027 47.6841 9.11259C47.7413 9.05546 47.4654 8.82255 47.1253 8.64106C46.9995 8.57383 46.7148 8.4231 46.493 8.3062C46.2708 8.18887 46.0728 8.07418 46.053 8.05089C46.0002 7.99068 45.7327 7.88434 45.668 7.8984C45.6377 7.90455 45.613 7.88038 45.613 7.84391C45.613 7.80787 45.448 7.71867 45.2461 7.64616C45.0446 7.57409 44.8796 7.48268 44.8796 7.44357C44.8796 7.40446 44.8598 7.39216 44.836 7.41633C44.8118 7.44006 44.6512 7.38117 44.4787 7.28493C44.3062 7.1887 44.1443 7.13069 44.1188 7.15574C44.0937 7.18123 44.073 7.16145 44.073 7.11223C44.073 7.06257 44.04 7.0428 43.9996 7.06741C43.9591 7.09246 43.9261 7.07796 43.9261 7.03533C43.9261 6.9927 43.8755 6.95755 43.8139 6.95755C43.7518 6.95755 43.5437 6.87801 43.3506 6.78001C42.8076 6.50536 42.8212 6.45175 42.8432 8.75708L42.863 10.8027L43.5596 11.149C43.9428 11.3393 44.3208 11.5454 44.3995 11.6069C44.4783 11.668 44.5812 11.7185 44.6279 11.7185C44.675 11.7185 44.7955 11.7831 44.8967 11.8626C44.9975 11.9417 45.1009 11.9857 45.1264 11.9602C45.1598 11.9268 45.2043 15.1158 45.1898 16.479C45.1735 18.028 44.8747 20.3914 44.5654 21.4228C44.4805 21.7049 44.4074 21.9686 44.4026 22.0085C44.3758 22.2322 44.18 22.7776 44.1267 22.7776C44.0924 22.7776 44.0845 22.8105 44.1096 22.851C44.1346 22.8914 44.1201 22.9243 44.0774 22.9243C44.0343 22.9243 43.9996 22.9652 43.9991 23.0158C43.9991 23.1858 43.1966 24.6821 43.1059 24.6821C43.0729 24.6821 43.0461 24.7173 43.0461 24.7599C43.0461 24.8267 42.9048 25.0381 42.5696 25.4727C42.5291 25.525 42.4142 25.6485 42.3135 25.7473C42.2132 25.8462 42.152 25.9271 42.1771 25.9271C42.2026 25.9271 42.0803 26.0717 41.906 26.2487C41.7314 26.4258 41.6029 26.5849 41.6205 26.6025C41.6381 26.6205 41.5703 26.679 41.4696 26.7326C41.3688 26.7866 41.2861 26.8565 41.2861 26.8877C41.2861 26.9624 39.7813 28.4904 39.7078 28.4904C39.6766 28.4904 39.5322 28.613 39.387 28.7624C39.2418 28.9118 39.1692 29.0054 39.226 28.9707C39.2964 28.9276 39.3122 28.9342 39.2766 28.9918C39.248 29.0383 39.1842 29.0766 39.1349 29.0766C39.0856 29.0766 38.9514 29.1834 38.8366 29.3143C38.7213 29.4453 38.6118 29.5406 38.5928 29.5257C38.5735 29.5112 38.3381 29.6962 38.0688 29.9366C37.8 30.1774 37.2504 30.6366 36.8478 30.9574C36.4456 31.2782 36.0708 31.5959 36.0158 31.6636C35.9603 31.7313 35.8706 31.7862 35.8164 31.7862C35.7623 31.7862 35.6827 31.8521 35.6396 31.933C35.5964 32.0134 35.5208 32.0793 35.4715 32.0793C35.4218 32.0793 35.3404 32.1452 35.2898 32.2256C35.2396 32.3065 35.1644 32.3724 35.1226 32.3724C35.0381 32.3724 34.1502 33.0892 34.1119 33.188C34.0982 33.2227 34.0406 33.2513 33.9834 33.2513C33.9262 33.2513 33.8796 33.2843 33.8796 33.3243C33.8796 33.3647 33.836 33.3976 33.7828 33.3976C33.7295 33.3976 33.6186 33.4719 33.5359 33.5624C33.4536 33.653 33.2794 33.8098 33.1487 33.9105C33.018 34.0111 32.8671 34.1346 32.8139 34.1851C32.7602 34.2352 32.6898 34.2765 32.6564 34.2765C32.6234 34.2765 32.4641 34.3908 32.303 34.5305C31.9018 34.8777 31.918 34.8649 31.423 35.2284C31.181 35.4063 30.9008 35.6274 30.8004 35.7197C30.6997 35.8124 30.5787 35.888 30.5316 35.888C30.4841 35.888 30.4339 35.9143 30.4207 35.9469C30.4071 35.9798 30.1981 36.1525 29.9561 36.3309C29.7141 36.5098 29.4897 36.6974 29.4576 36.748C29.4254 36.7985 29.3568 36.8398 29.3053 36.8398C29.2538 36.8398 29.1342 36.9224 29.0396 37.0231C28.945 37.1237 28.831 37.2063 28.7866 37.2063C28.7421 37.2063 28.651 37.2639 28.5842 37.3342C28.4156 37.5126 28.248 37.6458 28.1912 37.6458C28.1323 37.6458 27.3988 38.2469 27.3649 38.3229C27.3517 38.3533 27.2989 38.3779 27.2474 38.3779C27.1964 38.3779 27.0684 38.4574 26.9636 38.5545C26.7916 38.7136 26.7639 38.7193 26.6781 38.6134C26.5998 38.5172 26.6002 38.5066 26.6794 38.5545C26.7445 38.5936 26.7894 38.562 26.8162 38.4587C26.8387 38.3739 26.8998 38.3049 26.9522 38.3049C27.005 38.3049 27.1964 38.1564 27.3781 37.9753C27.5594 37.7938 27.7429 37.6458 27.7856 37.6458C27.8278 37.6458 27.9171 37.5631 27.9831 37.4625C28.0491 37.3619 28.1406 37.2788 28.1864 37.2779C28.259 37.2762 28.6048 36.9853 29.3542 36.2958C29.4668 36.1925 29.5904 36.1077 29.6292 36.1077C29.6679 36.1077 29.6996 36.0572 29.6996 35.9961C29.6996 35.9346 29.7739 35.855 29.8646 35.8194C30.0661 35.7403 30.2922 35.481 30.2254 35.4063C30.1981 35.376 30.2196 35.3769 30.2729 35.4072C30.3327 35.4419 30.444 35.391 30.5659 35.2732C30.7705 35.0763 30.8849 34.9753 31.5282 34.4229C31.7398 34.2418 32.0144 34.0028 32.1394 33.892C32.2639 33.7813 32.3906 33.6908 32.421 33.6908C32.4513 33.6908 32.4949 33.6319 32.5178 33.5598C32.5406 33.4882 32.6564 33.3722 32.7752 33.3018C32.894 33.232 33.1228 33.0518 33.2842 32.9015C33.4457 32.7517 33.7502 32.4801 33.961 32.299C34.1722 32.1175 34.4133 31.8996 34.4973 31.8139C34.5809 31.7286 34.793 31.5388 34.9681 31.3929C35.1432 31.2466 35.2625 31.127 35.2334 31.127C35.204 31.127 35.2656 31.0598 35.3707 30.9772C35.622 30.7799 36.2265 30.1752 36.1724 30.1752C36.1495 30.1752 36.2512 30.0583 36.3981 29.915C36.5455 29.7722 36.6661 29.6426 36.6661 29.6268C36.6661 29.6114 36.8064 29.4444 36.978 29.2563C37.1492 29.0682 37.2896 28.8911 37.2896 28.8626C37.2896 28.834 37.3723 28.7299 37.473 28.6314C37.5738 28.5334 37.6891 28.4007 37.7296 28.337C37.814 28.2034 38.1392 27.7451 38.4758 27.2845C38.6038 27.1092 38.6888 26.9461 38.665 26.9224C38.6412 26.8987 38.6527 26.8794 38.6905 26.8794C38.7284 26.8794 38.841 26.7225 38.9409 26.5313C39.0412 26.3402 39.1807 26.1046 39.2511 26.0088C39.3219 25.9126 39.3796 25.7724 39.3796 25.6977C39.3796 25.6225 39.4082 25.561 39.4429 25.561C39.5371 25.561 39.9335 24.7278 39.9045 24.5903C39.8983 24.5604 39.9278 24.5354 39.9705 24.5354C40.0132 24.5354 40.0294 24.5055 40.0066 24.4686C39.9841 24.4316 39.9986 24.3903 40.04 24.3767C40.0809 24.3631 40.1276 24.2844 40.1434 24.2018C40.1592 24.1192 40.2296 23.9214 40.3 23.7624C40.3704 23.6037 40.436 23.4345 40.4466 23.3871C40.4567 23.3392 40.55 23.0426 40.6538 22.7279C40.927 21.8987 41.2144 20.7882 41.1726 20.721C41.1528 20.6893 41.1726 20.5048 41.2166 20.3105C41.3833 19.5731 41.5012 18.3049 41.4564 17.7257C41.4242 17.306 41.4352 17.1382 41.4955 17.1382C41.558 17.1382 41.5796 15.3597 41.5796 10.1435C41.5796 4.0471 41.5659 3.14932 41.4722 3.14932C41.4128 3.14932 41.2562 3.10361 41.1237 3.04824C40.5874 2.82325 39.684 2.49762 39.2696 2.37985C39.0276 2.31129 38.7803 2.23703 38.7196 2.21506C38.6588 2.19308 38.5436 2.16276 38.463 2.14738C38.3821 2.13244 38.1427 2.0551 37.9311 1.97644C37.719 1.89734 37.5294 1.8323 37.5091 1.83186C37.4893 1.83142 37.4647 1.82747 37.4546 1.82307C37.4444 1.81868 37.3538 1.80945 37.253 1.80242C37.1523 1.79539 36.8522 1.71541 36.5864 1.62488C36.3211 1.5348 36.0074 1.44779 35.8899 1.43153C35.7724 1.41527 35.4618 1.34495 35.1996 1.27464C34.9373 1.20433 34.6403 1.14061 34.5396 1.13358C34.4388 1.12611 34.3068 1.10238 34.2461 1.08041C34.0639 1.01405 32.9859 0.798285 32.633 0.757417C32.4513 0.736323 31.874 0.642722 31.3496 0.54912C30.8251 0.455957 30.2641 0.378176 30.103 0.376857C29.9416 0.375539 29.3638 0.323245 28.8196 0.260844C28.2748 0.198003 27.2356 0.114069 26.5096 0.0745191C25.2472 0.0059657 24.8415 0.00288959 23.3561 0.051668ZM27.7196 5.15187C28.1406 5.17736 28.9485 5.34435 29.2596 5.47047C29.3198 5.49464 29.4197 5.52496 29.4809 5.53726C29.6322 5.56802 30.6438 6.05405 30.8801 6.20961C31.3786 6.53744 31.5216 6.65389 31.863 7.00896C32.3554 7.52136 32.4861 7.67912 32.4861 7.76041C32.4861 7.79821 32.5327 7.85577 32.5895 7.88785C32.6462 7.91993 32.8064 8.16822 32.9454 8.43936C33.084 8.71049 33.2138 8.91659 33.2332 8.89726C33.2526 8.87792 33.2702 8.90297 33.2724 8.95351C33.2798 9.12665 33.367 9.5138 33.4448 9.71858C33.6882 10.3575 33.719 23.8344 33.4787 24.4989C33.4497 24.5793 33.3881 24.7441 33.3419 24.8649C33.2957 24.9858 33.2534 25.1097 33.2477 25.1396C33.2424 25.1699 33.2297 25.2112 33.2196 25.2314C33.2094 25.2512 33.1962 25.2925 33.1901 25.3228C33.1606 25.4709 32.7549 26.2189 32.6335 26.3489C32.5574 26.4307 32.512 26.5146 32.5332 26.5353C32.5538 26.5564 32.2714 26.8767 31.9053 27.2476C31.5392 27.6185 31.2396 27.9002 31.2396 27.8738C31.2396 27.8294 31.1634 27.8826 30.9219 28.0962C30.8708 28.1414 30.7512 28.203 30.6552 28.2333C30.5593 28.264 30.4154 28.3493 30.3358 28.4236C30.2562 28.4978 30.1629 28.5413 30.1286 28.5202C30.0942 28.4991 30.0661 28.5167 30.0661 28.5593C30.0661 28.602 29.9922 28.638 29.9011 28.6393C29.8104 28.6406 29.6723 28.6899 29.594 28.7492C29.5156 28.8085 29.3898 28.8569 29.3146 28.8569C29.2296 28.8569 29.1975 28.8889 29.2301 28.9412C29.2596 28.9896 29.2503 29.0063 29.2081 28.9799C29.1672 28.9549 28.919 28.9957 28.6563 29.0709C28.3941 29.1456 27.9356 29.2282 27.6377 29.2537C27.3398 29.2796 26.9852 29.3205 26.8501 29.3446C26.7146 29.3688 26.4506 29.3961 26.2632 29.4048C25.6608 29.4334 15.8154 29.4431 15.7876 29.4149C15.7586 29.3864 16.5286 28.5462 17.1156 27.9665C17.3131 27.7714 17.446 27.6115 17.4108 27.6115C17.3756 27.6115 17.4205 27.5605 17.5098 27.4977L17.673 27.3834V17.245V7.10608L17.3796 6.83055C17.2185 6.67894 17.0865 6.52777 17.0865 6.49481C17.0861 6.42626 16.5761 5.93232 16.5053 5.93232C16.4793 5.93232 16.4023 5.83828 16.3346 5.72359C16.2664 5.60889 16.1027 5.4085 15.9702 5.27799L15.7296 5.04157L21.4861 5.08244C24.6523 5.10485 27.4573 5.13605 27.7196 5.15187ZM23.173 17.147V25.1392L24.768 25.1062C26.4532 25.0715 26.6851 25.0288 27.0411 24.6878C27.1322 24.6008 27.2061 24.5525 27.2061 24.5806C27.2061 24.7248 27.5356 24.3024 27.7248 23.9157L27.9413 23.4737L27.9382 16.9866C27.9347 9.68694 27.9994 10.4529 27.3315 9.80032C27.1335 9.60652 26.9447 9.46502 26.9117 9.48524C26.8792 9.50545 26.8409 9.4971 26.8277 9.46678C26.7326 9.25277 26.0348 9.15433 24.6211 9.15477H23.173V17.147ZM136.685 11.8218C136.669 11.8363 135.666 11.8675 134.456 11.8912C132.829 11.9233 132.018 11.9712 131.34 12.0758C130.836 12.1535 130.406 12.2067 130.385 12.194C130.364 12.1808 130.05 12.234 129.688 12.3122C129.326 12.3904 128.98 12.4647 128.92 12.4779C128.822 12.4985 128.807 13.8902 128.791 24.3776L128.773 36.254H131.596H134.42V26.6319V17.0099L134.658 16.9554C135.049 16.8657 137.012 16.8503 137.116 16.936C137.168 16.9782 137.229 16.9927 137.254 16.9685C137.375 16.8481 138.38 17.5618 138.38 17.7683C138.38 17.8246 138.413 17.8707 138.453 17.8707C138.493 17.8707 138.52 17.8953 138.513 17.9257C138.505 17.9555 138.538 18.1124 138.586 18.2733C138.65 18.4908 138.672 20.8462 138.673 27.4102L138.673 36.254H141.168H143.663L143.658 26.8279L143.653 17.4018L144.225 17.2274C145.8 16.7466 147.455 17.1184 147.665 18.0004C147.692 18.1102 147.733 18.2333 147.757 18.2733C147.781 18.3137 147.805 18.3713 147.811 18.4016C147.817 18.4319 147.825 22.4607 147.83 27.3553L147.84 36.254H150.702H153.564L153.541 26.5313C153.52 17.7037 153.506 16.7682 153.395 16.3691C153.327 16.1274 153.269 15.8475 153.267 15.7464C153.263 15.6458 153.197 15.4318 153.12 15.2705C153.042 15.1093 152.977 14.9462 152.975 14.9084C152.972 14.8236 152.591 14.2545 152.515 14.2207C152.484 14.2075 152.46 14.1631 152.46 14.1227C152.46 14.0616 152.08 13.6806 151.524 13.1832C151.326 13.0056 150.741 12.64 150.681 12.6558C150.651 12.6637 150.626 12.64 150.626 12.6031C150.626 12.5662 150.528 12.5139 150.407 12.4875C150.286 12.4612 150.169 12.4089 150.146 12.372C150.123 12.3346 150.03 12.3043 149.94 12.3043C149.849 12.3043 149.744 12.2775 149.706 12.2445C149.631 12.1804 149.066 12.0331 148.646 11.9685C148.111 11.8864 147.421 11.8697 144.943 11.8789C144.606 11.8802 143.727 12.012 143.44 12.1039C143.298 12.1492 143.109 12.1773 143.019 12.1667C142.929 12.1562 142.814 12.1729 142.764 12.2041C142.714 12.2353 142.622 12.2669 142.561 12.2748C142.382 12.2977 141.136 12.7521 141.063 12.8211C141.025 12.8567 140.914 12.8255 140.807 12.7494C140.576 12.5873 139.871 12.2797 139.729 12.2797C139.672 12.2797 139.626 12.2595 139.626 12.2344C139.626 12.2098 139.568 12.1856 139.498 12.1812C139.427 12.1773 139.122 12.1184 138.82 12.0512C138.517 11.9835 137.945 11.9145 137.549 11.8973C137.152 11.8802 136.802 11.8503 136.771 11.831C136.739 11.8117 136.701 11.8073 136.685 11.8218ZM54.8764 12.3047C54.8891 12.3886 54.985 12.5552 55.0898 12.6738C55.194 12.7929 55.2649 12.8901 55.2468 12.8901C55.2284 12.8901 55.2974 12.9806 55.4 13.0909C55.5025 13.2012 55.5861 13.3181 55.5861 13.3506C55.5861 13.3827 55.667 13.4961 55.7656 13.6024C55.8642 13.7087 55.9284 13.8226 55.9082 13.8555C55.8875 13.8885 55.9016 13.9157 55.939 13.9157C55.9764 13.9157 56.0938 14.0467 56.1999 14.2071L56.3931 14.4984L56.3926 24.2959L56.3922 34.0933L56.1541 34.3473C56.0234 34.4866 55.9161 34.6193 55.9161 34.6417C55.9161 34.6641 55.8382 34.7643 55.7427 34.8641C55.6472 34.9638 55.5227 35.1528 55.4668 35.2837C55.4105 35.4147 55.326 35.5215 55.2798 35.5215C55.2332 35.5215 55.2152 35.5417 55.2398 35.5663C55.2644 35.5909 55.1874 35.6929 55.0686 35.7926C54.4993 36.2712 54.3308 36.2545 59.6011 36.2514C64.9761 36.2479 66.3881 36.1943 67.093 35.9658C67.3517 35.8818 67.6487 35.7979 67.753 35.779C67.9241 35.7482 68.4266 35.5338 68.7131 35.3694C68.7733 35.3347 69.0136 35.2011 69.2472 35.0728C69.8038 34.7665 70.6592 34.041 70.646 33.8859C70.6402 33.8186 70.6697 33.7637 70.7106 33.7637C70.7951 33.7637 71.1326 33.3937 71.1326 33.3014C71.133 33.2684 71.2122 33.1366 71.3091 33.0083C71.5268 32.72 71.8643 31.9251 71.9057 31.6038C71.9224 31.4724 71.9783 31.2703 72.0298 31.1543C72.3373 30.4599 72.1622 16.6253 71.8454 16.6253C71.812 16.6253 71.8036 16.5941 71.8274 16.5559C71.8868 16.4597 71.3728 15.307 71.2703 15.307C71.243 15.307 71.1484 15.1673 71.0596 14.9959C70.8858 14.661 69.923 13.696 69.7633 13.696C69.7096 13.696 69.6652 13.6709 69.6639 13.6411C69.6612 13.573 69.3207 13.3207 69.2028 13.2996C69.1553 13.2913 69.0008 13.2113 68.8596 13.1221C68.7183 13.0333 68.5203 12.9402 68.4196 12.9151C68.3188 12.8905 68.2031 12.8457 68.163 12.8162C68.0729 12.7508 67.5435 12.5693 67.3931 12.5526C67.3323 12.5455 66.9482 12.4708 66.539 12.3856C65.6269 12.1966 66.4044 12.2212 60.1511 12.1834L54.853 12.1513L54.8764 12.3047ZM75.0684 12.2067C75.0416 12.2335 75.0196 17.655 75.0196 24.2545V36.254H77.843H80.6661V32.0727V27.8914L82.4446 27.9252C83.4227 27.9441 84.289 27.9775 84.3696 27.9995C84.4501 28.0219 84.5328 28.0426 84.5531 28.0456C84.6578 28.0619 84.9864 28.4108 85.0947 28.62C85.2056 28.8349 85.2174 29.2308 85.2144 32.5565L85.2104 36.254H88.1105H91.01L90.9858 32.4638C90.9722 30.3791 90.9423 28.5914 90.919 28.4904C90.8952 28.3897 90.8398 28.1533 90.7958 27.9652C90.7069 27.5904 90.446 27.0991 90.3346 27.0991C90.2959 27.0991 90.2876 27.0608 90.3166 27.0147C90.3452 26.9681 90.3197 26.8939 90.2594 26.8499C90.1991 26.8055 90.1107 26.6957 90.0627 26.6051C90.0148 26.5151 89.9514 26.4487 89.9224 26.4575C89.8933 26.4663 89.665 26.334 89.4146 26.1631C89.1643 25.9926 88.7933 25.8146 88.5905 25.7676L88.2218 25.6827L88.6054 25.4265C88.8167 25.2859 89.016 25.1268 89.0481 25.0728C89.0806 25.0192 89.1427 24.9748 89.1867 24.9748C89.2756 24.9748 89.6131 24.6333 89.6131 24.5433C89.6131 24.5112 89.679 24.4255 89.7596 24.3525C89.8401 24.2796 89.9061 24.1781 89.9061 24.1275C89.9061 24.0766 89.9422 24.023 89.9857 24.0085C90.0588 23.9843 90.2779 23.4473 90.398 22.9973C90.5516 22.4251 90.486 16.0883 90.3197 15.3804C90.248 15.0759 89.8938 14.2818 89.8295 14.2818C89.7965 14.2818 89.7508 14.2233 89.7279 14.1517C89.679 13.9975 88.9856 13.2566 88.8901 13.2566C88.854 13.2566 88.7814 13.2051 88.7291 13.1419C88.6164 13.0065 87.7633 12.5974 87.4927 12.5495C87.3884 12.531 87.138 12.4699 86.9361 12.4133C86.7346 12.357 86.2493 12.2762 85.8577 12.2344C85.0762 12.1505 75.1502 12.125 75.0684 12.2067ZM98.3576 12.2388C98.065 12.2726 97.6197 12.3544 97.3676 12.4203C97.1159 12.4862 96.8766 12.5477 96.8361 12.5574C96.796 12.5671 96.672 12.6128 96.5611 12.6593C96.2236 12.8008 95.9583 12.9006 95.9196 12.9006C95.8993 12.9006 95.8567 12.9476 95.8241 13.0052C95.792 13.0628 95.7211 13.1098 95.667 13.1098C95.6129 13.1098 95.4672 13.2043 95.3432 13.3198C95.2195 13.4354 95.1051 13.5171 95.0888 13.5013C95.073 13.4851 94.9652 13.5967 94.8495 13.7487C94.7338 13.9008 94.5714 14.0915 94.4887 14.1719C94.3514 14.3059 94.2018 14.5758 94.1644 14.7577C94.1561 14.7981 94.0988 14.8869 94.0372 14.9546C93.9756 15.0227 93.947 15.1132 93.9734 15.1558C93.9998 15.1989 93.988 15.2341 93.947 15.2341C93.8516 15.2341 93.603 16.0462 93.5651 16.479C93.5158 17.0476 93.5339 31.6548 93.5845 32.0991C93.636 32.5535 93.9822 33.6073 94.1195 33.7272C94.1653 33.7677 94.2445 33.9021 94.2951 34.0265C94.3959 34.273 95.1087 35.0574 95.2046 35.0267C95.2371 35.0161 95.2829 35.0574 95.3062 35.1181C95.3295 35.1787 95.3784 35.2288 95.4153 35.2288C95.4519 35.2288 95.6569 35.3448 95.8707 35.4868C96.085 35.6287 96.3345 35.7592 96.4256 35.7764C96.5166 35.7939 96.7785 35.8787 97.0072 35.9644C97.6255 36.1965 98.7078 36.2492 102.905 36.2518L106.628 36.254L106.609 33.9654L106.59 31.6763L103.161 31.6618C101.275 31.6535 99.6908 31.6205 99.6398 31.5884C99.5887 31.5564 99.4567 31.4201 99.3467 31.2865L99.1461 31.0427V28.7413V26.4399H102.444H105.742L105.762 24.1877L105.783 21.9356L102.465 21.9527L99.1461 21.9699V19.7151V17.4603L99.3445 17.1549C99.642 16.697 99.6252 16.6987 103.301 16.6987H106.626V14.4281V12.1579L102.758 12.1672C100.63 12.1724 98.6502 12.2045 98.3576 12.2388ZM109.388 12.2067C109.362 12.2335 109.34 17.655 109.34 24.2545V36.254H112.2H115.06V32.0793V27.9046H117.442H119.825L119.844 32.0608L119.863 36.2176L122.78 36.2365L125.698 36.2558L125.674 27.045C125.652 18.5536 125.64 17.7969 125.522 17.3601C125.451 17.0991 125.385 16.8284 125.374 16.7576C125.363 16.6869 125.332 16.6064 125.304 16.5788C125.276 16.5506 125.252 16.4755 125.25 16.4118C125.249 16.348 125.184 16.1639 125.106 16.0031C125.028 15.8418 124.964 15.6687 124.962 15.6186C124.961 15.568 124.927 15.5267 124.886 15.5267C124.846 15.5267 124.82 15.5021 124.828 15.4718C124.858 15.3602 124.358 14.6487 124.282 14.6957C124.237 14.7234 124.225 14.7094 124.253 14.6632C124.307 14.5766 123.569 13.7689 123.437 13.7689C123.394 13.7689 123.347 13.7443 123.334 13.714C123.268 13.5655 122.579 13.1436 122.448 13.1717C122.418 13.1779 122.393 13.1533 122.393 13.1164C122.393 13.039 121.279 12.5978 120.986 12.5583C120.877 12.5438 120.652 12.495 120.483 12.4502C120.315 12.4049 120.16 12.3865 120.137 12.4089C120.115 12.4313 120.06 12.4194 120.016 12.3829C119.787 12.1927 109.572 12.0235 109.388 12.2067ZM158.656 12.5816C158.583 12.8118 158.461 13.188 158.385 13.4178C158.308 13.6472 158.233 13.8946 158.218 13.9671C158.202 14.0396 158.055 14.5107 157.889 15.0139C157.724 15.5175 157.572 16.0237 157.552 16.1393C157.531 16.2549 157.466 16.443 157.407 16.5568C157.348 16.671 157.286 16.8402 157.268 16.933C157.251 17.0257 157.232 17.1017 157.226 17.1017C157.22 17.1017 157.204 17.1593 157.19 17.2296C157.168 17.3478 157.264 17.3579 158.406 17.3579H159.646V26.806V36.254H162.506H165.366V24.2045V12.1549L162.077 12.1593L158.788 12.1637L158.656 12.5816ZM169.442 12.2493C169.371 12.4954 169.16 13.0904 169.096 13.224C169.056 13.3067 169.032 13.4055 169.042 13.4438C169.052 13.4816 169.011 13.6279 168.951 13.7689C168.891 13.91 168.798 14.1737 168.744 14.3552C168.691 14.5362 168.586 14.8579 168.511 15.0693C168.436 15.2811 168.377 15.4626 168.378 15.4722C168.385 15.5052 168.325 15.7056 168.196 16.076C168.078 16.414 168.021 16.6152 167.891 17.1566L167.842 17.3579H169.098H170.353V26.806V36.254H173.176H176V24.2058V12.1579H172.734C170.185 12.1579 169.462 12.1777 169.442 12.2493ZM84.0031 16.5155C84.2649 16.6776 84.4127 16.8411 84.5658 17.1373L84.7735 17.5389L84.755 19.9203L84.7361 22.3017L84.5236 22.6875C84.4065 22.8993 84.2952 23.0575 84.2763 23.0386C84.2574 23.0197 84.1953 23.0509 84.1386 23.108C83.926 23.3203 83.4711 23.3884 82.078 23.4183L80.6661 23.4482V19.846V16.2443L82.1572 16.2703L83.648 16.2958L84.0031 16.5155ZM118.821 16.4957C119.032 16.6135 119.168 16.6548 119.172 16.602C119.175 16.5546 119.196 16.5651 119.219 16.6253C119.242 16.686 119.35 16.8508 119.459 16.9918C119.816 17.4537 119.826 17.5587 119.826 20.5913V23.4367H117.443H115.06V19.839V16.2408L116.768 16.272C118.449 16.3028 118.482 16.3063 118.821 16.4957ZM64.4644 16.5528C64.6835 16.5933 64.9405 16.6416 65.0355 16.6601C65.1301 16.6781 65.2542 16.7312 65.3105 16.7783C65.3669 16.8248 65.413 16.8363 65.413 16.8038C65.413 16.7708 65.4614 16.8081 65.5204 16.8859C65.5798 16.9642 65.6291 17.0037 65.6304 16.9734C65.6344 16.8798 65.9019 17.1808 66.1764 17.5882L66.4387 17.9771L66.4206 24.204C66.4039 30.144 66.3964 30.4406 66.2662 30.6327C66.191 30.7434 66.15 30.8344 66.1751 30.8344C66.2468 30.8344 65.846 31.2184 65.5336 31.4496C65.1218 31.7546 64.8582 31.8029 63.4146 31.8389L62.1131 31.8719V24.1754V16.479H63.0894C63.6266 16.479 64.2453 16.5124 64.4644 16.5528Z" fill="#EC1C24"/>
<path fill-rule="evenodd" clip-rule="evenodd" d="M4.0973 7.44595C4.00534 7.55756 4.01238 7.55976 4.18002 7.47275C4.42598 7.34487 4.44446 7.32422 4.31114 7.32422C4.2491 7.32422 4.15274 7.37871 4.0973 7.44595ZM33.1963 8.91721C33.1597 8.97917 33.2684 9.30172 33.3261 9.30172C33.3463 9.30172 33.3331 9.22262 33.2961 9.12594C33.2596 9.02927 33.2491 8.93039 33.2737 8.90622C33.2979 8.88205 33.2979 8.86228 33.2733 8.86228C33.2486 8.86228 33.2143 8.88689 33.1963 8.91721ZM133.434 11.8553C133.225 11.9002 136.063 11.8839 136.51 11.8378C136.631 11.8255 136.037 11.814 135.19 11.8123C134.343 11.8105 133.553 11.8299 133.434 11.8553ZM136.773 11.8184C136.789 11.8334 136.985 11.8641 137.207 11.887C137.467 11.9138 137.545 11.9068 137.427 11.8676C137.245 11.807 136.714 11.767 136.773 11.8184ZM144.943 11.8654C144.849 11.9063 144.928 11.9138 145.163 11.8865C145.365 11.8632 145.544 11.8325 145.56 11.818C145.624 11.7635 145.083 11.8048 144.943 11.8654ZM145.823 11.8378C146.3 11.887 148.048 11.8988 147.929 11.8518C147.86 11.8246 147.308 11.8048 146.703 11.8088C146.098 11.8123 145.702 11.8255 145.823 11.8378ZM0.0312628 14.3184C0.0312628 15.1644 0.0418228 15.5005 0.0545828 15.0655C0.0677828 14.63 0.0677828 13.9379 0.0545828 13.5274C0.0418228 13.1165 0.0308228 13.4725 0.0312628 14.3184ZM41.4559 17.5413C41.4564 17.783 41.47 17.8731 41.4863 17.7413C41.503 17.6094 41.5026 17.4117 41.4859 17.3018C41.4691 17.192 41.4555 17.2996 41.4559 17.5413ZM48.8585 17.6877C48.8594 17.8489 48.8743 17.9061 48.8919 17.8151C48.9095 17.7237 48.9087 17.5919 48.8906 17.522C48.8721 17.4521 48.8576 17.5264 48.8585 17.6877ZM99.2385 21.9494C99.3089 21.9679 99.4246 21.9679 99.495 21.9494C99.5654 21.9309 99.5078 21.916 99.3665 21.916C99.2253 21.916 99.1676 21.9309 99.2385 21.9494ZM99.9737 21.9529C100.167 21.9679 100.464 21.9679 100.634 21.9525C100.804 21.9371 100.646 21.9248 100.283 21.9248C99.9205 21.9252 99.781 21.938 99.9737 21.9529ZM101.402 21.9534C101.654 21.9674 102.066 21.9674 102.318 21.9534C102.571 21.9388 102.364 21.9274 101.86 21.9274C101.356 21.9274 101.149 21.9388 101.402 21.9534ZM103.235 21.9534C103.487 21.9674 103.899 21.9674 104.152 21.9534C104.404 21.9388 104.198 21.9274 103.693 21.9274C103.189 21.9274 102.983 21.9388 103.235 21.9534ZM104.776 21.9507C104.867 21.9683 104.999 21.9679 105.069 21.9494C105.139 21.9309 105.065 21.9169 104.903 21.9173C104.742 21.9182 104.685 21.9331 104.776 21.9507ZM105.617 21.945C105.734 21.9793 105.747 22.1687 105.765 24.1928L105.787 26.4032L105.785 24.1703C105.783 21.992 105.78 21.9371 105.637 21.9226C105.525 21.9112 105.52 21.9164 105.617 21.945ZM89.3935 26.1505C89.6478 26.3232 89.7926 26.3733 89.6135 26.227C89.5127 26.1443 89.397 26.0767 89.3565 26.0767C89.3165 26.0762 89.3328 26.1096 89.3935 26.1505Z" fill="#F01C24"/>
<path fill-rule="evenodd" clip-rule="evenodd" d="M4.0973 7.44595C4.00534 7.55756 4.01238 7.55976 4.18002 7.47275C4.42598 7.34487 4.44446 7.32422 4.31114 7.32422C4.2491 7.32422 4.15274 7.37871 4.0973 7.44595ZM33.1963 8.91721C33.1597 8.97917 33.2684 9.30172 33.3261 9.30172C33.3463 9.30172 33.3331 9.22262 33.2961 9.12594C33.2596 9.02927 33.2491 8.93039 33.2737 8.90622C33.2979 8.88205 33.2979 8.86228 33.2733 8.86228C33.2486 8.86228 33.2143 8.88689 33.1963 8.91721ZM133.434 11.8553C133.225 11.9002 136.063 11.8839 136.51 11.8378C136.631 11.8255 136.037 11.814 135.19 11.8123C134.343 11.8105 133.553 11.8299 133.434 11.8553ZM136.773 11.8184C136.789 11.8334 136.985 11.8641 137.207 11.887C137.467 11.9138 137.545 11.9068 137.427 11.8676C137.245 11.807 136.714 11.767 136.773 11.8184ZM144.943 11.8654C144.849 11.9063 144.928 11.9138 145.163 11.8865C145.365 11.8632 145.544 11.8325 145.56 11.818C145.624 11.7635 145.083 11.8048 144.943 11.8654ZM145.823 11.8378C146.3 11.887 148.048 11.8988 147.929 11.8518C147.86 11.8246 147.308 11.8048 146.703 11.8088C146.098 11.8123 145.702 11.8255 145.823 11.8378ZM0.0312628 14.3184C0.0312628 15.1644 0.0418228 15.5005 0.0545828 15.0655C0.0677828 14.63 0.0677828 13.9379 0.0545828 13.5274C0.0418228 13.1165 0.0308228 13.4725 0.0312628 14.3184ZM41.4559 17.5413C41.4564 17.783 41.47 17.8731 41.4863 17.7413C41.503 17.6094 41.5026 17.4117 41.4859 17.3018C41.4691 17.192 41.4555 17.2996 41.4559 17.5413ZM48.8585 17.6877C48.8594 17.8489 48.8743 17.9061 48.8919 17.8151C48.9095 17.7237 48.9087 17.5919 48.8906 17.522C48.8721 17.4521 48.8576 17.5264 48.8585 17.6877ZM99.2385 21.9494C99.3089 21.9679 99.4246 21.9679 99.495 21.9494C99.5654 21.9309 99.5078 21.916 99.3665 21.916C99.2253 21.916 99.1676 21.9309 99.2385 21.9494ZM99.9737 21.9529C100.167 21.9679 100.464 21.9679 100.634 21.9525C100.804 21.9371 100.646 21.9248 100.283 21.9248C99.9205 21.9252 99.781 21.938 99.9737 21.9529ZM101.402 21.9534C101.654 21.9674 102.066 21.9674 102.318 21.9534C102.571 21.9388 102.364 21.9274 101.86 21.9274C101.356 21.9274 101.149 21.9388 101.402 21.9534ZM103.235 21.9534C103.487 21.9674 103.899 21.9674 104.152 21.9534C104.404 21.9388 104.198 21.9274 103.693 21.9274C103.189 21.9274 102.983 21.9388 103.235 21.9534ZM104.776 21.9507C104.867 21.9683 104.999 21.9679 105.069 21.9494C105.139 21.9309 105.065 21.9169 104.903 21.9173C104.742 21.9182 104.685 21.9331 104.776 21.9507ZM105.617 21.945C105.734 21.9793 105.747 22.1687 105.765 24.1928L105.787 26.4032L105.785 24.1703C105.783 21.992 105.78 21.9371 105.637 21.9226C105.525 21.9112 105.52 21.9164 105.617 21.945ZM89.3935 26.1505C89.6478 26.3232 89.7926 26.3733 89.6135 26.227C89.5127 26.1443 89.397 26.0767 89.3565 26.0767C89.3165 26.0762 89.3328 26.1096 89.3935 26.1505Z" fill="#F01C24"/>
<path fill-rule="evenodd" clip-rule="evenodd" d="M4.0973 7.44595C4.00534 7.55756 4.01238 7.55976 4.18002 7.47275C4.42598 7.34487 4.44446 7.32422 4.31114 7.32422C4.2491 7.32422 4.15274 7.37871 4.0973 7.44595ZM33.1963 8.91721C33.1597 8.97917 33.2684 9.30172 33.3261 9.30172C33.3463 9.30172 33.3331 9.22262 33.2961 9.12594C33.2596 9.02927 33.2491 8.93039 33.2737 8.90622C33.2979 8.88205 33.2979 8.86228 33.2733 8.86228C33.2486 8.86228 33.2143 8.88689 33.1963 8.91721ZM133.434 11.8553C133.225 11.9002 136.063 11.8839 136.51 11.8378C136.631 11.8255 136.037 11.814 135.19 11.8123C134.343 11.8105 133.553 11.8299 133.434 11.8553ZM136.773 11.8184C136.789 11.8334 136.985 11.8641 137.207 11.887C137.467 11.9138 137.545 11.9068 137.427 11.8676C137.245 11.807 136.714 11.767 136.773 11.8184ZM144.943 11.8654C144.849 11.9063 144.928 11.9138 145.163 11.8865C145.365 11.8632 145.544 11.8325 145.56 11.818C145.624 11.7635 145.083 11.8048 144.943 11.8654ZM145.823 11.8378C146.3 11.887 148.048 11.8988 147.929 11.8518C147.86 11.8246 147.308 11.8048 146.703 11.8088C146.098 11.8123 145.702 11.8255 145.823 11.8378ZM0.0312628 14.3184C0.0312628 15.1644 0.0418228 15.5005 0.0545828 15.0655C0.0677828 14.63 0.0677828 13.9379 0.0545828 13.5274C0.0418228 13.1165 0.0308228 13.4725 0.0312628 14.3184ZM41.4559 17.5413C41.4564 17.783 41.47 17.8731 41.4863 17.7413C41.503 17.6094 41.5026 17.4117 41.4859 17.3018C41.4691 17.192 41.4555 17.2996 41.4559 17.5413ZM48.8585 17.6877C48.8594 17.8489 48.8743 17.9061 48.8919 17.8151C48.9095 17.7237 48.9087 17.5919 48.8906 17.522C48.8721 17.4521 48.8576 17.5264 48.8585 17.6877ZM99.2385 21.9494C99.3089 21.9679 99.4246 21.9679 99.495 21.9494C99.5654 21.9309 99.5078 21.916 99.3665 21.916C99.2253 21.916 99.1676 21.9309 99.2385 21.9494ZM99.9737 21.9529C100.167 21.9679 100.464 21.9679 100.634 21.9525C100.804 21.9371 100.646 21.9248 100.283 21.9248C99.9205 21.9252 99.781 21.938 99.9737 21.9529ZM101.402 21.9534C101.654 21.9674 102.066 21.9674 102.318 21.9534C102.571 21.9388 102.364 21.9274 101.86 21.9274C101.356 21.9274 101.149 21.9388 101.402 21.9534ZM103.235 21.9534C103.487 21.9674 103.899 21.9674 104.152 21.9534C104.404 21.9388 104.198 21.9274 103.693 21.9274C103.189 21.9274 102.983 21.9388 103.235 21.9534ZM104.776 21.9507C104.867 21.9683 104.999 21.9679 105.069 21.9494C105.139 21.9309 105.065 21.9169 104.903 21.9173C104.742 21.9182 104.685 21.9331 104.776 21.9507ZM105.617 21.945C105.734 21.9793 105.747 22.1687 105.765 24.1928L105.787 26.4032L105.785 24.1703C105.783 21.992 105.78 21.9371 105.637 21.9226C105.525 21.9112 105.52 21.9164 105.617 21.945ZM89.3935 26.1505C89.6478 26.3232 89.7926 26.3733 89.6135 26.227C89.5127 26.1443 89.397 26.0767 89.3565 26.0767C89.3165 26.0762 89.3328 26.1096 89.3935 26.1505Z" fill="#F01C24"/>
<path fill-rule="evenodd" clip-rule="evenodd" d="M4.0973 7.44595C4.00534 7.55756 4.01238 7.55976 4.18002 7.47275C4.42598 7.34487 4.44446 7.32422 4.31114 7.32422C4.2491 7.32422 4.15274 7.37871 4.0973 7.44595ZM33.1963 8.91721C33.1597 8.97917 33.2684 9.30172 33.3261 9.30172C33.3463 9.30172 33.3331 9.22262 33.2961 9.12594C33.2596 9.02927 33.2491 8.93039 33.2737 8.90622C33.2979 8.88205 33.2979 8.86228 33.2733 8.86228C33.2486 8.86228 33.2143 8.88689 33.1963 8.91721ZM133.434 11.8553C133.225 11.9002 136.063 11.8839 136.51 11.8378C136.631 11.8255 136.037 11.814 135.19 11.8123C134.343 11.8105 133.553 11.8299 133.434 11.8553ZM136.773 11.8184C136.789 11.8334 136.985 11.8641 137.207 11.887C137.467 11.9138 137.545 11.9068 137.427 11.8676C137.245 11.807 136.714 11.767 136.773 11.8184ZM144.943 11.8654C144.849 11.9063 144.928 11.9138 145.163 11.8865C145.365 11.8632 145.544 11.8325 145.56 11.818C145.624 11.7635 145.083 11.8048 144.943 11.8654ZM145.823 11.8378C146.3 11.887 148.048 11.8988 147.929 11.8518C147.86 11.8246 147.308 11.8048 146.703 11.8088C146.098 11.8123 145.702 11.8255 145.823 11.8378ZM0.0312628 14.3184C0.0312628 15.1644 0.0418228 15.5005 0.0545828 15.0655C0.0677828 14.63 0.0677828 13.9379 0.0545828 13.5274C0.0418228 13.1165 0.0308228 13.4725 0.0312628 14.3184ZM41.4559 17.5413C41.4564 17.783 41.47 17.8731 41.4863 17.7413C41.503 17.6094 41.5026 17.4117 41.4859 17.3018C41.4691 17.192 41.4555 17.2996 41.4559 17.5413ZM48.8585 17.6877C48.8594 17.8489 48.8743 17.9061 48.8919 17.8151C48.9095 17.7237 48.9087 17.5919 48.8906 17.522C48.8721 17.4521 48.8576 17.5264 48.8585 17.6877ZM99.2385 21.9494C99.3089 21.9679 99.4246 21.9679 99.495 21.9494C99.5654 21.9309 99.5078 21.916 99.3665 21.916C99.2253 21.916 99.1676 21.9309 99.2385 21.9494ZM99.9737 21.9529C100.167 21.9679 100.464 21.9679 100.634 21.9525C100.804 21.9371 100.646 21.9248 100.283 21.9248C99.9205 21.9252 99.781 21.938 99.9737 21.9529ZM101.402 21.9534C101.654 21.9674 102.066 21.9674 102.318 21.9534C102.571 21.9388 102.364 21.9274 101.86 21.9274C101.356 21.9274 101.149 21.9388 101.402 21.9534ZM103.235 21.9534C103.487 21.9674 103.899 21.9674 104.152 21.9534C104.404 21.9388 104.198 21.9274 103.693 21.9274C103.189 21.9274 102.983 21.9388 103.235 21.9534ZM104.776 21.9507C104.867 21.9683 104.999 21.9679 105.069 21.9494C105.139 21.9309 105.065 21.9169 104.903 21.9173C104.742 21.9182 104.685 21.9331 104.776 21.9507ZM105.617 21.945C105.734 21.9793 105.747 22.1687 105.765 24.1928L105.787 26.4032L105.785 24.1703C105.783 21.992 105.78 21.9371 105.637 21.9226C105.525 21.9112 105.52 21.9164 105.617 21.945ZM89.3935 26.1505C89.6478 26.3232 89.7926 26.3733 89.6135 26.227C89.5127 26.1443 89.397 26.0767 89.3565 26.0767C89.3165 26.0762 89.3328 26.1096 89.3935 26.1505Z" fill="#F01C24"/>
</svg>
