<svg width="187" height="24" viewBox="0 0 187 24" fill="none" xmlns="http://www.w3.org/2000/svg">
<g clip-path="url(#clip0_305_2639)">
<path fill-rule="evenodd" clip-rule="evenodd" d="M174.772 6.08319H167.118C165.833 6.15902 165.474 6.47692 165.474 8.03327V12.3237H174.772V6.08319ZM178.848 2.64756V21.3559H174.772V15.9783H165.474V21.3559H161.398V6.68936C161.398 4.09794 162.45 2.64756 165.474 2.64756H178.848ZM157.323 6.68584V16.8104C157.323 20.0336 155.509 21.3524 153.247 21.3524H140.391V2.64404H153.247C156.718 2.64404 157.323 4.84674 157.323 6.68584ZM153.198 7.8118C153.198 6.78678 152.572 6.07967 151.476 6.07967H144.467V17.7691L151.476 17.7686C153.073 17.6878 153.198 16.7326 153.198 15.9747V7.8118ZM57.3096 2.64404H61.3853V10.018H70.504V2.64404H74.5797V21.3519H70.504V13.7173H61.3853V21.3519H57.3096V2.64404ZM81.565 2.64404L86.6745 10.2922L91.7226 2.64404H96.6715L88.7103 14.6047V21.3524H84.6341V14.6037L76.6176 2.64404H81.565ZM119.55 2.64404H132.684C134.556 2.64404 136.368 2.9062 136.315 6.68584V21.3524H132.24V8.02976C132.24 6.41866 132.046 6.07967 130.779 6.07967H123.627V21.3524H119.55V2.64404ZM187 2.64756V21.3559H182.923V2.64756H187ZM98.7099 21.3524H111.843C114.454 21.3524 115.528 20.5986 115.475 16.8421V2.64404H111.399V15.9993C111.399 17.6004 111.205 17.7948 109.938 17.7948H102.786L102.786 2.64404H98.7099V21.3524Z" fill="#003984"/>
<path fill-rule="evenodd" clip-rule="evenodd" d="M28.5397 14.7729C28.899 16.6261 27.9256 18.1654 27.1168 19.6595C26.2185 21.0496 24.7357 22.2443 22.9536 22.0656C18.9544 22.0058 15.0457 21.3931 11.421 20.3018C11.2564 20.2571 11.0918 20.1521 11.0017 20.003C10.9267 19.7936 11.0319 19.5992 11.1814 19.4651C14.4916 16.7898 18.4304 15.5499 22.3244 14.2491C23.777 13.8308 25.3201 13.3823 26.9523 13.5917C27.6257 13.6816 28.2996 14.1452 28.5397 14.7729ZM42.1836 6.85258C44.0407 8.37679 45.7182 10.4544 45.149 12.965C44.2204 16.6713 40.1769 18.644 36.9568 19.899C35.2043 20.4821 33.4373 21.0802 31.5202 21.2595C31.4004 21.2444 31.2056 21.2741 31.1754 21.0948L31.2202 20.8859C33.9461 17.8219 36.0126 14.3852 37.8255 10.9029C38.664 9.3335 39.4431 7.71989 40.1618 6.13542C40.2665 6.01589 40.3717 5.95613 40.4915 5.91143C41.1649 5.97069 41.6445 6.494 42.1836 6.85258ZM16.0483 2.9072L15.9884 3.13119C12.0496 7.59936 9.45863 12.7852 7.00253 17.9409C6.52339 18.3894 6.05885 17.7912 5.6245 17.5969C3.43767 16.1626 1.46072 13.8459 2.02995 11.0963C2.94343 7.50997 6.64267 5.59705 9.72839 4.29733C11.5554 3.6098 13.4578 3.05686 15.4645 2.74298C15.6744 2.74248 15.9436 2.71285 16.0483 2.9072ZM35.5939 3.62436C35.8184 3.74389 36.0881 3.78858 36.223 4.01257C36.3428 4.26669 36.1032 4.43091 35.9683 4.59564C32.868 7.0163 29.3188 8.36172 25.694 9.54242C23.8514 9.99089 21.9943 10.7979 19.9428 10.3495C19.4632 10.2299 19.0293 9.91606 18.7596 9.45252C18.2502 8.04784 18.9393 6.58339 19.5382 5.35799C20.3319 3.81872 21.7401 2.01026 23.6869 1.98062C27.8803 1.95049 31.8342 2.57826 35.5939 3.62436ZM40.7758 3.74389C43.9511 5.47752 47.5457 8.52594 47.1712 12.5908C46.7369 16.3569 43.2173 18.987 40.0722 20.5715C30.8911 24.9503 17.9961 25.0843 8.51545 21.259C5.30994 19.9291 1.71539 17.6426 0.367051 14.2049C-0.66622 11.3805 0.591522 8.43655 2.70386 6.47893C7.12181 2.4738 12.7532 1.09924 18.5497 0.306755C24.8404 -0.455601 31.4598 0.216859 37.0912 2.14485C38.3494 2.60839 39.5926 3.11663 40.7758 3.74389Z" fill="#003984"/>
</g>
<defs>
<clipPath id="clip0_305_2639">
<rect width="187" height="24" fill="white"/>
</clipPath>
</defs>
</svg>
