<svg width="376" height="208" viewBox="0 0 376 208" fill="none" xmlns="http://www.w3.org/2000/svg">
<rect width="376" height="208" rx="20" fill="#FCBE9C"/>
<path d="M20.6 47V46.688C22.328 46.016 22.592 45.824 22.592 43.808V33.032C22.592 31.016 22.328 30.824 20.6 30.152V29.84H27.752C31.688 29.84 34.4 31.184 34.4 34.376C34.4 37.76 31.4 39.272 26.408 39.272H25.88V43.808C25.88 45.824 26.168 46.016 28.064 46.688V47H20.6ZM25.88 38.336H26.336C29.6 38.336 31.304 36.992 31.304 34.424C31.304 31.904 29.648 30.92 27.128 30.92H25.88V38.336ZM35.2658 47V46.688C36.5618 46.136 36.8738 45.896 36.8738 44.024V39.176C36.8738 37.52 36.7298 36.8 35.2658 36.224V35.936C36.7298 35.816 38.2418 35.552 39.7058 35.12L39.6338 37.544H39.7058C40.0658 36.56 41.1458 35.168 42.9218 35.168C43.4018 35.168 43.7378 35.264 44.0738 35.48L43.7378 38.672H43.4258C42.9218 38.096 42.0578 37.424 41.2658 37.424C40.5218 37.424 40.0178 38.096 39.7778 38.6V44.024C39.7778 45.896 40.1378 46.136 41.7698 46.688V47H35.2658ZM50.2163 47.24C47.1443 47.24 44.6483 44.912 44.6483 41.264C44.6483 37.856 46.8323 35.168 50.1443 35.168C53.9603 35.168 54.7763 38.72 54.7763 39.608V40.328H47.2883V40.352C47.2883 43.712 49.4003 45.152 51.4643 45.152C53.3123 45.152 54.1043 44.024 54.4163 43.424L54.7283 43.616C54.4643 44.576 53.4803 47.24 50.2163 47.24ZM47.3603 39.272L52.0403 39.224C51.9683 38.336 51.4883 36.152 49.7603 36.152C48.4643 36.152 47.6003 37.352 47.3603 39.272ZM55.4189 47V46.688C56.7149 46.136 57.0269 45.896 57.0269 44.024V39.344C57.0269 37.112 56.6669 36.848 55.4189 36.224V35.936C56.9069 35.816 58.3709 35.552 59.8589 35.12V37.76C60.8429 36.08 62.1149 35.168 63.6269 35.168C64.8509 35.168 66.3869 35.84 66.7229 37.76C67.6829 36.08 69.0029 35.168 70.4909 35.168C71.8589 35.168 73.6829 36.032 73.6829 38.552V44.024C73.6829 45.896 73.9709 46.136 75.2669 46.688V47H69.2429V46.688C70.4669 46.136 70.7789 45.896 70.8029 44.024C70.8269 42.512 70.8509 40.952 70.8509 39.632C70.8509 37.904 69.8909 37.16 68.9789 37.16C68.3069 37.16 67.5149 37.64 66.7949 38.624V44.024C66.7949 45.896 67.0829 46.136 68.2829 46.688V47H62.3549V46.688C63.6029 46.136 63.9149 45.896 63.9389 44.024C63.9629 42.176 63.9629 40.976 63.9629 39.632C63.9629 37.904 63.0269 37.16 62.1149 37.16C61.4429 37.16 60.6269 37.64 59.9309 38.624V44.024C59.9309 45.896 60.1949 46.136 61.4189 46.688V47H55.4189ZM75.6439 47V46.688C76.9399 46.136 77.2519 45.896 77.2519 44.024V39.368C77.2519 36.992 76.8199 36.848 75.6439 36.248V35.936C77.1319 35.816 78.6679 35.576 80.1559 35.12V44.024C80.1559 45.896 80.4439 46.136 81.7399 46.688V47H75.6439ZM78.4039 33.464C77.4919 33.464 76.7239 32.72 76.7239 31.856C76.7239 31.016 77.4919 30.272 78.4039 30.272C79.2919 30.272 80.0839 31.016 80.0839 31.856C80.0839 32.72 79.2919 33.464 78.4039 33.464ZM90.8711 47.336V44.816C90.2711 45.704 88.8551 47.312 86.8391 47.312C85.3751 47.312 83.5751 46.448 83.5751 43.856V39.368C83.5751 37.4 83.4311 36.92 82.1111 36.248V35.936C83.5271 35.816 85.0391 35.576 86.4791 35.12C86.4791 37.736 86.4311 40.256 86.4311 42.872C86.4311 44.648 87.2951 45.32 88.2791 45.32C89.3591 45.32 90.2951 44.456 90.7991 43.88V39.368C90.7991 37.424 90.7271 36.968 89.3351 36.248V35.936C90.7511 35.84 92.2631 35.576 93.7031 35.144V44.048C93.7031 45.656 93.9911 45.824 95.2871 46.208V46.52L90.8711 47.336ZM95.633 47V46.688C96.929 46.136 97.241 45.896 97.241 44.024V39.344C97.241 37.112 96.881 36.848 95.633 36.224V35.936C97.121 35.816 98.585 35.552 100.073 35.12V37.76C101.057 36.08 102.329 35.168 103.841 35.168C105.065 35.168 106.601 35.84 106.937 37.76C107.897 36.08 109.217 35.168 110.705 35.168C112.073 35.168 113.897 36.032 113.897 38.552V44.024C113.897 45.896 114.185 46.136 115.481 46.688V47H109.457V46.688C110.681 46.136 110.993 45.896 111.017 44.024C111.041 42.512 111.065 40.952 111.065 39.632C111.065 37.904 110.105 37.16 109.193 37.16C108.521 37.16 107.729 37.64 107.009 38.624V44.024C107.009 45.896 107.297 46.136 108.497 46.688V47H102.569V46.688C103.817 46.136 104.129 45.896 104.153 44.024C104.177 42.176 104.177 40.976 104.177 39.632C104.177 37.904 103.241 37.16 102.329 37.16C101.657 37.16 100.841 37.64 100.145 38.624V44.024C100.145 45.896 100.409 46.136 101.633 46.688V47H95.633ZM135.488 47.312C134.144 47.312 133.256 46.376 132.104 45.056C130.592 46.664 128.744 47.288 126.752 47.288C123.44 47.288 121.28 45.584 121.28 43.064C121.28 40.424 123.656 39.032 126.248 38.072C125 36.536 123.848 34.832 123.848 33.272C123.848 31.304 125.624 29.528 128.36 29.528C130.952 29.528 132.56 31.16 132.56 32.912C132.56 34.52 131.24 35.84 129.32 37.112L133.496 42.008C134.12 41.096 134.6 39.632 134.696 39.056C134.72 38.936 134.72 38.84 134.72 38.792C134.72 37.88 134.168 37.328 133.304 37.064V36.584H138.104V37.064C136.856 37.568 136.376 38.264 135.728 39.512C135.176 40.904 134.816 41.816 134.192 42.8L135.752 44.576C136.184 45.08 136.616 45.272 136.976 45.272C137.672 45.272 138.224 44.624 138.584 43.856L138.896 43.952C138.56 45.296 137.48 47.312 135.488 47.312ZM128 45.512C129.2 45.512 130.424 45.128 131.384 44.216L126.8 38.744C125.456 39.44 124.232 40.496 124.232 42.176C124.232 44 125.648 45.512 128 45.512ZM128.816 36.512C129.968 35.408 130.352 34.064 130.352 32.984C130.352 31.208 129.32 30.512 128.432 30.512C127.496 30.512 126.608 31.232 126.608 32.48C126.608 33.704 127.472 34.904 128.816 36.512ZM150.834 47.312C148.962 47.312 146.802 46.448 145.53 45.776L145.242 41.312H145.554C146.562 43.4 148.482 46.136 150.81 46.136C152.178 46.136 153.21 45.176 153.21 43.664C153.21 41.792 151.602 40.664 149.802 39.56C147.306 38.024 145.482 36.896 145.482 34.184C145.482 31.184 147.714 29.528 150.402 29.528C151.914 29.528 153.594 30.056 154.674 30.488L155.154 34.808H154.842C153.954 33.032 152.25 30.656 150.258 30.656C149.106 30.656 148.098 31.472 148.098 32.984C148.098 34.448 149.034 35.168 151.386 36.608C154.002 38.216 155.946 39.392 155.946 42.368C155.946 45.896 153.21 47.312 150.834 47.312ZM165.721 47.336V44.816C165.121 45.704 163.705 47.312 161.689 47.312C160.225 47.312 158.425 46.448 158.425 43.856V39.368C158.425 37.4 158.281 36.92 156.961 36.248V35.936C158.377 35.816 159.889 35.576 161.329 35.12C161.329 37.736 161.281 40.256 161.281 42.872C161.281 44.648 162.145 45.32 163.129 45.32C164.209 45.32 165.145 44.456 165.649 43.88V39.368C165.649 37.424 165.577 36.968 164.185 36.248V35.936C165.601 35.84 167.113 35.576 168.553 35.144V44.048C168.553 45.656 168.841 45.824 170.137 46.208V46.52L165.721 47.336ZM175.355 47.288C173.819 47.288 172.259 46.76 171.323 46.352L170.987 42.992L171.251 42.92C172.331 44.504 173.843 46.376 175.355 46.376C176.123 46.376 176.843 45.896 176.843 44.96C176.843 43.832 175.811 43.136 174.299 42.344C172.739 41.528 170.963 40.592 170.963 38.408C170.963 36.152 172.859 35.144 174.803 35.144C175.979 35.144 177.347 35.528 178.331 35.888L178.595 39.032L178.307 39.104C177.395 37.688 175.979 36.08 174.803 36.08C174.107 36.08 173.411 36.536 173.411 37.496C173.411 38.768 174.707 39.296 175.979 39.968C177.755 40.904 179.339 41.888 179.339 43.928C179.339 45.992 177.755 47.288 175.355 47.288ZM184.34 47.216C182.756 47.216 181.316 46.208 181.316 43.976V36.488H180.14V35.792C181.34 35 183.092 33.68 183.836 32.336H184.196V35.456H187.292L187.1 36.488H184.22L184.172 43.16C184.148 45.056 185.06 45.488 185.852 45.488C186.38 45.488 186.932 45.296 187.412 44.864L187.628 45.128C186.86 46.376 185.852 47.216 184.34 47.216ZM197.4 47.24C195.816 47.24 195.432 45.92 195.48 44.864H195.456C194.856 45.848 193.44 47.192 191.376 47.192C189.456 47.192 188.28 46.064 188.28 44.456C188.28 42.272 190.752 41.312 195.528 39.608L195.576 37.808C195.6 37.088 195.24 36.248 194.16 36.248C192.48 36.248 191.664 37.952 191.4 39.344L191.208 39.416L189.168 37.952C189.888 36.68 191.568 35.168 194.328 35.168C197.424 35.168 198.384 37.04 198.336 38.84L198.192 45.056C198.192 45.512 198.432 45.824 198.744 45.824C199.152 45.824 199.488 45.272 199.68 44.792L200.04 44.96C199.728 45.944 198.912 47.24 197.4 47.24ZM192.768 45.344C193.8 45.344 194.784 44.672 195.408 43.904L195.528 40.448C192.552 41.816 191.328 42.464 191.328 43.88C191.328 44.864 191.904 45.344 192.768 45.344ZM200.291 47V46.688C201.587 46.136 201.899 45.896 201.899 44.024V39.368C201.899 36.992 201.467 36.848 200.291 36.248V35.936C201.779 35.816 203.315 35.576 204.803 35.12V44.024C204.803 45.896 205.091 46.136 206.387 46.688V47H200.291ZM203.051 33.464C202.139 33.464 201.371 32.72 201.371 31.856C201.371 31.016 202.139 30.272 203.051 30.272C203.939 30.272 204.731 31.016 204.731 31.856C204.731 32.72 203.939 33.464 203.051 33.464ZM206.758 47V46.688C208.054 46.136 208.366 45.896 208.366 44.024V39.344C208.366 37.112 208.006 36.848 206.758 36.224V35.936C208.246 35.816 209.71 35.552 211.198 35.12V37.76C211.846 36.752 213.214 35.168 215.158 35.168C216.574 35.168 218.374 36.032 218.374 38.624V44.024C218.374 45.896 218.662 46.136 219.958 46.688V47H213.91V46.688C215.182 46.136 215.518 45.896 215.518 44.024V39.656C215.518 37.832 214.678 37.136 213.694 37.136C212.638 37.136 211.774 38.072 211.27 38.792V44.024C211.27 45.896 211.534 46.136 212.782 46.688V47H206.758ZM229.903 47.24C228.319 47.24 227.935 45.92 227.983 44.864H227.959C227.359 45.848 225.943 47.192 223.879 47.192C221.959 47.192 220.783 46.064 220.783 44.456C220.783 42.272 223.255 41.312 228.031 39.608L228.079 37.808C228.103 37.088 227.743 36.248 226.663 36.248C224.983 36.248 224.167 37.952 223.903 39.344L223.711 39.416L221.671 37.952C222.391 36.68 224.071 35.168 226.831 35.168C229.927 35.168 230.887 37.04 230.839 38.84L230.695 45.056C230.695 45.512 230.935 45.824 231.247 45.824C231.655 45.824 231.991 45.272 232.183 44.792L232.543 44.96C232.231 45.944 231.415 47.24 229.903 47.24ZM225.271 45.344C226.303 45.344 227.287 44.672 227.911 43.904L228.031 40.448C225.055 41.816 223.831 42.464 223.831 43.88C223.831 44.864 224.407 45.344 225.271 45.344ZM233.901 47.312V31.952C233.901 30.92 233.541 30.44 232.293 29.84V29.528C233.781 29.432 235.293 29.168 236.805 28.712V37.232H236.829C237.717 36.008 238.893 35.168 240.477 35.168C243.069 35.168 245.085 37.568 245.085 41.096C245.085 44.552 243.069 47.24 240.141 47.24C237.813 47.24 236.877 45.488 235.941 45.488C235.461 45.488 234.981 45.944 234.237 47.312H233.901ZM239.853 46.16C241.389 46.16 242.061 44.264 242.061 41.888C242.061 39.104 241.149 36.68 239.325 36.68C238.293 36.68 237.501 37.472 236.805 38.384V42.656C237.237 44.144 238.269 46.16 239.853 46.16ZM245.636 47V46.688C246.932 46.136 247.244 45.896 247.244 44.024V32.96C247.244 30.584 246.812 30.44 245.636 29.84V29.528C247.124 29.432 248.66 29.168 250.148 28.712V44.024C250.148 45.896 250.436 46.136 251.732 46.688V47H245.636ZM257.798 47.24C254.726 47.24 252.229 44.912 252.229 41.264C252.229 37.856 254.414 35.168 257.726 35.168C261.542 35.168 262.358 38.72 262.358 39.608V40.328H254.87V40.352C254.87 43.712 256.982 45.152 259.046 45.152C260.894 45.152 261.686 44.024 261.998 43.424L262.31 43.616C262.046 44.576 261.062 47.24 257.798 47.24ZM254.942 39.272L259.622 39.224C259.55 38.336 259.07 36.152 257.342 36.152C256.046 36.152 255.182 37.352 254.942 39.272Z" fill="#333333"/>
<rect x="20.5" y="93.5" width="110" height="39" rx="19.5" fill="#FDD1BA"/>
<rect x="20.5" y="93.5" width="110" height="39" rx="19.5" stroke="#999999" stroke-dasharray="7 7"/>
<path d="M32.2 120.5L37.4 106.5H40.38L45.6 120.5H42.44L41.36 117.64H36.18L35.12 120.5H32.2ZM37.1 115.16H40.46L38.78 110.3L37.1 115.16ZM46.8091 120.5V109.9H49.2091V111.48C49.3557 111.173 49.5557 110.887 49.8091 110.62C50.0624 110.353 50.3757 110.127 50.7491 109.94C51.1224 109.753 51.5357 109.66 51.9891 109.66C52.2424 109.66 52.4557 109.673 52.6291 109.7C52.8157 109.727 52.9357 109.753 52.9891 109.78V112.12C52.8557 112.067 52.6824 112.02 52.4691 111.98C52.2691 111.927 51.9957 111.9 51.6491 111.9C51.1157 111.9 50.6824 112.013 50.3491 112.24C50.0291 112.467 49.7957 112.767 49.6491 113.14C49.5024 113.5 49.4291 113.893 49.4291 114.32V120.5H46.8091ZM59.0727 120.62C58.246 120.62 57.566 120.507 57.0327 120.28C56.4993 120.04 56.106 119.66 55.8527 119.14C55.6127 118.62 55.4927 117.947 55.4927 117.12V112.1H54.0727V109.9H55.4927V107.5H58.1127V109.9H60.6727V112.1H58.1127V116.7C58.1127 117.3 58.2193 117.733 58.4327 118C58.6593 118.253 59.0727 118.38 59.6727 118.38C60.0727 118.38 60.4727 118.36 60.8727 118.32V120.52C60.6193 120.547 60.3527 120.567 60.0727 120.58C59.806 120.607 59.4727 120.62 59.0727 120.62ZM62.8005 120.5V109.9H65.4205V120.5H62.8005ZM64.1005 108.88C63.6338 108.88 63.2471 108.733 62.9405 108.44C62.6471 108.147 62.5005 107.767 62.5005 107.3C62.5005 106.833 62.6471 106.453 62.9405 106.16C63.2471 105.867 63.6271 105.72 64.0805 105.72C64.5605 105.72 64.9471 105.867 65.2405 106.16C65.5471 106.453 65.7005 106.833 65.7005 107.3C65.7005 107.767 65.5471 108.147 65.2405 108.44C64.9471 108.733 64.5671 108.88 64.1005 108.88ZM72.1102 120.74C71.2435 120.74 70.5168 120.653 69.9302 120.48C69.3435 120.293 68.8568 120.047 68.4702 119.74C68.0968 119.42 67.8168 119.06 67.6302 118.66C67.4568 118.26 67.3502 117.84 67.3102 117.4H69.9502C70.0168 117.747 70.2235 118.033 70.5702 118.26C70.9168 118.473 71.4302 118.58 72.1102 118.58C72.8835 118.58 73.4368 118.473 73.7702 118.26C74.1035 118.047 74.2702 117.773 74.2702 117.44C74.2702 117.2 74.1968 117.007 74.0502 116.86C73.9035 116.7 73.6435 116.567 73.2702 116.46C72.8968 116.34 72.3702 116.22 71.6902 116.1C71.1035 116.02 70.5635 115.913 70.0702 115.78C69.5768 115.633 69.1435 115.433 68.7702 115.18C68.4102 114.927 68.1235 114.613 67.9102 114.24C67.7102 113.853 67.6102 113.387 67.6102 112.84C67.6102 112.253 67.7835 111.72 68.1302 111.24C68.4902 110.76 69.0035 110.38 69.6702 110.1C70.3502 109.807 71.1635 109.66 72.1102 109.66C73.1368 109.66 73.9568 109.82 74.5702 110.14C75.1835 110.46 75.6435 110.873 75.9502 111.38C76.2568 111.887 76.4435 112.427 76.5102 113H73.8702C73.7635 112.613 73.5568 112.32 73.2502 112.12C72.9435 111.92 72.5635 111.82 72.1102 111.82C71.4435 111.82 70.9635 111.927 70.6702 112.14C70.3902 112.34 70.2502 112.593 70.2502 112.9C70.2502 113.22 70.4035 113.467 70.7102 113.64C71.0302 113.813 71.6768 113.967 72.6502 114.1C73.2502 114.18 73.8035 114.3 74.3102 114.46C74.8302 114.607 75.2835 114.807 75.6702 115.06C76.0568 115.313 76.3568 115.633 76.5702 116.02C76.7968 116.393 76.9102 116.853 76.9102 117.4C76.9102 118.053 76.7302 118.633 76.3702 119.14C76.0235 119.633 75.4902 120.027 74.7702 120.32C74.0635 120.6 73.1768 120.74 72.1102 120.74ZM81.7667 120.74C81.0067 120.74 80.3601 120.6 79.8267 120.32C79.2934 120.027 78.8867 119.627 78.6067 119.12C78.3267 118.613 78.1867 118.04 78.1867 117.4C78.1867 116.333 78.5001 115.533 79.1267 115C79.7667 114.467 80.7201 114.2 81.9867 114.2H85.1467V113.7C85.1467 113.007 84.9867 112.52 84.6667 112.24C84.3601 111.96 83.8667 111.82 83.1867 111.82C82.5867 111.82 82.1534 111.927 81.8867 112.14C81.6201 112.34 81.4667 112.593 81.4267 112.9H78.7867C78.8267 112.287 79.0201 111.74 79.3667 111.26C79.7267 110.767 80.2334 110.38 80.8867 110.1C81.5534 109.807 82.3534 109.66 83.2867 109.66C84.1934 109.66 84.9801 109.793 85.6467 110.06C86.3267 110.327 86.8534 110.76 87.2267 111.36C87.6001 111.947 87.7867 112.74 87.7867 113.74V117.8C87.7867 118.36 87.7934 118.853 87.8067 119.28C87.8334 119.693 87.8734 120.1 87.9267 120.5H85.4667C85.4134 120.207 85.3801 119.987 85.3667 119.84C85.3667 119.68 85.3667 119.447 85.3667 119.14C85.0867 119.567 84.6467 119.94 84.0467 120.26C83.4467 120.58 82.6867 120.74 81.7667 120.74ZM82.5867 118.7C83.0134 118.7 83.4201 118.627 83.8067 118.48C84.2067 118.32 84.5267 118.08 84.7667 117.76C85.0201 117.427 85.1467 117.007 85.1467 116.5V116H82.4867C81.9801 116 81.5801 116.12 81.2867 116.36C81.0067 116.587 80.8667 116.9 80.8667 117.3C80.8667 117.727 81.0134 118.067 81.3067 118.32C81.6001 118.573 82.0267 118.7 82.5867 118.7ZM89.9106 120.5V109.9H92.3106V111.46C92.5773 110.98 92.9906 110.56 93.5506 110.2C94.1106 109.84 94.8773 109.66 95.8506 109.66C97.144 109.66 98.104 110.007 98.7306 110.7C99.3706 111.393 99.6906 112.393 99.6906 113.7V120.5H97.0506V114.3C97.0506 113.513 96.884 112.92 96.5506 112.52C96.2306 112.107 95.6773 111.9 94.8906 111.9C94.3306 111.9 93.8773 112.013 93.5306 112.24C93.184 112.467 92.9306 112.76 92.7706 113.12C92.6106 113.48 92.5306 113.873 92.5306 114.3V120.5H89.9106ZM104.98 120.74C104.22 120.74 103.573 120.6 103.04 120.32C102.507 120.027 102.1 119.627 101.82 119.12C101.54 118.613 101.4 118.04 101.4 117.4C101.4 116.333 101.713 115.533 102.34 115C102.98 114.467 103.933 114.2 105.2 114.2H108.36V113.7C108.36 113.007 108.2 112.52 107.88 112.24C107.573 111.96 107.08 111.82 106.4 111.82C105.8 111.82 105.367 111.927 105.1 112.14C104.833 112.34 104.68 112.593 104.64 112.9H102C102.04 112.287 102.233 111.74 102.58 111.26C102.94 110.767 103.447 110.38 104.1 110.1C104.767 109.807 105.567 109.66 106.5 109.66C107.407 109.66 108.193 109.793 108.86 110.06C109.54 110.327 110.067 110.76 110.44 111.36C110.813 111.947 111 112.74 111 113.74V117.8C111 118.36 111.007 118.853 111.02 119.28C111.047 119.693 111.087 120.1 111.14 120.5H108.68C108.627 120.207 108.593 119.987 108.58 119.84C108.58 119.68 108.58 119.447 108.58 119.14C108.3 119.567 107.86 119.94 107.26 120.26C106.66 120.58 105.9 120.74 104.98 120.74ZM105.8 118.7C106.227 118.7 106.633 118.627 107.02 118.48C107.42 118.32 107.74 118.08 107.98 117.76C108.233 117.427 108.36 117.007 108.36 116.5V116H105.7C105.193 116 104.793 116.12 104.5 116.36C104.22 116.587 104.08 116.9 104.08 117.3C104.08 117.727 104.227 118.067 104.52 118.32C104.813 118.573 105.24 118.7 105.8 118.7ZM116.704 120.62C115.891 120.62 115.224 120.513 114.704 120.3C114.197 120.073 113.824 119.7 113.584 119.18C113.344 118.647 113.224 117.907 113.224 116.96V106.5H115.844V116.64C115.844 117.32 115.937 117.78 116.124 118.02C116.324 118.26 116.711 118.38 117.284 118.38C117.431 118.38 117.557 118.38 117.664 118.38C117.771 118.367 117.877 118.353 117.984 118.34V120.54C117.917 120.567 117.804 120.587 117.644 120.6C117.484 120.613 117.317 120.62 117.144 120.62C116.971 120.62 116.824 120.62 116.704 120.62Z" fill="#333333"/>
<rect x="142.5" y="93.5" width="142" height="39" rx="19.5" fill="#FDD1BA"/>
<rect x="142.5" y="93.5" width="142" height="39" rx="19.5" stroke="#999999" stroke-dasharray="7 7"/>
<path d="M155.62 120.5V106.5H158.6V112.06H164.6V106.5H167.58V120.5H164.6V114.54H158.6V120.5H155.62ZM173.375 120.74C172.615 120.74 171.969 120.6 171.435 120.32C170.902 120.027 170.495 119.627 170.215 119.12C169.935 118.613 169.795 118.04 169.795 117.4C169.795 116.333 170.109 115.533 170.735 115C171.375 114.467 172.329 114.2 173.595 114.2H176.755V113.7C176.755 113.007 176.595 112.52 176.275 112.24C175.969 111.96 175.475 111.82 174.795 111.82C174.195 111.82 173.762 111.927 173.495 112.14C173.229 112.34 173.075 112.593 173.035 112.9H170.395C170.435 112.287 170.629 111.74 170.975 111.26C171.335 110.767 171.842 110.38 172.495 110.1C173.162 109.807 173.962 109.66 174.895 109.66C175.802 109.66 176.589 109.793 177.255 110.06C177.935 110.327 178.462 110.76 178.835 111.36C179.209 111.947 179.395 112.74 179.395 113.74V117.8C179.395 118.36 179.402 118.853 179.415 119.28C179.442 119.693 179.482 120.1 179.535 120.5H177.075C177.022 120.207 176.989 119.987 176.975 119.84C176.975 119.68 176.975 119.447 176.975 119.14C176.695 119.567 176.255 119.94 175.655 120.26C175.055 120.58 174.295 120.74 173.375 120.74ZM174.195 118.7C174.622 118.7 175.029 118.627 175.415 118.48C175.815 118.32 176.135 118.08 176.375 117.76C176.629 117.427 176.755 117.007 176.755 116.5V116H174.095C173.589 116 173.189 116.12 172.895 116.36C172.615 116.587 172.475 116.9 172.475 117.3C172.475 117.727 172.622 118.067 172.915 118.32C173.209 118.573 173.635 118.7 174.195 118.7ZM181.519 120.5V109.9H183.919V111.46C184.186 110.98 184.599 110.56 185.159 110.2C185.719 109.84 186.486 109.66 187.459 109.66C188.753 109.66 189.713 110.007 190.339 110.7C190.979 111.393 191.299 112.393 191.299 113.7V120.5H188.659V114.3C188.659 113.513 188.493 112.92 188.159 112.52C187.839 112.107 187.286 111.9 186.499 111.9C185.939 111.9 185.486 112.013 185.139 112.24C184.793 112.467 184.539 112.76 184.379 113.12C184.219 113.48 184.139 113.873 184.139 114.3V120.5H181.519ZM197.409 120.74C196.489 120.74 195.689 120.54 195.009 120.14C194.342 119.74 193.822 119.14 193.449 118.34C193.089 117.527 192.909 116.513 192.909 115.3V114.9C192.909 113.753 193.089 112.793 193.449 112.02C193.822 111.247 194.349 110.66 195.029 110.26C195.709 109.86 196.502 109.66 197.409 109.66C198.142 109.66 198.782 109.82 199.329 110.14C199.889 110.447 200.335 110.86 200.669 111.38V106.5H203.289V120.5H200.849V118.94C200.582 119.42 200.162 119.84 199.589 120.2C199.015 120.56 198.289 120.74 197.409 120.74ZM198.029 118.5C198.562 118.5 199.022 118.4 199.409 118.2C199.809 118 200.115 117.693 200.329 117.28C200.555 116.853 200.669 116.327 200.669 115.7V114.5C200.669 113.913 200.555 113.433 200.329 113.06C200.102 112.673 199.782 112.387 199.369 112.2C198.969 112 198.522 111.9 198.029 111.9C197.309 111.9 196.722 112.153 196.269 112.66C195.815 113.153 195.589 113.9 195.589 114.9V115.3C195.589 116.393 195.822 117.2 196.289 117.72C196.755 118.24 197.335 118.5 198.029 118.5ZM210.213 120.74C209.24 120.74 208.36 120.54 207.573 120.14C206.787 119.727 206.16 119.12 205.693 118.32C205.24 117.507 205.013 116.5 205.013 115.3V114.9C205.013 113.753 205.253 112.793 205.733 112.02C206.213 111.247 206.847 110.66 207.633 110.26C208.42 109.86 209.28 109.66 210.213 109.66C211.213 109.66 212.06 109.827 212.753 110.16C213.447 110.493 213.98 110.953 214.353 111.54C214.74 112.127 214.96 112.773 215.013 113.48H212.333C212.227 113 212.007 112.62 211.673 112.34C211.353 112.047 210.867 111.9 210.213 111.9C209.76 111.9 209.34 112.007 208.953 112.22C208.58 112.433 208.273 112.76 208.033 113.2C207.807 113.64 207.693 114.207 207.693 114.9V115.3C207.693 116.047 207.8 116.66 208.013 117.14C208.24 117.607 208.54 117.953 208.913 118.18C209.3 118.393 209.733 118.5 210.213 118.5C210.733 118.5 211.18 118.367 211.553 118.1C211.94 117.82 212.2 117.427 212.333 116.92H215.013C214.933 117.68 214.68 118.353 214.253 118.94C213.827 119.527 213.26 119.973 212.553 120.28C211.86 120.587 211.08 120.74 210.213 120.74ZM216.622 120.5V109.9H219.022V111.48C219.169 111.173 219.369 110.887 219.622 110.62C219.876 110.353 220.189 110.127 220.562 109.94C220.936 109.753 221.349 109.66 221.802 109.66C222.056 109.66 222.269 109.673 222.442 109.7C222.629 109.727 222.749 109.753 222.802 109.78V112.12C222.669 112.067 222.496 112.02 222.282 111.98C222.082 111.927 221.809 111.9 221.462 111.9C220.929 111.9 220.496 112.013 220.162 112.24C219.842 112.467 219.609 112.767 219.462 113.14C219.316 113.5 219.242 113.893 219.242 114.32V120.5H216.622ZM227.063 120.74C226.303 120.74 225.656 120.6 225.123 120.32C224.589 120.027 224.183 119.627 223.903 119.12C223.623 118.613 223.483 118.04 223.483 117.4C223.483 116.333 223.796 115.533 224.423 115C225.063 114.467 226.016 114.2 227.283 114.2H230.443V113.7C230.443 113.007 230.283 112.52 229.963 112.24C229.656 111.96 229.163 111.82 228.483 111.82C227.883 111.82 227.449 111.927 227.183 112.14C226.916 112.34 226.763 112.593 226.723 112.9H224.083C224.123 112.287 224.316 111.74 224.663 111.26C225.023 110.767 225.529 110.38 226.183 110.1C226.849 109.807 227.649 109.66 228.583 109.66C229.489 109.66 230.276 109.793 230.943 110.06C231.623 110.327 232.149 110.76 232.523 111.36C232.896 111.947 233.083 112.74 233.083 113.74V117.8C233.083 118.36 233.089 118.853 233.103 119.28C233.129 119.693 233.169 120.1 233.223 120.5H230.763C230.709 120.207 230.676 119.987 230.663 119.84C230.663 119.68 230.663 119.447 230.663 119.14C230.383 119.567 229.943 119.94 229.343 120.26C228.743 120.58 227.983 120.74 227.063 120.74ZM227.883 118.7C228.309 118.7 228.716 118.627 229.103 118.48C229.503 118.32 229.823 118.08 230.063 117.76C230.316 117.427 230.443 117.007 230.443 116.5V116H227.783C227.276 116 226.876 116.12 226.583 116.36C226.303 116.587 226.163 116.9 226.163 117.3C226.163 117.727 226.309 118.067 226.603 118.32C226.896 118.573 227.323 118.7 227.883 118.7ZM235.807 120.5V112.1H234.487V109.9H235.807V109.5C235.807 108.82 235.927 108.253 236.167 107.8C236.407 107.333 236.8 106.98 237.347 106.74C237.907 106.5 238.653 106.38 239.587 106.38C239.787 106.38 240.033 106.387 240.327 106.4C240.633 106.4 240.887 106.413 241.087 106.44V108.68C240.887 108.653 240.667 108.64 240.427 108.64C240.2 108.627 239.987 108.62 239.787 108.62C239.28 108.62 238.927 108.707 238.727 108.88C238.527 109.04 238.427 109.313 238.427 109.7V109.9H240.887V112.1H238.427V120.5H235.807ZM246.787 120.62C245.96 120.62 245.28 120.507 244.747 120.28C244.213 120.04 243.82 119.66 243.567 119.14C243.327 118.62 243.207 117.947 243.207 117.12V112.1H241.787V109.9H243.207V107.5H245.827V109.9H248.387V112.1H245.827V116.7C245.827 117.3 245.933 117.733 246.147 118C246.373 118.253 246.787 118.38 247.387 118.38C247.787 118.38 248.187 118.36 248.587 118.32V120.52C248.333 120.547 248.067 120.567 247.787 120.58C247.52 120.607 247.187 120.62 246.787 120.62ZM254.997 120.74C254.037 120.74 253.15 120.547 252.337 120.16C251.537 119.76 250.897 119.16 250.417 118.36C249.937 117.547 249.697 116.527 249.697 115.3V114.9C249.697 113.727 249.924 112.753 250.377 111.98C250.844 111.207 251.464 110.627 252.237 110.24C253.01 109.853 253.864 109.66 254.797 109.66C256.464 109.66 257.73 110.1 258.597 110.98C259.464 111.86 259.897 113.133 259.897 114.8V115.92H252.397C252.424 116.547 252.557 117.06 252.797 117.46C253.05 117.847 253.37 118.133 253.757 118.32C254.144 118.493 254.557 118.58 254.997 118.58C255.677 118.58 256.19 118.48 256.537 118.28C256.884 118.08 257.13 117.787 257.277 117.4H259.697C259.484 118.507 258.957 119.34 258.117 119.9C257.277 120.46 256.237 120.74 254.997 120.74ZM254.897 111.82C254.484 111.82 254.084 111.887 253.697 112.02C253.31 112.153 253.004 112.393 252.777 112.74C252.55 113.073 252.424 113.52 252.397 114.08H257.337C257.324 113.48 257.204 113.02 256.977 112.7C256.764 112.367 256.477 112.14 256.117 112.02C255.757 111.887 255.35 111.82 254.897 111.82ZM265.598 120.74C264.678 120.74 263.878 120.54 263.198 120.14C262.532 119.74 262.012 119.14 261.638 118.34C261.278 117.527 261.098 116.513 261.098 115.3V114.9C261.098 113.753 261.278 112.793 261.638 112.02C262.012 111.247 262.538 110.66 263.218 110.26C263.898 109.86 264.692 109.66 265.598 109.66C266.332 109.66 266.972 109.82 267.518 110.14C268.078 110.447 268.525 110.86 268.858 111.38V106.5H271.478V120.5H269.038V118.94C268.772 119.42 268.352 119.84 267.778 120.2C267.205 120.56 266.478 120.74 265.598 120.74ZM266.218 118.5C266.752 118.5 267.212 118.4 267.598 118.2C267.998 118 268.305 117.693 268.518 117.28C268.745 116.853 268.858 116.327 268.858 115.7V114.5C268.858 113.913 268.745 113.433 268.518 113.06C268.292 112.673 267.972 112.387 267.558 112.2C267.158 112 266.712 111.9 266.218 111.9C265.498 111.9 264.912 112.153 264.458 112.66C264.005 113.153 263.778 113.9 263.778 114.9V115.3C263.778 116.393 264.012 117.2 264.478 117.72C264.945 118.24 265.525 118.5 266.218 118.5Z" fill="#333333"/>
<rect x="20.5" y="144.5" width="255" height="39" rx="19.5" fill="#FDD1BA"/>
<rect x="20.5" y="144.5" width="255" height="39" rx="19.5" stroke="#999999" stroke-dasharray="7 7"/>
<path d="M33.62 171.5V157.5H43.38V159.98H36.62V163.1H42.78V165.5H36.62V169.02H43.38V171.5H33.62ZM50.0047 171.74C49.0314 171.74 48.1514 171.54 47.3647 171.14C46.578 170.727 45.9514 170.12 45.4847 169.32C45.0314 168.507 44.8047 167.5 44.8047 166.3V165.9C44.8047 164.753 45.0447 163.793 45.5247 163.02C46.0047 162.247 46.638 161.66 47.4247 161.26C48.2114 160.86 49.0714 160.66 50.0047 160.66C51.0047 160.66 51.8514 160.827 52.5447 161.16C53.238 161.493 53.7714 161.953 54.1447 162.54C54.5314 163.127 54.7514 163.773 54.8047 164.48H52.1247C52.018 164 51.798 163.62 51.4647 163.34C51.1447 163.047 50.658 162.9 50.0047 162.9C49.5514 162.9 49.1314 163.007 48.7447 163.22C48.3714 163.433 48.0647 163.76 47.8247 164.2C47.598 164.64 47.4847 165.207 47.4847 165.9V166.3C47.4847 167.047 47.5914 167.66 47.8047 168.14C48.0314 168.607 48.3314 168.953 48.7047 169.18C49.0914 169.393 49.5247 169.5 50.0047 169.5C50.5247 169.5 50.9714 169.367 51.3447 169.1C51.7314 168.82 51.9914 168.427 52.1247 167.92H54.8047C54.7247 168.68 54.4714 169.353 54.0447 169.94C53.618 170.527 53.0514 170.973 52.3447 171.28C51.6514 171.587 50.8714 171.74 50.0047 171.74ZM61.1938 171.74C60.2338 171.74 59.3471 171.547 58.5338 171.16C57.7338 170.76 57.0938 170.153 56.6138 169.34C56.1338 168.527 55.8938 167.513 55.8938 166.3V165.9C55.8938 164.753 56.1338 163.793 56.6138 163.02C57.0938 162.233 57.7338 161.647 58.5338 161.26C59.3471 160.86 60.2338 160.66 61.1938 160.66C62.1671 160.66 63.0538 160.86 63.8538 161.26C64.6538 161.647 65.2938 162.233 65.7738 163.02C66.2538 163.793 66.4938 164.753 66.4938 165.9V166.3C66.4938 167.487 66.2538 168.487 65.7738 169.3C65.2938 170.113 64.6538 170.727 63.8538 171.14C63.0538 171.54 62.1671 171.74 61.1938 171.74ZM61.1938 169.5C61.7004 169.5 62.1471 169.387 62.5338 169.16C62.9338 168.92 63.2471 168.56 63.4738 168.08C63.7004 167.6 63.8138 167.007 63.8138 166.3V165.9C63.8138 165.247 63.7004 164.7 63.4738 164.26C63.2471 163.82 62.9338 163.487 62.5338 163.26C62.1471 163.02 61.7004 162.9 61.1938 162.9C60.6871 162.9 60.2338 163.02 59.8338 163.26C59.4471 163.487 59.1404 163.82 58.9138 164.26C58.6871 164.7 58.5738 165.247 58.5738 165.9V166.3C58.5738 167.02 58.6871 167.62 58.9138 168.1C59.1404 168.567 59.4471 168.92 59.8338 169.16C60.2338 169.387 60.6871 169.5 61.1938 169.5ZM67.5859 167.14V164.66H73.9859V167.14H67.5859ZM81.6836 171.74C80.4703 171.74 79.3836 171.5 78.4236 171.02C77.4769 170.527 76.7303 169.76 76.1836 168.72C75.6503 167.667 75.3836 166.293 75.3836 164.6V164.2C75.3836 162.973 75.5436 161.927 75.8636 161.06C76.1836 160.18 76.6303 159.46 77.2036 158.9C77.7903 158.34 78.4636 157.927 79.2236 157.66C79.9836 157.393 80.8036 157.26 81.6836 157.26C82.4703 157.26 83.2036 157.36 83.8836 157.56C84.5769 157.747 85.1903 158.033 85.7236 158.42C86.2569 158.807 86.6836 159.307 87.0036 159.92C87.3369 160.533 87.5303 161.253 87.5836 162.08H84.4636C84.3169 161.293 83.9969 160.713 83.5036 160.34C83.0103 159.967 82.4036 159.78 81.6836 159.78C81.1236 159.78 80.6036 159.92 80.1236 160.2C79.6436 160.467 79.2503 160.92 78.9436 161.56C78.6503 162.2 78.5036 163.08 78.5036 164.2V164.6C78.5036 165.48 78.5969 166.22 78.7836 166.82C78.9703 167.407 79.2169 167.88 79.5236 168.24C79.8303 168.587 80.1703 168.84 80.5436 169C80.9169 169.147 81.2969 169.22 81.6836 169.22C82.4436 169.22 83.0703 169.027 83.5636 168.64C84.0569 168.24 84.3569 167.667 84.4636 166.92H87.5836C87.5169 167.787 87.3236 168.533 87.0036 169.16C86.6836 169.773 86.2636 170.273 85.7436 170.66C85.2236 171.033 84.6169 171.307 83.9236 171.48C83.2303 171.653 82.4836 171.74 81.6836 171.74ZM94.168 171.74C93.208 171.74 92.3213 171.547 91.508 171.16C90.708 170.76 90.068 170.153 89.588 169.34C89.108 168.527 88.868 167.513 88.868 166.3V165.9C88.868 164.753 89.108 163.793 89.588 163.02C90.068 162.233 90.708 161.647 91.508 161.26C92.3213 160.86 93.208 160.66 94.168 160.66C95.1413 160.66 96.028 160.86 96.828 161.26C97.628 161.647 98.268 162.233 98.748 163.02C99.228 163.793 99.468 164.753 99.468 165.9V166.3C99.468 167.487 99.228 168.487 98.748 169.3C98.268 170.113 97.628 170.727 96.828 171.14C96.028 171.54 95.1413 171.74 94.168 171.74ZM94.168 169.5C94.6746 169.5 95.1213 169.387 95.508 169.16C95.908 168.92 96.2213 168.56 96.448 168.08C96.6746 167.6 96.788 167.007 96.788 166.3V165.9C96.788 165.247 96.6746 164.7 96.448 164.26C96.2213 163.82 95.908 163.487 95.508 163.26C95.1213 163.02 94.6746 162.9 94.168 162.9C93.6613 162.9 93.208 163.02 92.808 163.26C92.4213 163.487 92.1146 163.82 91.888 164.26C91.6613 164.7 91.548 165.247 91.548 165.9V166.3C91.548 167.02 91.6613 167.62 91.888 168.1C92.1146 168.567 92.4213 168.92 92.808 169.16C93.208 169.387 93.6613 169.5 94.168 169.5ZM101.18 171.5V160.9H103.58V162.46C103.847 161.98 104.26 161.56 104.82 161.2C105.38 160.84 106.147 160.66 107.12 160.66C108.413 160.66 109.373 161.007 110 161.7C110.64 162.393 110.96 163.393 110.96 164.7V171.5H108.32V165.3C108.32 164.513 108.153 163.92 107.82 163.52C107.5 163.107 106.947 162.9 106.16 162.9C105.6 162.9 105.147 163.013 104.8 163.24C104.453 163.467 104.2 163.76 104.04 164.12C103.88 164.48 103.8 164.873 103.8 165.3V171.5H101.18ZM117.37 171.74C116.503 171.74 115.776 171.653 115.19 171.48C114.603 171.293 114.116 171.047 113.73 170.74C113.356 170.42 113.076 170.06 112.89 169.66C112.716 169.26 112.61 168.84 112.57 168.4H115.21C115.276 168.747 115.483 169.033 115.83 169.26C116.176 169.473 116.69 169.58 117.37 169.58C118.143 169.58 118.696 169.473 119.03 169.26C119.363 169.047 119.53 168.773 119.53 168.44C119.53 168.2 119.456 168.007 119.31 167.86C119.163 167.7 118.903 167.567 118.53 167.46C118.156 167.34 117.63 167.22 116.95 167.1C116.363 167.02 115.823 166.913 115.33 166.78C114.836 166.633 114.403 166.433 114.03 166.18C113.67 165.927 113.383 165.613 113.17 165.24C112.97 164.853 112.87 164.387 112.87 163.84C112.87 163.253 113.043 162.72 113.39 162.24C113.75 161.76 114.263 161.38 114.93 161.1C115.61 160.807 116.423 160.66 117.37 160.66C118.396 160.66 119.216 160.82 119.83 161.14C120.443 161.46 120.903 161.873 121.21 162.38C121.516 162.887 121.703 163.427 121.77 164H119.13C119.023 163.613 118.816 163.32 118.51 163.12C118.203 162.92 117.823 162.82 117.37 162.82C116.703 162.82 116.223 162.927 115.93 163.14C115.65 163.34 115.51 163.593 115.51 163.9C115.51 164.22 115.663 164.467 115.97 164.64C116.29 164.813 116.936 164.967 117.91 165.1C118.51 165.18 119.063 165.3 119.57 165.46C120.09 165.607 120.543 165.807 120.93 166.06C121.316 166.313 121.616 166.633 121.83 167.02C122.056 167.393 122.17 167.853 122.17 168.4C122.17 169.053 121.99 169.633 121.63 170.14C121.283 170.633 120.75 171.027 120.03 171.32C119.323 171.6 118.436 171.74 117.37 171.74ZM128.546 171.74C127.573 171.74 126.693 171.54 125.906 171.14C125.119 170.727 124.493 170.12 124.026 169.32C123.573 168.507 123.346 167.5 123.346 166.3V165.9C123.346 164.753 123.586 163.793 124.066 163.02C124.546 162.247 125.179 161.66 125.966 161.26C126.753 160.86 127.613 160.66 128.546 160.66C129.546 160.66 130.393 160.827 131.086 161.16C131.779 161.493 132.313 161.953 132.686 162.54C133.073 163.127 133.293 163.773 133.346 164.48H130.666C130.559 164 130.339 163.62 130.006 163.34C129.686 163.047 129.199 162.9 128.546 162.9C128.093 162.9 127.673 163.007 127.286 163.22C126.913 163.433 126.606 163.76 126.366 164.2C126.139 164.64 126.026 165.207 126.026 165.9V166.3C126.026 167.047 126.133 167.66 126.346 168.14C126.573 168.607 126.873 168.953 127.246 169.18C127.633 169.393 128.066 169.5 128.546 169.5C129.066 169.5 129.513 169.367 129.886 169.1C130.273 168.82 130.533 168.427 130.666 167.92H133.346C133.266 168.68 133.013 169.353 132.586 169.94C132.159 170.527 131.593 170.973 130.886 171.28C130.193 171.587 129.413 171.74 128.546 171.74ZM135.155 171.5V160.9H137.775V171.5H135.155ZM136.455 159.88C135.988 159.88 135.602 159.733 135.295 159.44C135.002 159.147 134.855 158.767 134.855 158.3C134.855 157.833 135.002 157.453 135.295 157.16C135.602 156.867 135.982 156.72 136.435 156.72C136.915 156.72 137.302 156.867 137.595 157.16C137.902 157.453 138.055 157.833 138.055 158.3C138.055 158.767 137.902 159.147 137.595 159.44C137.302 159.733 136.922 159.88 136.455 159.88ZM144.965 171.74C144.005 171.74 143.118 171.547 142.305 171.16C141.505 170.76 140.865 170.153 140.385 169.34C139.905 168.527 139.665 167.513 139.665 166.3V165.9C139.665 164.753 139.905 163.793 140.385 163.02C140.865 162.233 141.505 161.647 142.305 161.26C143.118 160.86 144.005 160.66 144.965 160.66C145.938 160.66 146.825 160.86 147.625 161.26C148.425 161.647 149.065 162.233 149.545 163.02C150.025 163.793 150.265 164.753 150.265 165.9V166.3C150.265 167.487 150.025 168.487 149.545 169.3C149.065 170.113 148.425 170.727 147.625 171.14C146.825 171.54 145.938 171.74 144.965 171.74ZM144.965 169.5C145.472 169.5 145.918 169.387 146.305 169.16C146.705 168.92 147.018 168.56 147.245 168.08C147.472 167.6 147.585 167.007 147.585 166.3V165.9C147.585 165.247 147.472 164.7 147.245 164.26C147.018 163.82 146.705 163.487 146.305 163.26C145.918 163.02 145.472 162.9 144.965 162.9C144.458 162.9 144.005 163.02 143.605 163.26C143.218 163.487 142.912 163.82 142.685 164.26C142.458 164.7 142.345 165.247 142.345 165.9V166.3C142.345 167.02 142.458 167.62 142.685 168.1C142.912 168.567 143.218 168.92 143.605 169.16C144.005 169.387 144.458 169.5 144.965 169.5ZM155.597 171.74C154.37 171.74 153.444 171.393 152.817 170.7C152.19 169.993 151.877 168.907 151.877 167.44V160.9H154.497V167.08C154.497 167.88 154.65 168.487 154.957 168.9C155.277 169.3 155.81 169.5 156.557 169.5C157.09 169.5 157.517 169.387 157.837 169.16C158.17 168.933 158.417 168.64 158.577 168.28C158.737 167.92 158.817 167.52 158.817 167.08V160.9H161.457V171.5H159.017V169.92C158.764 170.413 158.357 170.84 157.797 171.2C157.25 171.56 156.517 171.74 155.597 171.74ZM167.952 171.74C167.085 171.74 166.358 171.653 165.772 171.48C165.185 171.293 164.698 171.047 164.312 170.74C163.938 170.42 163.658 170.06 163.472 169.66C163.298 169.26 163.192 168.84 163.152 168.4H165.792C165.858 168.747 166.065 169.033 166.412 169.26C166.758 169.473 167.272 169.58 167.952 169.58C168.725 169.58 169.278 169.473 169.612 169.26C169.945 169.047 170.112 168.773 170.112 168.44C170.112 168.2 170.038 168.007 169.892 167.86C169.745 167.7 169.485 167.567 169.112 167.46C168.738 167.34 168.212 167.22 167.532 167.1C166.945 167.02 166.405 166.913 165.912 166.78C165.418 166.633 164.985 166.433 164.612 166.18C164.252 165.927 163.965 165.613 163.752 165.24C163.552 164.853 163.452 164.387 163.452 163.84C163.452 163.253 163.625 162.72 163.972 162.24C164.332 161.76 164.845 161.38 165.512 161.1C166.192 160.807 167.005 160.66 167.952 160.66C168.978 160.66 169.798 160.82 170.412 161.14C171.025 161.46 171.485 161.873 171.792 162.38C172.098 162.887 172.285 163.427 172.352 164H169.712C169.605 163.613 169.398 163.32 169.092 163.12C168.785 162.92 168.405 162.82 167.952 162.82C167.285 162.82 166.805 162.927 166.512 163.14C166.232 163.34 166.092 163.593 166.092 163.9C166.092 164.22 166.245 164.467 166.552 164.64C166.872 164.813 167.518 164.967 168.492 165.1C169.092 165.18 169.645 165.3 170.152 165.46C170.672 165.607 171.125 165.807 171.512 166.06C171.898 166.313 172.198 166.633 172.412 167.02C172.638 167.393 172.752 167.853 172.752 168.4C172.752 169.053 172.572 169.633 172.212 170.14C171.865 170.633 171.332 171.027 170.612 171.32C169.905 171.6 169.018 171.74 167.952 171.74ZM179.648 171.5V157.5H185.028C186.295 157.5 187.341 157.693 188.168 158.08C188.995 158.453 189.608 158.987 190.008 159.68C190.408 160.36 190.608 161.167 190.608 162.1C190.608 163.033 190.408 163.847 190.008 164.54C189.608 165.22 188.995 165.753 188.168 166.14C187.341 166.513 186.295 166.7 185.028 166.7H182.628V171.5H179.648ZM182.628 164.22H184.728C185.795 164.22 186.541 164.04 186.968 163.68C187.408 163.32 187.628 162.793 187.628 162.1C187.628 161.42 187.408 160.9 186.968 160.54C186.541 160.167 185.795 159.98 184.728 159.98H182.628V164.22ZM192.349 171.5V160.9H194.749V162.48C194.896 162.173 195.096 161.887 195.349 161.62C195.602 161.353 195.916 161.127 196.289 160.94C196.662 160.753 197.076 160.66 197.529 160.66C197.782 160.66 197.996 160.673 198.169 160.7C198.356 160.727 198.476 160.753 198.529 160.78V163.12C198.396 163.067 198.222 163.02 198.009 162.98C197.809 162.927 197.536 162.9 197.189 162.9C196.656 162.9 196.222 163.013 195.889 163.24C195.569 163.467 195.336 163.767 195.189 164.14C195.042 164.5 194.969 164.893 194.969 165.32V171.5H192.349ZM204.527 171.74C203.567 171.74 202.68 171.547 201.867 171.16C201.067 170.76 200.427 170.153 199.947 169.34C199.467 168.527 199.227 167.513 199.227 166.3V165.9C199.227 164.753 199.467 163.793 199.947 163.02C200.427 162.233 201.067 161.647 201.867 161.26C202.68 160.86 203.567 160.66 204.527 160.66C205.5 160.66 206.387 160.86 207.187 161.26C207.987 161.647 208.627 162.233 209.107 163.02C209.587 163.793 209.827 164.753 209.827 165.9V166.3C209.827 167.487 209.587 168.487 209.107 169.3C208.627 170.113 207.987 170.727 207.187 171.14C206.387 171.54 205.5 171.74 204.527 171.74ZM204.527 169.5C205.033 169.5 205.48 169.387 205.867 169.16C206.267 168.92 206.58 168.56 206.807 168.08C207.033 167.6 207.147 167.007 207.147 166.3V165.9C207.147 165.247 207.033 164.7 206.807 164.26C206.58 163.82 206.267 163.487 205.867 163.26C205.48 163.02 205.033 162.9 204.527 162.9C204.02 162.9 203.567 163.02 203.167 163.26C202.78 163.487 202.473 163.82 202.247 164.26C202.02 164.7 201.907 165.247 201.907 165.9V166.3C201.907 167.02 202.02 167.62 202.247 168.1C202.473 168.567 202.78 168.92 203.167 169.16C203.567 169.387 204.02 169.5 204.527 169.5ZM215.519 171.74C214.599 171.74 213.799 171.54 213.119 171.14C212.452 170.74 211.932 170.14 211.559 169.34C211.199 168.527 211.019 167.513 211.019 166.3V165.9C211.019 164.753 211.199 163.793 211.559 163.02C211.932 162.247 212.459 161.66 213.139 161.26C213.819 160.86 214.612 160.66 215.519 160.66C216.252 160.66 216.892 160.82 217.439 161.14C217.999 161.447 218.445 161.86 218.779 162.38V157.5H221.399V171.5H218.959V169.94C218.692 170.42 218.272 170.84 217.699 171.2C217.125 171.56 216.399 171.74 215.519 171.74ZM216.139 169.5C216.672 169.5 217.132 169.4 217.519 169.2C217.919 169 218.225 168.693 218.439 168.28C218.665 167.853 218.779 167.327 218.779 166.7V165.5C218.779 164.913 218.665 164.433 218.439 164.06C218.212 163.673 217.892 163.387 217.479 163.2C217.079 163 216.632 162.9 216.139 162.9C215.419 162.9 214.832 163.153 214.379 163.66C213.925 164.153 213.699 164.9 213.699 165.9V166.3C213.699 167.393 213.932 168.2 214.399 168.72C214.865 169.24 215.445 169.5 216.139 169.5ZM227.263 171.74C226.037 171.74 225.11 171.393 224.483 170.7C223.857 169.993 223.543 168.907 223.543 167.44V160.9H226.163V167.08C226.163 167.88 226.317 168.487 226.623 168.9C226.943 169.3 227.477 169.5 228.223 169.5C228.757 169.5 229.183 169.387 229.503 169.16C229.837 168.933 230.083 168.64 230.243 168.28C230.403 167.92 230.483 167.52 230.483 167.08V160.9H233.123V171.5H230.683V169.92C230.43 170.413 230.023 170.84 229.463 171.2C228.917 171.56 228.183 171.74 227.263 171.74ZM240.018 171.74C239.045 171.74 238.165 171.54 237.378 171.14C236.591 170.727 235.965 170.12 235.498 169.32C235.045 168.507 234.818 167.5 234.818 166.3V165.9C234.818 164.753 235.058 163.793 235.538 163.02C236.018 162.247 236.651 161.66 237.438 161.26C238.225 160.86 239.085 160.66 240.018 160.66C241.018 160.66 241.865 160.827 242.558 161.16C243.251 161.493 243.785 161.953 244.158 162.54C244.545 163.127 244.765 163.773 244.818 164.48H242.138C242.031 164 241.811 163.62 241.478 163.34C241.158 163.047 240.671 162.9 240.018 162.9C239.565 162.9 239.145 163.007 238.758 163.22C238.385 163.433 238.078 163.76 237.838 164.2C237.611 164.64 237.498 165.207 237.498 165.9V166.3C237.498 167.047 237.605 167.66 237.818 168.14C238.045 168.607 238.345 168.953 238.718 169.18C239.105 169.393 239.538 169.5 240.018 169.5C240.538 169.5 240.985 169.367 241.358 169.1C241.745 168.82 242.005 168.427 242.138 167.92H244.818C244.738 168.68 244.485 169.353 244.058 169.94C243.631 170.527 243.065 170.973 242.358 171.28C241.665 171.587 240.885 171.74 240.018 171.74ZM250.707 171.62C249.88 171.62 249.2 171.507 248.667 171.28C248.134 171.04 247.74 170.66 247.487 170.14C247.247 169.62 247.127 168.947 247.127 168.12V163.1H245.707V160.9H247.127V158.5H249.747V160.9H252.307V163.1H249.747V167.7C249.747 168.3 249.854 168.733 250.067 169C250.294 169.253 250.707 169.38 251.307 169.38C251.707 169.38 252.107 169.36 252.507 169.32V171.52C252.254 171.547 251.987 171.567 251.707 171.58C251.44 171.607 251.107 171.62 250.707 171.62ZM258.515 171.74C257.648 171.74 256.922 171.653 256.335 171.48C255.748 171.293 255.262 171.047 254.875 170.74C254.502 170.42 254.222 170.06 254.035 169.66C253.862 169.26 253.755 168.84 253.715 168.4H256.355C256.422 168.747 256.628 169.033 256.975 169.26C257.322 169.473 257.835 169.58 258.515 169.58C259.288 169.58 259.842 169.473 260.175 169.26C260.508 169.047 260.675 168.773 260.675 168.44C260.675 168.2 260.602 168.007 260.455 167.86C260.308 167.7 260.048 167.567 259.675 167.46C259.302 167.34 258.775 167.22 258.095 167.1C257.508 167.02 256.968 166.913 256.475 166.78C255.982 166.633 255.548 166.433 255.175 166.18C254.815 165.927 254.528 165.613 254.315 165.24C254.115 164.853 254.015 164.387 254.015 163.84C254.015 163.253 254.188 162.72 254.535 162.24C254.895 161.76 255.408 161.38 256.075 161.1C256.755 160.807 257.568 160.66 258.515 160.66C259.542 160.66 260.362 160.82 260.975 161.14C261.588 161.46 262.048 161.873 262.355 162.38C262.662 162.887 262.848 163.427 262.915 164H260.275C260.168 163.613 259.962 163.32 259.655 163.12C259.348 162.92 258.968 162.82 258.515 162.82C257.848 162.82 257.368 162.927 257.075 163.14C256.795 163.34 256.655 163.593 256.655 163.9C256.655 164.22 256.808 164.467 257.115 164.64C257.435 164.813 258.082 164.967 259.055 165.1C259.655 165.18 260.208 165.3 260.715 165.46C261.235 165.607 261.688 165.807 262.075 166.06C262.462 166.313 262.762 166.633 262.975 167.02C263.202 167.393 263.315 167.853 263.315 168.4C263.315 169.053 263.135 169.633 262.775 170.14C262.428 170.633 261.895 171.027 261.175 171.32C260.468 171.6 259.582 171.74 258.515 171.74Z" fill="#333333"/>
</svg>
