<svg width="376" height="208" viewBox="0 0 376 208" fill="none" xmlns="http://www.w3.org/2000/svg">
<rect width="376" height="208" rx="20" fill="#D9CFB5"/>
<path d="M20.6 47V46.688C22.328 46.016 22.592 45.824 22.592 43.808V33.032C22.592 31.016 22.328 30.824 20.6 30.152V29.84H32.768L33.2 34.232H32.888C32.36 32.84 30.944 30.968 28.304 30.968H25.88V37.304H28.424C29.936 37.304 30.824 36.392 31.184 35.768H31.448V40.088H31.184C30.752 39.224 29.816 38.24 28.424 38.288L25.88 38.36V44.792C25.88 45.392 26.888 45.872 28.736 45.872H29.552C31.592 45.872 33.128 44 33.896 42.488H34.208L33.632 47H20.6ZM35.5236 47V46.688C36.8196 46.136 37.1316 45.896 37.1316 44.024V39.344C37.1316 37.112 36.7716 36.848 35.5236 36.224V35.936C37.0116 35.816 38.4756 35.552 39.9636 35.12V37.76C40.6116 36.752 41.9796 35.168 43.9236 35.168C45.3396 35.168 47.1396 36.032 47.1396 38.624V44.024C47.1396 45.896 47.4276 46.136 48.7236 46.688V47H42.6756V46.688C43.9476 46.136 44.2836 45.896 44.2836 44.024V39.656C44.2836 37.832 43.4436 37.136 42.4596 37.136C41.4036 37.136 40.5396 38.072 40.0356 38.792V44.024C40.0356 45.896 40.2996 46.136 41.5476 46.688V47H35.5236ZM53.7797 47.24C51.4037 47.24 49.1717 45.104 49.1717 41.36C49.1717 37.64 51.3797 35.168 54.0677 35.168C55.5077 35.168 56.8037 35.888 57.4517 36.464V31.88C57.4517 30.92 57.0437 30.224 55.8677 29.768V29.528C57.3557 29.432 58.8677 29.168 60.3557 28.712V44.624C60.3557 45.68 60.7157 45.848 61.9397 46.304V46.52L57.5237 47.24V45.056H57.4997C56.7797 46.208 55.4117 47.24 53.7797 47.24ZM54.9077 45.704C55.8197 45.704 56.7317 45.032 57.4517 44.048V39.776C56.9477 38.192 55.8917 36.248 54.3797 36.248C52.7477 36.248 52.1717 38.48 52.1717 40.592C52.1717 43.424 53.2277 45.704 54.9077 45.704ZM62.6534 41.312V39.992H69.6374V41.312H62.6534ZM74.9712 47.216C73.3872 47.216 71.9472 46.208 71.9472 43.976V36.488H70.7712V35.792C71.9712 35 73.7232 33.68 74.4672 32.336H74.8272V35.456H77.9232L77.7312 36.488H74.8512L74.8032 43.16C74.7792 45.056 75.6912 45.488 76.4832 45.488C77.0112 45.488 77.5632 45.296 78.0432 44.864L78.2592 45.128C77.4912 46.376 76.4832 47.216 74.9712 47.216ZM84.1301 47.24C80.6741 47.24 78.3701 44.864 78.3701 41.336C78.3701 37.928 80.5301 35.168 84.2261 35.168C87.6581 35.168 89.9861 37.544 89.9861 41.12C89.9861 44.528 87.8261 47.24 84.1301 47.24ZM84.6581 46.304C85.8821 46.304 87.0101 45.176 87.0101 42.608C87.0101 40.256 86.0741 36.104 83.7221 36.104C82.4981 36.104 81.3461 37.232 81.3461 39.824C81.3461 42.152 82.2821 46.304 84.6581 46.304ZM91.4534 41.312V39.992H98.4374V41.312H91.4534ZM99.2922 47V46.688C101.02 46.016 101.284 45.824 101.284 43.808V33.032C101.284 31.016 101.02 30.824 99.2922 30.152V29.84H111.46L111.892 34.232H111.58C111.052 32.84 109.636 30.968 106.996 30.968H104.572V37.304H107.116C108.628 37.304 109.516 36.392 109.876 35.768H110.14V40.088H109.876C109.444 39.224 108.508 38.24 107.116 38.288L104.572 38.36V44.792C104.572 45.392 105.58 45.872 107.428 45.872H108.244C110.284 45.872 111.82 44 112.588 42.488H112.9L112.324 47H99.2922ZM114.216 47V46.688C115.512 46.136 115.824 45.896 115.824 44.024V39.344C115.824 37.112 115.464 36.848 114.216 36.224V35.936C115.704 35.816 117.168 35.552 118.656 35.12V37.76C119.304 36.752 120.672 35.168 122.616 35.168C124.032 35.168 125.832 36.032 125.832 38.624V44.024C125.832 45.896 126.12 46.136 127.416 46.688V47H121.368V46.688C122.64 46.136 122.976 45.896 122.976 44.024V39.656C122.976 37.832 122.136 37.136 121.152 37.136C120.096 37.136 119.232 38.072 118.728 38.792V44.024C118.728 45.896 118.992 46.136 120.24 46.688V47H114.216ZM132.472 47.24C130.096 47.24 127.864 45.104 127.864 41.36C127.864 37.64 130.072 35.168 132.76 35.168C134.2 35.168 135.496 35.888 136.144 36.464V31.88C136.144 30.92 135.736 30.224 134.56 29.768V29.528C136.048 29.432 137.56 29.168 139.048 28.712V44.624C139.048 45.68 139.408 45.848 140.632 46.304V46.52L136.216 47.24V45.056H136.192C135.472 46.208 134.104 47.24 132.472 47.24ZM133.6 45.704C134.512 45.704 135.424 45.032 136.144 44.048V39.776C135.64 38.192 134.584 36.248 133.072 36.248C131.44 36.248 130.864 38.48 130.864 40.592C130.864 43.424 131.92 45.704 133.6 45.704ZM152.544 47.312C150.672 47.312 148.512 46.448 147.24 45.776L146.952 41.312H147.264C148.272 43.4 150.192 46.136 152.52 46.136C153.888 46.136 154.92 45.176 154.92 43.664C154.92 41.792 153.312 40.664 151.512 39.56C149.016 38.024 147.192 36.896 147.192 34.184C147.192 31.184 149.424 29.528 152.112 29.528C153.624 29.528 155.304 30.056 156.384 30.488L156.864 34.808H156.552C155.664 33.032 153.96 30.656 151.968 30.656C150.816 30.656 149.808 31.472 149.808 32.984C149.808 34.448 150.744 35.168 153.096 36.608C155.712 38.216 157.656 39.392 157.656 42.368C157.656 45.896 154.92 47.312 152.544 47.312ZM165.002 47.24C161.546 47.24 159.242 44.864 159.242 41.336C159.242 37.928 161.402 35.168 165.098 35.168C168.53 35.168 170.858 37.544 170.858 41.12C170.858 44.528 168.698 47.24 165.002 47.24ZM165.53 46.304C166.754 46.304 167.882 45.176 167.882 42.608C167.882 40.256 166.946 36.104 164.594 36.104C163.37 36.104 162.218 37.232 162.218 39.824C162.218 42.152 163.154 46.304 165.53 46.304ZM171.396 47V46.688C172.692 46.136 173.004 45.896 173.004 44.024V32.96C173.004 30.584 172.572 30.44 171.396 29.84V29.528C172.884 29.432 174.42 29.168 175.908 28.712V44.024C175.908 45.896 176.196 46.136 177.492 46.688V47H171.396ZM186.365 47.336V44.816C185.765 45.704 184.349 47.312 182.333 47.312C180.869 47.312 179.069 46.448 179.069 43.856V39.368C179.069 37.4 178.925 36.92 177.605 36.248V35.936C179.021 35.816 180.533 35.576 181.973 35.12C181.973 37.736 181.925 40.256 181.925 42.872C181.925 44.648 182.789 45.32 183.773 45.32C184.853 45.32 185.789 44.456 186.293 43.88V39.368C186.293 37.424 186.221 36.968 184.829 36.248V35.936C186.245 35.84 187.757 35.576 189.197 35.144V44.048C189.197 45.656 189.485 45.824 190.781 46.208V46.52L186.365 47.336ZM195.165 47.216C193.581 47.216 192.141 46.208 192.141 43.976V36.488H190.965V35.792C192.165 35 193.917 33.68 194.661 32.336H195.021V35.456H198.117L197.925 36.488H195.045L194.997 43.16C194.973 45.056 195.885 45.488 196.677 45.488C197.205 45.488 197.757 45.296 198.237 44.864L198.453 45.128C197.685 46.376 196.677 47.216 195.165 47.216ZM198.649 47V46.688C199.945 46.136 200.257 45.896 200.257 44.024V39.368C200.257 36.992 199.825 36.848 198.649 36.248V35.936C200.137 35.816 201.673 35.576 203.161 35.12V44.024C203.161 45.896 203.449 46.136 204.745 46.688V47H198.649ZM201.409 33.464C200.497 33.464 199.729 32.72 199.729 31.856C199.729 31.016 200.497 30.272 201.409 30.272C202.297 30.272 203.089 31.016 203.089 31.856C203.089 32.72 202.297 33.464 201.409 33.464ZM210.979 47.24C207.523 47.24 205.219 44.864 205.219 41.336C205.219 37.928 207.379 35.168 211.075 35.168C214.507 35.168 216.835 37.544 216.835 41.12C216.835 44.528 214.675 47.24 210.979 47.24ZM211.507 46.304C212.731 46.304 213.859 45.176 213.859 42.608C213.859 40.256 212.923 36.104 210.571 36.104C209.347 36.104 208.195 37.232 208.195 39.824C208.195 42.152 209.131 46.304 211.507 46.304ZM217.466 47V46.688C218.762 46.136 219.074 45.896 219.074 44.024V39.344C219.074 37.112 218.714 36.848 217.466 36.224V35.936C218.954 35.816 220.418 35.552 221.906 35.12V37.76C222.554 36.752 223.922 35.168 225.866 35.168C227.282 35.168 229.082 36.032 229.082 38.624V44.024C229.082 45.896 229.37 46.136 230.666 46.688V47H224.618V46.688C225.89 46.136 226.226 45.896 226.226 44.024V39.656C226.226 37.832 225.386 37.136 224.402 37.136C223.346 37.136 222.482 38.072 221.978 38.792V44.024C221.978 45.896 222.242 46.136 223.49 46.688V47H217.466ZM235.907 47.288C234.371 47.288 232.811 46.76 231.875 46.352L231.539 42.992L231.803 42.92C232.883 44.504 234.395 46.376 235.907 46.376C236.675 46.376 237.395 45.896 237.395 44.96C237.395 43.832 236.363 43.136 234.851 42.344C233.291 41.528 231.515 40.592 231.515 38.408C231.515 36.152 233.411 35.144 235.355 35.144C236.531 35.144 237.899 35.528 238.883 35.888L239.147 39.032L238.859 39.104C237.947 37.688 236.531 36.08 235.355 36.08C234.659 36.08 233.963 36.536 233.963 37.496C233.963 38.768 235.259 39.296 236.531 39.968C238.307 40.904 239.891 41.888 239.891 43.928C239.891 45.992 238.307 47.288 235.907 47.288Z" fill="#333333"/>
<rect x="20.5" y="93.5" width="89" height="39" rx="19.5" fill="#E5DFCD"/>
<rect x="20.5" y="93.5" width="89" height="39" rx="19.5" stroke="#999999" stroke-dasharray="7 7"/>
<path d="M33.62 120.5V106.5H38.48C39.8933 106.5 41.1 106.753 42.1 107.26C43.1 107.767 43.86 108.52 44.38 109.52C44.9133 110.507 45.18 111.733 45.18 113.2V113.6C45.18 115.093 44.9067 116.353 44.36 117.38C43.8133 118.407 43.02 119.187 41.98 119.72C40.9533 120.24 39.72 120.5 38.28 120.5H33.62ZM36.6 118.02H38.08C38.8133 118.02 39.48 117.88 40.08 117.6C40.68 117.32 41.16 116.86 41.52 116.22C41.8933 115.567 42.08 114.693 42.08 113.6V113.2C42.08 112.16 41.9133 111.333 41.58 110.72C41.2467 110.093 40.7867 109.647 40.2 109.38C39.6267 109.113 38.9867 108.98 38.28 108.98H36.6V118.02ZM51.9992 120.74C51.0392 120.74 50.1526 120.547 49.3392 120.16C48.5392 119.76 47.8992 119.16 47.4192 118.36C46.9392 117.547 46.6992 116.527 46.6992 115.3V114.9C46.6992 113.727 46.9259 112.753 47.3792 111.98C47.8459 111.207 48.4659 110.627 49.2392 110.24C50.0126 109.853 50.8659 109.66 51.7992 109.66C53.4659 109.66 54.7326 110.1 55.5992 110.98C56.4659 111.86 56.8992 113.133 56.8992 114.8V115.92H49.3992C49.4259 116.547 49.5592 117.06 49.7992 117.46C50.0526 117.847 50.3726 118.133 50.7592 118.32C51.1459 118.493 51.5592 118.58 51.9992 118.58C52.6792 118.58 53.1926 118.48 53.5392 118.28C53.8859 118.08 54.1326 117.787 54.2792 117.4H56.6992C56.4859 118.507 55.9592 119.34 55.1192 119.9C54.2792 120.46 53.2392 120.74 51.9992 120.74ZM51.8992 111.82C51.4859 111.82 51.0859 111.887 50.6992 112.02C50.3126 112.153 50.0059 112.393 49.7792 112.74C49.5526 113.073 49.4259 113.52 49.3992 114.08H54.3392C54.3259 113.48 54.2059 113.02 53.9792 112.7C53.7659 112.367 53.4792 112.14 53.1192 112.02C52.7592 111.887 52.3526 111.82 51.8992 111.82ZM62.9008 120.74C62.0341 120.74 61.3074 120.653 60.7208 120.48C60.1341 120.293 59.6474 120.047 59.2608 119.74C58.8874 119.42 58.6074 119.06 58.4208 118.66C58.2474 118.26 58.1408 117.84 58.1008 117.4H60.7408C60.8074 117.747 61.0141 118.033 61.3608 118.26C61.7074 118.473 62.2208 118.58 62.9008 118.58C63.6741 118.58 64.2274 118.473 64.5608 118.26C64.8941 118.047 65.0608 117.773 65.0608 117.44C65.0608 117.2 64.9874 117.007 64.8408 116.86C64.6941 116.7 64.4341 116.567 64.0608 116.46C63.6874 116.34 63.1608 116.22 62.4808 116.1C61.8941 116.02 61.3541 115.913 60.8608 115.78C60.3674 115.633 59.9341 115.433 59.5608 115.18C59.2008 114.927 58.9141 114.613 58.7008 114.24C58.5008 113.853 58.4008 113.387 58.4008 112.84C58.4008 112.253 58.5741 111.72 58.9208 111.24C59.2808 110.76 59.7941 110.38 60.4608 110.1C61.1408 109.807 61.9541 109.66 62.9008 109.66C63.9274 109.66 64.7474 109.82 65.3608 110.14C65.9741 110.46 66.4341 110.873 66.7408 111.38C67.0474 111.887 67.2341 112.427 67.3008 113H64.6608C64.5541 112.613 64.3474 112.32 64.0408 112.12C63.7341 111.92 63.3541 111.82 62.9008 111.82C62.2341 111.82 61.7541 111.927 61.4608 112.14C61.1808 112.34 61.0408 112.593 61.0408 112.9C61.0408 113.22 61.1941 113.467 61.5008 113.64C61.8208 113.813 62.4674 113.967 63.4408 114.1C64.0408 114.18 64.5941 114.3 65.1008 114.46C65.6208 114.607 66.0741 114.807 66.4608 115.06C66.8474 115.313 67.1474 115.633 67.3608 116.02C67.5874 116.393 67.7008 116.853 67.7008 117.4C67.7008 118.053 67.5208 118.633 67.1608 119.14C66.8141 119.633 66.2808 120.027 65.5608 120.32C64.8541 120.6 63.9674 120.74 62.9008 120.74ZM69.5973 120.5V109.9H72.2173V120.5H69.5973ZM70.8973 108.88C70.4307 108.88 70.044 108.733 69.7373 108.44C69.444 108.147 69.2973 107.767 69.2973 107.3C69.2973 106.833 69.444 106.453 69.7373 106.16C70.044 105.867 70.424 105.72 70.8773 105.72C71.3573 105.72 71.744 105.867 72.0373 106.16C72.344 106.453 72.4973 106.833 72.4973 107.3C72.4973 107.767 72.344 108.147 72.0373 108.44C71.744 108.733 71.364 108.88 70.8973 108.88ZM79.207 124.74C78.087 124.74 77.1937 124.6 76.527 124.32C75.8604 124.053 75.367 123.68 75.047 123.2C74.7404 122.72 74.5604 122.153 74.507 121.5H77.187C77.267 121.78 77.447 122.04 77.727 122.28C78.007 122.533 78.5004 122.66 79.207 122.66C80.1004 122.66 80.767 122.447 81.207 122.02C81.647 121.593 81.867 120.953 81.867 120.1V118.82C81.5337 119.34 81.087 119.76 80.527 120.08C79.967 120.387 79.327 120.54 78.607 120.54C77.687 120.54 76.887 120.34 76.207 119.94C75.5404 119.54 75.0204 118.947 74.647 118.16C74.287 117.36 74.107 116.373 74.107 115.2V114.8C74.107 113.693 74.287 112.76 74.647 112C75.0204 111.24 75.547 110.66 76.227 110.26C76.907 109.86 77.7004 109.66 78.607 109.66C79.487 109.66 80.2137 109.84 80.787 110.2C81.3604 110.56 81.7804 110.98 82.047 111.46V109.9H84.487V119.9C84.487 121.473 84.0537 122.673 83.187 123.5C82.3204 124.327 80.9937 124.74 79.207 124.74ZM79.227 118.3C79.7604 118.3 80.2204 118.207 80.607 118.02C81.007 117.82 81.3137 117.513 81.527 117.1C81.7537 116.687 81.867 116.187 81.867 115.6V114.4C81.867 113.84 81.7537 113.38 81.527 113.02C81.3004 112.66 80.9804 112.387 80.567 112.2C80.167 112 79.7204 111.9 79.227 111.9C78.507 111.9 77.9204 112.147 77.467 112.64C77.0137 113.12 76.787 113.84 76.787 114.8V115.2C76.787 116.227 77.0204 117 77.487 117.52C77.9537 118.04 78.5337 118.3 79.227 118.3ZM86.7317 120.5V109.9H89.1317V111.46C89.3984 110.98 89.8117 110.56 90.3717 110.2C90.9317 109.84 91.6984 109.66 92.6717 109.66C93.9651 109.66 94.9251 110.007 95.5517 110.7C96.1917 111.393 96.5117 112.393 96.5117 113.7V120.5H93.8717V114.3C93.8717 113.513 93.7051 112.92 93.3717 112.52C93.0517 112.107 92.4984 111.9 91.7117 111.9C91.1517 111.9 90.6984 112.013 90.3517 112.24C90.0051 112.467 89.7517 112.76 89.5917 113.12C89.4317 113.48 89.3517 113.873 89.3517 114.3V120.5H86.7317Z" fill="#333333"/>
<rect x="121.5" y="93.5" width="161" height="39" rx="19.5" fill="#E5DFCD"/>
<rect x="121.5" y="93.5" width="161" height="39" rx="19.5" stroke="#999999" stroke-dasharray="7 7"/>
<path d="M140.3 120.74C139.087 120.74 138 120.5 137.04 120.02C136.093 119.527 135.347 118.76 134.8 117.72C134.267 116.667 134 115.293 134 113.6V113.2C134 111.973 134.16 110.927 134.48 110.06C134.8 109.18 135.247 108.46 135.82 107.9C136.407 107.34 137.08 106.927 137.84 106.66C138.6 106.393 139.42 106.26 140.3 106.26C141.087 106.26 141.82 106.36 142.5 106.56C143.193 106.747 143.807 107.033 144.34 107.42C144.873 107.807 145.3 108.307 145.62 108.92C145.953 109.533 146.147 110.253 146.2 111.08H143.08C142.933 110.293 142.613 109.713 142.12 109.34C141.627 108.967 141.02 108.78 140.3 108.78C139.74 108.78 139.22 108.92 138.74 109.2C138.26 109.467 137.867 109.92 137.56 110.56C137.267 111.2 137.12 112.08 137.12 113.2V113.6C137.12 114.48 137.213 115.22 137.4 115.82C137.587 116.407 137.833 116.88 138.14 117.24C138.447 117.587 138.787 117.84 139.16 118C139.533 118.147 139.913 118.22 140.3 118.22C141.06 118.22 141.687 118.027 142.18 117.64C142.673 117.24 142.973 116.667 143.08 115.92H146.2C146.133 116.787 145.94 117.533 145.62 118.16C145.3 118.773 144.88 119.273 144.36 119.66C143.84 120.033 143.233 120.307 142.54 120.48C141.847 120.653 141.1 120.74 140.3 120.74ZM151.624 120.74C150.398 120.74 149.471 120.393 148.844 119.7C148.218 118.993 147.904 117.907 147.904 116.44V109.9H150.524V116.08C150.524 116.88 150.678 117.487 150.984 117.9C151.304 118.3 151.838 118.5 152.584 118.5C153.118 118.5 153.544 118.387 153.864 118.16C154.198 117.933 154.444 117.64 154.604 117.28C154.764 116.92 154.844 116.52 154.844 116.08V109.9H157.484V120.5H155.044V118.92C154.791 119.413 154.384 119.84 153.824 120.2C153.278 120.56 152.544 120.74 151.624 120.74ZM163.979 120.74C163.112 120.74 162.386 120.653 161.799 120.48C161.212 120.293 160.726 120.047 160.339 119.74C159.966 119.42 159.686 119.06 159.499 118.66C159.326 118.26 159.219 117.84 159.179 117.4H161.819C161.886 117.747 162.092 118.033 162.439 118.26C162.786 118.473 163.299 118.58 163.979 118.58C164.752 118.58 165.306 118.473 165.639 118.26C165.972 118.047 166.139 117.773 166.139 117.44C166.139 117.2 166.066 117.007 165.919 116.86C165.772 116.7 165.512 116.567 165.139 116.46C164.766 116.34 164.239 116.22 163.559 116.1C162.972 116.02 162.432 115.913 161.939 115.78C161.446 115.633 161.012 115.433 160.639 115.18C160.279 114.927 159.992 114.613 159.779 114.24C159.579 113.853 159.479 113.387 159.479 112.84C159.479 112.253 159.652 111.72 159.999 111.24C160.359 110.76 160.872 110.38 161.539 110.1C162.219 109.807 163.032 109.66 163.979 109.66C165.006 109.66 165.826 109.82 166.439 110.14C167.052 110.46 167.512 110.873 167.819 111.38C168.126 111.887 168.312 112.427 168.379 113H165.739C165.632 112.613 165.426 112.32 165.119 112.12C164.812 111.92 164.432 111.82 163.979 111.82C163.312 111.82 162.832 111.927 162.539 112.14C162.259 112.34 162.119 112.593 162.119 112.9C162.119 113.22 162.272 113.467 162.579 113.64C162.899 113.813 163.546 113.967 164.519 114.1C165.119 114.18 165.672 114.3 166.179 114.46C166.699 114.607 167.152 114.807 167.539 115.06C167.926 115.313 168.226 115.633 168.439 116.02C168.666 116.393 168.779 116.853 168.779 117.4C168.779 118.053 168.599 118.633 168.239 119.14C167.892 119.633 167.359 120.027 166.639 120.32C165.932 120.6 165.046 120.74 163.979 120.74ZM174.755 120.62C173.929 120.62 173.249 120.507 172.715 120.28C172.182 120.04 171.789 119.66 171.535 119.14C171.295 118.62 171.175 117.947 171.175 117.12V112.1H169.755V109.9H171.175V107.5H173.795V109.9H176.355V112.1H173.795V116.7C173.795 117.3 173.902 117.733 174.115 118C174.342 118.253 174.755 118.38 175.355 118.38C175.755 118.38 176.155 118.36 176.555 118.32V120.52C176.302 120.547 176.035 120.567 175.755 120.58C175.489 120.607 175.155 120.62 174.755 120.62ZM182.966 120.74C182.006 120.74 181.119 120.547 180.306 120.16C179.506 119.76 178.866 119.153 178.386 118.34C177.906 117.527 177.666 116.513 177.666 115.3V114.9C177.666 113.753 177.906 112.793 178.386 112.02C178.866 111.233 179.506 110.647 180.306 110.26C181.119 109.86 182.006 109.66 182.966 109.66C183.939 109.66 184.826 109.86 185.626 110.26C186.426 110.647 187.066 111.233 187.546 112.02C188.026 112.793 188.266 113.753 188.266 114.9V115.3C188.266 116.487 188.026 117.487 187.546 118.3C187.066 119.113 186.426 119.727 185.626 120.14C184.826 120.54 183.939 120.74 182.966 120.74ZM182.966 118.5C183.472 118.5 183.919 118.387 184.306 118.16C184.706 117.92 185.019 117.56 185.246 117.08C185.472 116.6 185.586 116.007 185.586 115.3V114.9C185.586 114.247 185.472 113.7 185.246 113.26C185.019 112.82 184.706 112.487 184.306 112.26C183.919 112.02 183.472 111.9 182.966 111.9C182.459 111.9 182.006 112.02 181.606 112.26C181.219 112.487 180.912 112.82 180.686 113.26C180.459 113.7 180.346 114.247 180.346 114.9V115.3C180.346 116.02 180.459 116.62 180.686 117.1C180.912 117.567 181.219 117.92 181.606 118.16C182.006 118.387 182.459 118.5 182.966 118.5ZM189.978 120.5V109.9H192.378V111.48C192.618 111.013 193.004 110.593 193.538 110.22C194.084 109.847 194.711 109.66 195.418 109.66C196.271 109.66 196.938 109.833 197.418 110.18C197.911 110.527 198.258 110.987 198.458 111.56C198.751 111 199.171 110.547 199.718 110.2C200.278 109.84 200.938 109.66 201.698 109.66C202.818 109.66 203.671 109.987 204.258 110.64C204.858 111.293 205.158 112.28 205.158 113.6V120.5H202.518V114.2C202.518 113.36 202.378 112.767 202.098 112.42C201.831 112.073 201.398 111.9 200.798 111.9C200.451 111.9 200.131 111.993 199.838 112.18C199.544 112.353 199.304 112.613 199.118 112.96C198.944 113.307 198.858 113.72 198.858 114.2V120.5H196.238V114.2C196.238 113.36 196.098 112.767 195.818 112.42C195.551 112.073 195.118 111.9 194.518 111.9C194.171 111.9 193.844 111.993 193.538 112.18C193.244 112.353 193.011 112.613 192.838 112.96C192.678 113.307 192.598 113.72 192.598 114.2V120.5H189.978ZM207.478 120.5V109.9H210.098V120.5H207.478ZM208.778 108.88C208.311 108.88 207.924 108.733 207.618 108.44C207.324 108.147 207.178 107.767 207.178 107.3C207.178 106.833 207.324 106.453 207.618 106.16C207.924 105.867 208.304 105.72 208.758 105.72C209.238 105.72 209.624 105.867 209.918 106.16C210.224 106.453 210.378 106.833 210.378 107.3C210.378 107.767 210.224 108.147 209.918 108.44C209.624 108.733 209.244 108.88 208.778 108.88ZM216.787 120.74C215.921 120.74 215.194 120.653 214.607 120.48C214.021 120.293 213.534 120.047 213.147 119.74C212.774 119.42 212.494 119.06 212.307 118.66C212.134 118.26 212.027 117.84 211.987 117.4H214.627C214.694 117.747 214.901 118.033 215.247 118.26C215.594 118.473 216.107 118.58 216.787 118.58C217.561 118.58 218.114 118.473 218.447 118.26C218.781 118.047 218.947 117.773 218.947 117.44C218.947 117.2 218.874 117.007 218.727 116.86C218.581 116.7 218.321 116.567 217.947 116.46C217.574 116.34 217.047 116.22 216.367 116.1C215.781 116.02 215.241 115.913 214.747 115.78C214.254 115.633 213.821 115.433 213.447 115.18C213.087 114.927 212.801 114.613 212.587 114.24C212.387 113.853 212.287 113.387 212.287 112.84C212.287 112.253 212.461 111.72 212.807 111.24C213.167 110.76 213.681 110.38 214.347 110.1C215.027 109.807 215.841 109.66 216.787 109.66C217.814 109.66 218.634 109.82 219.247 110.14C219.861 110.46 220.321 110.873 220.627 111.38C220.934 111.887 221.121 112.427 221.187 113H218.547C218.441 112.613 218.234 112.32 217.927 112.12C217.621 111.92 217.241 111.82 216.787 111.82C216.121 111.82 215.641 111.927 215.347 112.14C215.067 112.34 214.927 112.593 214.927 112.9C214.927 113.22 215.081 113.467 215.387 113.64C215.707 113.813 216.354 113.967 217.327 114.1C217.927 114.18 218.481 114.3 218.987 114.46C219.507 114.607 219.961 114.807 220.347 115.06C220.734 115.313 221.034 115.633 221.247 116.02C221.474 116.393 221.587 116.853 221.587 117.4C221.587 118.053 221.407 118.633 221.047 119.14C220.701 119.633 220.167 120.027 219.447 120.32C218.741 120.6 217.854 120.74 216.787 120.74ZM226.444 120.74C225.684 120.74 225.037 120.6 224.504 120.32C223.971 120.027 223.564 119.627 223.284 119.12C223.004 118.613 222.864 118.04 222.864 117.4C222.864 116.333 223.177 115.533 223.804 115C224.444 114.467 225.397 114.2 226.664 114.2H229.824V113.7C229.824 113.007 229.664 112.52 229.344 112.24C229.037 111.96 228.544 111.82 227.864 111.82C227.264 111.82 226.831 111.927 226.564 112.14C226.297 112.34 226.144 112.593 226.104 112.9H223.464C223.504 112.287 223.697 111.74 224.044 111.26C224.404 110.767 224.911 110.38 225.564 110.1C226.231 109.807 227.031 109.66 227.964 109.66C228.871 109.66 229.657 109.793 230.324 110.06C231.004 110.327 231.531 110.76 231.904 111.36C232.277 111.947 232.464 112.74 232.464 113.74V117.8C232.464 118.36 232.471 118.853 232.484 119.28C232.511 119.693 232.551 120.1 232.604 120.5H230.144C230.091 120.207 230.057 119.987 230.044 119.84C230.044 119.68 230.044 119.447 230.044 119.14C229.764 119.567 229.324 119.94 228.724 120.26C228.124 120.58 227.364 120.74 226.444 120.74ZM227.264 118.7C227.691 118.7 228.097 118.627 228.484 118.48C228.884 118.32 229.204 118.08 229.444 117.76C229.697 117.427 229.824 117.007 229.824 116.5V116H227.164C226.657 116 226.257 116.12 225.964 116.36C225.684 116.587 225.544 116.9 225.544 117.3C225.544 117.727 225.691 118.067 225.984 118.32C226.277 118.573 226.704 118.7 227.264 118.7ZM238.887 120.62C238.061 120.62 237.381 120.507 236.847 120.28C236.314 120.04 235.921 119.66 235.667 119.14C235.427 118.62 235.307 117.947 235.307 117.12V112.1H233.887V109.9H235.307V107.5H237.927V109.9H240.487V112.1H237.927V116.7C237.927 117.3 238.034 117.733 238.247 118C238.474 118.253 238.887 118.38 239.487 118.38C239.887 118.38 240.287 118.36 240.687 118.32V120.52C240.434 120.547 240.167 120.567 239.887 120.58C239.621 120.607 239.287 120.62 238.887 120.62ZM242.615 120.5V109.9H245.235V120.5H242.615ZM243.915 108.88C243.449 108.88 243.062 108.733 242.755 108.44C242.462 108.147 242.315 107.767 242.315 107.3C242.315 106.833 242.462 106.453 242.755 106.16C243.062 105.867 243.442 105.72 243.895 105.72C244.375 105.72 244.762 105.867 245.055 106.16C245.362 106.453 245.515 106.833 245.515 107.3C245.515 107.767 245.362 108.147 245.055 108.44C244.762 108.733 244.382 108.88 243.915 108.88ZM252.425 120.74C251.465 120.74 250.578 120.547 249.765 120.16C248.965 119.76 248.325 119.153 247.845 118.34C247.365 117.527 247.125 116.513 247.125 115.3V114.9C247.125 113.753 247.365 112.793 247.845 112.02C248.325 111.233 248.965 110.647 249.765 110.26C250.578 109.86 251.465 109.66 252.425 109.66C253.398 109.66 254.285 109.86 255.085 110.26C255.885 110.647 256.525 111.233 257.005 112.02C257.485 112.793 257.725 113.753 257.725 114.9V115.3C257.725 116.487 257.485 117.487 257.005 118.3C256.525 119.113 255.885 119.727 255.085 120.14C254.285 120.54 253.398 120.74 252.425 120.74ZM252.425 118.5C252.932 118.5 253.378 118.387 253.765 118.16C254.165 117.92 254.478 117.56 254.705 117.08C254.932 116.6 255.045 116.007 255.045 115.3V114.9C255.045 114.247 254.932 113.7 254.705 113.26C254.478 112.82 254.165 112.487 253.765 112.26C253.378 112.02 252.932 111.9 252.425 111.9C251.918 111.9 251.465 112.02 251.065 112.26C250.678 112.487 250.372 112.82 250.145 113.26C249.918 113.7 249.805 114.247 249.805 114.9V115.3C249.805 116.02 249.918 116.62 250.145 117.1C250.372 117.567 250.678 117.92 251.065 118.16C251.465 118.387 251.918 118.5 252.425 118.5ZM259.437 120.5V109.9H261.837V111.46C262.104 110.98 262.517 110.56 263.077 110.2C263.637 109.84 264.404 109.66 265.377 109.66C266.671 109.66 267.631 110.007 268.257 110.7C268.897 111.393 269.217 112.393 269.217 113.7V120.5H266.577V114.3C266.577 113.513 266.411 112.92 266.077 112.52C265.757 112.107 265.204 111.9 264.417 111.9C263.857 111.9 263.404 112.013 263.057 112.24C262.711 112.467 262.457 112.76 262.297 113.12C262.137 113.48 262.057 113.873 262.057 114.3V120.5H259.437Z" fill="#333333"/>
<rect x="20.5" y="144.5" width="123" height="39" rx="19.5" fill="#E5DFCD"/>
<rect x="20.5" y="144.5" width="123" height="39" rx="19.5" stroke="#999999" stroke-dasharray="7 7"/>
<path d="M33.62 171.5V157.5H39C40.2667 157.5 41.3133 157.693 42.14 158.08C42.9667 158.453 43.58 158.987 43.98 159.68C44.38 160.36 44.58 161.167 44.58 162.1C44.58 163.033 44.38 163.847 43.98 164.54C43.58 165.22 42.9667 165.753 42.14 166.14C41.3133 166.513 40.2667 166.7 39 166.7H36.6V171.5H33.62ZM36.6 164.22H38.7C39.7667 164.22 40.5133 164.04 40.94 163.68C41.38 163.32 41.6 162.793 41.6 162.1C41.6 161.42 41.38 160.9 40.94 160.54C40.5133 160.167 39.7667 159.98 38.7 159.98H36.6V164.22ZM49.0706 171.74C48.3106 171.74 47.664 171.6 47.1306 171.32C46.5973 171.027 46.1906 170.627 45.9106 170.12C45.6306 169.613 45.4906 169.04 45.4906 168.4C45.4906 167.333 45.804 166.533 46.4306 166C47.0706 165.467 48.024 165.2 49.2906 165.2H52.4506V164.7C52.4506 164.007 52.2906 163.52 51.9706 163.24C51.664 162.96 51.1706 162.82 50.4906 162.82C49.8906 162.82 49.4573 162.927 49.1906 163.14C48.924 163.34 48.7706 163.593 48.7306 163.9H46.0906C46.1306 163.287 46.324 162.74 46.6706 162.26C47.0306 161.767 47.5373 161.38 48.1906 161.1C48.8573 160.807 49.6573 160.66 50.5906 160.66C51.4973 160.66 52.284 160.793 52.9506 161.06C53.6306 161.327 54.1573 161.76 54.5306 162.36C54.904 162.947 55.0906 163.74 55.0906 164.74V168.8C55.0906 169.36 55.0973 169.853 55.1106 170.28C55.1373 170.693 55.1773 171.1 55.2306 171.5H52.7706C52.7173 171.207 52.684 170.987 52.6706 170.84C52.6706 170.68 52.6706 170.447 52.6706 170.14C52.3906 170.567 51.9506 170.94 51.3506 171.26C50.7506 171.58 49.9906 171.74 49.0706 171.74ZM49.8906 169.7C50.3173 169.7 50.724 169.627 51.1106 169.48C51.5106 169.32 51.8306 169.08 52.0706 168.76C52.324 168.427 52.4506 168.007 52.4506 167.5V167H49.7906C49.284 167 48.884 167.12 48.5906 167.36C48.3106 167.587 48.1706 167.9 48.1706 168.3C48.1706 168.727 48.3173 169.067 48.6106 169.32C48.904 169.573 49.3306 169.7 49.8906 169.7ZM61.8945 171.74C60.9212 171.74 60.0412 171.54 59.2545 171.14C58.4679 170.727 57.8412 170.12 57.3745 169.32C56.9212 168.507 56.6945 167.5 56.6945 166.3V165.9C56.6945 164.753 56.9345 163.793 57.4145 163.02C57.8945 162.247 58.5279 161.66 59.3145 161.26C60.1012 160.86 60.9612 160.66 61.8945 160.66C62.8945 160.66 63.7412 160.827 64.4345 161.16C65.1279 161.493 65.6612 161.953 66.0345 162.54C66.4212 163.127 66.6412 163.773 66.6945 164.48H64.0145C63.9079 164 63.6879 163.62 63.3545 163.34C63.0345 163.047 62.5479 162.9 61.8945 162.9C61.4412 162.9 61.0212 163.007 60.6345 163.22C60.2612 163.433 59.9545 163.76 59.7145 164.2C59.4879 164.64 59.3745 165.207 59.3745 165.9V166.3C59.3745 167.047 59.4812 167.66 59.6945 168.14C59.9212 168.607 60.2212 168.953 60.5945 169.18C60.9812 169.393 61.4145 169.5 61.8945 169.5C62.4145 169.5 62.8612 169.367 63.2345 169.1C63.6212 168.82 63.8812 168.427 64.0145 167.92H66.6945C66.6145 168.68 66.3612 169.353 65.9345 169.94C65.5079 170.527 64.9412 170.973 64.2345 171.28C63.5412 171.587 62.7612 171.74 61.8945 171.74ZM68.3036 171.5V157.5H70.9236V165.26L74.8436 160.9H77.8636L73.8036 165.44L78.2636 171.5H75.2236L72.1036 167.18L70.9236 168.44V171.5H68.3036ZM82.5722 171.74C81.8122 171.74 81.1655 171.6 80.6322 171.32C80.0989 171.027 79.6922 170.627 79.4122 170.12C79.1322 169.613 78.9922 169.04 78.9922 168.4C78.9922 167.333 79.3055 166.533 79.9322 166C80.5722 165.467 81.5255 165.2 82.7922 165.2H85.9522V164.7C85.9522 164.007 85.7922 163.52 85.4722 163.24C85.1655 162.96 84.6722 162.82 83.9922 162.82C83.3922 162.82 82.9589 162.927 82.6922 163.14C82.4255 163.34 82.2722 163.593 82.2322 163.9H79.5922C79.6322 163.287 79.8255 162.74 80.1722 162.26C80.5322 161.767 81.0389 161.38 81.6922 161.1C82.3589 160.807 83.1589 160.66 84.0922 160.66C84.9989 160.66 85.7855 160.793 86.4522 161.06C87.1322 161.327 87.6589 161.76 88.0322 162.36C88.4055 162.947 88.5922 163.74 88.5922 164.74V168.8C88.5922 169.36 88.5989 169.853 88.6122 170.28C88.6389 170.693 88.6789 171.1 88.7322 171.5H86.2722C86.2189 171.207 86.1855 170.987 86.1722 170.84C86.1722 170.68 86.1722 170.447 86.1722 170.14C85.8922 170.567 85.4522 170.94 84.8522 171.26C84.2522 171.58 83.4922 171.74 82.5722 171.74ZM83.3922 169.7C83.8189 169.7 84.2255 169.627 84.6122 169.48C85.0122 169.32 85.3322 169.08 85.5722 168.76C85.8255 168.427 85.9522 168.007 85.9522 167.5V167H83.2922C82.7855 167 82.3855 167.12 82.0922 167.36C81.8122 167.587 81.6722 167.9 81.6722 168.3C81.6722 168.727 81.8189 169.067 82.1122 169.32C82.4055 169.573 82.8322 169.7 83.3922 169.7ZM95.2961 175.74C94.1761 175.74 93.2828 175.6 92.6161 175.32C91.9494 175.053 91.4561 174.68 91.1361 174.2C90.8294 173.72 90.6494 173.153 90.5961 172.5H93.2761C93.3561 172.78 93.5361 173.04 93.8161 173.28C94.0961 173.533 94.5894 173.66 95.2961 173.66C96.1894 173.66 96.8561 173.447 97.2961 173.02C97.7361 172.593 97.9561 171.953 97.9561 171.1V169.82C97.6228 170.34 97.1761 170.76 96.6161 171.08C96.0561 171.387 95.4161 171.54 94.6961 171.54C93.7761 171.54 92.9761 171.34 92.2961 170.94C91.6294 170.54 91.1094 169.947 90.7361 169.16C90.3761 168.36 90.1961 167.373 90.1961 166.2V165.8C90.1961 164.693 90.3761 163.76 90.7361 163C91.1094 162.24 91.6361 161.66 92.3161 161.26C92.9961 160.86 93.7894 160.66 94.6961 160.66C95.5761 160.66 96.3028 160.84 96.8761 161.2C97.4494 161.56 97.8694 161.98 98.1361 162.46V160.9H100.576V170.9C100.576 172.473 100.143 173.673 99.2761 174.5C98.4094 175.327 97.0828 175.74 95.2961 175.74ZM95.3161 169.3C95.8494 169.3 96.3094 169.207 96.6961 169.02C97.0961 168.82 97.4028 168.513 97.6161 168.1C97.8428 167.687 97.9561 167.187 97.9561 166.6V165.4C97.9561 164.84 97.8428 164.38 97.6161 164.02C97.3894 163.66 97.0694 163.387 96.6561 163.2C96.2561 163 95.8094 162.9 95.3161 162.9C94.5961 162.9 94.0094 163.147 93.5561 163.64C93.1028 164.12 92.8761 164.84 92.8761 165.8V166.2C92.8761 167.227 93.1094 168 93.5761 168.52C94.0428 169.04 94.6228 169.3 95.3161 169.3ZM103.021 171.5V160.9H105.641V171.5H103.021ZM104.321 159.88C103.854 159.88 103.467 159.733 103.161 159.44C102.867 159.147 102.721 158.767 102.721 158.3C102.721 157.833 102.867 157.453 103.161 157.16C103.467 156.867 103.847 156.72 104.301 156.72C104.781 156.72 105.167 156.867 105.461 157.16C105.767 157.453 105.921 157.833 105.921 158.3C105.921 158.767 105.767 159.147 105.461 159.44C105.167 159.733 104.787 159.88 104.321 159.88ZM108.05 171.5V160.9H110.45V162.46C110.717 161.98 111.13 161.56 111.69 161.2C112.25 160.84 113.017 160.66 113.99 160.66C115.284 160.66 116.244 161.007 116.87 161.7C117.51 162.393 117.83 163.393 117.83 164.7V171.5H115.19V165.3C115.19 164.513 115.024 163.92 114.69 163.52C114.37 163.107 113.817 162.9 113.03 162.9C112.47 162.9 112.017 163.013 111.67 163.24C111.324 163.467 111.07 163.76 110.91 164.12C110.75 164.48 110.67 164.873 110.67 165.3V171.5H108.05ZM124.54 175.74C123.42 175.74 122.527 175.6 121.86 175.32C121.193 175.053 120.7 174.68 120.38 174.2C120.073 173.72 119.893 173.153 119.84 172.5H122.52C122.6 172.78 122.78 173.04 123.06 173.28C123.34 173.533 123.833 173.66 124.54 173.66C125.433 173.66 126.1 173.447 126.54 173.02C126.98 172.593 127.2 171.953 127.2 171.1V169.82C126.867 170.34 126.42 170.76 125.86 171.08C125.3 171.387 124.66 171.54 123.94 171.54C123.02 171.54 122.22 171.34 121.54 170.94C120.873 170.54 120.353 169.947 119.98 169.16C119.62 168.36 119.44 167.373 119.44 166.2V165.8C119.44 164.693 119.62 163.76 119.98 163C120.353 162.24 120.88 161.66 121.56 161.26C122.24 160.86 123.033 160.66 123.94 160.66C124.82 160.66 125.547 160.84 126.12 161.2C126.693 161.56 127.113 161.98 127.38 162.46V160.9H129.82V170.9C129.82 172.473 129.387 173.673 128.52 174.5C127.653 175.327 126.327 175.74 124.54 175.74ZM124.56 169.3C125.093 169.3 125.553 169.207 125.94 169.02C126.34 168.82 126.647 168.513 126.86 168.1C127.087 167.687 127.2 167.187 127.2 166.6V165.4C127.2 164.84 127.087 164.38 126.86 164.02C126.633 163.66 126.313 163.387 125.9 163.2C125.5 163 125.053 162.9 124.56 162.9C123.84 162.9 123.253 163.147 122.8 163.64C122.347 164.12 122.12 164.84 122.12 165.8V166.2C122.12 167.227 122.353 168 122.82 168.52C123.287 169.04 123.867 169.3 124.56 169.3Z" fill="#333333"/>
<rect x="155.5" y="144.5" width="205" height="39" rx="19.5" fill="#E5DFCD"/>
<rect x="155.5" y="144.5" width="205" height="39" rx="19.5" stroke="#999999" stroke-dasharray="7 7"/>
<path d="M168.62 171.5V157.5H174C175.267 157.5 176.313 157.693 177.14 158.08C177.967 158.453 178.58 158.987 178.98 159.68C179.38 160.36 179.58 161.167 179.58 162.1C179.58 163.033 179.38 163.847 178.98 164.54C178.58 165.22 177.967 165.753 177.14 166.14C176.313 166.513 175.267 166.7 174 166.7H171.6V171.5H168.62ZM171.6 164.22H173.7C174.767 164.22 175.513 164.04 175.94 163.68C176.38 163.32 176.6 162.793 176.6 162.1C176.6 161.42 176.38 160.9 175.94 160.54C175.513 160.167 174.767 159.98 173.7 159.98H171.6V164.22ZM184.071 171.74C183.311 171.74 182.664 171.6 182.131 171.32C181.597 171.027 181.191 170.627 180.911 170.12C180.631 169.613 180.491 169.04 180.491 168.4C180.491 167.333 180.804 166.533 181.431 166C182.071 165.467 183.024 165.2 184.291 165.2H187.451V164.7C187.451 164.007 187.291 163.52 186.971 163.24C186.664 162.96 186.171 162.82 185.491 162.82C184.891 162.82 184.457 162.927 184.191 163.14C183.924 163.34 183.771 163.593 183.731 163.9H181.091C181.131 163.287 181.324 162.74 181.671 162.26C182.031 161.767 182.537 161.38 183.191 161.1C183.857 160.807 184.657 160.66 185.591 160.66C186.497 160.66 187.284 160.793 187.951 161.06C188.631 161.327 189.157 161.76 189.531 162.36C189.904 162.947 190.091 163.74 190.091 164.74V168.8C190.091 169.36 190.097 169.853 190.111 170.28C190.137 170.693 190.177 171.1 190.231 171.5H187.771C187.717 171.207 187.684 170.987 187.671 170.84C187.671 170.68 187.671 170.447 187.671 170.14C187.391 170.567 186.951 170.94 186.351 171.26C185.751 171.58 184.991 171.74 184.071 171.74ZM184.891 169.7C185.317 169.7 185.724 169.627 186.111 169.48C186.511 169.32 186.831 169.08 187.071 168.76C187.324 168.427 187.451 168.007 187.451 167.5V167H184.791C184.284 167 183.884 167.12 183.591 167.36C183.311 167.587 183.171 167.9 183.171 168.3C183.171 168.727 183.317 169.067 183.611 169.32C183.904 169.573 184.331 169.7 184.891 169.7ZM192.215 171.5V160.9H194.615V162.46C194.881 161.98 195.295 161.56 195.855 161.2C196.415 160.84 197.181 160.66 198.155 160.66C199.448 160.66 200.408 161.007 201.035 161.7C201.675 162.393 201.995 163.393 201.995 164.7V171.5H199.355V165.3C199.355 164.513 199.188 163.92 198.855 163.52C198.535 163.107 197.981 162.9 197.195 162.9C196.635 162.9 196.181 163.013 195.835 163.24C195.488 163.467 195.235 163.76 195.075 164.12C194.915 164.48 194.835 164.873 194.835 165.3V171.5H192.215ZM203.504 167.14V164.66H209.904V167.14H203.504ZM212.122 171.5V157.5H215.102V171.5H212.122ZM217.923 171.5V160.9H220.323V162.46C220.59 161.98 221.003 161.56 221.563 161.2C222.123 160.84 222.89 160.66 223.863 160.66C225.156 160.66 226.116 161.007 226.743 161.7C227.383 162.393 227.703 163.393 227.703 164.7V171.5H225.063V165.3C225.063 164.513 224.896 163.92 224.563 163.52C224.243 163.107 223.69 162.9 222.903 162.9C222.343 162.9 221.89 163.013 221.543 163.24C221.196 163.467 220.943 163.76 220.783 164.12C220.623 164.48 220.543 164.873 220.543 165.3V171.5H217.923ZM233.812 171.74C232.892 171.74 232.092 171.54 231.412 171.14C230.746 170.74 230.226 170.14 229.852 169.34C229.492 168.527 229.312 167.513 229.312 166.3V165.9C229.312 164.753 229.492 163.793 229.852 163.02C230.226 162.247 230.752 161.66 231.432 161.26C232.112 160.86 232.906 160.66 233.812 160.66C234.546 160.66 235.186 160.82 235.732 161.14C236.292 161.447 236.739 161.86 237.072 162.38V157.5H239.692V171.5H237.252V169.94C236.986 170.42 236.566 170.84 235.992 171.2C235.419 171.56 234.692 171.74 233.812 171.74ZM234.432 169.5C234.966 169.5 235.426 169.4 235.812 169.2C236.212 169 236.519 168.693 236.732 168.28C236.959 167.853 237.072 167.327 237.072 166.7V165.5C237.072 164.913 236.959 164.433 236.732 164.06C236.506 163.673 236.186 163.387 235.772 163.2C235.372 163 234.926 162.9 234.432 162.9C233.712 162.9 233.126 163.153 232.672 163.66C232.219 164.153 231.992 164.9 231.992 165.9V166.3C231.992 167.393 232.226 168.2 232.692 168.72C233.159 169.24 233.739 169.5 234.432 169.5ZM242.137 171.5V160.9H244.757V171.5H242.137ZM243.437 159.88C242.971 159.88 242.584 159.733 242.277 159.44C241.984 159.147 241.837 158.767 241.837 158.3C241.837 157.833 241.984 157.453 242.277 157.16C242.584 156.867 242.964 156.72 243.417 156.72C243.897 156.72 244.284 156.867 244.577 157.16C244.884 157.453 245.037 157.833 245.037 158.3C245.037 158.767 244.884 159.147 244.577 159.44C244.284 159.733 243.904 159.88 243.437 159.88ZM250.327 171.74C249.567 171.74 248.92 171.6 248.387 171.32C247.854 171.027 247.447 170.627 247.167 170.12C246.887 169.613 246.747 169.04 246.747 168.4C246.747 167.333 247.06 166.533 247.687 166C248.327 165.467 249.28 165.2 250.547 165.2H253.707V164.7C253.707 164.007 253.547 163.52 253.227 163.24C252.92 162.96 252.427 162.82 251.747 162.82C251.147 162.82 250.714 162.927 250.447 163.14C250.18 163.34 250.027 163.593 249.987 163.9H247.347C247.387 163.287 247.58 162.74 247.927 162.26C248.287 161.767 248.794 161.38 249.447 161.1C250.114 160.807 250.914 160.66 251.847 160.66C252.754 160.66 253.54 160.793 254.207 161.06C254.887 161.327 255.414 161.76 255.787 162.36C256.16 162.947 256.347 163.74 256.347 164.74V168.8C256.347 169.36 256.354 169.853 256.367 170.28C256.394 170.693 256.434 171.1 256.487 171.5H254.027C253.974 171.207 253.94 170.987 253.927 170.84C253.927 170.68 253.927 170.447 253.927 170.14C253.647 170.567 253.207 170.94 252.607 171.26C252.007 171.58 251.247 171.74 250.327 171.74ZM251.147 169.7C251.574 169.7 251.98 169.627 252.367 169.48C252.767 169.32 253.087 169.08 253.327 168.76C253.58 168.427 253.707 168.007 253.707 167.5V167H251.047C250.54 167 250.14 167.12 249.847 167.36C249.567 167.587 249.427 167.9 249.427 168.3C249.427 168.727 249.574 169.067 249.867 169.32C250.16 169.573 250.587 169.7 251.147 169.7ZM263.671 171.5V157.5H266.651V169.02H273.051V171.5H263.671ZM279.159 171.74C278.199 171.74 277.313 171.547 276.499 171.16C275.699 170.76 275.059 170.153 274.579 169.34C274.099 168.527 273.859 167.513 273.859 166.3V165.9C273.859 164.753 274.099 163.793 274.579 163.02C275.059 162.233 275.699 161.647 276.499 161.26C277.313 160.86 278.199 160.66 279.159 160.66C280.133 160.66 281.019 160.86 281.819 161.26C282.619 161.647 283.259 162.233 283.739 163.02C284.219 163.793 284.459 164.753 284.459 165.9V166.3C284.459 167.487 284.219 168.487 283.739 169.3C283.259 170.113 282.619 170.727 281.819 171.14C281.019 171.54 280.133 171.74 279.159 171.74ZM279.159 169.5C279.666 169.5 280.113 169.387 280.499 169.16C280.899 168.92 281.213 168.56 281.439 168.08C281.666 167.6 281.779 167.007 281.779 166.3V165.9C281.779 165.247 281.666 164.7 281.439 164.26C281.213 163.82 280.899 163.487 280.499 163.26C280.113 163.02 279.666 162.9 279.159 162.9C278.653 162.9 278.199 163.02 277.799 163.26C277.413 163.487 277.106 163.82 276.879 164.26C276.653 164.7 276.539 165.247 276.539 165.9V166.3C276.539 167.02 276.653 167.62 276.879 168.1C277.106 168.567 277.413 168.92 277.799 169.16C278.199 169.387 278.653 169.5 279.159 169.5ZM290.752 175.74C289.632 175.74 288.738 175.6 288.072 175.32C287.405 175.053 286.912 174.68 286.592 174.2C286.285 173.72 286.105 173.153 286.052 172.5H288.732C288.812 172.78 288.992 173.04 289.272 173.28C289.552 173.533 290.045 173.66 290.752 173.66C291.645 173.66 292.312 173.447 292.752 173.02C293.192 172.593 293.412 171.953 293.412 171.1V169.82C293.078 170.34 292.632 170.76 292.072 171.08C291.512 171.387 290.872 171.54 290.152 171.54C289.232 171.54 288.432 171.34 287.752 170.94C287.085 170.54 286.565 169.947 286.192 169.16C285.832 168.36 285.652 167.373 285.652 166.2V165.8C285.652 164.693 285.832 163.76 286.192 163C286.565 162.24 287.092 161.66 287.772 161.26C288.452 160.86 289.245 160.66 290.152 160.66C291.032 160.66 291.758 160.84 292.332 161.2C292.905 161.56 293.325 161.98 293.592 162.46V160.9H296.032V170.9C296.032 172.473 295.598 173.673 294.732 174.5C293.865 175.327 292.538 175.74 290.752 175.74ZM290.772 169.3C291.305 169.3 291.765 169.207 292.152 169.02C292.552 168.82 292.858 168.513 293.072 168.1C293.298 167.687 293.412 167.187 293.412 166.6V165.4C293.412 164.84 293.298 164.38 293.072 164.02C292.845 163.66 292.525 163.387 292.112 163.2C291.712 163 291.265 162.9 290.772 162.9C290.052 162.9 289.465 163.147 289.012 163.64C288.558 164.12 288.332 164.84 288.332 165.8V166.2C288.332 167.227 288.565 168 289.032 168.52C289.498 169.04 290.078 169.3 290.772 169.3ZM298.476 171.5V160.9H301.096V171.5H298.476ZM299.776 159.88C299.31 159.88 298.923 159.733 298.616 159.44C298.323 159.147 298.176 158.767 298.176 158.3C298.176 157.833 298.323 157.453 298.616 157.16C298.923 156.867 299.303 156.72 299.756 156.72C300.236 156.72 300.623 156.867 300.916 157.16C301.223 157.453 301.376 157.833 301.376 158.3C301.376 158.767 301.223 159.147 300.916 159.44C300.623 159.733 300.243 159.88 299.776 159.88ZM307.786 171.74C306.919 171.74 306.193 171.653 305.606 171.48C305.019 171.293 304.533 171.047 304.146 170.74C303.773 170.42 303.493 170.06 303.306 169.66C303.133 169.26 303.026 168.84 302.986 168.4H305.626C305.693 168.747 305.899 169.033 306.246 169.26C306.593 169.473 307.106 169.58 307.786 169.58C308.559 169.58 309.113 169.473 309.446 169.26C309.779 169.047 309.946 168.773 309.946 168.44C309.946 168.2 309.873 168.007 309.726 167.86C309.579 167.7 309.319 167.567 308.946 167.46C308.573 167.34 308.046 167.22 307.366 167.1C306.779 167.02 306.239 166.913 305.746 166.78C305.253 166.633 304.819 166.433 304.446 166.18C304.086 165.927 303.799 165.613 303.586 165.24C303.386 164.853 303.286 164.387 303.286 163.84C303.286 163.253 303.459 162.72 303.806 162.24C304.166 161.76 304.679 161.38 305.346 161.1C306.026 160.807 306.839 160.66 307.786 160.66C308.813 160.66 309.633 160.82 310.246 161.14C310.859 161.46 311.319 161.873 311.626 162.38C311.933 162.887 312.119 163.427 312.186 164H309.546C309.439 163.613 309.233 163.32 308.926 163.12C308.619 162.92 308.239 162.82 307.786 162.82C307.119 162.82 306.639 162.927 306.346 163.14C306.066 163.34 305.926 163.593 305.926 163.9C305.926 164.22 306.079 164.467 306.386 164.64C306.706 164.813 307.353 164.967 308.326 165.1C308.926 165.18 309.479 165.3 309.986 165.46C310.506 165.607 310.959 165.807 311.346 166.06C311.733 166.313 312.033 166.633 312.246 167.02C312.473 167.393 312.586 167.853 312.586 168.4C312.586 169.053 312.406 169.633 312.046 170.14C311.699 170.633 311.166 171.027 310.446 171.32C309.739 171.6 308.853 171.74 307.786 171.74ZM318.563 171.62C317.736 171.62 317.056 171.507 316.523 171.28C315.989 171.04 315.596 170.66 315.343 170.14C315.103 169.62 314.983 168.947 314.983 168.12V163.1H313.563V160.9H314.983V158.5H317.603V160.9H320.163V163.1H317.603V167.7C317.603 168.3 317.709 168.733 317.923 169C318.149 169.253 318.563 169.38 319.163 169.38C319.563 169.38 319.963 169.36 320.363 169.32V171.52C320.109 171.547 319.843 171.567 319.563 171.58C319.296 171.607 318.963 171.62 318.563 171.62ZM322.29 171.5V160.9H324.91V171.5H322.29ZM323.59 159.88C323.124 159.88 322.737 159.733 322.43 159.44C322.137 159.147 321.99 158.767 321.99 158.3C321.99 157.833 322.137 157.453 322.43 157.16C322.737 156.867 323.117 156.72 323.57 156.72C324.05 156.72 324.437 156.867 324.73 157.16C325.037 157.453 325.19 157.833 325.19 158.3C325.19 158.767 325.037 159.147 324.73 159.44C324.437 159.733 324.057 159.88 323.59 159.88ZM332 171.74C331.027 171.74 330.147 171.54 329.36 171.14C328.573 170.727 327.947 170.12 327.48 169.32C327.027 168.507 326.8 167.5 326.8 166.3V165.9C326.8 164.753 327.04 163.793 327.52 163.02C328 162.247 328.633 161.66 329.42 161.26C330.207 160.86 331.067 160.66 332 160.66C333 160.66 333.847 160.827 334.54 161.16C335.233 161.493 335.767 161.953 336.14 162.54C336.527 163.127 336.747 163.773 336.8 164.48H334.12C334.013 164 333.793 163.62 333.46 163.34C333.14 163.047 332.653 162.9 332 162.9C331.547 162.9 331.127 163.007 330.74 163.22C330.367 163.433 330.06 163.76 329.82 164.2C329.593 164.64 329.48 165.207 329.48 165.9V166.3C329.48 167.047 329.587 167.66 329.8 168.14C330.027 168.607 330.327 168.953 330.7 169.18C331.087 169.393 331.52 169.5 332 169.5C332.52 169.5 332.967 169.367 333.34 169.1C333.727 168.82 333.987 168.427 334.12 167.92H336.8C336.72 168.68 336.467 169.353 336.04 169.94C335.613 170.527 335.047 170.973 334.34 171.28C333.647 171.587 332.867 171.74 332 171.74ZM342.689 171.74C341.822 171.74 341.096 171.653 340.509 171.48C339.922 171.293 339.436 171.047 339.049 170.74C338.676 170.42 338.396 170.06 338.209 169.66C338.036 169.26 337.929 168.84 337.889 168.4H340.529C340.596 168.747 340.802 169.033 341.149 169.26C341.496 169.473 342.009 169.58 342.689 169.58C343.462 169.58 344.016 169.473 344.349 169.26C344.682 169.047 344.849 168.773 344.849 168.44C344.849 168.2 344.776 168.007 344.629 167.86C344.482 167.7 344.222 167.567 343.849 167.46C343.476 167.34 342.949 167.22 342.269 167.1C341.682 167.02 341.142 166.913 340.649 166.78C340.156 166.633 339.722 166.433 339.349 166.18C338.989 165.927 338.702 165.613 338.489 165.24C338.289 164.853 338.189 164.387 338.189 163.84C338.189 163.253 338.362 162.72 338.709 162.24C339.069 161.76 339.582 161.38 340.249 161.1C340.929 160.807 341.742 160.66 342.689 160.66C343.716 160.66 344.536 160.82 345.149 161.14C345.762 161.46 346.222 161.873 346.529 162.38C346.836 162.887 347.022 163.427 347.089 164H344.449C344.342 163.613 344.136 163.32 343.829 163.12C343.522 162.92 343.142 162.82 342.689 162.82C342.022 162.82 341.542 162.927 341.249 163.14C340.969 163.34 340.829 163.593 340.829 163.9C340.829 164.22 340.982 164.467 341.289 164.64C341.609 164.813 342.256 164.967 343.229 165.1C343.829 165.18 344.382 165.3 344.889 165.46C345.409 165.607 345.862 165.807 346.249 166.06C346.636 166.313 346.936 166.633 347.149 167.02C347.376 167.393 347.489 167.853 347.489 168.4C347.489 169.053 347.309 169.633 346.949 170.14C346.602 170.633 346.069 171.027 345.349 171.32C344.642 171.6 343.756 171.74 342.689 171.74Z" fill="#333333"/>
</svg>
