<svg width="376" height="208" viewBox="0 0 376 208" fill="none" xmlns="http://www.w3.org/2000/svg">
<rect width="376" height="208" rx="20" fill="#D9CFB5"/>
<path d="M20.6 47V46.688C22.328 46.016 22.592 45.824 22.592 43.808V33.032C22.592 31.016 22.328 30.824 20.6 30.152V29.84H27.872V30.152C26.12 30.824 25.88 31.016 25.88 33.032V36.896H33.2V33.032C33.2 31.016 32.936 30.824 31.208 30.152V29.84H38.456V30.152C36.728 30.824 36.488 31.016 36.488 33.032V43.808C36.488 45.824 36.728 46.016 38.456 46.688V47H31.208V46.688C32.936 46.016 33.2 45.824 33.2 43.808V38.36H25.88V43.808C25.88 45.824 26.12 46.016 27.872 46.688V47H20.6ZM39.0158 47V46.688C40.3118 46.136 40.6238 45.896 40.6238 44.024V39.368C40.6238 36.992 40.1918 36.848 39.0158 36.248V35.936C40.5038 35.816 42.0398 35.576 43.5278 35.12V44.024C43.5278 45.896 43.8158 46.136 45.1118 46.688V47H39.0158ZM41.7758 33.464C40.8638 33.464 40.0958 32.72 40.0958 31.856C40.0958 31.016 40.8638 30.272 41.7758 30.272C42.6638 30.272 43.4558 31.016 43.4558 31.856C43.4558 32.72 42.6638 33.464 41.7758 33.464ZM50.979 51.968C48.627 51.968 45.531 51.224 45.531 49.352C45.531 48.056 47.043 47.216 48.315 46.832V46.808C46.995 46.472 46.347 45.776 46.347 44.96C46.347 43.832 47.523 42.968 49.059 42.56C47.163 42.104 45.963 40.904 45.963 39.008C45.963 36.584 48.003 35.168 50.619 35.168H51.027C53.475 35.168 54.267 34.136 54.363 33.32L56.739 34.04V34.328C56.163 34.952 55.035 35.624 53.451 35.624C53.163 35.624 52.731 35.6 52.443 35.552V35.744C54.075 36.104 55.875 37.16 55.875 39.2C55.875 41.216 54.147 42.776 50.643 42.776C50.547 42.776 50.643 42.776 50.331 42.752C49.419 43.04 49.131 43.448 49.131 43.736C49.131 43.976 49.299 44.216 49.683 44.312C49.947 44.384 53.283 45.056 54.123 45.272C55.875 45.704 57.219 46.64 57.219 48.296C57.219 50.984 53.691 51.968 50.979 51.968ZM51.387 51.056C53.259 51.056 54.891 50.48 54.891 49.256C54.891 48.632 54.435 48.056 53.355 47.792C52.755 47.648 51.027 47.336 49.395 47.024C48.963 47.216 47.739 47.888 47.739 49.04C47.739 50.288 49.179 51.056 51.387 51.056ZM51.363 41.912C52.323 41.912 53.139 41.24 53.139 39.68C53.139 37.976 52.155 36.008 50.619 36.008C49.683 36.008 48.795 36.728 48.795 38.336C48.795 39.944 49.707 41.912 51.363 41.912ZM57.6455 47V46.688C58.9415 46.136 59.2535 45.896 59.2535 44.024V32.96C59.2535 30.584 58.8215 30.44 57.6455 29.84V29.528C59.1335 29.432 60.6695 29.168 62.1575 28.712V37.688C63.1415 36.176 64.4855 35.168 66.0935 35.168C67.4615 35.168 69.2615 36.032 69.2615 38.624V44.024C69.2615 45.896 69.5495 46.136 70.8455 46.688V47H64.8215V46.688C66.0695 46.136 66.3815 45.896 66.3815 44.024C66.3815 43.232 66.4055 39.68 66.4055 39.632C66.4055 37.856 65.5655 37.136 64.5815 37.136C63.6695 37.136 62.8055 37.832 62.1575 38.744V44.024C62.1575 45.896 62.4215 46.136 63.6695 46.688V47H57.6455ZM71.6519 41.312V39.992H78.6359V41.312H71.6519ZM82.2771 47V46.688C84.0051 46.016 84.2691 45.824 84.2691 43.808V30.968H83.4771C80.9331 30.968 79.4931 32.696 78.8931 34.232H78.5811L79.0131 29.84H92.7411L93.1731 34.232H92.8611C92.2851 32.744 90.8451 30.968 88.2531 30.968H87.5571V43.808C87.5571 45.824 87.8211 46.016 89.5491 46.688V47H82.2771ZM97.7926 47.24C94.3366 47.24 92.0326 44.864 92.0326 41.336C92.0326 37.928 94.1926 35.168 97.8886 35.168C101.321 35.168 103.649 37.544 103.649 41.12C103.649 44.528 101.489 47.24 97.7926 47.24ZM98.3206 46.304C99.5446 46.304 100.673 45.176 100.673 42.608C100.673 40.256 99.7366 36.104 97.3846 36.104C96.1606 36.104 95.0086 37.232 95.0086 39.824C95.0086 42.152 95.9446 46.304 98.3206 46.304ZM112.876 47.336V44.816C112.276 45.704 110.86 47.312 108.844 47.312C107.38 47.312 105.58 46.448 105.58 43.856V39.368C105.58 37.4 105.436 36.92 104.116 36.248V35.936C105.532 35.816 107.044 35.576 108.484 35.12C108.484 37.736 108.436 40.256 108.436 42.872C108.436 44.648 109.3 45.32 110.284 45.32C111.364 45.32 112.3 44.456 112.804 43.88V39.368C112.804 37.424 112.732 36.968 111.34 36.248V35.936C112.756 35.84 114.268 35.576 115.708 35.144V44.048C115.708 45.656 115.996 45.824 117.292 46.208V46.52L112.876 47.336ZM123.068 47.24C120.212 47.24 117.74 44.96 117.74 41.192C117.74 37.4 120.212 35.168 122.9 35.168C125.036 35.168 126.5 36.56 127.196 37.664L125.108 39.344L124.892 39.248C124.7 37.976 124.004 36.128 122.708 36.128C121.58 36.128 120.38 37.568 120.38 40.16C120.38 43.208 122.06 45.152 124.268 45.152C125.78 45.152 126.668 44.24 127.076 43.568L127.412 43.784C126.932 45.392 125.588 47.24 123.068 47.24ZM127.691 47V46.688C128.987 46.136 129.299 45.896 129.299 44.024V32.96C129.299 30.584 128.867 30.44 127.691 29.84V29.528C129.179 29.432 130.715 29.168 132.203 28.712V37.688C133.187 36.176 134.531 35.168 136.139 35.168C137.507 35.168 139.307 36.032 139.307 38.624V44.024C139.307 45.896 139.595 46.136 140.891 46.688V47H134.867V46.688C136.115 46.136 136.427 45.896 136.427 44.024C136.427 43.232 136.451 39.68 136.451 39.632C136.451 37.856 135.611 37.136 134.627 37.136C133.715 37.136 132.851 37.832 132.203 38.744V44.024C132.203 45.896 132.467 46.136 133.715 46.688V47H127.691ZM152.802 47.312C150.93 47.312 148.77 46.448 147.498 45.776L147.21 41.312H147.522C148.53 43.4 150.45 46.136 152.778 46.136C154.146 46.136 155.178 45.176 155.178 43.664C155.178 41.792 153.57 40.664 151.77 39.56C149.274 38.024 147.45 36.896 147.45 34.184C147.45 31.184 149.682 29.528 152.37 29.528C153.882 29.528 155.562 30.056 156.642 30.488L157.122 34.808H156.81C155.922 33.032 154.218 30.656 152.226 30.656C151.074 30.656 150.066 31.472 150.066 32.984C150.066 34.448 151.002 35.168 153.354 36.608C155.97 38.216 157.914 39.392 157.914 42.368C157.914 45.896 155.178 47.312 152.802 47.312ZM167.688 47.336V44.816C167.088 45.704 165.672 47.312 163.656 47.312C162.192 47.312 160.392 46.448 160.392 43.856V39.368C160.392 37.4 160.248 36.92 158.928 36.248V35.936C160.344 35.816 161.856 35.576 163.296 35.12C163.296 37.736 163.248 40.256 163.248 42.872C163.248 44.648 164.112 45.32 165.096 45.32C166.176 45.32 167.112 44.456 167.616 43.88V39.368C167.616 37.424 167.544 36.968 166.152 36.248V35.936C167.568 35.84 169.08 35.576 170.52 35.144V44.048C170.52 45.656 170.808 45.824 172.104 46.208V46.52L167.688 47.336ZM172.282 51.8V51.488C173.578 50.936 173.866 50.696 173.866 48.824V37.712C173.866 36.872 173.53 36.608 172.282 36.224V35.936C173.746 35.816 175.234 35.552 176.722 35.12L176.698 37.256L176.746 37.28C177.634 36.056 178.81 35.168 180.418 35.168C183.01 35.168 185.074 37.4 185.074 40.976C185.074 44.888 182.674 47.24 180.178 47.24C178.786 47.24 177.538 46.496 176.818 45.824H176.77V48.824C176.77 50.696 177.202 50.936 179.002 51.488V51.8H172.282ZM179.842 46.136C181.33 46.136 182.05 44.384 182.05 41.912C182.05 38.84 180.922 36.68 179.266 36.68C178.354 36.68 177.538 37.328 176.77 38.336V42.488C177.226 44.144 178.234 46.136 179.842 46.136ZM185.406 51.8V51.488C186.702 50.936 186.99 50.696 186.99 48.824V37.712C186.99 36.872 186.654 36.608 185.406 36.224V35.936C186.87 35.816 188.358 35.552 189.846 35.12L189.822 37.256L189.87 37.28C190.758 36.056 191.934 35.168 193.542 35.168C196.134 35.168 198.198 37.4 198.198 40.976C198.198 44.888 195.798 47.24 193.302 47.24C191.91 47.24 190.662 46.496 189.942 45.824H189.894V48.824C189.894 50.696 190.326 50.936 192.126 51.488V51.8H185.406ZM192.966 46.136C194.454 46.136 195.174 44.384 195.174 41.912C195.174 38.84 194.046 36.68 192.39 36.68C191.478 36.68 190.662 37.328 189.894 38.336V42.488C190.35 44.144 191.358 46.136 192.966 46.136ZM205.193 47.24C201.737 47.24 199.433 44.864 199.433 41.336C199.433 37.928 201.593 35.168 205.289 35.168C208.721 35.168 211.049 37.544 211.049 41.12C211.049 44.528 208.889 47.24 205.193 47.24ZM205.721 46.304C206.945 46.304 208.073 45.176 208.073 42.608C208.073 40.256 207.137 36.104 204.785 36.104C203.561 36.104 202.409 37.232 202.409 39.824C202.409 42.152 203.345 46.304 205.721 46.304ZM211.68 47V46.688C212.976 46.136 213.288 45.896 213.288 44.024V39.176C213.288 37.52 213.144 36.8 211.68 36.224V35.936C213.144 35.816 214.656 35.552 216.12 35.12L216.048 37.544H216.12C216.48 36.56 217.56 35.168 219.336 35.168C219.816 35.168 220.152 35.264 220.488 35.48L220.152 38.672H219.84C219.336 38.096 218.472 37.424 217.68 37.424C216.936 37.424 216.432 38.096 216.192 38.6V44.024C216.192 45.896 216.552 46.136 218.184 46.688V47H211.68ZM225.748 47.216C224.164 47.216 222.724 46.208 222.724 43.976V36.488H221.548V35.792C222.748 35 224.5 33.68 225.244 32.336H225.604V35.456H228.7L228.508 36.488H225.628L225.58 43.16C225.556 45.056 226.468 45.488 227.26 45.488C227.788 45.488 228.34 45.296 228.82 44.864L229.036 45.128C228.268 46.376 227.26 47.216 225.748 47.216Z" fill="#333333"/>
<rect x="20.5" y="93.5" width="302" height="39" rx="19.5" fill="#E5DFCD"/>
<rect x="20.5" y="93.5" width="302" height="39" rx="19.5" stroke="#999999" stroke-dasharray="7 7"/>
<path d="M33.62 120.5V106.5H38.48C39.8933 106.5 41.1 106.753 42.1 107.26C43.1 107.767 43.86 108.52 44.38 109.52C44.9133 110.507 45.18 111.733 45.18 113.2V113.6C45.18 115.093 44.9067 116.353 44.36 117.38C43.8133 118.407 43.02 119.187 41.98 119.72C40.9533 120.24 39.72 120.5 38.28 120.5H33.62ZM36.6 118.02H38.08C38.8133 118.02 39.48 117.88 40.08 117.6C40.68 117.32 41.16 116.86 41.52 116.22C41.8933 115.567 42.08 114.693 42.08 113.6V113.2C42.08 112.16 41.9133 111.333 41.58 110.72C41.2467 110.093 40.7867 109.647 40.2 109.38C39.6267 109.113 38.9867 108.98 38.28 108.98H36.6V118.02ZM51.9992 120.74C51.0392 120.74 50.1526 120.547 49.3392 120.16C48.5392 119.76 47.8992 119.16 47.4192 118.36C46.9392 117.547 46.6992 116.527 46.6992 115.3V114.9C46.6992 113.727 46.9259 112.753 47.3792 111.98C47.8459 111.207 48.4659 110.627 49.2392 110.24C50.0126 109.853 50.8659 109.66 51.7992 109.66C53.4659 109.66 54.7326 110.1 55.5992 110.98C56.4659 111.86 56.8992 113.133 56.8992 114.8V115.92H49.3992C49.4259 116.547 49.5592 117.06 49.7992 117.46C50.0526 117.847 50.3726 118.133 50.7592 118.32C51.1459 118.493 51.5592 118.58 51.9992 118.58C52.6792 118.58 53.1926 118.48 53.5392 118.28C53.8859 118.08 54.1326 117.787 54.2792 117.4H56.6992C56.4859 118.507 55.9592 119.34 55.1192 119.9C54.2792 120.46 53.2392 120.74 51.9992 120.74ZM51.8992 111.82C51.4859 111.82 51.0859 111.887 50.6992 112.02C50.3126 112.153 50.0059 112.393 49.7792 112.74C49.5526 113.073 49.4259 113.52 49.3992 114.08H54.3392C54.3259 113.48 54.2059 113.02 53.9792 112.7C53.7659 112.367 53.4792 112.14 53.1192 112.02C52.7592 111.887 52.3526 111.82 51.8992 111.82ZM62.6008 120.74C61.6808 120.74 60.8808 120.54 60.2008 120.14C59.5341 119.74 59.0141 119.14 58.6408 118.34C58.2808 117.527 58.1008 116.513 58.1008 115.3V114.9C58.1008 113.753 58.2808 112.793 58.6408 112.02C59.0141 111.247 59.5408 110.66 60.2208 110.26C60.9008 109.86 61.6941 109.66 62.6008 109.66C63.3341 109.66 63.9741 109.82 64.5208 110.14C65.0808 110.447 65.5274 110.86 65.8608 111.38V106.5H68.4808V120.5H66.0408V118.94C65.7741 119.42 65.3541 119.84 64.7808 120.2C64.2074 120.56 63.4808 120.74 62.6008 120.74ZM63.2208 118.5C63.7541 118.5 64.2141 118.4 64.6008 118.2C65.0008 118 65.3074 117.693 65.5208 117.28C65.7474 116.853 65.8608 116.327 65.8608 115.7V114.5C65.8608 113.913 65.7474 113.433 65.5208 113.06C65.2941 112.673 64.9741 112.387 64.5608 112.2C64.1608 112 63.7141 111.9 63.2208 111.9C62.5008 111.9 61.9141 112.153 61.4608 112.66C61.0074 113.153 60.7808 113.9 60.7808 114.9V115.3C60.7808 116.393 61.0141 117.2 61.4808 117.72C61.9474 118.24 62.5274 118.5 63.2208 118.5ZM70.9255 120.5V109.9H73.5455V120.5H70.9255ZM72.2255 108.88C71.7588 108.88 71.3721 108.733 71.0655 108.44C70.7721 108.147 70.6255 107.767 70.6255 107.3C70.6255 106.833 70.7721 106.453 71.0655 106.16C71.3721 105.867 71.7521 105.72 72.2055 105.72C72.6855 105.72 73.0721 105.867 73.3655 106.16C73.6721 106.453 73.8255 106.833 73.8255 107.3C73.8255 107.767 73.6721 108.147 73.3655 108.44C73.0721 108.733 72.6921 108.88 72.2255 108.88ZM80.6352 120.74C79.6618 120.74 78.7818 120.54 77.9952 120.14C77.2085 119.727 76.5818 119.12 76.1152 118.32C75.6618 117.507 75.4352 116.5 75.4352 115.3V114.9C75.4352 113.753 75.6752 112.793 76.1552 112.02C76.6352 111.247 77.2685 110.66 78.0552 110.26C78.8418 109.86 79.7018 109.66 80.6352 109.66C81.6352 109.66 82.4818 109.827 83.1752 110.16C83.8685 110.493 84.4018 110.953 84.7752 111.54C85.1618 112.127 85.3818 112.773 85.4352 113.48H82.7552C82.6485 113 82.4285 112.62 82.0952 112.34C81.7752 112.047 81.2885 111.9 80.6352 111.9C80.1818 111.9 79.7618 112.007 79.3752 112.22C79.0018 112.433 78.6952 112.76 78.4552 113.2C78.2285 113.64 78.1152 114.207 78.1152 114.9V115.3C78.1152 116.047 78.2218 116.66 78.4352 117.14C78.6618 117.607 78.9618 117.953 79.3352 118.18C79.7218 118.393 80.1552 118.5 80.6352 118.5C81.1552 118.5 81.6018 118.367 81.9752 118.1C82.3618 117.82 82.6218 117.427 82.7552 116.92H85.4352C85.3552 117.68 85.1018 118.353 84.6752 118.94C84.2485 119.527 83.6818 119.973 82.9752 120.28C82.2818 120.587 81.5018 120.74 80.6352 120.74ZM90.2042 120.74C89.4442 120.74 88.7976 120.6 88.2642 120.32C87.7309 120.027 87.3242 119.627 87.0442 119.12C86.7642 118.613 86.6242 118.04 86.6242 117.4C86.6242 116.333 86.9376 115.533 87.5642 115C88.2042 114.467 89.1576 114.2 90.4242 114.2H93.5842V113.7C93.5842 113.007 93.4242 112.52 93.1042 112.24C92.7976 111.96 92.3042 111.82 91.6242 111.82C91.0242 111.82 90.5909 111.927 90.3242 112.14C90.0576 112.34 89.9042 112.593 89.8642 112.9H87.2242C87.2642 112.287 87.4576 111.74 87.8042 111.26C88.1642 110.767 88.6709 110.38 89.3242 110.1C89.9909 109.807 90.7909 109.66 91.7242 109.66C92.6309 109.66 93.4176 109.793 94.0842 110.06C94.7642 110.327 95.2909 110.76 95.6642 111.36C96.0376 111.947 96.2242 112.74 96.2242 113.74V117.8C96.2242 118.36 96.2309 118.853 96.2442 119.28C96.2709 119.693 96.3109 120.1 96.3642 120.5H93.9042C93.8509 120.207 93.8176 119.987 93.8042 119.84C93.8042 119.68 93.8042 119.447 93.8042 119.14C93.5242 119.567 93.0842 119.94 92.4842 120.26C91.8842 120.58 91.1242 120.74 90.2042 120.74ZM91.0242 118.7C91.4509 118.7 91.8576 118.627 92.2442 118.48C92.6442 118.32 92.9642 118.08 93.2042 117.76C93.4576 117.427 93.5842 117.007 93.5842 116.5V116H90.9242C90.4176 116 90.0176 116.12 89.7242 116.36C89.4442 116.587 89.3042 116.9 89.3042 117.3C89.3042 117.727 89.4509 118.067 89.7442 118.32C90.0376 118.573 90.4642 118.7 91.0242 118.7ZM102.648 120.62C101.821 120.62 101.141 120.507 100.608 120.28C100.074 120.04 99.681 119.66 99.4277 119.14C99.1877 118.62 99.0677 117.947 99.0677 117.12V112.1H97.6477V109.9H99.0677V107.5H101.688V109.9H104.248V112.1H101.688V116.7C101.688 117.3 101.794 117.733 102.008 118C102.234 118.253 102.648 118.38 103.248 118.38C103.648 118.38 104.048 118.36 104.448 118.32V120.52C104.194 120.547 103.928 120.567 103.648 120.58C103.381 120.607 103.048 120.62 102.648 120.62ZM110.858 120.74C109.898 120.74 109.011 120.547 108.198 120.16C107.398 119.76 106.758 119.16 106.278 118.36C105.798 117.547 105.558 116.527 105.558 115.3V114.9C105.558 113.727 105.784 112.753 106.238 111.98C106.704 111.207 107.324 110.627 108.098 110.24C108.871 109.853 109.724 109.66 110.658 109.66C112.324 109.66 113.591 110.1 114.458 110.98C115.324 111.86 115.758 113.133 115.758 114.8V115.92H108.258C108.284 116.547 108.418 117.06 108.658 117.46C108.911 117.847 109.231 118.133 109.618 118.32C110.004 118.493 110.418 118.58 110.858 118.58C111.538 118.58 112.051 118.48 112.398 118.28C112.744 118.08 112.991 117.787 113.138 117.4H115.558C115.344 118.507 114.818 119.34 113.978 119.9C113.138 120.46 112.098 120.74 110.858 120.74ZM110.758 111.82C110.344 111.82 109.944 111.887 109.558 112.02C109.171 112.153 108.864 112.393 108.638 112.74C108.411 113.073 108.284 113.52 108.258 114.08H113.198C113.184 113.48 113.064 113.02 112.838 112.7C112.624 112.367 112.338 112.14 111.978 112.02C111.618 111.887 111.211 111.82 110.758 111.82ZM121.459 120.74C120.539 120.74 119.739 120.54 119.059 120.14C118.393 119.74 117.873 119.14 117.499 118.34C117.139 117.527 116.959 116.513 116.959 115.3V114.9C116.959 113.753 117.139 112.793 117.499 112.02C117.873 111.247 118.399 110.66 119.079 110.26C119.759 109.86 120.553 109.66 121.459 109.66C122.193 109.66 122.833 109.82 123.379 110.14C123.939 110.447 124.386 110.86 124.719 111.38V106.5H127.339V120.5H124.899V118.94C124.633 119.42 124.213 119.84 123.639 120.2C123.066 120.56 122.339 120.74 121.459 120.74ZM122.079 118.5C122.613 118.5 123.073 118.4 123.459 118.2C123.859 118 124.166 117.693 124.379 117.28C124.606 116.853 124.719 116.327 124.719 115.7V114.5C124.719 113.913 124.606 113.433 124.379 113.06C124.153 112.673 123.833 112.387 123.419 112.2C123.019 112 122.573 111.9 122.079 111.9C121.359 111.9 120.773 112.153 120.319 112.66C119.866 113.153 119.639 113.9 119.639 114.9V115.3C119.639 116.393 119.873 117.2 120.339 117.72C120.806 118.24 121.386 118.5 122.079 118.5ZM133.364 120.5L138.564 106.5H141.544L146.764 120.5H143.604L142.524 117.64H137.344L136.284 120.5H133.364ZM138.264 115.16H141.624L139.944 110.3L138.264 115.16ZM152.458 120.74C151.484 120.74 150.604 120.54 149.818 120.14C149.031 119.727 148.404 119.12 147.938 118.32C147.484 117.507 147.258 116.5 147.258 115.3V114.9C147.258 113.753 147.498 112.793 147.978 112.02C148.458 111.247 149.091 110.66 149.878 110.26C150.664 109.86 151.524 109.66 152.458 109.66C153.458 109.66 154.304 109.827 154.998 110.16C155.691 110.493 156.224 110.953 156.598 111.54C156.984 112.127 157.204 112.773 157.258 113.48H154.578C154.471 113 154.251 112.62 153.918 112.34C153.598 112.047 153.111 111.9 152.458 111.9C152.004 111.9 151.584 112.007 151.198 112.22C150.824 112.433 150.518 112.76 150.278 113.2C150.051 113.64 149.938 114.207 149.938 114.9V115.3C149.938 116.047 150.044 116.66 150.258 117.14C150.484 117.607 150.784 117.953 151.158 118.18C151.544 118.393 151.978 118.5 152.458 118.5C152.978 118.5 153.424 118.367 153.798 118.1C154.184 117.82 154.444 117.427 154.578 116.92H157.258C157.178 117.68 156.924 118.353 156.498 118.94C156.071 119.527 155.504 119.973 154.798 120.28C154.104 120.587 153.324 120.74 152.458 120.74ZM163.547 120.74C162.574 120.74 161.694 120.54 160.907 120.14C160.12 119.727 159.494 119.12 159.027 118.32C158.574 117.507 158.347 116.5 158.347 115.3V114.9C158.347 113.753 158.587 112.793 159.067 112.02C159.547 111.247 160.18 110.66 160.967 110.26C161.754 109.86 162.614 109.66 163.547 109.66C164.547 109.66 165.394 109.827 166.087 110.16C166.78 110.493 167.314 110.953 167.687 111.54C168.074 112.127 168.294 112.773 168.347 113.48H165.667C165.56 113 165.34 112.62 165.007 112.34C164.687 112.047 164.2 111.9 163.547 111.9C163.094 111.9 162.674 112.007 162.287 112.22C161.914 112.433 161.607 112.76 161.367 113.2C161.14 113.64 161.027 114.207 161.027 114.9V115.3C161.027 116.047 161.134 116.66 161.347 117.14C161.574 117.607 161.874 117.953 162.247 118.18C162.634 118.393 163.067 118.5 163.547 118.5C164.067 118.5 164.514 118.367 164.887 118.1C165.274 117.82 165.534 117.427 165.667 116.92H168.347C168.267 117.68 168.014 118.353 167.587 118.94C167.16 119.527 166.594 119.973 165.887 120.28C165.194 120.587 164.414 120.74 163.547 120.74ZM174.736 120.74C173.776 120.74 172.889 120.547 172.076 120.16C171.276 119.76 170.636 119.153 170.156 118.34C169.676 117.527 169.436 116.513 169.436 115.3V114.9C169.436 113.753 169.676 112.793 170.156 112.02C170.636 111.233 171.276 110.647 172.076 110.26C172.889 109.86 173.776 109.66 174.736 109.66C175.709 109.66 176.596 109.86 177.396 110.26C178.196 110.647 178.836 111.233 179.316 112.02C179.796 112.793 180.036 113.753 180.036 114.9V115.3C180.036 116.487 179.796 117.487 179.316 118.3C178.836 119.113 178.196 119.727 177.396 120.14C176.596 120.54 175.709 120.74 174.736 120.74ZM174.736 118.5C175.243 118.5 175.689 118.387 176.076 118.16C176.476 117.92 176.789 117.56 177.016 117.08C177.243 116.6 177.356 116.007 177.356 115.3V114.9C177.356 114.247 177.243 113.7 177.016 113.26C176.789 112.82 176.476 112.487 176.076 112.26C175.689 112.02 175.243 111.9 174.736 111.9C174.229 111.9 173.776 112.02 173.376 112.26C172.989 112.487 172.683 112.82 172.456 113.26C172.229 113.7 172.116 114.247 172.116 114.9V115.3C172.116 116.02 172.229 116.62 172.456 117.1C172.683 117.567 172.989 117.92 173.376 118.16C173.776 118.387 174.229 118.5 174.736 118.5ZM185.368 120.74C184.141 120.74 183.215 120.393 182.588 119.7C181.961 118.993 181.648 117.907 181.648 116.44V109.9H184.268V116.08C184.268 116.88 184.421 117.487 184.728 117.9C185.048 118.3 185.581 118.5 186.328 118.5C186.861 118.5 187.288 118.387 187.608 118.16C187.941 117.933 188.188 117.64 188.348 117.28C188.508 116.92 188.588 116.52 188.588 116.08V109.9H191.228V120.5H188.788V118.92C188.535 119.413 188.128 119.84 187.568 120.2C187.021 120.56 186.288 120.74 185.368 120.74ZM193.443 120.5V109.9H195.843V111.46C196.109 110.98 196.523 110.56 197.083 110.2C197.643 109.84 198.409 109.66 199.383 109.66C200.676 109.66 201.636 110.007 202.263 110.7C202.903 111.393 203.223 112.393 203.223 113.7V120.5H200.583V114.3C200.583 113.513 200.416 112.92 200.083 112.52C199.763 112.107 199.209 111.9 198.423 111.9C197.863 111.9 197.409 112.013 197.063 112.24C196.716 112.467 196.463 112.76 196.303 113.12C196.143 113.48 196.063 113.873 196.063 114.3V120.5H193.443ZM209.652 120.62C208.825 120.62 208.145 120.507 207.612 120.28C207.078 120.04 206.685 119.66 206.432 119.14C206.192 118.62 206.072 117.947 206.072 117.12V112.1H204.652V109.9H206.072V107.5H208.692V109.9H211.252V112.1H208.692V116.7C208.692 117.3 208.798 117.733 209.012 118C209.238 118.253 209.652 118.38 210.252 118.38C210.652 118.38 211.052 118.36 211.452 118.32V120.52C211.198 120.547 210.932 120.567 210.652 120.58C210.385 120.607 210.052 120.62 209.652 120.62ZM218.379 120.5V106.5H221.359L225.619 114.38L229.859 106.5H232.759V120.5H229.759V111.6L226.439 117.7H224.659L221.359 111.6V120.5H218.379ZM238.517 120.74C237.757 120.74 237.111 120.6 236.577 120.32C236.044 120.027 235.637 119.627 235.357 119.12C235.077 118.613 234.937 118.04 234.937 117.4C234.937 116.333 235.251 115.533 235.877 115C236.517 114.467 237.471 114.2 238.737 114.2H241.897V113.7C241.897 113.007 241.737 112.52 241.417 112.24C241.111 111.96 240.617 111.82 239.937 111.82C239.337 111.82 238.904 111.927 238.637 112.14C238.371 112.34 238.217 112.593 238.177 112.9H235.537C235.577 112.287 235.771 111.74 236.117 111.26C236.477 110.767 236.984 110.38 237.637 110.1C238.304 109.807 239.104 109.66 240.037 109.66C240.944 109.66 241.731 109.793 242.397 110.06C243.077 110.327 243.604 110.76 243.977 111.36C244.351 111.947 244.537 112.74 244.537 113.74V117.8C244.537 118.36 244.544 118.853 244.557 119.28C244.584 119.693 244.624 120.1 244.677 120.5H242.217C242.164 120.207 242.131 119.987 242.117 119.84C242.117 119.68 242.117 119.447 242.117 119.14C241.837 119.567 241.397 119.94 240.797 120.26C240.197 120.58 239.437 120.74 238.517 120.74ZM239.337 118.7C239.764 118.7 240.171 118.627 240.557 118.48C240.957 118.32 241.277 118.08 241.517 117.76C241.771 117.427 241.897 117.007 241.897 116.5V116H239.237C238.731 116 238.331 116.12 238.037 116.36C237.757 116.587 237.617 116.9 237.617 117.3C237.617 117.727 237.764 118.067 238.057 118.32C238.351 118.573 238.777 118.7 239.337 118.7ZM246.661 120.5V109.9H249.061V111.46C249.328 110.98 249.741 110.56 250.301 110.2C250.861 109.84 251.628 109.66 252.601 109.66C253.895 109.66 254.855 110.007 255.481 110.7C256.121 111.393 256.441 112.393 256.441 113.7V120.5H253.801V114.3C253.801 113.513 253.635 112.92 253.301 112.52C252.981 112.107 252.428 111.9 251.641 111.9C251.081 111.9 250.628 112.013 250.281 112.24C249.935 112.467 249.681 112.76 249.521 113.12C249.361 113.48 249.281 113.873 249.281 114.3V120.5H246.661ZM261.731 120.74C260.971 120.74 260.324 120.6 259.791 120.32C259.257 120.027 258.851 119.627 258.571 119.12C258.291 118.613 258.151 118.04 258.151 117.4C258.151 116.333 258.464 115.533 259.091 115C259.731 114.467 260.684 114.2 261.951 114.2H265.111V113.7C265.111 113.007 264.951 112.52 264.631 112.24C264.324 111.96 263.831 111.82 263.151 111.82C262.551 111.82 262.117 111.927 261.851 112.14C261.584 112.34 261.431 112.593 261.391 112.9H258.751C258.791 112.287 258.984 111.74 259.331 111.26C259.691 110.767 260.197 110.38 260.851 110.1C261.517 109.807 262.317 109.66 263.251 109.66C264.157 109.66 264.944 109.793 265.611 110.06C266.291 110.327 266.817 110.76 267.191 111.36C267.564 111.947 267.751 112.74 267.751 113.74V117.8C267.751 118.36 267.757 118.853 267.771 119.28C267.797 119.693 267.837 120.1 267.891 120.5H265.431C265.377 120.207 265.344 119.987 265.331 119.84C265.331 119.68 265.331 119.447 265.331 119.14C265.051 119.567 264.611 119.94 264.011 120.26C263.411 120.58 262.651 120.74 261.731 120.74ZM262.551 118.7C262.977 118.7 263.384 118.627 263.771 118.48C264.171 118.32 264.491 118.08 264.731 117.76C264.984 117.427 265.111 117.007 265.111 116.5V116H262.451C261.944 116 261.544 116.12 261.251 116.36C260.971 116.587 260.831 116.9 260.831 117.3C260.831 117.727 260.977 118.067 261.271 118.32C261.564 118.573 261.991 118.7 262.551 118.7ZM274.455 124.74C273.335 124.74 272.441 124.6 271.775 124.32C271.108 124.053 270.615 123.68 270.295 123.2C269.988 122.72 269.808 122.153 269.755 121.5H272.435C272.515 121.78 272.695 122.04 272.975 122.28C273.255 122.533 273.748 122.66 274.455 122.66C275.348 122.66 276.015 122.447 276.455 122.02C276.895 121.593 277.115 120.953 277.115 120.1V118.82C276.781 119.34 276.335 119.76 275.775 120.08C275.215 120.387 274.575 120.54 273.855 120.54C272.935 120.54 272.135 120.34 271.455 119.94C270.788 119.54 270.268 118.947 269.895 118.16C269.535 117.36 269.355 116.373 269.355 115.2V114.8C269.355 113.693 269.535 112.76 269.895 112C270.268 111.24 270.795 110.66 271.475 110.26C272.155 109.86 272.948 109.66 273.855 109.66C274.735 109.66 275.461 109.84 276.035 110.2C276.608 110.56 277.028 110.98 277.295 111.46V109.9H279.735V119.9C279.735 121.473 279.301 122.673 278.435 123.5C277.568 124.327 276.241 124.74 274.455 124.74ZM274.475 118.3C275.008 118.3 275.468 118.207 275.855 118.02C276.255 117.82 276.561 117.513 276.775 117.1C277.001 116.687 277.115 116.187 277.115 115.6V114.4C277.115 113.84 277.001 113.38 276.775 113.02C276.548 112.66 276.228 112.387 275.815 112.2C275.415 112 274.968 111.9 274.475 111.9C273.755 111.9 273.168 112.147 272.715 112.64C272.261 113.12 272.035 113.84 272.035 114.8V115.2C272.035 116.227 272.268 117 272.735 117.52C273.201 118.04 273.781 118.3 274.475 118.3ZM286.759 120.74C285.799 120.74 284.913 120.547 284.099 120.16C283.299 119.76 282.659 119.16 282.179 118.36C281.699 117.547 281.459 116.527 281.459 115.3V114.9C281.459 113.727 281.686 112.753 282.139 111.98C282.606 111.207 283.226 110.627 283.999 110.24C284.773 109.853 285.626 109.66 286.559 109.66C288.226 109.66 289.493 110.1 290.359 110.98C291.226 111.86 291.659 113.133 291.659 114.8V115.92H284.159C284.186 116.547 284.319 117.06 284.559 117.46C284.813 117.847 285.133 118.133 285.519 118.32C285.906 118.493 286.319 118.58 286.759 118.58C287.439 118.58 287.953 118.48 288.299 118.28C288.646 118.08 288.893 117.787 289.039 117.4H291.459C291.246 118.507 290.719 119.34 289.879 119.9C289.039 120.46 287.999 120.74 286.759 120.74ZM286.659 111.82C286.246 111.82 285.846 111.887 285.459 112.02C285.073 112.153 284.766 112.393 284.539 112.74C284.313 113.073 284.186 113.52 284.159 114.08H289.099C289.086 113.48 288.966 113.02 288.739 112.7C288.526 112.367 288.239 112.14 287.879 112.02C287.519 111.887 287.113 111.82 286.659 111.82ZM293.381 120.5V109.9H295.781V111.48C295.928 111.173 296.128 110.887 296.381 110.62C296.634 110.353 296.948 110.127 297.321 109.94C297.694 109.753 298.108 109.66 298.561 109.66C298.814 109.66 299.028 109.673 299.201 109.7C299.388 109.727 299.508 109.753 299.561 109.78V112.12C299.428 112.067 299.254 112.02 299.041 111.98C298.841 111.927 298.568 111.9 298.221 111.9C297.688 111.9 297.254 112.013 296.921 112.24C296.601 112.467 296.368 112.767 296.221 113.14C296.074 113.5 296.001 113.893 296.001 114.32V120.5H293.381ZM305.254 120.74C304.387 120.74 303.661 120.653 303.074 120.48C302.487 120.293 302.001 120.047 301.614 119.74C301.241 119.42 300.961 119.06 300.774 118.66C300.601 118.26 300.494 117.84 300.454 117.4H303.094C303.161 117.747 303.367 118.033 303.714 118.26C304.061 118.473 304.574 118.58 305.254 118.58C306.027 118.58 306.581 118.473 306.914 118.26C307.247 118.047 307.414 117.773 307.414 117.44C307.414 117.2 307.341 117.007 307.194 116.86C307.047 116.7 306.787 116.567 306.414 116.46C306.041 116.34 305.514 116.22 304.834 116.1C304.247 116.02 303.707 115.913 303.214 115.78C302.721 115.633 302.287 115.433 301.914 115.18C301.554 114.927 301.267 114.613 301.054 114.24C300.854 113.853 300.754 113.387 300.754 112.84C300.754 112.253 300.927 111.72 301.274 111.24C301.634 110.76 302.147 110.38 302.814 110.1C303.494 109.807 304.307 109.66 305.254 109.66C306.281 109.66 307.101 109.82 307.714 110.14C308.327 110.46 308.787 110.873 309.094 111.38C309.401 111.887 309.587 112.427 309.654 113H307.014C306.907 112.613 306.701 112.32 306.394 112.12C306.087 111.92 305.707 111.82 305.254 111.82C304.587 111.82 304.107 111.927 303.814 112.14C303.534 112.34 303.394 112.593 303.394 112.9C303.394 113.22 303.547 113.467 303.854 113.64C304.174 113.813 304.821 113.967 305.794 114.1C306.394 114.18 306.947 114.3 307.454 114.46C307.974 114.607 308.427 114.807 308.814 115.06C309.201 115.313 309.501 115.633 309.714 116.02C309.941 116.393 310.054 116.853 310.054 117.4C310.054 118.053 309.874 118.633 309.514 119.14C309.167 119.633 308.634 120.027 307.914 120.32C307.207 120.6 306.321 120.74 305.254 120.74Z" fill="#333333"/>
<rect x="20.5" y="144.5" width="163" height="39" rx="19.5" fill="#E5DFCD"/>
<rect x="20.5" y="144.5" width="163" height="39" rx="19.5" stroke="#999999" stroke-dasharray="7 7"/>
<path d="M33.62 171.5V157.5H43.2V159.98H36.6V163.5H42.6V165.9H36.6V171.5H33.62ZM47.6644 171.74C46.9044 171.74 46.2577 171.6 45.7244 171.32C45.191 171.027 44.7844 170.627 44.5044 170.12C44.2244 169.613 44.0844 169.04 44.0844 168.4C44.0844 167.333 44.3977 166.533 45.0244 166C45.6644 165.467 46.6177 165.2 47.8844 165.2H51.0444V164.7C51.0444 164.007 50.8844 163.52 50.5644 163.24C50.2577 162.96 49.7644 162.82 49.0844 162.82C48.4844 162.82 48.051 162.927 47.7844 163.14C47.5177 163.34 47.3644 163.593 47.3244 163.9H44.6844C44.7244 163.287 44.9177 162.74 45.2644 162.26C45.6244 161.767 46.131 161.38 46.7844 161.1C47.451 160.807 48.251 160.66 49.1844 160.66C50.091 160.66 50.8777 160.793 51.5444 161.06C52.2244 161.327 52.751 161.76 53.1244 162.36C53.4977 162.947 53.6844 163.74 53.6844 164.74V168.8C53.6844 169.36 53.691 169.853 53.7044 170.28C53.731 170.693 53.771 171.1 53.8244 171.5H51.3644C51.311 171.207 51.2777 170.987 51.2644 170.84C51.2644 170.68 51.2644 170.447 51.2644 170.14C50.9844 170.567 50.5444 170.94 49.9444 171.26C49.3444 171.58 48.5844 171.74 47.6644 171.74ZM48.4844 169.7C48.911 169.7 49.3177 169.627 49.7044 169.48C50.1044 169.32 50.4244 169.08 50.6644 168.76C50.9177 168.427 51.0444 168.007 51.0444 167.5V167H48.3844C47.8777 167 47.4777 167.12 47.1844 167.36C46.9044 167.587 46.7644 167.9 46.7644 168.3C46.7644 168.727 46.911 169.067 47.2044 169.32C47.4977 169.573 47.9244 169.7 48.4844 169.7ZM60.0883 171.74C59.2216 171.74 58.4949 171.653 57.9083 171.48C57.3216 171.293 56.8349 171.047 56.4483 170.74C56.0749 170.42 55.7949 170.06 55.6083 169.66C55.4349 169.26 55.3283 168.84 55.2883 168.4H57.9283C57.9949 168.747 58.2016 169.033 58.5483 169.26C58.8949 169.473 59.4083 169.58 60.0883 169.58C60.8616 169.58 61.4149 169.473 61.7483 169.26C62.0816 169.047 62.2483 168.773 62.2483 168.44C62.2483 168.2 62.1749 168.007 62.0283 167.86C61.8816 167.7 61.6216 167.567 61.2483 167.46C60.8749 167.34 60.3483 167.22 59.6683 167.1C59.0816 167.02 58.5416 166.913 58.0483 166.78C57.5549 166.633 57.1216 166.433 56.7483 166.18C56.3883 165.927 56.1016 165.613 55.8883 165.24C55.6883 164.853 55.5883 164.387 55.5883 163.84C55.5883 163.253 55.7616 162.72 56.1083 162.24C56.4683 161.76 56.9816 161.38 57.6483 161.1C58.3283 160.807 59.1416 160.66 60.0883 160.66C61.1149 160.66 61.9349 160.82 62.5483 161.14C63.1616 161.46 63.6216 161.873 63.9283 162.38C64.2349 162.887 64.4216 163.427 64.4883 164H61.8483C61.7416 163.613 61.5349 163.32 61.2283 163.12C60.9216 162.92 60.5416 162.82 60.0883 162.82C59.4216 162.82 58.9416 162.927 58.6483 163.14C58.3683 163.34 58.2283 163.593 58.2283 163.9C58.2283 164.22 58.3816 164.467 58.6883 164.64C59.0083 164.813 59.6549 164.967 60.6283 165.1C61.2283 165.18 61.7816 165.3 62.2883 165.46C62.8083 165.607 63.2616 165.807 63.6483 166.06C64.0349 166.313 64.3349 166.633 64.5483 167.02C64.7749 167.393 64.8883 167.853 64.8883 168.4C64.8883 169.053 64.7083 169.633 64.3483 170.14C64.0016 170.633 63.4683 171.027 62.7483 171.32C62.0416 171.6 61.1549 171.74 60.0883 171.74ZM70.8648 171.62C70.0382 171.62 69.3582 171.507 68.8248 171.28C68.2915 171.04 67.8982 170.66 67.6448 170.14C67.4048 169.62 67.2848 168.947 67.2848 168.12V163.1H65.8648V160.9H67.2848V158.5H69.9048V160.9H72.4648V163.1H69.9048V167.7C69.9048 168.3 70.0115 168.733 70.2248 169C70.4515 169.253 70.8648 169.38 71.4648 169.38C71.8648 169.38 72.2648 169.36 72.6648 169.32V171.52C72.4115 171.547 72.1448 171.567 71.8648 171.58C71.5982 171.607 71.2648 171.62 70.8648 171.62ZM79.5927 171.5V157.5H85.2527C86.426 157.5 87.3993 157.687 88.1727 158.06C88.9593 158.433 89.5527 158.96 89.9527 159.64C90.3527 160.307 90.5527 161.093 90.5527 162C90.5527 162.96 90.306 163.8 89.8127 164.52C89.3193 165.227 88.566 165.74 87.5527 166.06L90.9527 171.5H87.4927L84.5527 166.38H82.5727V171.5H79.5927ZM82.5727 164.02H84.6727C85.7793 164.02 86.5393 163.853 86.9527 163.52C87.366 163.173 87.5727 162.667 87.5727 162C87.5727 161.333 87.366 160.833 86.9527 160.5C86.5393 160.153 85.7793 159.98 84.6727 159.98H82.5727V164.02ZM97.2883 171.74C96.3283 171.74 95.4416 171.547 94.6283 171.16C93.8283 170.76 93.1883 170.16 92.7083 169.36C92.2283 168.547 91.9883 167.527 91.9883 166.3V165.9C91.9883 164.727 92.2149 163.753 92.6683 162.98C93.1349 162.207 93.7549 161.627 94.5283 161.24C95.3016 160.853 96.1549 160.66 97.0883 160.66C98.7549 160.66 100.022 161.1 100.888 161.98C101.755 162.86 102.188 164.133 102.188 165.8V166.92H94.6883C94.7149 167.547 94.8483 168.06 95.0883 168.46C95.3416 168.847 95.6616 169.133 96.0483 169.32C96.4349 169.493 96.8483 169.58 97.2883 169.58C97.9683 169.58 98.4816 169.48 98.8283 169.28C99.1749 169.08 99.4216 168.787 99.5683 168.4H101.988C101.775 169.507 101.248 170.34 100.408 170.9C99.5683 171.46 98.5283 171.74 97.2883 171.74ZM97.1883 162.82C96.7749 162.82 96.3749 162.887 95.9883 163.02C95.6016 163.153 95.2949 163.393 95.0683 163.74C94.8416 164.073 94.7149 164.52 94.6883 165.08H99.6283C99.6149 164.48 99.4949 164.02 99.2683 163.7C99.0549 163.367 98.7683 163.14 98.4083 163.02C98.0483 162.887 97.6416 162.82 97.1883 162.82ZM108.19 171.74C107.323 171.74 106.597 171.653 106.01 171.48C105.423 171.293 104.937 171.047 104.55 170.74C104.177 170.42 103.897 170.06 103.71 169.66C103.537 169.26 103.43 168.84 103.39 168.4H106.03C106.097 168.747 106.303 169.033 106.65 169.26C106.997 169.473 107.51 169.58 108.19 169.58C108.963 169.58 109.517 169.473 109.85 169.26C110.183 169.047 110.35 168.773 110.35 168.44C110.35 168.2 110.277 168.007 110.13 167.86C109.983 167.7 109.723 167.567 109.35 167.46C108.977 167.34 108.45 167.22 107.77 167.1C107.183 167.02 106.643 166.913 106.15 166.78C105.657 166.633 105.223 166.433 104.85 166.18C104.49 165.927 104.203 165.613 103.99 165.24C103.79 164.853 103.69 164.387 103.69 163.84C103.69 163.253 103.863 162.72 104.21 162.24C104.57 161.76 105.083 161.38 105.75 161.1C106.43 160.807 107.243 160.66 108.19 160.66C109.217 160.66 110.037 160.82 110.65 161.14C111.263 161.46 111.723 161.873 112.03 162.38C112.337 162.887 112.523 163.427 112.59 164H109.95C109.843 163.613 109.637 163.32 109.33 163.12C109.023 162.92 108.643 162.82 108.19 162.82C107.523 162.82 107.043 162.927 106.75 163.14C106.47 163.34 106.33 163.593 106.33 163.9C106.33 164.22 106.483 164.467 106.79 164.64C107.11 164.813 107.757 164.967 108.73 165.1C109.33 165.18 109.883 165.3 110.39 165.46C110.91 165.607 111.363 165.807 111.75 166.06C112.137 166.313 112.437 166.633 112.65 167.02C112.877 167.393 112.99 167.853 112.99 168.4C112.99 169.053 112.81 169.633 112.45 170.14C112.103 170.633 111.57 171.027 110.85 171.32C110.143 171.6 109.257 171.74 108.19 171.74ZM114.686 175.5V160.9H117.126V162.46C117.393 161.98 117.813 161.56 118.386 161.2C118.96 160.84 119.686 160.66 120.566 160.66C121.98 160.66 123.08 161.1 123.866 161.98C124.666 162.847 125.066 164.153 125.066 165.9V166.3C125.066 167.513 124.88 168.527 124.506 169.34C124.146 170.14 123.633 170.74 122.966 171.14C122.3 171.54 121.5 171.74 120.566 171.74C119.846 171.74 119.206 171.587 118.646 171.28C118.1 170.96 117.653 170.547 117.306 170.04V175.5H114.686ZM119.946 169.5C120.64 169.5 121.22 169.24 121.686 168.72C122.153 168.187 122.386 167.38 122.386 166.3V165.9C122.386 164.9 122.16 164.153 121.706 163.66C121.266 163.153 120.68 162.9 119.946 162.9C119.453 162.9 119 163 118.586 163.2C118.186 163.387 117.873 163.673 117.646 164.06C117.42 164.433 117.306 164.913 117.306 165.5V166.7C117.306 167.327 117.413 167.853 117.626 168.28C117.853 168.693 118.166 169 118.566 169.2C118.966 169.4 119.426 169.5 119.946 169.5ZM131.571 171.74C130.611 171.74 129.724 171.547 128.911 171.16C128.111 170.76 127.471 170.153 126.991 169.34C126.511 168.527 126.271 167.513 126.271 166.3V165.9C126.271 164.753 126.511 163.793 126.991 163.02C127.471 162.233 128.111 161.647 128.911 161.26C129.724 160.86 130.611 160.66 131.571 160.66C132.544 160.66 133.431 160.86 134.231 161.26C135.031 161.647 135.671 162.233 136.151 163.02C136.631 163.793 136.871 164.753 136.871 165.9V166.3C136.871 167.487 136.631 168.487 136.151 169.3C135.671 170.113 135.031 170.727 134.231 171.14C133.431 171.54 132.544 171.74 131.571 171.74ZM131.571 169.5C132.078 169.5 132.524 169.387 132.911 169.16C133.311 168.92 133.624 168.56 133.851 168.08C134.078 167.6 134.191 167.007 134.191 166.3V165.9C134.191 165.247 134.078 164.7 133.851 164.26C133.624 163.82 133.311 163.487 132.911 163.26C132.524 163.02 132.078 162.9 131.571 162.9C131.064 162.9 130.611 163.02 130.211 163.26C129.824 163.487 129.518 163.82 129.291 164.26C129.064 164.7 128.951 165.247 128.951 165.9V166.3C128.951 167.02 129.064 167.62 129.291 168.1C129.518 168.567 129.824 168.92 130.211 169.16C130.611 169.387 131.064 169.5 131.571 169.5ZM138.583 171.5V160.9H140.983V162.46C141.25 161.98 141.663 161.56 142.223 161.2C142.783 160.84 143.55 160.66 144.523 160.66C145.817 160.66 146.777 161.007 147.403 161.7C148.043 162.393 148.363 163.393 148.363 164.7V171.5H145.723V165.3C145.723 164.513 145.557 163.92 145.223 163.52C144.903 163.107 144.35 162.9 143.563 162.9C143.003 162.9 142.55 163.013 142.203 163.24C141.857 163.467 141.603 163.76 141.443 164.12C141.283 164.48 141.203 164.873 141.203 165.3V171.5H138.583ZM154.773 171.74C153.906 171.74 153.179 171.653 152.593 171.48C152.006 171.293 151.519 171.047 151.133 170.74C150.759 170.42 150.479 170.06 150.293 169.66C150.119 169.26 150.013 168.84 149.973 168.4H152.613C152.679 168.747 152.886 169.033 153.233 169.26C153.579 169.473 154.093 169.58 154.773 169.58C155.546 169.58 156.099 169.473 156.433 169.26C156.766 169.047 156.933 168.773 156.933 168.44C156.933 168.2 156.859 168.007 156.713 167.86C156.566 167.7 156.306 167.567 155.933 167.46C155.559 167.34 155.033 167.22 154.353 167.1C153.766 167.02 153.226 166.913 152.733 166.78C152.239 166.633 151.806 166.433 151.433 166.18C151.073 165.927 150.786 165.613 150.573 165.24C150.373 164.853 150.273 164.387 150.273 163.84C150.273 163.253 150.446 162.72 150.793 162.24C151.153 161.76 151.666 161.38 152.333 161.1C153.013 160.807 153.826 160.66 154.773 160.66C155.799 160.66 156.619 160.82 157.233 161.14C157.846 161.46 158.306 161.873 158.613 162.38C158.919 162.887 159.106 163.427 159.173 164H156.533C156.426 163.613 156.219 163.32 155.913 163.12C155.606 162.92 155.226 162.82 154.773 162.82C154.106 162.82 153.626 162.927 153.333 163.14C153.053 163.34 152.913 163.593 152.913 163.9C152.913 164.22 153.066 164.467 153.373 164.64C153.693 164.813 154.339 164.967 155.313 165.1C155.913 165.18 156.466 165.3 156.973 165.46C157.493 165.607 157.946 165.807 158.333 166.06C158.719 166.313 159.019 166.633 159.233 167.02C159.459 167.393 159.573 167.853 159.573 168.4C159.573 169.053 159.393 169.633 159.033 170.14C158.686 170.633 158.153 171.027 157.433 171.32C156.726 171.6 155.839 171.74 154.773 171.74ZM166.049 171.74C165.089 171.74 164.203 171.547 163.389 171.16C162.589 170.76 161.949 170.16 161.469 169.36C160.989 168.547 160.749 167.527 160.749 166.3V165.9C160.749 164.727 160.976 163.753 161.429 162.98C161.896 162.207 162.516 161.627 163.289 161.24C164.063 160.853 164.916 160.66 165.849 160.66C167.516 160.66 168.783 161.1 169.649 161.98C170.516 162.86 170.949 164.133 170.949 165.8V166.92H163.449C163.476 167.547 163.609 168.06 163.849 168.46C164.103 168.847 164.423 169.133 164.809 169.32C165.196 169.493 165.609 169.58 166.049 169.58C166.729 169.58 167.243 169.48 167.589 169.28C167.936 169.08 168.183 168.787 168.329 168.4H170.749C170.536 169.507 170.009 170.34 169.169 170.9C168.329 171.46 167.289 171.74 166.049 171.74ZM165.949 162.82C165.536 162.82 165.136 162.887 164.749 163.02C164.363 163.153 164.056 163.393 163.829 163.74C163.603 164.073 163.476 164.52 163.449 165.08H168.389C168.376 164.48 168.256 164.02 168.029 163.7C167.816 163.367 167.529 163.14 167.169 163.02C166.809 162.887 166.403 162.82 165.949 162.82Z" fill="#333333"/>
</svg>
