<svg width="144" height="144" viewBox="0 0 144 144" fill="none" xmlns="http://www.w3.org/2000/svg">
<g filter="url(#filter0_d_305_2708)">
<rect x="2" y="1" width="140" height="140" rx="8" fill="#F3F0E8"/>
<path fill-rule="evenodd" clip-rule="evenodd" d="M32.332 56.286C31.9648 56.2981 31.2836 56.3421 30.3745 56.4126C30.189 56.4269 29.9087 56.4566 29.7521 56.4785C29.5952 56.5004 29.4408 56.5085 29.4089 56.496C29.3771 56.4839 29.0293 56.5247 28.6365 56.587C28.2436 56.6491 27.8208 56.712 27.6971 56.7269C27.5732 56.7415 27.3607 56.7817 27.2246 56.816C27.0883 56.8505 26.8858 56.8905 26.7746 56.9051C26.4778 56.9442 25.9197 57.0819 25.9197 57.1162C25.9195 57.1324 25.8792 57.1351 25.8301 57.1224C25.7812 57.1095 25.7051 57.1143 25.6613 57.1332C25.6179 57.1521 25.5517 57.1735 25.5145 57.1805C25.3954 57.2029 24.9178 57.3414 24.5471 57.461C24.3491 57.5247 24.1669 57.5793 24.1421 57.582C24.0991 57.5866 24.0278 57.6119 23.827 57.694C23.6331 57.7737 23.5556 57.798 23.5221 57.791C23.503 57.7866 23.4077 57.8242 23.3102 57.8738C23.2127 57.9235 23.102 57.964 23.0639 57.964C23.0256 57.964 22.9946 57.9843 22.9946 58.0091C22.9946 58.034 22.9622 58.0542 22.9227 58.0542C22.8833 58.0542 22.795 58.0939 22.7264 58.1428C22.6579 58.1916 22.5879 58.2176 22.5712 58.2008C22.4915 58.1209 22.5707 67.738 22.6535 68.224C22.6981 68.484 22.7402 68.774 22.7475 68.8685C22.7642 69.0888 22.9343 69.7876 23.0564 70.1367C23.1082 70.2852 23.1536 70.4218 23.1568 70.4404C23.1603 70.4588 23.1674 70.4791 23.1725 70.4853C23.1773 70.4915 23.1881 70.5268 23.1962 70.5641C23.2046 70.6011 23.2438 70.7075 23.2835 70.8001C23.3231 70.893 23.3572 70.984 23.3588 71.0026C23.3607 71.0212 23.3831 71.062 23.409 71.0928C23.4347 71.1238 23.4433 71.1492 23.4284 71.1492C23.4133 71.1492 23.4411 71.2205 23.4903 71.308C23.5394 71.3954 23.5796 71.4948 23.5796 71.5294C23.5796 71.5636 23.5948 71.5985 23.6134 71.6066C23.6318 71.6149 23.736 71.7937 23.8445 72.004C23.9531 72.2143 24.07 72.4031 24.1043 72.4231C24.1385 72.4433 24.1547 72.4787 24.1404 72.5019C24.1259 72.5251 24.1356 72.544 24.1618 72.544C24.1882 72.544 24.2096 72.5778 24.2096 72.6185C24.2096 72.6596 24.26 72.7595 24.3221 72.8405C24.384 72.9217 24.4345 73.0019 24.4345 73.0189C24.4345 73.0459 24.5705 73.2228 24.7679 73.452C24.8036 73.4933 24.8559 73.5708 24.8846 73.624C24.9132 73.6775 24.9753 73.7598 25.0231 73.8076C25.0706 73.8551 25.1095 73.9143 25.1095 73.9391C25.1095 73.9639 25.14 73.9842 25.177 73.9842C25.2142 73.9842 25.2396 74.0023 25.2334 74.0242C25.2215 74.066 25.4972 74.4019 25.8071 74.7235C25.906 74.8261 26.0528 74.9862 26.1333 75.0788C26.2138 75.1714 26.2796 75.2348 26.2796 75.2197C26.2796 75.2046 26.4171 75.3304 26.5853 75.4994C26.9641 75.8801 27.5581 76.415 27.698 76.5011C27.7555 76.5368 27.824 76.6126 27.8502 76.6699C27.8762 76.7271 27.9196 76.7741 27.9464 76.7741C27.9931 76.7741 28.0708 76.8384 28.4218 77.1678C28.5074 77.2482 28.5933 77.3141 28.6127 77.3141C28.6319 77.3141 28.6926 77.3749 28.7474 77.4491C28.8023 77.5234 28.8641 77.5841 28.8849 77.5841C28.9211 77.5841 29.1522 77.7853 29.6136 78.2183C29.7346 78.332 29.8415 78.4171 29.8509 78.4076C29.8607 78.3982 29.9203 78.4519 29.9835 78.5272C30.047 78.6025 30.1123 78.6641 30.1285 78.6641C30.145 78.6641 30.2149 78.7197 30.2837 78.7878C30.5219 79.0229 30.7268 79.2041 30.7546 79.2041C30.77 79.2041 30.8429 79.2659 30.9166 79.3413C30.996 79.4223 31.0738 79.4655 31.1064 79.4466C31.1369 79.429 31.1467 79.4317 31.1278 79.4522C31.0921 79.4917 31.2614 79.699 31.3295 79.699C31.3745 79.699 31.586 79.9293 31.5881 79.9804C31.5911 80.0522 31.4885 80.0084 31.3508 79.8794C31.2717 79.8051 31.1812 79.7444 31.1494 79.7444C31.1178 79.7441 31.08 79.7136 31.0659 79.6766C31.0516 79.6393 31.0125 79.6091 30.979 79.6091C30.9455 79.6091 30.8818 79.5721 30.8375 79.527C30.7932 79.4819 30.686 79.3966 30.5996 79.3375C30.513 79.2784 30.4152 79.1987 30.3826 79.1606C30.3323 79.1026 30.3283 79.1023 30.3575 79.159C30.3766 79.1963 30.3191 79.1658 30.23 79.0915C29.8809 78.8013 29.7284 78.6844 29.626 78.629C29.5674 78.5971 29.5196 78.5504 29.5196 78.5251C29.5196 78.4997 29.5018 78.4897 29.48 78.5032C29.4584 78.5167 29.3925 78.4816 29.3336 78.4252C29.275 78.3687 29.1171 78.2451 28.9829 78.1503C28.8487 78.0555 28.7169 77.9602 28.6905 77.9389C28.6637 77.9173 28.5509 77.8282 28.4396 77.7407C28.3281 77.6532 28.1899 77.5417 28.1321 77.4928C28.0741 77.444 28.0147 77.404 27.9995 77.404C27.9844 77.404 27.9121 77.3484 27.8389 77.2804C27.7655 77.2123 27.7204 77.1869 27.7385 77.2242C27.7565 77.2612 27.7344 77.2512 27.6893 77.2015C27.5665 77.0671 27.2246 76.8062 27.2246 76.8473C27.2246 76.8667 27.1553 76.8095 27.0707 76.7198C26.9862 76.6302 26.9087 76.5649 26.8988 76.5748C26.8888 76.5848 26.8226 76.5327 26.7516 76.4587C26.6806 76.3848 26.6045 76.324 26.582 76.324C26.5459 76.324 26.443 76.24 26.1873 76.0016C26.1433 75.9603 26.099 75.9347 26.089 75.9444C26.0793 75.9544 25.9519 75.8523 25.8061 75.7176C25.6603 75.5829 25.5336 75.48 25.525 75.4886C25.5164 75.4973 25.4637 75.4611 25.4084 75.4082C25.2185 75.2262 25.0204 75.0642 24.9877 75.0642C24.955 75.0642 24.8505 74.9689 24.6286 74.7378C24.5633 74.6697 24.4877 74.6141 24.4604 74.6141C24.4334 74.6141 24.3859 74.5736 24.3551 74.5242C24.324 74.4745 24.276 74.434 24.2482 74.434C24.2201 74.434 24.1512 74.3887 24.0951 74.3328C24.0389 74.2771 23.8947 74.1424 23.7749 74.0336C23.4471 73.7358 22.8663 73.1742 22.8863 73.1742C22.896 73.1742 22.8401 73.1134 22.7624 73.0392C22.6849 72.9649 22.6058 72.9042 22.5871 72.9042C22.5685 72.9042 22.4996 72.8129 22.4343 72.7017C22.3692 72.5902 22.2988 72.4992 22.278 72.4992C22.2572 72.4992 22.2288 72.4565 22.2153 72.4047C22.2018 72.3526 22.1705 72.3226 22.1459 72.3377C22.1211 72.3529 22.0868 72.3205 22.0693 72.2656C22.052 72.2108 22.0134 72.1414 21.9834 72.1115C21.9537 72.0818 21.8608 71.9492 21.7771 71.8169C21.6934 71.6849 21.6143 71.5663 21.6011 71.5542C21.5425 71.4991 21.3862 71.2396 21.262 70.9915C21.1877 70.843 21.1118 70.7148 21.0929 70.7064C21.0743 70.6983 21.0705 70.6729 21.0843 70.6502C21.0983 70.6276 21.0884 70.6092 21.0622 70.6092C21.036 70.6092 21.0146 70.5725 21.0146 70.5277C21.0146 70.4826 20.9609 70.336 20.8956 70.2012C20.83 70.0668 20.7698 69.9161 20.7617 69.8667C20.7536 69.817 20.7074 69.6402 20.6588 69.4736C20.6105 69.307 20.5605 69.0842 20.5484 68.9787C20.4998 68.5615 20.4752 68.3768 20.4533 68.2691C20.378 67.8979 20.3405 66.965 20.3386 65.4179L20.3361 63.658L20.4606 63.5673C20.5292 63.5174 20.5934 63.4834 20.6034 63.4917C20.6137 63.5001 20.6345 63.4896 20.6496 63.4685C20.6796 63.4267 21.0554 63.2269 21.5657 62.9812L21.7345 62.8999V61.602C21.7345 60.7666 21.7185 60.3041 21.6896 60.3041C21.6648 60.3041 21.6446 60.3279 21.6446 60.3565C21.6446 60.3854 21.6319 60.3965 21.6165 60.3811C21.6011 60.3657 21.5106 60.3927 21.4159 60.441C21.3208 60.4896 21.212 60.529 21.1739 60.529C21.1356 60.529 21.1046 60.5506 21.1046 60.5768C21.1046 60.603 21.0843 60.6119 21.0595 60.5965C21.0349 60.5814 21.0146 60.5935 21.0146 60.6241C21.0146 60.6543 21.0022 60.6667 20.9871 60.6516C20.972 60.6365 20.8505 60.6856 20.7171 60.7609C20.5837 60.836 20.4746 60.8843 20.4746 60.8679C20.4746 60.8514 20.4139 60.8814 20.3396 60.934C20.2654 60.9869 20.2046 61.0174 20.2046 61.0018C20.2046 60.9656 19.8331 61.1665 19.7891 61.2267C19.7708 61.2513 19.7556 61.255 19.7554 61.2348C19.7548 61.2145 19.6989 61.2359 19.6309 61.282C19.5629 61.3282 19.4513 61.3898 19.3833 61.4192C19.3153 61.4484 19.2596 61.4905 19.2596 61.5129C19.2596 61.5523 19.092 61.6239 19.0234 61.6139C19.0048 61.6112 18.9896 61.6293 18.9896 61.6541C18.9896 61.6789 18.9591 61.6992 18.9221 61.6992C18.8849 61.6992 18.8544 61.7143 18.8544 61.7329C18.8544 61.7513 18.7439 61.8261 18.6095 61.8987C18.4748 61.9714 18.3767 62.0505 18.3916 62.0745C18.4064 62.0983 18.3965 62.1045 18.3695 62.0877C18.3425 62.071 18.2693 62.1085 18.2069 62.1706C18.1445 62.233 18.073 62.284 18.0479 62.284C17.9869 62.284 18.023 66.9223 18.0884 67.5042C18.1148 67.7391 18.1583 68.0531 18.1853 68.2016C18.2123 68.3501 18.242 68.5626 18.2515 68.6741C18.2606 68.7856 18.3203 69.0589 18.3838 69.2816C18.4472 69.5044 18.5042 69.7069 18.5104 69.7317C18.5987 70.0827 18.8363 70.6478 18.9213 70.7096C18.9464 70.7277 18.95 70.7431 18.9289 70.7434C18.9081 70.7439 18.9413 70.8301 19.0031 70.9354C19.0647 71.0407 19.1171 71.1468 19.1195 71.1716C19.1219 71.1964 19.1565 71.2548 19.1965 71.3015C19.2362 71.3479 19.2931 71.4392 19.3226 71.504C19.4108 71.697 19.5496 71.9136 19.5858 71.9138C19.6044 71.9141 19.6196 71.9422 19.6196 71.9767C19.6196 72.0113 19.6498 72.0513 19.6871 72.0653C19.7243 72.0796 19.7546 72.1207 19.7546 72.1566C19.7546 72.1922 19.7705 72.2284 19.7899 72.2365C19.8091 72.2449 19.9217 72.3782 20.0399 72.5329C20.1582 72.6877 20.2705 72.814 20.29 72.814C20.3094 72.814 20.3483 72.8648 20.3764 72.9266C20.4044 72.9884 20.4584 73.0392 20.496 73.0392C20.5338 73.0392 20.5646 73.0592 20.5646 73.0837C20.5646 73.1634 21.0956 73.7428 21.1534 73.7261C21.1734 73.7204 21.2325 73.776 21.2852 73.85C21.3376 73.9237 21.398 73.9842 21.4194 73.9842C21.4407 73.9842 21.5333 74.0549 21.6251 74.1416C21.7169 74.2283 21.8076 74.299 21.8268 74.299C21.846 74.299 21.9291 74.3603 22.0118 74.4351C22.3773 74.7658 22.5258 74.8836 22.5782 74.8838C22.6093 74.8841 22.6346 74.9046 22.6346 74.9297C22.6346 74.9551 22.7054 75.0094 22.7921 75.0507C22.8787 75.092 22.9495 75.1557 22.9495 75.1924C22.9495 75.2292 22.9635 75.2454 22.9802 75.2284C22.9973 75.2113 23.0783 75.2626 23.1603 75.342C23.2424 75.4217 23.3096 75.4727 23.3096 75.4554C23.3096 75.4381 23.3466 75.4595 23.3923 75.5029C23.4376 75.5461 23.5219 75.612 23.5796 75.649C23.6372 75.6863 23.7217 75.7522 23.767 75.7954C23.8124 75.8386 23.8661 75.8742 23.8861 75.8742C23.9061 75.8742 23.962 75.9096 24.0098 75.9528C24.1488 76.0783 24.4542 76.3013 24.4871 76.3013C24.5039 76.3016 24.5646 76.3424 24.6221 76.3923C24.8608 76.5989 25.0517 76.7269 25.0798 76.6988C25.0962 76.6826 25.1095 76.6907 25.1095 76.7171C25.1095 76.7606 25.2769 76.887 25.7842 77.2272C25.879 77.2906 26.0142 77.3875 26.0844 77.4424C26.3404 77.6424 26.9096 78.0323 26.9096 78.0075C26.9096 77.9937 26.9719 78.0447 27.0483 78.1209C27.1247 78.1973 27.203 78.2499 27.2225 78.2378C27.2422 78.2256 27.3213 78.2761 27.3985 78.3501C27.4755 78.4238 27.554 78.4843 27.5729 78.4843C27.5916 78.4843 27.678 78.545 27.7646 78.619C27.851 78.6933 27.9453 78.754 27.9736 78.754C28.0017 78.754 28.0371 78.7859 28.0519 78.8245C28.0668 78.8631 28.0957 78.8844 28.1159 78.8717C28.1364 78.8593 28.2074 78.8993 28.2739 78.9608C28.3403 79.0224 28.3946 79.061 28.3946 79.0467C28.3946 79.0321 28.4499 79.0718 28.5179 79.1347C28.5857 79.1976 28.6581 79.2492 28.6786 79.2492C28.6994 79.2492 28.8617 79.3561 29.039 79.4871C29.2167 79.618 29.4179 79.753 29.4859 79.7873C29.5539 79.8213 29.6096 79.8637 29.6096 79.8813C29.6096 79.8988 29.6703 79.9382 29.7446 79.969C29.8188 79.9998 29.8796 80.0427 29.8796 80.0646C29.8796 80.0862 29.8995 80.104 29.9241 80.104C29.966 80.104 30.0837 80.1896 30.2189 80.3179C30.2513 80.3489 30.291 80.374 30.307 80.374C30.3226 80.374 30.402 80.4248 30.483 80.4866C30.5643 80.5484 30.6447 80.5992 30.6623 80.5992C30.6796 80.5992 30.7409 80.6497 30.7981 80.7115C30.8553 80.7736 30.9223 80.8241 30.9466 80.8241C30.9706 80.8241 31.0495 80.8746 31.1213 80.9364C31.1931 80.9985 31.2679 81.049 31.2873 81.049C31.3068 81.049 31.3011 81.0895 31.2746 81.1392C31.2482 81.1886 31.2017 81.2291 31.1718 81.2291C31.1415 81.2291 31.0308 81.3077 30.9258 81.4038C30.8205 81.4999 30.7346 81.5663 30.7346 81.5515C30.7346 81.5364 30.7031 81.569 30.6644 81.6241C30.6261 81.6792 30.5654 81.724 30.5294 81.724C30.4938 81.724 30.4646 81.7416 30.4646 81.7632C30.4646 81.7845 30.2721 81.9492 30.037 82.129C29.8018 82.3088 29.6096 82.4735 29.6096 82.4951C29.6096 82.5165 29.5877 82.534 29.561 82.534C29.5342 82.534 29.4324 82.615 29.3342 82.7141C29.2361 82.8132 29.1411 82.8942 29.1227 82.8942C29.1047 82.8942 29.0561 82.9296 29.015 82.9728C28.9737 83.0162 28.886 83.0921 28.8195 83.1415C28.6054 83.3011 28.3495 83.557 28.3495 83.6116C28.3495 83.6405 28.3322 83.6537 28.3111 83.6407C28.2901 83.6275 28.2255 83.6669 28.1683 83.728C28.1108 83.789 28.0827 83.8397 28.1054 83.8405C28.1283 83.8414 28.1116 83.8624 28.0684 83.8878C28.0249 83.9129 27.9896 83.9642 27.9896 84.0015C27.9896 84.0387 27.9696 84.0571 27.945 84.042C27.9185 84.0255 27.9126 84.0457 27.9302 84.0916C27.9507 84.1448 27.9431 84.1586 27.9061 84.1357C27.8764 84.1173 27.8564 84.1192 27.8616 84.1394C27.8667 84.16 27.847 84.2577 27.8181 84.3565C27.7889 84.4556 27.7649 84.805 27.7649 85.1328L27.7646 85.7292H33.0118H38.259L38.2425 85.0204C38.2336 84.6306 38.2066 84.2812 38.1829 84.2442C38.1591 84.2069 38.1389 84.1548 38.1383 84.1284C38.1367 84.0676 37.915 83.7857 37.7096 83.5832C37.3712 83.2498 37.3245 83.209 37.2811 83.209C37.2565 83.209 37.2098 83.1666 37.1774 83.1148C37.1447 83.0629 37.1083 83.0303 37.0961 83.0424C37.084 83.0546 37.0283 83.0211 36.9727 82.9682C36.7027 82.7114 36.437 82.4833 36.3255 82.4122C36.2575 82.3693 36.1692 82.298 36.1292 82.254C36.0893 82.21 36.0329 82.1741 36.0042 82.1741C35.9753 82.1741 35.94 82.1436 35.9259 82.1066C35.9116 82.0693 35.8827 82.0391 35.8617 82.0391C35.8403 82.0391 35.7407 81.9584 35.6403 81.8598C35.4675 81.6903 35.2345 81.6225 35.2345 81.7413C35.2345 81.7648 35.221 81.7705 35.2045 81.754C35.188 81.7375 35.1424 81.751 35.1032 81.7842C35.0641 81.8174 34.8235 81.9327 34.5684 82.0402C34.3135 82.1476 34.0945 82.2521 34.0821 82.2724C34.0694 82.2926 34.02 82.3091 33.9719 82.3091C33.9239 82.3091 33.8845 82.3326 33.8845 82.3615C33.8845 82.3904 33.871 82.4006 33.8545 82.3839C33.8378 82.3674 33.7821 82.3809 33.7306 82.4141C33.6793 82.4473 33.4244 82.5705 33.1646 82.6879C32.427 83.0214 32.3098 83.0754 31.9496 83.2482C31.7639 83.3373 31.6019 83.4123 31.5895 83.4145C31.5773 83.4169 31.3878 83.5033 31.1688 83.6065C30.9498 83.7096 30.7525 83.7941 30.7301 83.7941C30.7079 83.7941 30.6896 83.8111 30.6896 83.8316C30.6896 83.8522 30.659 83.8692 30.6221 83.8692C30.5195 83.8692 30.5416 83.8041 30.6558 83.7695C30.7114 83.7528 30.8108 83.6885 30.8767 83.6272C30.9423 83.5657 31.0098 83.5192 31.0265 83.5238C31.0433 83.5284 31.1159 83.4798 31.188 83.4156C31.2603 83.3513 31.3286 83.3038 31.3405 83.3103C31.3521 83.3165 31.4029 83.2862 31.4537 83.2428C31.5041 83.1996 31.5657 83.1642 31.59 83.1642C31.6146 83.1642 31.6346 83.1472 31.6346 83.1264C31.6346 83.1056 31.6864 83.0648 31.7496 83.0362C31.8128 83.0073 31.8524 82.9639 31.8373 82.9396C31.8217 82.9142 31.8398 82.9066 31.8797 82.922C31.9181 82.9366 31.9496 82.9288 31.9496 82.9042C31.9496 82.8796 31.985 82.8467 32.0282 82.831C32.1408 82.7905 32.2955 82.6957 32.3916 82.6088C32.437 82.5678 32.488 82.534 32.5048 82.534C32.5215 82.534 32.5941 82.4816 32.6662 82.4174C32.7383 82.3534 32.8074 82.3078 32.8199 82.3161C32.8323 82.3248 32.8895 82.2889 32.9473 82.2367C33.0048 82.1846 33.1179 82.1044 33.1984 82.0583C33.2789 82.0124 33.3445 81.9589 33.3445 81.9395C33.3445 81.92 33.375 81.9041 33.412 81.9041C33.4492 81.9041 33.4795 81.8839 33.4795 81.859C33.4795 81.8344 33.5011 81.8142 33.5275 81.8142C33.5799 81.8142 33.8977 81.5874 33.922 81.5329C33.9304 81.5142 33.9649 81.4991 33.9992 81.4991C34.0335 81.4991 34.128 81.4416 34.2093 81.3717C34.2905 81.3015 34.4228 81.2059 34.5033 81.1594C34.5838 81.1127 34.6496 81.0577 34.6496 81.0369C34.6496 81.0158 34.6661 81.0091 34.6861 81.0215C34.7063 81.0339 34.7795 80.995 34.8492 80.9353C34.9186 80.8757 35.0136 80.8147 35.06 80.7998C35.1065 80.7852 35.1446 80.7585 35.1446 80.7407C35.1446 80.7231 35.2104 80.6705 35.2909 80.624C35.3714 80.5779 35.4675 80.512 35.5045 80.4782C35.5417 80.4442 35.7542 80.3011 35.977 80.1599C36.1997 80.0187 36.4211 79.8675 36.4686 79.824C36.5164 79.7806 36.5923 79.7333 36.6374 79.719C36.6827 79.7047 36.7195 79.6742 36.7195 79.651C36.7195 79.628 36.75 79.6091 36.787 79.6091C36.8242 79.6091 36.8545 79.5934 36.8545 79.5745C36.8545 79.5554 36.9457 79.49 37.057 79.429C37.1685 79.3683 37.2595 79.3016 37.2595 79.2811C37.2595 79.2605 37.2767 79.2543 37.2978 79.2673C37.3189 79.2802 37.3745 79.2562 37.4215 79.2133C37.5416 79.1045 38.1999 78.6641 38.2425 78.6641C38.262 78.6641 38.3351 78.6042 38.4056 78.5307C38.4758 78.4573 38.5493 78.4071 38.5687 78.4192C38.5881 78.4311 38.6249 78.4052 38.6505 78.3614C38.6759 78.3174 38.6975 78.2977 38.6983 78.3172C38.6988 78.3366 38.7431 78.312 38.7963 78.2623C38.8495 78.2129 38.9102 78.183 38.9313 78.1959C38.9524 78.2089 38.9696 78.1878 38.9696 78.1492C38.9696 78.1106 38.9848 78.0833 39.0034 78.0885C39.0585 78.1036 39.3007 77.9608 39.393 77.8587C39.44 77.8066 39.4964 77.7642 39.5186 77.7642C39.5404 77.7642 39.5828 77.7442 39.6128 77.7199C39.882 77.5001 39.9597 77.4464 39.9608 77.4788C39.9616 77.4996 39.9832 77.4807 40.0086 77.437C40.0343 77.3929 40.0742 77.3689 40.0974 77.3832C40.1207 77.3978 40.1396 77.3927 40.1396 77.3724C40.1396 77.3519 40.2206 77.2852 40.3196 77.2242C40.4185 77.1629 40.4995 77.0973 40.4995 77.0784C40.4995 77.0595 40.5149 77.049 40.5332 77.0549C40.5724 77.0671 41.0009 76.7809 41.05 76.7096C41.0684 76.6831 41.0835 76.6766 41.0837 76.695C41.0846 76.726 41.1971 76.645 41.3338 76.5154C41.3664 76.4844 41.4056 76.459 41.4207 76.459C41.4604 76.459 41.7118 76.277 41.8708 76.1331C41.9456 76.0651 42.0274 76.0089 42.052 76.0084C42.0768 76.0078 42.1778 75.9368 42.2766 75.8507C42.3754 75.7646 42.4802 75.6941 42.5096 75.6941C42.539 75.6941 42.6028 75.6436 42.6516 75.5815C42.7002 75.5197 42.7594 75.4692 42.7831 75.4692C42.8069 75.4692 42.8811 75.4184 42.9478 75.3566C43.0145 75.2948 43.0855 75.244 43.1052 75.244C43.1249 75.244 43.2049 75.1833 43.2829 75.1087C43.3609 75.0342 43.4246 74.9875 43.4246 75.0048C43.4246 75.0221 43.463 74.9967 43.5102 74.9489C43.5572 74.9008 43.6636 74.8109 43.7465 74.7494C43.8294 74.6875 43.9509 74.5812 44.0165 74.5131C44.0821 74.4448 44.1574 74.3892 44.1842 74.3892C44.2106 74.3892 44.2657 74.3384 44.3062 74.2766C44.3467 74.2148 44.4007 74.164 44.4258 74.164C44.4512 74.164 44.5157 74.1187 44.5697 74.0628C44.6234 74.0071 44.7879 73.8505 44.9348 73.715C45.0819 73.5792 45.1969 73.452 45.1904 73.4323C45.184 73.4126 45.2091 73.3848 45.2463 73.3708C45.2836 73.3564 45.3025 73.3259 45.2885 73.3033C45.2744 73.2806 45.2809 73.2673 45.3028 73.2744C45.35 73.2889 45.6295 73.0346 45.6295 72.9771C45.6295 72.955 45.6759 72.8942 45.7329 72.8418C45.7896 72.7894 45.9154 72.6453 46.0126 72.5216C46.1095 72.3979 46.21 72.2818 46.2356 72.2635C46.261 72.2454 46.2659 72.2303 46.2461 72.2297C46.2262 72.2295 46.2718 72.1633 46.3471 72.0829C46.4225 72.0024 46.4843 71.9128 46.4843 71.8836C46.4846 71.8544 46.5118 71.8034 46.545 71.7702C46.6368 71.6781 46.8653 71.3112 46.8542 71.2729C46.8488 71.2542 46.8682 71.2391 46.8971 71.2391C46.926 71.2391 46.9363 71.2256 46.9198 71.2094C46.9033 71.1929 46.9417 71.1119 47.0046 71.0293C47.0675 70.9467 47.1074 70.8792 47.0929 70.8792C47.0786 70.8792 47.1288 70.7677 47.2046 70.6316C47.2802 70.4955 47.331 70.384 47.3172 70.384C47.3035 70.384 47.3237 70.3233 47.3621 70.249C47.4593 70.0614 47.7444 69.1393 47.7652 68.946C47.7746 68.8582 47.8159 68.6347 47.857 68.4492C47.898 68.2634 47.9345 67.9851 47.9377 67.8304C47.9412 67.6756 47.9577 67.549 47.9741 67.549C47.9909 67.549 48.0076 66.3732 48.0117 64.9357L48.019 62.3221L47.8705 62.1914C47.7889 62.1193 47.7047 62.0602 47.6836 62.0599C47.6623 62.0594 47.5837 62.0075 47.5084 61.9441C47.4282 61.8766 47.3426 61.8404 47.3008 61.8566C47.2619 61.8715 47.2438 61.8701 47.2605 61.8531C47.2956 61.818 47.1263 61.6749 46.9176 61.5634C46.8404 61.5221 46.6657 61.4295 46.5296 61.3576C46.3933 61.2856 46.2718 61.2151 46.2596 61.2008C46.2272 61.1638 46.0631 61.0984 46.0234 61.1071C46.0048 61.1109 45.9896 61.096 45.9896 61.0736C45.9896 61.0515 45.8884 60.9967 45.7645 60.9521C45.6408 60.9078 45.5396 60.8517 45.5396 60.8276C45.5396 60.8036 45.5274 60.7961 45.5128 60.8109C45.498 60.8255 45.3994 60.7893 45.2936 60.7302C45.1877 60.671 45.0884 60.6354 45.0727 60.6508C45.0573 60.6664 45.0446 60.6543 45.0446 60.6241C45.0446 60.5935 45.0244 60.5814 44.9996 60.5965C44.9747 60.6119 44.9545 60.603 44.9545 60.5768C44.9545 60.5506 44.9234 60.529 44.8856 60.529C44.8475 60.529 44.7198 60.4801 44.6013 60.4199C44.2681 60.2512 44.2765 60.2182 44.29 61.6347L44.3021 62.8915L44.7296 63.1043C44.9647 63.2212 45.1967 63.3478 45.245 63.3856C45.2933 63.4231 45.3565 63.4542 45.3851 63.4542C45.414 63.4542 45.488 63.4939 45.5501 63.5428C45.6119 63.5914 45.6754 63.6184 45.691 63.6027C45.7115 63.5822 45.7388 65.5416 45.7299 66.3791C45.7199 67.3309 45.5366 68.7829 45.3468 69.4166C45.2947 69.5899 45.2498 69.7519 45.2469 69.7765C45.2304 69.9139 45.1103 70.249 45.0776 70.249C45.0565 70.249 45.0517 70.2693 45.0671 70.2941C45.0824 70.3189 45.0735 70.3392 45.0473 70.3392C45.0209 70.3392 44.9996 70.3643 44.9993 70.3954C44.9993 70.4998 44.5068 71.4192 44.4512 71.4192C44.4309 71.4192 44.4145 71.4408 44.4145 71.467C44.4145 71.508 44.3278 71.6379 44.1221 71.9049C44.0972 71.9371 44.0267 72.0129 43.9649 72.0737C43.9034 72.1344 43.8658 72.1841 43.8812 72.1841C43.8969 72.1841 43.8218 72.2729 43.7149 72.3817C43.6077 72.4906 43.5289 72.5883 43.5397 72.5991C43.5505 72.6102 43.5089 72.6461 43.4471 72.679C43.3852 72.7122 43.3345 72.7552 43.3345 72.7743C43.3345 72.8202 42.4111 73.759 42.366 73.759C42.3468 73.759 42.2582 73.8344 42.1691 73.9261C42.08 74.018 42.0355 74.0755 42.0703 74.0541C42.1135 74.0277 42.1232 74.0317 42.1014 74.0671C42.0838 74.0957 42.0447 74.1192 42.0144 74.1192C41.9842 74.1192 41.9018 74.1848 41.8314 74.2653C41.7606 74.3457 41.6934 74.4043 41.6818 74.3951C41.6699 74.3862 41.5255 74.4999 41.3602 74.6476C41.1953 74.7955 40.858 75.0777 40.611 75.2748C40.3642 75.4719 40.1342 75.6671 40.1004 75.7087C40.0664 75.7503 40.0113 75.784 39.9781 75.784C39.9449 75.784 39.896 75.8245 39.8696 75.8742C39.8431 75.9236 39.7967 75.9641 39.7664 75.9641C39.7359 75.9641 39.686 76.0046 39.6549 76.054C39.6241 76.1037 39.578 76.1442 39.5523 76.1442C39.5005 76.1442 38.9556 76.5846 38.9321 76.6453C38.9237 76.6666 38.8884 76.6842 38.8533 76.6842C38.8182 76.6842 38.7896 76.7044 38.7896 76.729C38.7896 76.7539 38.7628 76.7741 38.7302 76.7741C38.6975 76.7741 38.6294 76.8197 38.5787 76.8754C38.5282 76.931 38.4213 77.0274 38.3411 77.0892C38.2609 77.151 38.1683 77.2269 38.1356 77.2579C38.1027 77.2887 38.0595 77.3141 38.039 77.3141C38.0187 77.3141 37.921 77.3843 37.8221 77.4702C37.5759 77.6835 37.5859 77.6756 37.2821 77.8989C37.1336 78.0083 36.9617 78.1441 36.9001 78.2008C36.8383 78.2578 36.764 78.3042 36.7351 78.3042C36.706 78.3042 36.6752 78.3204 36.6671 78.3404C36.6587 78.3606 36.5305 78.4667 36.382 78.5764C36.2335 78.6862 36.0958 78.8015 36.0761 78.8326C36.0563 78.8636 36.0142 78.889 35.9826 78.889C35.951 78.889 35.8776 78.9398 35.8196 79.0016C35.7615 79.0634 35.6916 79.1142 35.6643 79.1142C35.637 79.1142 35.5811 79.1496 35.5401 79.1928C35.4367 79.3024 35.3338 79.3842 35.299 79.3842C35.2628 79.3842 34.8127 79.7536 34.7919 79.8003C34.7838 79.8189 34.7514 79.834 34.7198 79.834C34.6885 79.834 34.61 79.8829 34.5457 79.9426C34.4401 80.0403 34.4231 80.0438 34.3705 79.9787C34.3224 79.9196 34.3227 79.9131 34.3713 79.9426C34.4112 79.9666 34.4388 79.9471 34.4552 79.8837C34.469 79.8316 34.5065 79.7892 34.5387 79.7892C34.5711 79.7892 34.6885 79.6979 34.8 79.5867C34.9113 79.4752 35.0239 79.3842 35.0501 79.3842C35.076 79.3842 35.1308 79.3334 35.1713 79.2716C35.2118 79.2098 35.2679 79.1587 35.296 79.1582C35.3406 79.1571 35.5528 78.9784 36.0126 78.5548C36.0817 78.4913 36.1576 78.4392 36.1814 78.4392C36.2051 78.4392 36.2246 78.4081 36.2246 78.3706C36.2246 78.3328 36.2702 78.2839 36.3258 78.2621C36.4495 78.2135 36.5882 78.0542 36.5472 78.0083C36.5305 77.9896 36.5437 77.9902 36.5764 78.0088C36.6131 78.0301 36.6814 77.9988 36.7562 77.9265C36.8817 77.8055 36.9519 77.7434 37.3467 77.404C37.4765 77.2928 37.645 77.1459 37.7217 77.0779C37.7981 77.0098 37.8759 76.9542 37.8945 76.9542C37.9131 76.9542 37.9399 76.918 37.9539 76.8737C37.9679 76.8297 38.039 76.7584 38.1119 76.7152C38.1848 76.6723 38.3252 76.5616 38.4242 76.4693C38.5233 76.3772 38.7102 76.2103 38.8395 76.0991C38.9691 75.9876 39.1171 75.8537 39.1686 75.801C39.2199 75.7486 39.3501 75.632 39.4575 75.5424C39.565 75.4525 39.6382 75.379 39.6203 75.379C39.6023 75.379 39.6401 75.3377 39.7046 75.2869C39.8588 75.1657 40.2297 74.7942 40.1965 74.7942C40.1825 74.7942 40.2449 74.7224 40.335 74.6344C40.4255 74.5466 40.4995 74.467 40.4995 74.4572C40.4995 74.4478 40.5856 74.3452 40.6909 74.2296C40.7959 74.1141 40.8821 74.0053 40.8821 73.9877C40.8821 73.9702 40.9328 73.9062 40.9946 73.8457C41.0565 73.7855 41.1272 73.7039 41.1521 73.6648C41.2039 73.5827 41.4034 73.3011 41.61 73.0181C41.6885 72.9104 41.7407 72.8102 41.7261 72.7957C41.7115 72.7811 41.7185 72.7692 41.7417 72.7692C41.765 72.7692 41.8341 72.6728 41.8954 72.5554C41.9569 72.4379 42.0425 72.2932 42.0857 72.2343C42.1292 72.1752 42.1646 72.0891 42.1646 72.0432C42.1646 71.997 42.1821 71.9592 42.2034 71.9592C42.2612 71.9592 42.5045 71.4473 42.4867 71.3628C42.4829 71.3444 42.501 71.329 42.5272 71.329C42.5534 71.329 42.5633 71.3107 42.5493 71.288C42.5355 71.2653 42.5444 71.2399 42.5698 71.2315C42.5949 71.2232 42.6236 71.1748 42.6333 71.1241C42.643 71.0733 42.6862 70.9518 42.7294 70.8541C42.7726 70.7566 42.8128 70.6527 42.8193 70.6235C42.8255 70.5941 42.8828 70.4118 42.9465 70.2185C43.1141 69.709 43.2905 69.0267 43.2648 68.9854C43.2527 68.966 43.2648 68.8526 43.2918 68.7332C43.3941 68.2802 43.4665 67.501 43.439 67.1451C43.4192 66.8872 43.426 66.7841 43.463 66.7841C43.5013 66.7841 43.5146 65.6914 43.5146 62.4865C43.5146 58.7408 43.5062 58.1892 43.4487 58.1892C43.4122 58.1892 43.3161 58.1611 43.2348 58.1271C42.9057 57.9889 42.3514 57.7888 42.0971 57.7164C41.9486 57.6743 41.7968 57.6287 41.7596 57.6152C41.7223 57.6017 41.6516 57.5831 41.6021 57.5736C41.5525 57.5644 41.4056 57.5169 41.2757 57.4686C41.1456 57.42 41.0292 57.38 41.0168 57.3797C41.0046 57.3795 40.9895 57.377 40.9833 57.3743C40.9771 57.3716 40.9215 57.366 40.8596 57.3617C40.7978 57.3573 40.6137 57.3082 40.4506 57.2526C40.2878 57.1972 40.0953 57.1438 40.0232 57.1338C39.9511 57.1238 39.7605 57.0806 39.5996 57.0374C39.4386 56.9942 39.2564 56.955 39.1946 56.9507C39.1327 56.9461 39.0517 56.9315 39.0145 56.918C38.9027 56.8773 38.2412 56.7447 38.0246 56.7196C37.9131 56.7066 37.5589 56.6491 37.2371 56.5916C36.9152 56.5344 36.571 56.4866 36.4721 56.4858C36.3731 56.485 36.0185 56.4528 35.6846 56.4145C35.3503 56.3759 34.7126 56.3243 34.2671 56.3C33.4924 56.2579 33.2435 56.256 32.332 56.286ZM35.0096 59.4196C35.2679 59.4353 35.7637 59.5379 35.9546 59.6153C35.9915 59.6302 36.0528 59.6488 36.0904 59.6564C36.1832 59.6753 36.804 59.9739 36.949 60.0695C37.2549 60.2709 37.3426 60.3424 37.5521 60.5606C37.8543 60.8754 37.9345 60.9724 37.9345 61.0223C37.9345 61.0455 37.9631 61.0809 37.9979 61.1006C38.0327 61.1203 38.131 61.2729 38.2163 61.4395C38.3014 61.606 38.381 61.7327 38.3929 61.7208C38.4048 61.7089 38.4156 61.7243 38.417 61.7554C38.4215 61.8617 38.475 62.0996 38.5228 62.2254C38.6721 62.618 38.691 70.8984 38.5436 71.3066C38.5258 71.356 38.488 71.4573 38.4596 71.5315C38.4313 71.6058 38.4053 71.6819 38.4018 71.7003C38.3986 71.7189 38.3908 71.7443 38.3846 71.7567C38.3783 71.7688 38.3702 71.7942 38.3665 71.8129C38.3484 71.9038 38.0994 72.3634 38.0249 72.4433C37.9782 72.4935 37.9504 72.5451 37.9634 72.5578C37.976 72.5707 37.8027 72.7676 37.5781 72.9955C37.3534 73.2233 37.1696 73.3964 37.1696 73.3802C37.1696 73.3529 37.1228 73.3856 36.9746 73.5168C36.9433 73.5446 36.8699 73.5824 36.811 73.6011C36.7521 73.62 36.6638 73.6723 36.615 73.718C36.5661 73.7636 36.5089 73.7903 36.4878 73.7774C36.4667 73.7644 36.4495 73.7752 36.4495 73.8014C36.4495 73.8276 36.4041 73.8497 36.3482 73.8505C36.2926 73.8514 36.2078 73.8816 36.1598 73.918C36.1117 73.9545 36.0345 73.9842 35.9883 73.9842C35.9362 73.9842 35.9165 74.0039 35.9365 74.036C35.9546 74.0657 35.9489 74.076 35.923 74.0598C35.8979 74.0444 35.7456 74.0695 35.5844 74.1157C35.4235 74.1616 35.1421 74.2123 34.9593 74.228C34.7765 74.2439 34.5589 74.269 34.476 74.2839C34.3929 74.2987 34.2309 74.3155 34.1159 74.3209C33.7462 74.3384 27.7047 74.3444 27.6877 74.3271C27.6699 74.3095 28.1424 73.7933 28.5026 73.4372C28.6238 73.3173 28.7053 73.219 28.6837 73.219C28.6621 73.219 28.6897 73.1877 28.7445 73.1491L28.8446 73.0789V66.8497V60.6203L28.6646 60.451C28.5657 60.3578 28.4847 60.265 28.4847 60.2447C28.4845 60.2026 28.1715 59.8991 28.1281 59.8991C28.1121 59.8991 28.0649 59.8413 28.0233 59.7709C27.9815 59.7004 27.881 59.5773 27.7997 59.4971L27.6521 59.3518L31.1845 59.3769C33.1274 59.3907 34.8486 59.4099 35.0096 59.4196ZM32.2196 66.7895V71.7L33.1984 71.6797C34.2325 71.6584 34.3748 71.6322 34.5932 71.4227C34.6491 71.3692 34.6945 71.3395 34.6945 71.3568C34.6945 71.4454 34.8967 71.1859 35.0128 70.9483L35.1456 70.6767L35.1437 66.691C35.1416 62.206 35.1813 62.6766 34.7714 62.2756C34.6499 62.1566 34.5341 62.0696 34.5138 62.0821C34.4939 62.0945 34.4704 62.0893 34.4623 62.0707C34.4039 61.9392 33.9757 61.8787 33.1082 61.879H32.2196V66.7895ZM101.875 63.5176C101.865 63.5266 101.249 63.5457 100.507 63.5603C99.5088 63.58 99.0106 63.6094 98.5948 63.6737C98.2854 63.7215 98.0219 63.7542 98.0089 63.7463C97.996 63.7382 97.8035 63.7709 97.5812 63.819C97.359 63.867 97.1465 63.9127 97.1096 63.9208C97.0499 63.9334 97.0407 64.7885 97.0307 71.2321L97.0194 78.5291H98.752H100.485V72.6172V66.7053L100.631 66.6718C100.871 66.6167 102.075 66.6073 102.139 66.6599C102.171 66.6858 102.209 66.6947 102.224 66.6799C102.298 66.6059 102.915 67.0444 102.915 67.1713C102.915 67.2058 102.935 67.2342 102.96 67.2342C102.984 67.2342 103.001 67.2493 102.996 67.2679C102.992 67.2863 103.012 67.3827 103.041 67.4815C103.08 67.6152 103.094 69.0624 103.094 73.0954L103.095 78.5291H104.626H106.156L106.153 72.7376L106.15 66.9461L106.501 66.8389C107.468 66.5435 108.483 66.772 108.613 67.3138C108.629 67.3813 108.654 67.4569 108.669 67.4815C108.684 67.5064 108.698 67.5417 108.702 67.5604C108.706 67.579 108.711 70.0543 108.714 73.0616L108.72 78.5291H110.476H112.232L112.218 72.5554C112.205 67.1316 112.197 66.5568 112.128 66.3116C112.087 66.1631 112.051 65.9911 112.05 65.929C112.048 65.8672 112.007 65.7357 111.96 65.6366C111.912 65.5375 111.872 65.4373 111.871 65.4141C111.869 65.362 111.635 65.0124 111.588 64.9916C111.57 64.9835 111.555 64.9562 111.555 64.9314C111.555 64.8938 111.322 64.6597 110.981 64.3541C110.859 64.245 110.5 64.0204 110.463 64.0301C110.445 64.035 110.429 64.0204 110.429 63.9977C110.429 63.975 110.369 63.9429 110.295 63.9267C110.221 63.9105 110.149 63.8784 110.135 63.8557C110.121 63.8327 110.064 63.8141 110.008 63.8141C109.953 63.8141 109.888 63.7976 109.865 63.7774C109.819 63.738 109.472 63.6475 109.214 63.6078C108.886 63.5573 108.463 63.5471 106.942 63.5527C106.736 63.5536 106.196 63.6346 106.02 63.691C105.933 63.7188 105.817 63.7361 105.761 63.7296C105.706 63.7231 105.636 63.7334 105.605 63.7525C105.574 63.7717 105.518 63.7912 105.48 63.796C105.371 63.8101 104.606 64.0892 104.561 64.1316C104.538 64.1535 104.47 64.1343 104.404 64.0876C104.262 63.988 103.83 63.799 103.742 63.799C103.708 63.799 103.679 63.7866 103.679 63.7712C103.679 63.7561 103.644 63.7412 103.601 63.7385C103.557 63.7361 103.37 63.6999 103.185 63.6586C102.999 63.617 102.648 63.5746 102.405 63.5641C102.162 63.5536 101.947 63.5352 101.927 63.5233C101.908 63.5114 101.884 63.5087 101.875 63.5176ZM51.674 63.8144C51.6818 63.8659 51.7406 63.9683 51.8049 64.0412C51.8689 64.1143 51.9124 64.174 51.9013 64.174C51.89 64.174 51.9323 64.2296 51.9953 64.2974C52.0582 64.3652 52.1095 64.437 52.1095 64.457C52.1095 64.4767 52.1591 64.5463 52.2196 64.6117C52.2801 64.677 52.3195 64.747 52.3071 64.7672C52.2944 64.7875 52.3031 64.8042 52.326 64.8042C52.349 64.8042 52.421 64.8847 52.4861 64.9832L52.6046 65.1622L52.6044 71.1819L52.6041 77.2015L52.458 77.3576C52.3778 77.4432 52.312 77.5247 52.312 77.5385C52.312 77.5522 52.2642 77.6138 52.2056 77.6751C52.147 77.7364 52.0706 77.8525 52.0363 77.9329C52.0017 78.0134 51.9499 78.079 51.9215 78.079C51.8929 78.079 51.8819 78.0914 51.897 78.1066C51.9121 78.1217 51.8648 78.1843 51.7919 78.2456C51.4426 78.5396 51.3392 78.5294 54.5732 78.5275C57.8715 78.5253 58.738 78.4924 59.1705 78.352C59.3293 78.3004 59.5115 78.2488 59.5755 78.2372C59.6805 78.2183 59.9889 78.0866 60.1646 77.9856C60.2016 77.9643 60.3491 77.8822 60.4924 77.8033C60.834 77.6152 61.3589 77.1694 61.3508 77.0741C61.3472 77.0328 61.3653 76.999 61.3904 76.999C61.4423 76.999 61.6494 76.7717 61.6494 76.715C61.6496 76.6947 61.6982 76.6137 61.7576 76.5349C61.8913 76.3578 62.0984 75.8693 62.1238 75.672C62.134 75.5912 62.1683 75.467 62.1999 75.3958C62.3886 74.9692 62.2812 66.469 62.0868 66.469C62.0663 66.469 62.0611 66.4498 62.0757 66.4264C62.1122 66.3672 61.7968 65.659 61.7339 65.659C61.7171 65.659 61.6591 65.5732 61.6046 65.4679C61.4979 65.2621 60.9071 64.6692 60.8091 64.6692C60.7762 64.6692 60.7489 64.6538 60.7481 64.6354C60.7465 64.5936 60.5375 64.4386 60.4652 64.4257C60.436 64.4205 60.3412 64.3714 60.2546 64.3166C60.1679 64.262 60.0464 64.2048 59.9846 64.1894C59.9227 64.1743 59.8517 64.1467 59.8271 64.1287C59.7718 64.0884 59.447 63.9769 59.3546 63.9667C59.3174 63.9623 59.0817 63.9164 58.8306 63.8641C58.2709 63.748 58.748 63.7631 54.9107 63.7399L51.6596 63.7201L51.674 63.8144ZM64.0645 63.7542C64.0481 63.7706 64.0346 67.1016 64.0346 71.1565V78.5291H65.7671H67.4995V75.9601V73.391L68.5908 73.4118C69.191 73.4234 69.7226 73.4439 69.7721 73.4574C69.8215 73.4712 69.8722 73.4839 69.8846 73.4858C69.9489 73.4958 70.1506 73.7101 70.217 73.8387C70.2851 73.9707 70.2923 74.214 70.2905 76.2573L70.288 78.5291H72.0676H73.8469L73.832 76.2004C73.8237 74.9195 73.8053 73.8211 73.791 73.759C73.7764 73.6972 73.7424 73.5519 73.7154 73.4364C73.6609 73.2061 73.5008 72.9042 73.4324 72.9042C73.4087 72.9042 73.4036 72.8807 73.4214 72.8524C73.4389 72.8237 73.4233 72.7781 73.3863 72.7511C73.3493 72.7238 73.295 72.6563 73.2656 72.6007C73.2362 72.5454 73.1973 72.5046 73.1795 72.51C73.1616 72.5154 73.0215 72.4341 72.8679 72.3291C72.7142 72.2243 72.4866 72.115 72.3622 72.0861L72.1359 72.034L72.3713 71.8766C72.5009 71.7902 72.6233 71.6924 72.643 71.6592C72.6629 71.6263 72.701 71.599 72.728 71.599C72.7826 71.599 72.9896 71.3892 72.9896 71.3339C72.9896 71.3142 73.0301 71.2615 73.0796 71.2167C73.129 71.1719 73.1695 71.1095 73.1695 71.0785C73.1695 71.0471 73.1916 71.0142 73.2183 71.0053C73.2632 70.9904 73.3976 70.6605 73.4713 70.384C73.5656 70.0325 73.5253 66.1391 73.4233 65.7041C73.3793 65.517 73.1619 65.0291 73.1225 65.0291C73.1022 65.0291 73.0742 64.9932 73.0601 64.9492C73.0301 64.8544 72.6046 64.3992 72.546 64.3992C72.5239 64.3992 72.4793 64.3676 72.4472 64.3287C72.3781 64.2456 71.8546 63.9942 71.6885 63.9648C71.6245 63.9534 71.4709 63.9159 71.347 63.8811C71.2233 63.8465 70.9255 63.7968 70.6852 63.7712C70.2057 63.7196 64.1147 63.7039 64.0645 63.7542ZM78.3556 63.7739C78.1761 63.7947 77.9028 63.8449 77.7481 63.8854C77.5937 63.9259 77.4468 63.9637 77.422 63.9696C77.3974 63.9756 77.3213 64.0036 77.2532 64.0323C77.0461 64.1192 76.8833 64.1805 76.8596 64.1805C76.8471 64.1805 76.8209 64.2094 76.801 64.2448C76.7813 64.2801 76.7378 64.309 76.7046 64.309C76.6714 64.309 76.582 64.3671 76.5059 64.4381C76.43 64.5091 76.3598 64.5593 76.3498 64.5496C76.3401 64.5396 76.2739 64.6082 76.2029 64.7016C76.1319 64.795 76.0323 64.9122 75.9815 64.9616C75.8973 65.044 75.8055 65.2097 75.7825 65.3215C75.7774 65.3464 75.7423 65.4009 75.7045 65.4425C75.6667 65.4843 75.6491 65.5399 75.6653 65.5661C75.6815 65.5926 75.6743 65.6142 75.6491 65.6142C75.5906 65.6142 75.438 66.1132 75.4148 66.3791C75.3845 66.7285 75.3956 75.7033 75.4267 75.9763C75.4583 76.2554 75.6707 76.9029 75.755 76.9766C75.7831 77.0014 75.8317 77.0841 75.8627 77.1605C75.9245 77.3119 76.3619 77.7939 76.4208 77.775C76.4408 77.7685 76.4689 77.7939 76.4832 77.8312C76.4975 77.8684 76.5275 77.8992 76.5501 77.8992C76.5725 77.8992 76.6984 77.9705 76.8296 78.0577C76.9611 78.1449 77.1142 78.2251 77.1701 78.2356C77.2259 78.2464 77.3866 78.2985 77.527 78.3512C77.9063 78.4937 78.5705 78.5261 81.1463 78.5278L83.4308 78.5291L83.4189 77.1229L83.4071 75.7165L81.3032 75.7076C80.146 75.7025 79.1737 75.6822 79.1424 75.6625C79.1111 75.6428 79.0301 75.5591 78.9626 75.477L78.8395 75.3272V73.9132V72.4992H80.8634H82.887L82.8995 71.1154L82.9121 69.7317L80.8758 69.7422L78.8395 69.7528V68.3674V66.982L78.9612 66.7944C79.1438 66.513 79.1335 66.5141 81.3888 66.5141H83.4295V65.119V63.7242L81.0559 63.7299C79.7502 63.7331 78.5352 63.7528 78.3556 63.7739ZM85.1245 63.7542C85.108 63.7706 85.0946 67.1016 85.0946 71.1565V78.5291H86.8496H88.6045V75.9641V73.3991H90.0666H91.5289L91.5405 75.9528L91.5521 78.5067L93.3422 78.5183L95.1326 78.5302L95.1178 72.871C95.1043 67.6538 95.097 67.1888 95.0246 66.9205C94.9814 66.7601 94.9406 66.5938 94.9339 66.5503C94.9274 66.5068 94.908 66.4574 94.8907 66.4404C94.8737 66.4231 94.8588 66.3769 94.858 66.3378C94.8572 66.2986 94.8173 66.1855 94.7695 66.0867C94.7217 65.9876 94.682 65.8812 94.6812 65.8504C94.6804 65.8194 94.6593 65.794 94.6345 65.794C94.6099 65.794 94.5937 65.7789 94.5985 65.7603C94.6172 65.6917 94.3102 65.2546 94.2637 65.2835C94.2362 65.3005 94.2286 65.2918 94.2462 65.2635C94.2791 65.2103 93.8261 64.714 93.7451 64.714C93.7186 64.714 93.6903 64.6989 93.6822 64.6803C93.6414 64.589 93.2188 64.3298 93.1384 64.3471C93.1198 64.3509 93.1046 64.3357 93.1046 64.3131C93.1046 64.2655 92.4213 63.9945 92.2412 63.9702C92.1745 63.9613 92.036 63.9313 91.9328 63.9037C91.8297 63.8759 91.7341 63.8646 91.7204 63.8784C91.7066 63.8921 91.6731 63.8848 91.6458 63.8624C91.5054 63.7455 85.2371 63.6416 85.1245 63.7542ZM115.357 63.9845C115.312 64.126 115.237 64.3571 115.19 64.4983C115.143 64.6392 115.097 64.7912 115.088 64.8358C115.079 64.8803 114.988 65.1698 114.886 65.4789C114.785 65.7883 114.692 66.0994 114.679 66.1704C114.667 66.2414 114.627 66.357 114.59 66.4269C114.554 66.4971 114.516 66.601 114.505 66.658C114.495 66.715 114.483 66.7617 114.479 66.7617C114.476 66.7617 114.466 66.7971 114.458 66.8403C114.444 66.9129 114.503 66.9191 115.204 66.9191H115.964V72.7241V78.5291H117.719H119.474V71.1257V63.7223L117.456 63.725L115.438 63.7277L115.357 63.9845ZM121.975 63.7804C121.932 63.9316 121.803 64.2971 121.763 64.3792C121.739 64.43 121.724 64.4907 121.73 64.5142C121.736 64.5374 121.711 64.6273 121.674 64.714C121.638 64.8007 121.58 64.9627 121.548 65.0742C121.515 65.1854 121.45 65.3831 121.404 65.5129C121.358 65.6431 121.322 65.7546 121.323 65.7605C121.327 65.7808 121.29 65.9039 121.211 66.1315C121.139 66.3391 121.104 66.4628 121.024 66.7954L120.994 66.9191H121.764H122.535V72.7241V78.5291H124.267H126V71.1265V63.7242H123.996C122.431 63.7242 121.988 63.7363 121.975 63.7804ZM69.5471 66.4015C69.7078 66.5011 69.7985 66.6016 69.8925 66.7836L70.0199 67.0303L70.0086 68.4935L69.997 69.9566L69.8666 70.1937C69.7947 70.3238 69.7264 70.421 69.7148 70.4094C69.7032 70.3978 69.6651 70.417 69.6303 70.4521C69.4999 70.5825 69.2207 70.6243 68.3659 70.6427L67.4995 70.661V68.4478V66.2349L68.4145 66.2509L69.3293 66.2665L69.5471 66.4015ZM90.9128 66.3894C91.0424 66.4617 91.1258 66.4871 91.128 66.4547C91.1301 66.4255 91.1431 66.432 91.1571 66.469C91.1712 66.5063 91.2373 66.6075 91.304 66.6942C91.523 66.978 91.5295 67.0425 91.5295 68.9058V70.654H90.0671H88.6045V68.4435V66.2328L89.653 66.2519C90.6844 66.2708 90.7046 66.273 90.9128 66.3894ZM57.5575 66.4245C57.692 66.4493 57.8497 66.479 57.908 66.4903C57.966 66.5014 58.0422 66.5341 58.0767 66.563C58.1113 66.5916 58.1396 66.5986 58.1396 66.5786C58.1396 66.5584 58.1693 66.5813 58.2055 66.6291C58.242 66.6772 58.2722 66.7015 58.273 66.6829C58.2755 66.6253 58.4396 66.8103 58.6081 67.0606L58.769 67.2995L58.7579 71.1254C58.7477 74.775 58.7431 74.9573 58.6632 75.0753C58.617 75.1433 58.5919 75.1992 58.6073 75.1992C58.6513 75.1992 58.4053 75.4352 58.2136 75.5772C57.9609 75.7646 57.7992 75.7943 56.9133 75.8164L56.1146 75.8367V71.1079V66.3791H56.7138C57.0434 66.3791 57.4231 66.3996 57.5575 66.4245Z" fill="#EC1C24"/>
<path fill-rule="evenodd" clip-rule="evenodd" d="M20.5136 60.8289C20.4572 60.8975 20.4615 60.8989 20.5644 60.8454C20.7153 60.7668 20.7267 60.7542 20.6449 60.7542C20.6068 60.7542 20.5477 60.7876 20.5136 60.8289ZM38.3698 61.7329C38.3474 61.771 38.4141 61.9692 38.4495 61.9692C38.4619 61.9692 38.4538 61.9206 38.4311 61.8612C38.4087 61.8018 38.4022 61.741 38.4173 61.7262C38.4322 61.7113 38.4322 61.6992 38.4171 61.6992C38.4019 61.6992 38.3809 61.7143 38.3698 61.7329ZM99.879 63.5381C99.7511 63.5657 101.492 63.5557 101.767 63.5273C101.841 63.5198 101.477 63.5127 100.957 63.5117C100.437 63.5106 99.9522 63.5225 99.879 63.5381ZM101.928 63.5154C101.938 63.5246 102.058 63.5435 102.194 63.5576C102.354 63.574 102.402 63.5697 102.329 63.5457C102.218 63.5084 101.892 63.4839 101.928 63.5154ZM106.942 63.5443C106.884 63.5694 106.932 63.574 107.077 63.5573C107.201 63.543 107.31 63.5241 107.321 63.5152C107.36 63.4817 107.028 63.5071 106.942 63.5443ZM107.482 63.5273C107.774 63.5576 108.847 63.5649 108.774 63.536C108.732 63.5192 108.393 63.5071 108.022 63.5095C107.651 63.5117 107.408 63.5198 107.482 63.5273ZM18.0186 65.0515C18.0186 65.5712 18.025 65.7778 18.0329 65.5105C18.041 65.2429 18.041 64.8177 18.0329 64.5655C18.025 64.313 18.0183 64.5317 18.0186 65.0515ZM43.4382 67.0317C43.4385 67.1802 43.4469 67.2355 43.4569 67.1545C43.4671 67.0735 43.4669 66.952 43.4566 66.8845C43.4464 66.817 43.438 66.8832 43.4382 67.0317ZM47.9807 67.1216C47.9813 67.2207 47.9904 67.2558 48.0012 67.1999C48.012 67.1437 48.0115 67.0627 48.0004 67.0198C47.9891 66.9768 47.9802 67.0225 47.9807 67.1216ZM78.8957 69.74C78.9389 69.7514 79.0099 69.7514 79.0531 69.74C79.0963 69.7287 79.061 69.7195 78.9743 69.7195C78.8876 69.7195 78.8523 69.7287 78.8957 69.74ZM79.3469 69.7422C79.4654 69.7514 79.6477 69.7514 79.7519 69.7419C79.8564 69.7325 79.7597 69.7249 79.537 69.7249C79.3142 69.7252 79.2286 69.733 79.3469 69.7422ZM80.223 69.7425C80.3778 69.7511 80.631 69.7511 80.7857 69.7425C80.9404 69.7335 80.8138 69.7265 80.5044 69.7265C80.195 69.7265 80.0683 69.7335 80.223 69.7425ZM81.3481 69.7425C81.5028 69.7511 81.7558 69.7511 81.9105 69.7425C82.0652 69.7335 81.9389 69.7265 81.6295 69.7265C81.3201 69.7265 81.1934 69.7335 81.3481 69.7425ZM82.2937 69.7408C82.3496 69.7516 82.4306 69.7514 82.4738 69.74C82.5167 69.7287 82.4708 69.72 82.372 69.7203C82.2729 69.7209 82.2378 69.73 82.2937 69.7408ZM82.8099 69.7373C82.8815 69.7584 82.8893 69.8748 82.9009 71.1184L82.9139 72.4765L82.9128 71.1046C82.912 69.7662 82.9098 69.7325 82.8218 69.7236C82.7532 69.7165 82.7502 69.7198 82.8099 69.7373ZM72.8545 72.3212C73.0105 72.4273 73.0994 72.4581 72.9895 72.3682C72.9276 72.3174 72.8566 72.2759 72.8318 72.2759C72.8072 72.2756 72.8172 72.2961 72.8545 72.3212Z" fill="#F01C24"/>
<path fill-rule="evenodd" clip-rule="evenodd" d="M20.5136 60.8289C20.4572 60.8975 20.4615 60.8989 20.5644 60.8454C20.7153 60.7668 20.7267 60.7542 20.6449 60.7542C20.6068 60.7542 20.5477 60.7876 20.5136 60.8289ZM38.3698 61.7329C38.3474 61.771 38.4141 61.9692 38.4495 61.9692C38.4619 61.9692 38.4538 61.9206 38.4311 61.8612C38.4087 61.8018 38.4022 61.741 38.4173 61.7262C38.4322 61.7113 38.4322 61.6992 38.4171 61.6992C38.4019 61.6992 38.3809 61.7143 38.3698 61.7329ZM99.879 63.5381C99.7511 63.5657 101.492 63.5557 101.767 63.5273C101.841 63.5198 101.477 63.5127 100.957 63.5117C100.437 63.5106 99.9522 63.5225 99.879 63.5381ZM101.928 63.5154C101.938 63.5246 102.058 63.5435 102.194 63.5576C102.354 63.574 102.402 63.5697 102.329 63.5457C102.218 63.5084 101.892 63.4839 101.928 63.5154ZM106.942 63.5443C106.884 63.5694 106.932 63.574 107.077 63.5573C107.201 63.543 107.31 63.5241 107.321 63.5152C107.36 63.4817 107.028 63.5071 106.942 63.5443ZM107.482 63.5273C107.774 63.5576 108.847 63.5649 108.774 63.536C108.732 63.5192 108.393 63.5071 108.022 63.5095C107.651 63.5117 107.408 63.5198 107.482 63.5273ZM18.0186 65.0515C18.0186 65.5712 18.025 65.7778 18.0329 65.5105C18.041 65.2429 18.041 64.8177 18.0329 64.5655C18.025 64.313 18.0183 64.5317 18.0186 65.0515ZM43.4382 67.0317C43.4385 67.1802 43.4469 67.2355 43.4569 67.1545C43.4671 67.0735 43.4669 66.952 43.4566 66.8845C43.4464 66.817 43.438 66.8832 43.4382 67.0317ZM47.9807 67.1216C47.9813 67.2207 47.9904 67.2558 48.0012 67.1999C48.012 67.1437 48.0115 67.0627 48.0004 67.0198C47.9891 66.9768 47.9802 67.0225 47.9807 67.1216ZM78.8957 69.74C78.9389 69.7514 79.0099 69.7514 79.0531 69.74C79.0963 69.7287 79.061 69.7195 78.9743 69.7195C78.8876 69.7195 78.8523 69.7287 78.8957 69.74ZM79.3469 69.7422C79.4654 69.7514 79.6477 69.7514 79.7519 69.7419C79.8564 69.7325 79.7597 69.7249 79.537 69.7249C79.3142 69.7252 79.2286 69.733 79.3469 69.7422ZM80.223 69.7425C80.3778 69.7511 80.631 69.7511 80.7857 69.7425C80.9404 69.7335 80.8138 69.7265 80.5044 69.7265C80.195 69.7265 80.0683 69.7335 80.223 69.7425ZM81.3481 69.7425C81.5028 69.7511 81.7558 69.7511 81.9105 69.7425C82.0652 69.7335 81.9389 69.7265 81.6295 69.7265C81.3201 69.7265 81.1934 69.7335 81.3481 69.7425ZM82.2937 69.7408C82.3496 69.7516 82.4306 69.7514 82.4738 69.74C82.5167 69.7287 82.4708 69.72 82.372 69.7203C82.2729 69.7209 82.2378 69.73 82.2937 69.7408ZM82.8099 69.7373C82.8815 69.7584 82.8893 69.8748 82.9009 71.1184L82.9139 72.4765L82.9128 71.1046C82.912 69.7662 82.9098 69.7325 82.8218 69.7236C82.7532 69.7165 82.7502 69.7198 82.8099 69.7373ZM72.8545 72.3212C73.0105 72.4273 73.0994 72.4581 72.9895 72.3682C72.9276 72.3174 72.8566 72.2759 72.8318 72.2759C72.8072 72.2756 72.8172 72.2961 72.8545 72.3212Z" fill="#F01C24"/>
<path fill-rule="evenodd" clip-rule="evenodd" d="M20.5136 60.8289C20.4572 60.8975 20.4615 60.8989 20.5644 60.8454C20.7153 60.7668 20.7267 60.7542 20.6449 60.7542C20.6068 60.7542 20.5477 60.7876 20.5136 60.8289ZM38.3698 61.7329C38.3474 61.771 38.4141 61.9692 38.4495 61.9692C38.4619 61.9692 38.4538 61.9206 38.4311 61.8612C38.4087 61.8018 38.4022 61.741 38.4173 61.7262C38.4322 61.7113 38.4322 61.6992 38.4171 61.6992C38.4019 61.6992 38.3809 61.7143 38.3698 61.7329ZM99.879 63.5381C99.7511 63.5657 101.492 63.5557 101.767 63.5273C101.841 63.5198 101.477 63.5127 100.957 63.5117C100.437 63.5106 99.9522 63.5225 99.879 63.5381ZM101.928 63.5154C101.938 63.5246 102.058 63.5435 102.194 63.5576C102.354 63.574 102.402 63.5697 102.329 63.5457C102.218 63.5084 101.892 63.4839 101.928 63.5154ZM106.942 63.5443C106.884 63.5694 106.932 63.574 107.077 63.5573C107.201 63.543 107.31 63.5241 107.321 63.5152C107.36 63.4817 107.028 63.5071 106.942 63.5443ZM107.482 63.5273C107.774 63.5576 108.847 63.5649 108.774 63.536C108.732 63.5192 108.393 63.5071 108.022 63.5095C107.651 63.5117 107.408 63.5198 107.482 63.5273ZM18.0186 65.0515C18.0186 65.5712 18.025 65.7778 18.0329 65.5105C18.041 65.2429 18.041 64.8177 18.0329 64.5655C18.025 64.313 18.0183 64.5317 18.0186 65.0515ZM43.4382 67.0317C43.4385 67.1802 43.4469 67.2355 43.4569 67.1545C43.4671 67.0735 43.4669 66.952 43.4566 66.8845C43.4464 66.817 43.438 66.8832 43.4382 67.0317ZM47.9807 67.1216C47.9813 67.2207 47.9904 67.2558 48.0012 67.1999C48.012 67.1437 48.0115 67.0627 48.0004 67.0198C47.9891 66.9768 47.9802 67.0225 47.9807 67.1216ZM78.8957 69.74C78.9389 69.7514 79.0099 69.7514 79.0531 69.74C79.0963 69.7287 79.061 69.7195 78.9743 69.7195C78.8876 69.7195 78.8523 69.7287 78.8957 69.74ZM79.3469 69.7422C79.4654 69.7514 79.6477 69.7514 79.7519 69.7419C79.8564 69.7325 79.7597 69.7249 79.537 69.7249C79.3142 69.7252 79.2286 69.733 79.3469 69.7422ZM80.223 69.7425C80.3778 69.7511 80.631 69.7511 80.7857 69.7425C80.9404 69.7335 80.8138 69.7265 80.5044 69.7265C80.195 69.7265 80.0683 69.7335 80.223 69.7425ZM81.3481 69.7425C81.5028 69.7511 81.7558 69.7511 81.9105 69.7425C82.0652 69.7335 81.9389 69.7265 81.6295 69.7265C81.3201 69.7265 81.1934 69.7335 81.3481 69.7425ZM82.2937 69.7408C82.3496 69.7516 82.4306 69.7514 82.4738 69.74C82.5167 69.7287 82.4708 69.72 82.372 69.7203C82.2729 69.7209 82.2378 69.73 82.2937 69.7408ZM82.8099 69.7373C82.8815 69.7584 82.8893 69.8748 82.9009 71.1184L82.9139 72.4765L82.9128 71.1046C82.912 69.7662 82.9098 69.7325 82.8218 69.7236C82.7532 69.7165 82.7502 69.7198 82.8099 69.7373ZM72.8545 72.3212C73.0105 72.4273 73.0994 72.4581 72.9895 72.3682C72.9276 72.3174 72.8566 72.2759 72.8318 72.2759C72.8072 72.2756 72.8172 72.2961 72.8545 72.3212Z" fill="#F01C24"/>
<path fill-rule="evenodd" clip-rule="evenodd" d="M20.5136 60.8289C20.4572 60.8975 20.4615 60.8989 20.5644 60.8454C20.7153 60.7668 20.7267 60.7542 20.6449 60.7542C20.6068 60.7542 20.5477 60.7876 20.5136 60.8289ZM38.3698 61.7329C38.3474 61.771 38.4141 61.9692 38.4495 61.9692C38.4619 61.9692 38.4538 61.9206 38.4311 61.8612C38.4087 61.8018 38.4022 61.741 38.4173 61.7262C38.4322 61.7113 38.4322 61.6992 38.4171 61.6992C38.4019 61.6992 38.3809 61.7143 38.3698 61.7329ZM99.879 63.5381C99.7511 63.5657 101.492 63.5557 101.767 63.5273C101.841 63.5198 101.477 63.5127 100.957 63.5117C100.437 63.5106 99.9522 63.5225 99.879 63.5381ZM101.928 63.5154C101.938 63.5246 102.058 63.5435 102.194 63.5576C102.354 63.574 102.402 63.5697 102.329 63.5457C102.218 63.5084 101.892 63.4839 101.928 63.5154ZM106.942 63.5443C106.884 63.5694 106.932 63.574 107.077 63.5573C107.201 63.543 107.31 63.5241 107.321 63.5152C107.36 63.4817 107.028 63.5071 106.942 63.5443ZM107.482 63.5273C107.774 63.5576 108.847 63.5649 108.774 63.536C108.732 63.5192 108.393 63.5071 108.022 63.5095C107.651 63.5117 107.408 63.5198 107.482 63.5273ZM18.0186 65.0515C18.0186 65.5712 18.025 65.7778 18.0329 65.5105C18.041 65.2429 18.041 64.8177 18.0329 64.5655C18.025 64.313 18.0183 64.5317 18.0186 65.0515ZM43.4382 67.0317C43.4385 67.1802 43.4469 67.2355 43.4569 67.1545C43.4671 67.0735 43.4669 66.952 43.4566 66.8845C43.4464 66.817 43.438 66.8832 43.4382 67.0317ZM47.9807 67.1216C47.9813 67.2207 47.9904 67.2558 48.0012 67.1999C48.012 67.1437 48.0115 67.0627 48.0004 67.0198C47.9891 66.9768 47.9802 67.0225 47.9807 67.1216ZM78.8957 69.74C78.9389 69.7514 79.0099 69.7514 79.0531 69.74C79.0963 69.7287 79.061 69.7195 78.9743 69.7195C78.8876 69.7195 78.8523 69.7287 78.8957 69.74ZM79.3469 69.7422C79.4654 69.7514 79.6477 69.7514 79.7519 69.7419C79.8564 69.7325 79.7597 69.7249 79.537 69.7249C79.3142 69.7252 79.2286 69.733 79.3469 69.7422ZM80.223 69.7425C80.3778 69.7511 80.631 69.7511 80.7857 69.7425C80.9404 69.7335 80.8138 69.7265 80.5044 69.7265C80.195 69.7265 80.0683 69.7335 80.223 69.7425ZM81.3481 69.7425C81.5028 69.7511 81.7558 69.7511 81.9105 69.7425C82.0652 69.7335 81.9389 69.7265 81.6295 69.7265C81.3201 69.7265 81.1934 69.7335 81.3481 69.7425ZM82.2937 69.7408C82.3496 69.7516 82.4306 69.7514 82.4738 69.74C82.5167 69.7287 82.4708 69.72 82.372 69.7203C82.2729 69.7209 82.2378 69.73 82.2937 69.7408ZM82.8099 69.7373C82.8815 69.7584 82.8893 69.8748 82.9009 71.1184L82.9139 72.4765L82.9128 71.1046C82.912 69.7662 82.9098 69.7325 82.8218 69.7236C82.7532 69.7165 82.7502 69.7198 82.8099 69.7373ZM72.8545 72.3212C73.0105 72.4273 73.0994 72.4581 72.9895 72.3682C72.9276 72.3174 72.8566 72.2759 72.8318 72.2759C72.8072 72.2756 72.8172 72.2961 72.8545 72.3212Z" fill="#F01C24"/>
</g>
<defs>
<filter id="filter0_d_305_2708" x="0" y="0" width="144" height="144" filterUnits="userSpaceOnUse" color-interpolation-filters="sRGB">
<feFlood flood-opacity="0" result="BackgroundImageFix"/>
<feColorMatrix in="SourceAlpha" type="matrix" values="0 0 0 0 0 0 0 0 0 0 0 0 0 0 0 0 0 0 127 0" result="hardAlpha"/>
<feOffset dy="1"/>
<feGaussianBlur stdDeviation="1"/>
<feColorMatrix type="matrix" values="0 0 0 0 0 0 0 0 0 0 0 0 0 0 0 0 0 0 0.05 0"/>
<feBlend mode="normal" in2="BackgroundImageFix" result="effect1_dropShadow_305_2708"/>
<feBlend mode="normal" in="SourceGraphic" in2="effect1_dropShadow_305_2708" result="shape"/>
</filter>
</defs>
</svg>
