<svg width="120" height="24" viewBox="0 0 120 24" fill="none" xmlns="http://www.w3.org/2000/svg">
<path d="M18.85 16.6329L21.852 19.2342C21.396 19.9177 20.712 20.6202 19.8 21.3607C18.888 22.0823 17.805 22.7088 16.5509 23.2025C15.2969 23.6962 13.9479 23.962 12.4848 23.962C10.2238 23.962 8.22872 23.4493 6.48067 22.424C4.73263 21.3987 3.36459 19.9936 2.37657 18.2088C1.38854 16.424 0.894531 14.3924 0.894531 12.1519C0.894531 10.481 1.17954 8.92402 1.74955 7.462C2.31957 5.99997 3.11759 4.72782 4.16261 3.62656C5.20764 2.52529 6.44267 1.65187 7.86771 1.02529C9.31174 0.398707 10.8888 0.0949097 12.6178 0.0949097C14.8789 0.0949097 16.7409 0.531619 18.242 1.42402C19.743 2.31643 20.94 3.39871 21.852 4.67086L18.812 7.36706C18.09 6.32276 17.2349 5.46833 16.2659 4.84175C15.2969 4.19618 14.0809 3.89238 12.6178 3.89238C11.1358 3.89238 9.86275 4.27213 8.77973 5.01263C7.6967 5.77213 6.86068 6.75947 6.29067 7.99364C5.70165 9.22782 5.41664 10.5759 5.41664 12.0379C5.41664 13.5 5.70165 14.8101 6.29067 16.0063C6.87968 17.1835 7.6777 18.1329 8.74172 18.8354C9.78675 19.5379 11.0218 19.8987 12.4278 19.8987C13.7579 19.8987 14.8219 19.7088 15.6199 19.3101C16.4369 18.9304 17.0829 18.4747 17.5769 17.962C18.052 17.4304 18.47 16.9936 18.85 16.6329Z" fill="#1C2951"/>
<path d="M23.0117 15.3608C23.0117 13.8038 23.3727 12.3798 24.1137 11.0886C24.8358 9.79748 25.8428 8.75318 27.1348 7.9747C28.4269 7.19621 29.9279 6.81647 31.6379 6.81647C33.348 6.81647 34.849 7.19621 36.141 7.9747C37.4331 8.75318 38.4401 9.77849 39.1621 11.0886C39.8841 12.3798 40.2641 13.8038 40.2641 15.3608C40.2641 16.9177 39.9031 18.3418 39.1621 19.6329C38.4401 20.9241 37.4331 21.9684 36.141 22.7658C34.849 23.5443 33.348 23.943 31.6379 23.943C29.9279 23.943 28.4269 23.5443 27.1348 22.7658C25.8428 21.9874 24.8358 20.943 24.1137 19.6329C23.3727 18.3418 23.0117 16.9177 23.0117 15.3608ZM31.6379 20.4494C32.6639 20.4494 33.519 20.1836 34.184 19.6709C34.849 19.1393 35.362 18.4937 35.685 17.7152C36.008 16.9367 36.179 16.1582 36.179 15.3798C36.179 14.6013 36.008 13.8228 35.685 13.0633C35.362 12.2848 34.849 11.6393 34.184 11.1076C33.519 10.576 32.6639 10.3291 31.6379 10.3291C30.6119 10.3291 29.7569 10.5949 29.0919 11.1076C28.4269 11.6393 27.9138 12.2848 27.5908 13.0633C27.2678 13.8418 27.0968 14.6203 27.0968 15.3798C27.0968 16.1582 27.2678 16.9367 27.5908 17.7152C27.9138 18.4937 28.4269 19.1582 29.0919 19.6709C29.7569 20.1836 30.6119 20.4494 31.6379 20.4494Z" fill="#1C2951"/>
<path d="M41.0625 4.84178V0.607605H45.1096V4.84178H41.0625ZM41.0625 23.3924V7.3671H45.1096V23.3924H41.0625Z" fill="#1C2951"/>
<path d="M46.666 23.3924V7.36711H50.5231L50.6181 9.1709C51.0361 8.71521 51.6251 8.24053 52.4042 7.74685C53.1832 7.25318 54.1902 7.00635 55.4442 7.00635C57.4203 7.00635 58.9403 7.59496 60.0043 8.79116C61.0684 9.98736 61.6004 11.6013 61.6004 13.6329V23.3734H57.5723V13.6709C57.5723 12.6646 57.2873 11.8861 56.7363 11.3165C56.1852 10.7469 55.4632 10.462 54.5702 10.462C53.4492 10.462 52.5372 10.8798 51.7961 11.6962C51.0741 12.5127 50.6941 13.519 50.6941 14.6962V23.3734L46.666 23.3924Z" fill="#1C2951"/>
<path d="M111.326 11.1646L118.394 0.607595H111.668L108.001 6.51266L104.201 0.607595H96.7527L97.0947 1.08228C97.0187 1.0443 96.9237 1.00633 96.8477 0.987342C95.1566 0.322785 93.3136 0 91.3565 0C89.0005 0 86.9484 0.531646 85.1624 1.57595C83.7943 2.39241 82.6543 3.41772 81.7423 4.68987C80.7543 3.4557 79.5192 2.48734 78.0372 1.84177C76.1942 1.02532 74.1041 0.626582 71.767 0.626582H63.0078V23.4114H71.729C74.0471 23.4114 76.1371 22.9937 77.9992 22.1582C79.4812 21.4937 80.7163 20.5443 81.7043 19.3481C82.6163 20.6203 83.7753 21.6456 85.1814 22.462C86.9674 23.4873 89.0195 24 91.3565 24C93.5416 24 95.4986 23.5633 97.2277 22.7089L96.7527 23.4304H103.384L107.792 16.424L112.333 23.4304H119.895L111.326 11.1646ZM76.1181 16.3671C75.0161 17.4873 73.4961 18.057 71.539 18.057H69.069V5.88608H71.539C73.6861 5.88608 75.2631 6.43671 76.2512 7.55696C77.2582 8.67721 77.7522 10.1392 77.7522 11.962C77.7522 13.7848 77.2012 15.2468 76.1181 16.3671ZM100.325 18.038L97.4367 15.3228C96.6387 16.3101 95.8216 17.0316 95.0046 17.5063C94.1876 17.981 93.1046 18.2278 91.7555 18.2278C90.5395 18.2278 89.4945 17.962 88.5825 17.4114C87.6704 16.8608 86.9674 16.1013 86.4734 15.1329C85.9794 14.1646 85.7324 13.0823 85.7324 11.8671C85.7324 10.6899 85.9794 9.62658 86.4544 8.67721C86.9294 7.72785 87.6134 6.98734 88.5254 6.41772C89.4185 5.86709 90.5205 5.58228 91.7935 5.58228C92.9335 5.58228 93.9406 5.8481 94.8336 6.36076C95.7266 6.89241 96.4867 7.57595 97.1327 8.44937L100.135 5.43038L104.524 11.7342L100.325 18.038Z" fill="#F94A29"/>
</svg>
