<svg width="130" height="36" viewBox="0 0 130 36" fill="none" xmlns="http://www.w3.org/2000/svg">
<path fill-rule="evenodd" clip-rule="evenodd" d="M17.9032 0.537756C17.4674 0.552175 16.659 0.604405 15.5801 0.688037C15.3599 0.70502 15.0273 0.740267 14.8415 0.766222C14.6553 0.792177 14.472 0.80179 14.4342 0.78705C14.3964 0.772631 13.9837 0.821015 13.5175 0.895035C13.0512 0.968733 12.5494 1.04339 12.4027 1.06102C12.2556 1.07832 12.0034 1.12606 11.8419 1.16676C11.6801 1.20777 11.4398 1.2552 11.3078 1.2725C10.9556 1.31896 10.2933 1.48238 10.2933 1.52308C10.293 1.5423 10.2452 1.54551 10.1869 1.53045C10.1289 1.51507 10.0386 1.52083 9.98665 1.54326C9.93507 1.56569 9.85656 1.59101 9.81234 1.59934C9.67103 1.62593 9.10419 1.79031 8.66424 1.93226C8.42937 2.00789 8.21308 2.07261 8.1836 2.07582C8.13265 2.08126 8.04806 2.11138 7.80966 2.20879C7.57959 2.30332 7.48763 2.33216 7.44789 2.32383C7.42514 2.3187 7.31203 2.36324 7.19636 2.4222C7.08068 2.48116 6.94931 2.52922 6.90413 2.52922C6.85862 2.52922 6.82177 2.55326 6.82177 2.58274C6.82177 2.61221 6.78332 2.63625 6.73654 2.63625C6.68976 2.63625 6.58498 2.68335 6.50359 2.74135C6.4222 2.79935 6.33921 2.83011 6.31934 2.81024C6.22481 2.71539 6.3187 14.1288 6.41707 14.7055C6.46994 15.0141 6.51993 15.3582 6.52858 15.4704C6.54845 15.7319 6.75032 16.5611 6.89515 16.9755C6.95668 17.1517 7.01051 17.3138 7.01435 17.3359C7.01852 17.3577 7.02685 17.3818 7.03294 17.3891C7.03871 17.3965 7.05152 17.4385 7.06114 17.4827C7.07107 17.5266 7.11753 17.6528 7.16463 17.7627C7.21174 17.873 7.25211 17.981 7.25403 18.0031C7.25628 18.0252 7.28287 18.0736 7.31363 18.1101C7.34407 18.1469 7.35433 18.1771 7.3367 18.1771C7.31876 18.1771 7.35177 18.2617 7.41008 18.3655C7.4684 18.4693 7.51614 18.5872 7.51614 18.6282C7.51614 18.6689 7.53409 18.7103 7.5562 18.7199C7.57799 18.7298 7.70167 18.9419 7.83049 19.1915C7.9593 19.4412 8.09804 19.6651 8.13874 19.6888C8.17943 19.7129 8.19866 19.7549 8.18168 19.7824C8.16437 19.81 8.17591 19.8324 8.20699 19.8324C8.23839 19.8324 8.26371 19.8725 8.26371 19.9208C8.26371 19.9695 8.32363 20.0881 8.39733 20.1842C8.4707 20.2807 8.53062 20.3758 8.53062 20.396C8.53062 20.4281 8.69212 20.638 8.92635 20.91C8.96865 20.959 9.03081 21.051 9.06478 21.1141C9.09875 21.1776 9.17244 21.2753 9.22916 21.332C9.28556 21.3884 9.3317 21.4586 9.3317 21.4881C9.3317 21.5175 9.36791 21.5416 9.4118 21.5416C9.45602 21.5416 9.48614 21.563 9.47877 21.589C9.46467 21.6387 9.79183 22.0373 10.1597 22.4189C10.277 22.5407 10.4513 22.7307 10.5468 22.8406C10.6423 22.9505 10.7204 23.0258 10.7204 23.0079C10.7204 22.9899 10.8835 23.1392 11.0832 23.3398C11.5327 23.7916 12.2377 24.4264 12.4037 24.5286C12.4719 24.5709 12.5533 24.6609 12.5844 24.7289C12.6151 24.7968 12.6667 24.8526 12.6984 24.8526C12.7539 24.8526 12.8462 24.9288 13.2627 25.3197C13.3643 25.4152 13.4662 25.4934 13.4893 25.4934C13.512 25.4934 13.5841 25.5655 13.6492 25.6536C13.7142 25.7418 13.7876 25.8139 13.8123 25.8139C13.8552 25.8139 14.1295 26.0526 14.6771 26.5665C14.8207 26.7014 14.9475 26.8024 14.9588 26.7912C14.9703 26.7799 15.0411 26.8437 15.1161 26.9331C15.1914 27.0225 15.2689 27.0956 15.2882 27.0956C15.3077 27.0956 15.3907 27.1616 15.4724 27.2423C15.755 27.5214 15.9982 27.7364 16.0312 27.7364C16.0495 27.7364 16.136 27.8098 16.2235 27.8992C16.3177 27.9953 16.41 28.0466 16.4488 28.0242C16.485 28.0033 16.4965 28.0065 16.4741 28.0309C16.4318 28.0777 16.6327 28.3238 16.7134 28.3238C16.7669 28.3238 17.0178 28.5971 17.0204 28.6577C17.0239 28.7429 16.9022 28.691 16.7387 28.5378C16.6449 28.4497 16.5375 28.3776 16.4997 28.3776C16.4622 28.3773 16.4173 28.3411 16.4007 28.2972C16.3837 28.253 16.3372 28.2171 16.2975 28.2171C16.2578 28.2171 16.1822 28.1732 16.1296 28.1197C16.0771 28.0661 15.9498 27.9649 15.8473 27.8947C15.7444 27.8245 15.6285 27.73 15.5897 27.6848C15.5301 27.6159 15.5253 27.6156 15.5599 27.6829C15.5826 27.7271 15.5144 27.6909 15.4086 27.6028C14.9943 27.2583 14.8133 27.1196 14.6918 27.0539C14.6223 27.0161 14.5656 26.9607 14.5656 26.9305C14.5656 26.9004 14.5444 26.8886 14.5185 26.9046C14.4929 26.9206 14.4147 26.879 14.3448 26.812C14.2753 26.745 14.0878 26.5983 13.9286 26.4858C13.7693 26.3733 13.613 26.2602 13.5816 26.2349C13.5498 26.2093 13.4159 26.1035 13.2839 25.9997C13.1515 25.8959 12.9875 25.7635 12.9189 25.7055C12.85 25.6476 12.7795 25.6001 12.7616 25.6001C12.7436 25.6001 12.6578 25.5341 12.5709 25.4534C12.4838 25.3726 12.4302 25.3425 12.4517 25.3867C12.4732 25.4306 12.4469 25.4188 12.3934 25.3598C12.2476 25.2002 11.8419 24.8907 11.8419 24.9394C11.8419 24.9625 11.7596 24.8945 11.6593 24.7882C11.559 24.6818 11.467 24.6042 11.4552 24.6161C11.4433 24.6279 11.3648 24.5661 11.2805 24.4783C11.1963 24.3905 11.1059 24.3184 11.0793 24.3184C11.0364 24.3184 10.9143 24.2188 10.6109 23.9358C10.5586 23.8868 10.5061 23.8564 10.4942 23.8679C10.4827 23.8797 10.3314 23.7586 10.1584 23.5987C9.98537 23.4388 9.83509 23.3167 9.82484 23.327C9.81458 23.3373 9.7521 23.2943 9.68641 23.2315C9.46115 23.0155 9.22596 22.8233 9.18718 22.8233C9.14841 22.8233 9.02441 22.7102 8.76101 22.4359C8.68347 22.3551 8.59375 22.2891 8.56139 22.2891C8.52934 22.2891 8.47295 22.2411 8.43642 22.1824C8.39957 22.1235 8.34253 22.0754 8.30953 22.0754C8.2762 22.0754 8.19449 22.0216 8.12784 21.9552C8.0612 21.8892 7.89009 21.7293 7.74782 21.6002C7.35881 21.2468 6.66957 20.5803 6.69328 20.5803C6.70482 20.5803 6.63849 20.5082 6.54621 20.4201C6.45424 20.3319 6.36036 20.2599 6.33825 20.2599C6.31614 20.2599 6.23443 20.1515 6.15688 20.0195C6.07966 19.8872 5.99603 19.7792 5.97136 19.7792C5.94668 19.7792 5.91304 19.7286 5.89702 19.6671C5.88099 19.6052 5.84382 19.5696 5.81467 19.5876C5.78519 19.6055 5.74449 19.5671 5.72366 19.502C5.70316 19.437 5.65733 19.3546 5.62177 19.3191C5.58652 19.2838 5.47629 19.1265 5.37696 18.9695C5.27763 18.8128 5.18374 18.6721 5.16804 18.6577C5.09851 18.5923 4.91298 18.2844 4.76558 17.9899C4.67746 17.8137 4.58742 17.6615 4.56499 17.6516C4.54288 17.6419 4.5384 17.6118 4.55474 17.5849C4.5714 17.558 4.55954 17.5362 4.52846 17.5362C4.49738 17.5362 4.47207 17.4926 4.47207 17.4394C4.47207 17.3859 4.4083 17.2119 4.33076 17.052C4.25289 16.8925 4.18144 16.7137 4.17182 16.655C4.16221 16.5961 4.10742 16.3862 4.04974 16.1885C3.99238 15.9908 3.93311 15.7264 3.91869 15.6011C3.86101 15.1061 3.83185 14.8869 3.8059 14.759C3.7165 14.3185 3.67196 13.2114 3.66971 11.3753L3.66683 9.28675L3.81455 9.17909C3.89594 9.11981 3.9722 9.07944 3.98405 9.08937C3.99623 9.0993 4.0209 9.08681 4.03885 9.06181C4.07441 9.01215 4.52045 8.77503 5.12606 8.48344L5.32633 8.38699V6.84669C5.32633 5.85528 5.30743 5.30638 5.27314 5.30638C5.24366 5.30638 5.21963 5.33458 5.21963 5.36855C5.21963 5.40283 5.20457 5.41597 5.1863 5.39771C5.16804 5.37944 5.0607 5.41148 4.94823 5.46884C4.83543 5.52652 4.7063 5.5733 4.66112 5.5733C4.61562 5.5733 4.57877 5.59894 4.57877 5.63002C4.57877 5.6611 4.55474 5.67167 4.52526 5.65341C4.4961 5.63546 4.47207 5.64988 4.47207 5.68609C4.47207 5.72198 4.45733 5.73672 4.43938 5.71878C4.42144 5.70083 4.27725 5.75915 4.11895 5.84855C3.96066 5.93763 3.83121 5.99499 3.83121 5.97544C3.83121 5.95589 3.75911 5.99146 3.67099 6.05394C3.58288 6.11675 3.51078 6.15296 3.51078 6.13437C3.51078 6.09143 3.06987 6.32983 3.01764 6.40129C2.99585 6.43045 2.97791 6.43494 2.97759 6.4109C2.97694 6.38687 2.91062 6.41218 2.82987 6.46698C2.74912 6.52177 2.61678 6.59483 2.53603 6.62976C2.45529 6.66436 2.38928 6.71435 2.38928 6.74094C2.38928 6.78773 2.19029 6.87264 2.1089 6.86079C2.08679 6.85758 2.06885 6.87905 2.06885 6.90853C2.06885 6.93801 2.03264 6.96204 1.98874 6.96204C1.94452 6.96204 1.90831 6.97998 1.90831 7.00209C1.90831 7.02388 1.77726 7.11264 1.61768 7.19884C1.45779 7.28503 1.34147 7.37892 1.3591 7.40744C1.37672 7.43564 1.36486 7.44301 1.33282 7.42314C1.30078 7.40327 1.21394 7.44781 1.13992 7.52151C1.0659 7.59553 0.980991 7.65609 0.951191 7.65609C0.878774 7.65609 0.921711 13.1607 0.999255 13.8513C1.03066 14.13 1.08225 14.5027 1.11429 14.6789C1.14633 14.8552 1.18158 15.1074 1.19279 15.2397C1.20369 15.372 1.2745 15.6963 1.3498 15.9607C1.42511 16.225 1.49272 16.4653 1.50009 16.4948C1.60487 16.9114 1.88684 17.582 1.98778 17.6554C2.01758 17.6769 2.02174 17.6951 1.99675 17.6955C1.97208 17.6961 2.01149 17.7983 2.08487 17.9233C2.15793 18.0483 2.22009 18.1742 2.22297 18.2037C2.22586 18.2331 2.26687 18.3024 2.3143 18.3578C2.3614 18.4129 2.42901 18.5212 2.46394 18.5981C2.56872 18.8272 2.73342 19.0842 2.77636 19.0845C2.79847 19.0848 2.81641 19.1182 2.81641 19.1592C2.81641 19.2002 2.8523 19.2476 2.89652 19.2643C2.94074 19.2813 2.97662 19.33 2.97662 19.3726C2.97662 19.4149 2.99553 19.4578 3.0186 19.4674C3.04135 19.4774 3.17497 19.6357 3.31532 19.8193C3.45567 20.0029 3.58896 20.1528 3.61204 20.1528C3.63511 20.1528 3.68125 20.2131 3.71457 20.2864C3.7479 20.3598 3.81198 20.4201 3.85652 20.4201C3.90138 20.4201 3.93791 20.4438 3.93791 20.4729C3.93791 20.5675 4.5682 21.2551 4.63677 21.2352C4.66048 21.2285 4.73065 21.2945 4.79314 21.3823C4.8553 21.4698 4.92708 21.5416 4.95239 21.5416C4.9777 21.5416 5.08761 21.6255 5.19656 21.7284C5.3055 21.8312 5.41317 21.9152 5.43592 21.9152C5.45867 21.9152 5.55736 21.9879 5.65541 22.0767C6.08927 22.4692 6.26551 22.6089 6.32767 22.6092C6.36452 22.6096 6.39464 22.6339 6.39464 22.6637C6.39464 22.6938 6.4786 22.7582 6.58145 22.8073C6.68431 22.8563 6.76826 22.9319 6.76826 22.9755C6.76826 23.0191 6.78493 23.0383 6.80479 23.0181C6.82498 22.9979 6.92111 23.0588 7.01852 23.153C7.11593 23.2475 7.19572 23.3081 7.19572 23.2876C7.19572 23.2671 7.23961 23.2924 7.29377 23.344C7.3476 23.3953 7.44757 23.4734 7.51614 23.5173C7.5844 23.5616 7.68469 23.6397 7.73852 23.691C7.79236 23.7423 7.85612 23.7846 7.87983 23.7846C7.90354 23.7846 7.96987 23.8265 8.02659 23.8778C8.19161 24.0268 8.55402 24.2915 8.59311 24.2915C8.61297 24.2918 8.68507 24.3402 8.75332 24.3995C9.03658 24.6446 9.26313 24.7965 9.29645 24.7632C9.316 24.7439 9.3317 24.7536 9.3317 24.785C9.3317 24.8365 9.53036 24.9865 10.1325 25.3902C10.2449 25.4655 10.4055 25.5806 10.4888 25.6456C10.7925 25.8831 11.468 26.3458 11.468 26.3163C11.468 26.2999 11.542 26.3605 11.6327 26.4509C11.7234 26.5415 11.8163 26.604 11.8394 26.5896C11.8628 26.5752 11.9567 26.6351 12.0483 26.7229C12.1396 26.8104 12.2329 26.8822 12.2553 26.8822C12.2774 26.8822 12.3799 26.9543 12.4828 27.0421C12.5853 27.1302 12.6972 27.2023 12.7308 27.2023C12.7641 27.2023 12.8061 27.2401 12.8237 27.2859C12.8414 27.3317 12.8756 27.357 12.8997 27.342C12.924 27.3272 13.0083 27.3747 13.0871 27.4477C13.166 27.5208 13.2304 27.5666 13.2304 27.5496C13.2304 27.5323 13.296 27.5794 13.3768 27.6541C13.4572 27.7287 13.5431 27.7899 13.5675 27.7899C13.5921 27.7899 13.7847 27.9168 13.9952 28.0722C14.2061 28.2276 14.4448 28.3879 14.5255 28.4286C14.6063 28.4689 14.6723 28.5192 14.6723 28.5401C14.6723 28.5609 14.7444 28.6077 14.8325 28.6442C14.9206 28.6807 14.9927 28.7317 14.9927 28.7576C14.9927 28.7833 15.0164 28.8044 15.0456 28.8044C15.0953 28.8044 15.235 28.906 15.3955 29.0582C15.434 29.095 15.4811 29.1248 15.5 29.1248C15.5185 29.1248 15.6128 29.1851 15.7089 29.2585C15.8053 29.3318 15.9008 29.3921 15.9216 29.3921C15.9422 29.3921 16.0149 29.452 16.0828 29.5254C16.1508 29.5991 16.2302 29.659 16.2591 29.659C16.2876 29.659 16.3811 29.7189 16.4664 29.7923C16.5516 29.866 16.6404 29.9259 16.6634 29.9259C16.6865 29.9259 16.6798 29.974 16.6484 30.0329C16.617 30.0916 16.5619 30.1396 16.5263 30.1396C16.4904 30.1396 16.359 30.2329 16.2344 30.347C16.1094 30.461 16.0075 30.5399 16.0075 30.5222C16.0075 30.5043 15.97 30.5431 15.9242 30.6084C15.8787 30.6738 15.8066 30.727 15.764 30.727C15.7217 30.727 15.6871 30.7478 15.6871 30.7735C15.6871 30.7988 15.4586 30.9942 15.1795 31.2076C14.9004 31.421 14.6723 31.6165 14.6723 31.6421C14.6723 31.6675 14.6463 31.6883 14.6146 31.6883C14.5829 31.6883 14.4621 31.7844 14.3455 31.902C14.2291 32.0196 14.1163 32.1157 14.0946 32.1157C14.0731 32.1157 14.0154 32.1577 13.9667 32.209C13.9177 32.2606 13.8135 32.3506 13.7347 32.4092C13.4806 32.5986 13.1768 32.9024 13.1768 32.9671C13.1768 33.0014 13.1563 33.0171 13.1313 33.0017C13.1064 32.986 13.0298 33.0328 12.9618 33.1052C12.8936 33.1776 12.8603 33.2379 12.8872 33.2388C12.9144 33.2398 12.8945 33.2648 12.8433 33.2949C12.7917 33.3247 12.7497 33.3856 12.7497 33.4298C12.7497 33.474 12.726 33.4958 12.6968 33.4779C12.6654 33.4583 12.6584 33.4824 12.6792 33.5368C12.7036 33.6 12.6946 33.6163 12.6507 33.5891C12.6155 33.5673 12.5917 33.5695 12.5978 33.5936C12.6039 33.6179 12.5805 33.7339 12.5462 33.8512C12.5116 33.9688 12.4831 34.3834 12.4831 34.7724L12.4828 35.4802H18.71H24.9372L24.9177 34.6391C24.9071 34.1764 24.8751 33.7618 24.8469 33.7179C24.8187 33.6737 24.7946 33.6118 24.794 33.5804C24.7921 33.5083 24.529 33.1738 24.2852 32.9335C23.8837 32.5377 23.8282 32.4894 23.7766 32.4894C23.7475 32.4894 23.6921 32.439 23.6536 32.3775C23.6148 32.316 23.5716 32.2772 23.5571 32.2917C23.5427 32.3061 23.4767 32.2663 23.4107 32.2035C23.0903 31.8988 22.775 31.628 22.6426 31.5438C22.5619 31.4928 22.4571 31.4082 22.4097 31.356C22.3623 31.3038 22.2953 31.2611 22.2613 31.2611C22.227 31.2611 22.1851 31.2249 22.1684 31.181C22.1514 31.1368 22.1171 31.1009 22.0921 31.1009C22.0668 31.1009 21.9486 31.0051 21.8294 30.8882C21.6243 30.6869 21.3478 30.6065 21.3478 30.7475C21.3478 30.7754 21.3318 30.7821 21.3122 30.7626C21.2927 30.743 21.2385 30.759 21.1921 30.7984C21.1456 30.8379 20.8601 30.9747 20.5573 31.1022C20.2548 31.2297 19.9949 31.3538 19.9802 31.3778C19.9651 31.4018 19.9065 31.4214 19.8495 31.4214C19.7924 31.4214 19.7456 31.4492 19.7456 31.4835C19.7456 31.5178 19.7296 31.53 19.7101 31.5101C19.6902 31.4906 19.6242 31.5066 19.563 31.546C19.5021 31.5854 19.1996 31.7315 18.8914 31.8709C18.016 32.2667 17.8769 32.3307 17.4495 32.5358C17.229 32.6416 17.0367 32.7306 17.022 32.7332C17.0076 32.7361 16.7826 32.8386 16.5228 32.961C16.2629 33.0834 16.0287 33.1837 16.0021 33.1837C15.9758 33.1837 15.954 33.2039 15.954 33.2283C15.954 33.2526 15.9178 33.2728 15.8739 33.2728C15.7521 33.2728 15.7784 33.1956 15.914 33.1546C15.98 33.1347 16.0979 33.0584 16.1761 32.9857C16.2539 32.9126 16.334 32.8575 16.3539 32.863C16.3738 32.8684 16.46 32.8107 16.5455 32.7345C16.6314 32.6582 16.7125 32.6018 16.7266 32.6095C16.7403 32.6169 16.8006 32.581 16.8608 32.5294C16.9207 32.4781 16.9938 32.4362 17.0226 32.4362C17.0518 32.4362 17.0755 32.416 17.0755 32.3913C17.0755 32.3666 17.137 32.3182 17.212 32.2843C17.287 32.25 17.3341 32.1984 17.3162 32.1696C17.2976 32.1394 17.319 32.1305 17.3665 32.1487C17.412 32.166 17.4495 32.1567 17.4495 32.1276C17.4495 32.0984 17.4914 32.0593 17.5427 32.0408C17.6763 31.9927 17.8599 31.8802 17.974 31.777C18.0278 31.7283 18.0884 31.6883 18.1083 31.6883C18.1281 31.6883 18.2143 31.6261 18.2999 31.5499C18.3854 31.4739 18.4675 31.4198 18.4822 31.4297C18.4969 31.4399 18.5649 31.3973 18.6334 31.3355C18.7017 31.2736 18.8359 31.1785 18.9314 31.1237C19.0269 31.0692 19.1048 31.0058 19.1048 30.9827C19.1048 30.9596 19.141 30.9407 19.1849 30.9407C19.2291 30.9407 19.265 30.9167 19.265 30.8872C19.265 30.858 19.2906 30.834 19.322 30.834C19.3842 30.834 19.7613 30.5649 19.7902 30.5001C19.8001 30.478 19.8411 30.4601 19.8818 30.4601C19.9225 30.4601 20.0347 30.3918 20.1311 30.3088C20.2276 30.2255 20.3846 30.1121 20.4801 30.057C20.5756 30.0015 20.6537 29.9362 20.6537 29.9115C20.6537 29.8865 20.6733 29.8785 20.697 29.8932C20.721 29.908 20.8079 29.8618 20.8905 29.791C20.9729 29.7202 21.0857 29.6478 21.1408 29.6302C21.1959 29.6129 21.2411 29.5811 21.2411 29.56C21.2411 29.5392 21.3193 29.4767 21.4148 29.4216C21.5103 29.3668 21.6243 29.2886 21.6682 29.2485C21.7124 29.2082 21.9646 29.0383 22.229 28.8707C22.4933 28.7032 22.7561 28.5237 22.8125 28.4721C22.8692 28.4205 22.9592 28.3645 23.0127 28.3475C23.0666 28.3305 23.1102 28.2943 23.1102 28.2667C23.1102 28.2395 23.1464 28.2171 23.1903 28.2171C23.2345 28.2171 23.2704 28.1985 23.2704 28.1761C23.2704 28.1533 23.3787 28.0758 23.5107 28.0033C23.643 27.9312 23.751 27.8521 23.751 27.8278C23.751 27.8034 23.7715 27.796 23.7965 27.8114C23.8215 27.8268 23.8875 27.7983 23.9433 27.7473C24.0859 27.6182 24.8671 27.0956 24.9177 27.0956C24.9408 27.0956 25.0276 27.0244 25.1112 26.9373C25.1945 26.8501 25.2817 26.7905 25.3048 26.8049C25.3278 26.819 25.3714 26.7883 25.4019 26.7364C25.432 26.6841 25.4576 26.6607 25.4586 26.6838C25.4592 26.7069 25.5118 26.6777 25.5749 26.6188C25.638 26.5601 25.7101 26.5246 25.7351 26.5399C25.7601 26.5553 25.7806 26.5303 25.7806 26.4845C25.7806 26.4387 25.7986 26.4063 25.8207 26.4124C25.886 26.4304 26.1735 26.2609 26.283 26.1397C26.3388 26.0779 26.4058 26.0276 26.432 26.0276C26.458 26.0276 26.5083 26.0039 26.5439 25.975C26.8633 25.7142 26.9556 25.6504 26.9569 25.6889C26.9579 25.7136 26.9835 25.6911 27.0136 25.6392C27.0441 25.587 27.0915 25.5585 27.119 25.5755C27.1466 25.5928 27.169 25.5867 27.169 25.5626C27.169 25.5383 27.2652 25.4591 27.3828 25.3867C27.5 25.314 27.5962 25.2361 27.5962 25.2137C27.5962 25.1913 27.6144 25.1788 27.6362 25.1858C27.6827 25.2002 28.1912 24.8606 28.2495 24.776C28.2713 24.7446 28.2893 24.7369 28.2896 24.7587C28.2905 24.7955 28.4242 24.6994 28.5863 24.5456C28.6251 24.5087 28.6715 24.4786 28.6895 24.4786C28.7366 24.4786 29.0349 24.2627 29.2236 24.0919C29.3124 24.0111 29.4095 23.9445 29.4386 23.9438C29.4681 23.9432 29.5879 23.8589 29.7052 23.7567C29.8225 23.6545 29.9468 23.5708 29.9818 23.5708C30.0167 23.5708 30.0923 23.5109 30.1503 23.4372C30.208 23.3639 30.2782 23.3039 30.3064 23.3039C30.3346 23.3039 30.4227 23.2437 30.5018 23.1703C30.581 23.0969 30.6652 23.0367 30.6886 23.0367C30.712 23.0367 30.8069 22.9646 30.8995 22.8762C30.9921 22.7877 31.0677 22.7323 31.0677 22.7528C31.0677 22.7733 31.1132 22.7432 31.1693 22.6865C31.225 22.6294 31.3513 22.5227 31.4496 22.4497C31.548 22.3763 31.6922 22.25 31.7701 22.1693C31.8479 22.0882 31.9373 22.0222 31.9691 22.0222C32.0005 22.0222 32.0658 21.962 32.1139 21.8886C32.162 21.8152 32.226 21.755 32.2558 21.755C32.286 21.755 32.3625 21.7011 32.4266 21.6348C32.4904 21.5688 32.6855 21.383 32.8599 21.2221C33.0345 21.0609 33.171 20.91 33.1633 20.8866C33.1556 20.8632 33.1854 20.8302 33.2296 20.8136C33.2738 20.7966 33.2963 20.7604 33.2796 20.7334C33.263 20.7065 33.2706 20.6908 33.2966 20.6992C33.3527 20.7165 33.6843 20.4146 33.6843 20.3464C33.6843 20.3201 33.7394 20.248 33.807 20.1858C33.8743 20.1237 34.0237 19.9526 34.139 19.8058C34.254 19.659 34.3732 19.5213 34.4037 19.4995C34.4338 19.478 34.4396 19.4601 34.4162 19.4594C34.3925 19.4591 34.4466 19.3806 34.536 19.2851C34.6254 19.1896 34.6988 19.0832 34.6988 19.0486C34.6991 19.014 34.7315 18.9535 34.7709 18.914C34.8798 18.8048 35.1509 18.3693 35.1378 18.3238C35.1314 18.3017 35.1544 18.2838 35.1887 18.2838C35.223 18.2838 35.2352 18.2677 35.2156 18.2485C35.1961 18.229 35.2416 18.1328 35.3163 18.0348C35.3909 17.9367 35.4383 17.8566 35.421 17.8566C35.4041 17.8566 35.4637 17.7243 35.5537 17.5628C35.6434 17.4013 35.7037 17.269 35.6873 17.269C35.671 17.269 35.695 17.1969 35.7405 17.1088C35.8559 16.8861 36.1942 15.7918 36.2189 15.5624C36.2301 15.4582 36.2792 15.1929 36.3279 14.9728C36.3766 14.7523 36.4198 14.422 36.4237 14.2383C36.4278 14.0547 36.4474 13.9045 36.4669 13.9045C36.4868 13.9045 36.5067 12.509 36.5115 10.803L36.5201 7.70127L36.3439 7.54618C36.2471 7.46063 36.1471 7.39045 36.1221 7.39013C36.0968 7.38949 36.0036 7.32797 35.9142 7.25267C35.819 7.17256 35.7174 7.12963 35.6678 7.14885C35.6216 7.16647 35.6002 7.16487 35.62 7.14469C35.6617 7.10303 35.4608 6.9332 35.2131 6.80086C35.1214 6.75184 34.9141 6.64193 34.7526 6.5567C34.5908 6.47114 34.4466 6.38751 34.4322 6.37053C34.3937 6.32663 34.1989 6.24909 34.1518 6.25934C34.1297 6.26383 34.1118 6.2462 34.1118 6.21961C34.1118 6.19333 33.9916 6.12828 33.8445 6.07541C33.6978 6.02286 33.5776 5.95621 33.5776 5.9277C33.5776 5.89918 33.5632 5.89021 33.5459 5.90783C33.5283 5.92513 33.4113 5.88219 33.2857 5.81202C33.1601 5.74185 33.0422 5.69955 33.0236 5.71781C33.0053 5.7364 32.9903 5.72198 32.9903 5.68609C32.9903 5.64988 32.9662 5.63546 32.9368 5.65341C32.9073 5.67167 32.8832 5.6611 32.8832 5.63002C32.8832 5.59894 32.8464 5.5733 32.8015 5.5733C32.7564 5.5733 32.6048 5.5153 32.4641 5.44385C32.0687 5.24358 32.0786 5.20449 32.0947 6.88546L32.1091 8.37706L32.6163 8.62955C32.8954 8.7683 33.1707 8.91858 33.228 8.96344C33.2854 9.00798 33.3604 9.04483 33.3943 9.04483C33.4286 9.04483 33.5164 9.09193 33.5901 9.14993C33.6635 9.20761 33.7388 9.23965 33.7574 9.22107C33.7817 9.19671 33.8141 11.5221 33.8035 12.516C33.7917 13.6456 33.5741 15.3688 33.3488 16.1209C33.287 16.3266 33.2338 16.5188 33.2303 16.548C33.2107 16.7111 33.0681 17.1088 33.0294 17.1088C33.0044 17.1088 32.9986 17.1328 33.0169 17.1623C33.0351 17.1917 33.0246 17.2158 32.9935 17.2158C32.9621 17.2158 32.9368 17.2456 32.9364 17.2824C32.9364 17.4064 32.352 18.4975 32.286 18.4975C32.2619 18.4975 32.2424 18.5231 32.2424 18.5542C32.2424 18.6029 32.1395 18.757 31.8954 19.0739C31.8659 19.1121 31.7822 19.2021 31.7089 19.2742C31.6358 19.3463 31.5913 19.4053 31.6095 19.4053C31.6281 19.4053 31.539 19.5107 31.4122 19.6398C31.2849 19.769 31.1914 19.885 31.2042 19.8978C31.217 19.9109 31.1677 19.9535 31.0943 19.9926C31.0209 20.032 30.9607 20.083 30.9607 20.1057C30.9607 20.1602 29.8648 21.2743 29.8113 21.2743C29.7885 21.2743 29.6834 21.3637 29.5777 21.4727C29.472 21.5816 29.4191 21.6499 29.4604 21.6246C29.5117 21.5932 29.5232 21.598 29.4973 21.6399C29.4764 21.6739 29.43 21.7018 29.3941 21.7018C29.3582 21.7018 29.2605 21.7796 29.1768 21.8751C29.0929 21.9706 29.0131 22.0402 28.9993 22.0293C28.9852 22.0187 28.8138 22.1536 28.6177 22.3289C28.4219 22.5045 28.0217 22.8393 27.7285 23.0732C27.4356 23.3071 27.1626 23.5388 27.1226 23.5882C27.0822 23.6375 27.0168 23.6776 26.9774 23.6776C26.938 23.6776 26.88 23.7256 26.8486 23.7846C26.8172 23.8432 26.7621 23.8913 26.7262 23.8913C26.69 23.8913 26.6307 23.9393 26.5939 23.998C26.5573 24.0569 26.5025 24.105 26.4721 24.105C26.4106 24.105 25.7639 24.6276 25.7361 24.6997C25.7261 24.725 25.6842 24.7459 25.6425 24.7459C25.6008 24.7459 25.5669 24.7699 25.5669 24.7991C25.5669 24.8285 25.5352 24.8526 25.4964 24.8526C25.4576 24.8526 25.3769 24.9067 25.3166 24.9727C25.2567 25.0387 25.1298 25.1531 25.0347 25.2265C24.9395 25.2999 24.8296 25.3899 24.7908 25.4268C24.7517 25.4633 24.7004 25.4934 24.6761 25.4934C24.6521 25.4934 24.5361 25.5767 24.4188 25.6786C24.1266 25.9318 24.1384 25.9225 23.7779 26.1875C23.6017 26.3172 23.3976 26.4784 23.3245 26.5457C23.2511 26.6133 23.163 26.6684 23.1287 26.6684C23.0941 26.6684 23.0576 26.6877 23.048 26.7114C23.0381 26.7354 22.8859 26.8613 22.7096 26.9914C22.5334 27.1218 22.37 27.2587 22.3466 27.2955C22.3232 27.3324 22.2732 27.3625 22.2357 27.3625C22.1982 27.3625 22.1111 27.4227 22.0422 27.4961C21.9733 27.5695 21.8903 27.6297 21.8579 27.6297C21.8256 27.6297 21.7592 27.6717 21.7105 27.723C21.5878 27.8531 21.4657 27.9502 21.4244 27.9502C21.3814 27.9502 20.8473 28.3885 20.8226 28.4439C20.813 28.466 20.7745 28.484 20.7371 28.484C20.6999 28.484 20.6066 28.542 20.5304 28.6128C20.4051 28.7288 20.3849 28.733 20.3224 28.6557C20.2654 28.5856 20.2657 28.5779 20.3234 28.6128C20.3708 28.6413 20.4035 28.6182 20.423 28.5429C20.4394 28.4811 20.4839 28.4308 20.522 28.4308C20.5605 28.4308 20.6999 28.3225 20.8322 28.1905C20.9642 28.0581 21.0979 27.9502 21.1289 27.9502C21.1597 27.9502 21.2247 27.8899 21.2728 27.8165C21.3209 27.7432 21.3875 27.6826 21.4209 27.682C21.4737 27.6807 21.7256 27.4685 22.2713 26.9658C22.3533 26.8905 22.4433 26.8287 22.4715 26.8287C22.4997 26.8287 22.5228 26.7918 22.5228 26.7473C22.5228 26.7024 22.577 26.6444 22.643 26.6185C22.7897 26.5608 22.9544 26.3717 22.9057 26.3172C22.8859 26.2951 22.9016 26.2958 22.9403 26.3179C22.9839 26.3432 23.065 26.306 23.1537 26.2202C23.3027 26.0766 23.386 26.0029 23.8545 25.6001C24.0086 25.4681 24.2086 25.2938 24.2996 25.213C24.3903 25.1323 24.4825 25.0663 24.5047 25.0663C24.5268 25.0663 24.5585 25.0234 24.5752 24.9708C24.5918 24.9186 24.6761 24.834 24.7626 24.7827C24.8491 24.7318 25.0157 24.6004 25.1333 24.4908C25.2509 24.3815 25.4727 24.1835 25.6262 24.0515C25.78 23.9192 25.9556 23.7602 26.0168 23.6977C26.0776 23.6356 26.2321 23.4972 26.3596 23.3908C26.4872 23.2841 26.574 23.1969 26.5528 23.1969C26.5314 23.1969 26.5762 23.1479 26.6528 23.0876C26.8358 22.9438 27.2761 22.5029 27.2366 22.5029C27.22 22.5029 27.294 22.4176 27.401 22.3132C27.5084 22.209 27.5962 22.1145 27.5962 22.103C27.5962 22.0917 27.6984 21.97 27.8233 21.8328C27.948 21.6957 28.0502 21.5666 28.0502 21.5457C28.0502 21.5249 28.1105 21.449 28.1838 21.3772C28.2572 21.3057 28.3412 21.209 28.3706 21.1625C28.4322 21.0651 28.669 20.7309 28.9141 20.3951C29.0073 20.2672 29.0692 20.1483 29.0519 20.131C29.0346 20.1137 29.0429 20.0996 29.0705 20.0996C29.098 20.0996 29.18 19.9852 29.2528 19.8459C29.3258 19.7065 29.4274 19.5347 29.4787 19.4649C29.5303 19.3947 29.5722 19.2925 29.5722 19.238C29.5722 19.1832 29.5931 19.1384 29.6184 19.1384C29.687 19.1384 29.9757 18.5308 29.9545 18.4305C29.95 18.4087 29.9715 18.3905 30.0026 18.3905C30.0337 18.3905 30.0455 18.3687 30.0289 18.3418C30.0125 18.3148 30.0231 18.2847 30.0532 18.2748C30.083 18.2649 30.117 18.2075 30.1285 18.1473C30.1401 18.087 30.1913 17.9428 30.2426 17.8268C30.2939 17.7112 30.3416 17.5878 30.3493 17.5532C30.3567 17.5183 30.4246 17.302 30.5002 17.0725C30.6992 16.4679 30.9084 15.6582 30.878 15.6091C30.8636 15.5861 30.878 15.4515 30.91 15.3099C31.0315 14.7722 31.1174 13.8474 31.0847 13.4251C31.0613 13.1191 31.0693 12.9967 31.1132 12.9967C31.1587 12.9967 31.1744 11.6999 31.1744 7.89641C31.1744 3.4511 31.1645 2.79646 31.0962 2.79646C31.053 2.79646 30.9389 2.76314 30.8424 2.72276C30.4518 2.5587 29.794 2.32126 29.4921 2.23539C29.3159 2.1854 29.1358 2.13125 29.0916 2.11523C29.0474 2.09921 28.9634 2.0771 28.9048 2.06588C28.8458 2.05499 28.6715 1.99859 28.5174 1.94124C28.3629 1.88356 28.2248 1.83614 28.2101 1.83581C28.1957 1.83549 28.1777 1.83261 28.1704 1.82941C28.163 1.8262 28.097 1.81947 28.0236 1.81435C27.9502 1.80922 27.7317 1.7509 27.5382 1.68489C27.3449 1.6192 27.1165 1.55576 27.0309 1.5439C26.9454 1.53205 26.7191 1.48078 26.5282 1.42951C26.3372 1.37824 26.1209 1.33178 26.0475 1.32665C25.9741 1.32121 25.878 1.3039 25.8338 1.28788C25.7011 1.2395 24.9161 1.08217 24.6591 1.05237C24.5268 1.03698 24.1064 0.968733 23.7244 0.900482C23.3425 0.832551 22.9339 0.775835 22.8166 0.774874C22.699 0.773912 22.2783 0.735781 21.8819 0.69028C21.4853 0.644459 20.7284 0.583257 20.1997 0.554418C19.2804 0.504431 18.9849 0.502188 17.9032 0.537756ZM21.0809 4.25666C21.3875 4.27524 21.9758 4.39701 22.2024 4.48897C22.2463 4.50659 22.319 4.5287 22.3636 4.53767C22.4738 4.5601 23.2104 4.9145 23.3825 5.02793C23.7456 5.26697 23.8497 5.35188 24.0984 5.61079C24.4569 5.98441 24.5521 6.09945 24.5521 6.15872C24.5521 6.18628 24.5861 6.22826 24.6274 6.25165C24.6687 6.27504 24.7854 6.45608 24.8866 6.65379C24.9875 6.85149 25.0821 7.00177 25.0962 6.98768C25.1103 6.97358 25.1231 6.99184 25.1247 7.02869C25.1301 7.15494 25.1936 7.43724 25.2503 7.58656C25.4275 8.05246 25.4499 17.8794 25.275 18.3639C25.2538 18.4225 25.209 18.5427 25.1753 18.6308C25.1417 18.7189 25.1109 18.8093 25.1067 18.8311C25.1029 18.8532 25.0936 18.8833 25.0862 18.898C25.0789 18.9124 25.0693 18.9426 25.0648 18.9647C25.0433 19.0727 24.7479 19.618 24.6594 19.7129C24.604 19.7725 24.571 19.8337 24.5864 19.8487C24.6014 19.8641 24.3957 20.0977 24.1291 20.3682C23.8625 20.6386 23.6443 20.844 23.6443 20.8248C23.6443 20.7924 23.5889 20.8312 23.413 20.9869C23.3758 21.0199 23.2886 21.0648 23.2188 21.0869C23.1489 21.1093 23.0441 21.1715 22.9861 21.2256C22.9281 21.2798 22.8602 21.3115 22.8352 21.2961C22.8102 21.2807 22.7897 21.2936 22.7897 21.3246C22.7897 21.3557 22.7359 21.382 22.6696 21.383C22.6036 21.3839 22.5029 21.4198 22.4459 21.4631C22.3889 21.5063 22.2972 21.5416 22.2424 21.5416C22.1806 21.5416 22.1572 21.565 22.1809 21.6031C22.2024 21.6383 22.1956 21.6505 22.1649 21.6313C22.1351 21.613 21.9544 21.6428 21.7631 21.6976C21.5721 21.7521 21.2382 21.8123 21.0213 21.8309C20.8043 21.8498 20.5461 21.8796 20.4477 21.8972C20.349 21.9149 20.1568 21.9347 20.0203 21.9411C19.5816 21.962 12.4117 21.969 12.3915 21.9485C12.3703 21.9277 12.9311 21.315 13.3585 20.8924C13.5024 20.7501 13.5992 20.6335 13.5735 20.6335C13.5479 20.6335 13.5806 20.5963 13.6456 20.5505L13.7645 20.4672V13.0745V5.68161L13.5508 5.4807C13.4335 5.37015 13.3374 5.25992 13.3374 5.23589C13.3371 5.1859 12.9657 4.82574 12.9141 4.82574C12.8952 4.82574 12.8391 4.75717 12.7898 4.67354C12.7401 4.5899 12.6209 4.44379 12.5245 4.34862L12.3492 4.17623L16.5414 4.20603C18.8472 4.22237 20.8899 4.24512 21.0809 4.25666ZM17.7699 13.0031V18.8307L18.9314 18.8067C20.1587 18.7814 20.3275 18.7503 20.5868 18.5017C20.6531 18.4382 20.7069 18.403 20.7069 18.4235C20.7069 18.5286 20.9469 18.2206 21.0847 17.9387L21.2424 17.6163L21.2401 12.8861C21.2376 7.56349 21.2847 8.12199 20.7983 7.64616C20.6541 7.50485 20.5166 7.40167 20.4926 7.41641C20.4689 7.43115 20.441 7.42506 20.4314 7.40295C20.3622 7.2469 19.854 7.17513 18.8244 7.17545H17.7699V13.0031ZM100.435 9.12013C100.423 9.13071 99.6927 9.15346 98.8116 9.17076C97.6269 9.19415 97.0357 9.22908 96.5423 9.30534C96.1751 9.36206 95.8623 9.40083 95.8469 9.39154C95.8316 9.38192 95.6031 9.42069 95.3394 9.47773C95.0757 9.53477 94.8235 9.58892 94.7796 9.59853C94.7088 9.61359 94.6979 10.6284 94.686 18.2754L94.6726 26.9354H96.7288H98.785V19.9192V12.9031L98.9586 12.8634C99.2432 12.798 100.673 12.7868 100.749 12.8493C100.786 12.88 100.831 12.8906 100.849 12.873C100.937 12.7852 101.669 13.3056 101.669 13.4562C101.669 13.4972 101.693 13.5308 101.722 13.5308C101.751 13.5308 101.771 13.5488 101.766 13.5709C101.76 13.5927 101.785 13.7071 101.819 13.8244C101.866 13.983 101.882 15.7005 101.882 20.4867L101.883 26.9354H103.699H105.516L105.513 20.0621L105.509 13.1889L105.925 13.0617C107.073 12.7112 108.278 12.9823 108.431 13.6254C108.45 13.7055 108.48 13.7952 108.498 13.8244C108.515 13.8538 108.533 13.8958 108.537 13.9179C108.541 13.94 108.548 16.8777 108.551 20.4467L108.558 26.9354H110.642H112.727L112.71 19.8459C112.694 13.4091 112.685 12.7269 112.603 12.4359C112.554 12.2597 112.512 12.0556 112.51 11.9819C112.508 11.9085 112.46 11.7525 112.403 11.6349C112.346 11.5173 112.299 11.3984 112.298 11.3708C112.296 11.309 112.018 10.894 111.963 10.8694C111.941 10.8597 111.923 10.8274 111.923 10.7979C111.923 10.7534 111.646 10.4755 111.241 10.1128C111.097 9.98337 110.671 9.71677 110.627 9.72831C110.606 9.73407 110.587 9.71677 110.587 9.68985C110.587 9.66294 110.516 9.62481 110.428 9.60558C110.34 9.58636 110.254 9.54822 110.238 9.52131C110.221 9.49407 110.153 9.47196 110.087 9.47196C110.022 9.47196 109.945 9.45242 109.917 9.42838C109.863 9.3816 109.451 9.27426 109.145 9.22715C108.755 9.16723 108.253 9.15506 106.449 9.16179C106.204 9.16275 105.563 9.25888 105.354 9.32585C105.251 9.35885 105.113 9.37936 105.047 9.37167C104.982 9.36398 104.898 9.37615 104.862 9.3989C104.825 9.42166 104.758 9.44473 104.714 9.45049C104.584 9.46716 103.676 9.79848 103.623 9.84879C103.596 9.87474 103.514 9.85199 103.436 9.79656C103.268 9.67832 102.755 9.45402 102.651 9.45402C102.61 9.45402 102.577 9.43928 102.577 9.42101C102.577 9.40307 102.535 9.38545 102.483 9.38224C102.432 9.37936 102.21 9.33642 101.989 9.2874C101.769 9.23805 101.353 9.18774 101.064 9.17525C100.775 9.16275 100.52 9.14096 100.497 9.12686C100.474 9.11276 100.446 9.10956 100.435 9.12013ZM40.8578 9.47228C40.8671 9.53349 40.9369 9.65493 41.0132 9.74144C41.0891 9.82828 41.1407 9.89909 41.1276 9.89909C41.1141 9.89909 41.1644 9.9651 41.2391 10.0455C41.3137 10.126 41.3746 10.2112 41.3746 10.2349C41.3746 10.2583 41.4336 10.341 41.5054 10.4185C41.5771 10.4961 41.6239 10.579 41.6092 10.6031C41.5941 10.6271 41.6044 10.647 41.6316 10.647C41.6588 10.647 41.7444 10.7425 41.8216 10.8594L41.9623 11.0719L41.962 18.2158L41.9616 25.3598L41.7883 25.545C41.6931 25.6466 41.6149 25.7434 41.6149 25.7597C41.6149 25.776 41.5582 25.8491 41.4887 25.9218C41.4192 25.9946 41.3285 26.1324 41.2878 26.2278C41.2468 26.3233 41.1852 26.4012 41.1516 26.4012C41.1176 26.4012 41.1045 26.4159 41.1224 26.4339C41.1404 26.4518 41.0843 26.5262 40.9978 26.5989C40.5832 26.9479 40.4604 26.9357 44.2985 26.9334C48.2129 26.9309 49.2412 26.8918 49.7545 26.7252C49.9429 26.664 50.1592 26.6027 50.2351 26.589C50.3598 26.5665 50.7257 26.4102 50.9343 26.2903C50.9782 26.265 51.1532 26.1676 51.3233 26.074C51.7286 25.8507 52.3516 25.3217 52.342 25.2086C52.3378 25.1595 52.3593 25.1195 52.3891 25.1195C52.4506 25.1195 52.6963 24.8497 52.6963 24.7824C52.6967 24.7584 52.7543 24.6622 52.8248 24.5687C52.9835 24.3585 53.2292 23.7788 53.2593 23.5446C53.2715 23.4488 53.3122 23.3014 53.3497 23.2168C53.5737 22.7105 53.4462 12.6227 53.2154 12.6227C53.1911 12.6227 53.185 12.6 53.2023 12.5721C53.2456 12.5019 52.8713 11.6615 52.7966 11.6615C52.7768 11.6615 52.7079 11.5596 52.6432 11.4346C52.5166 11.1904 51.8155 10.4868 51.6992 10.4868C51.6601 10.4868 51.6277 10.4685 51.6268 10.4467C51.6248 10.397 51.3768 10.2131 51.2909 10.1977C51.2563 10.1916 51.1439 10.1333 51.041 10.0683C50.9382 10.0036 50.794 9.93562 50.7206 9.91736C50.6472 9.89942 50.5629 9.86673 50.5338 9.84526C50.4681 9.79752 50.0826 9.66518 49.973 9.65301C49.9288 9.64788 49.6491 9.59341 49.3511 9.53124C48.6868 9.39346 49.253 9.4114 44.6991 9.38385L40.8408 9.36045L40.8578 9.47228ZM55.5626 9.40083C55.543 9.42037 55.527 13.3735 55.527 18.1857V26.9354H57.5832H59.6391V23.8865V20.8376L60.9343 20.8623C61.6466 20.876 62.2775 20.9004 62.3361 20.9164C62.3948 20.9328 62.455 20.9478 62.4698 20.9501C62.546 20.9619 62.7854 21.2163 62.8642 21.3689C62.945 21.5255 62.9536 21.8143 62.9514 24.2393L62.9485 26.9354H65.0604H67.1721L67.1544 24.1717C67.1445 22.6515 67.1227 21.348 67.1057 21.2743C67.0884 21.201 67.048 21.0286 67.016 20.8914C66.9513 20.6181 66.7613 20.2599 66.6802 20.2599C66.652 20.2599 66.6459 20.232 66.6671 20.1983C66.6879 20.1644 66.6693 20.1102 66.6254 20.0782C66.5815 20.0458 66.5171 19.9657 66.4822 19.8997C66.4473 19.834 66.4011 19.7856 66.38 19.792C66.3588 19.7984 66.1925 19.702 66.0102 19.5773C65.8279 19.453 65.5577 19.3232 65.41 19.289L65.1415 19.2271L65.4209 19.0403C65.5747 18.9378 65.7199 18.8218 65.7433 18.7824C65.767 18.7433 65.8122 18.7109 65.8442 18.7109C65.9089 18.7109 66.1547 18.4619 66.1547 18.3962C66.1547 18.3728 66.2028 18.3104 66.2614 18.2572C66.32 18.204 66.3681 18.13 66.3681 18.0931C66.3681 18.0559 66.3944 18.0168 66.4261 18.0063C66.4793 17.9887 66.6389 17.5971 66.7263 17.269C66.8382 16.8518 66.7904 12.2312 66.6693 11.715C66.6171 11.4929 66.3591 10.9139 66.3123 10.9139C66.2883 10.9139 66.255 10.8713 66.2383 10.819C66.2028 10.7066 65.6978 10.1663 65.6282 10.1663C65.602 10.1663 65.5491 10.1288 65.511 10.0827C65.4289 9.98401 64.8076 9.68569 64.6105 9.65076C64.5346 9.6373 64.3523 9.59276 64.2052 9.55143C64.0584 9.51041 63.705 9.45146 63.4198 9.42101C62.8507 9.35981 55.6222 9.34123 55.5626 9.40083ZM72.5229 9.42422C72.3098 9.44889 71.9855 9.50849 71.8019 9.55656C71.6187 9.60462 71.4443 9.64948 71.4149 9.65653C71.3857 9.66358 71.2953 9.6969 71.2146 9.73087C70.9688 9.83405 70.7756 9.90679 70.7474 9.90679C70.7327 9.90679 70.7016 9.94107 70.6779 9.98305C70.6545 10.025 70.6029 10.0593 70.5635 10.0593C70.5241 10.0593 70.418 10.1282 70.3276 10.2125C70.2376 10.2967 70.1543 10.3563 70.1424 10.3448C70.1309 10.333 70.0524 10.4143 69.9681 10.5252C69.8839 10.6361 69.7656 10.7751 69.7054 10.8338C69.6054 10.9315 69.4965 11.1283 69.4692 11.2609C69.4631 11.2904 69.4215 11.3551 69.3766 11.4045C69.3317 11.4541 69.3109 11.5201 69.3301 11.5512C69.3494 11.5826 69.3407 11.6083 69.3109 11.6083C69.2414 11.6083 69.0603 12.2004 69.0328 12.516C68.9969 12.9307 69.01 23.5817 69.0469 23.9057C69.0844 24.237 69.3366 25.0054 69.4365 25.0929C69.4699 25.1224 69.5275 25.2204 69.5644 25.3111C69.6378 25.4909 70.1569 26.0628 70.2267 26.0404C70.2504 26.0327 70.2837 26.0628 70.3007 26.107C70.3177 26.1513 70.3533 26.1878 70.3802 26.1878C70.4068 26.1878 70.5561 26.2724 70.7118 26.3759C70.8679 26.4794 71.0496 26.5746 71.1159 26.587C71.1822 26.5999 71.3729 26.6617 71.5395 26.7242C71.9897 26.8934 72.778 26.9318 75.8349 26.9338L78.546 26.9354L78.5319 25.2666L78.5178 23.5974L76.021 23.5869C74.6477 23.5808 73.4938 23.5567 73.4566 23.5334C73.4195 23.51 73.3233 23.4106 73.2432 23.3132L73.0971 23.1354V21.4573V19.7792H75.4991H77.9007L77.9154 18.137L77.9305 16.4948L75.5138 16.5073L73.0971 16.5198V14.8757V13.2316L73.2416 13.0089C73.4582 12.675 73.4461 12.6763 76.1226 12.6763H78.5444V11.0206V9.36526L75.7275 9.37199C74.1779 9.37583 72.736 9.39923 72.5229 9.42422ZM80.5561 9.40083C80.5365 9.42037 80.5205 13.3735 80.5205 18.1857V26.9354H82.6033H84.6861V23.8913V20.8472H86.4212H88.1566L88.1704 23.8778L88.1842 26.9088L90.3086 26.9225L92.4334 26.9366L92.4158 20.2204C92.3998 14.0288 92.3911 13.477 92.3052 13.1585C92.254 12.9682 92.2056 12.7708 92.1976 12.7192C92.1899 12.6676 92.1668 12.609 92.1463 12.5888C92.1261 12.5683 92.1085 12.5135 92.1075 12.467C92.1066 12.4206 92.0592 12.2863 92.0024 12.169C91.9457 12.0514 91.8986 11.9252 91.8977 11.8886C91.8967 11.8518 91.8717 11.8217 91.8422 11.8217C91.8131 11.8217 91.7938 11.8037 91.7996 11.7816C91.8217 11.7002 91.4574 11.1815 91.4023 11.2157C91.3696 11.2359 91.3606 11.2257 91.3814 11.192C91.4205 11.1289 90.8829 10.54 90.7867 10.54C90.7553 10.54 90.7217 10.522 90.7121 10.4999C90.6637 10.3916 90.1622 10.084 90.0667 10.1045C90.0446 10.109 90.0267 10.091 90.0267 10.0641C90.0267 10.0077 89.2157 9.68601 89.0019 9.65717C88.9228 9.6466 88.7584 9.61103 88.636 9.57835C88.5136 9.54534 88.4002 9.53188 88.3838 9.54823C88.3675 9.56457 88.3278 9.55592 88.2954 9.52932C88.1288 9.39057 80.6897 9.26721 80.5561 9.40083ZM116.435 9.67415C116.382 9.84206 116.293 10.1163 116.237 10.2839C116.182 10.4512 116.127 10.6316 116.116 10.6845C116.105 10.7373 115.997 11.0808 115.877 11.4477C115.756 11.8149 115.646 12.1841 115.631 12.2683C115.616 12.3526 115.569 12.4898 115.525 12.5728C115.483 12.6561 115.437 12.7794 115.425 12.847C115.412 12.9147 115.398 12.9701 115.394 12.9701C115.389 12.9701 115.378 13.0121 115.368 13.0633C115.351 13.1495 115.422 13.1569 116.253 13.1569H117.156V20.0461V26.9354H119.239H121.322V18.1492V9.36302L118.927 9.36622L116.531 9.36943L116.435 9.67415ZM124.29 9.43191C124.239 9.61135 124.085 10.0452 124.038 10.1426C124.009 10.2029 123.991 10.275 123.999 10.3028C124.006 10.3304 123.976 10.4371 123.933 10.54C123.889 10.6428 123.821 10.8351 123.782 10.9674C123.743 11.0994 123.666 11.334 123.612 11.4881C123.557 11.6426 123.514 11.7749 123.515 11.7819C123.52 11.806 123.476 11.9521 123.382 12.2222C123.297 12.4686 123.256 12.6154 123.16 13.0101L123.125 13.1569H124.039H124.953V20.0461V26.9354H127.009H129.066V18.1501V9.36526H126.687C124.831 9.36526 124.305 9.37968 124.29 9.43191ZM62.0692 12.5426C62.2599 12.6609 62.3675 12.7801 62.4791 12.996L62.6303 13.2889L62.6168 15.0253L62.6031 16.7617L62.4483 17.0431C62.3631 17.1975 62.282 17.3129 62.2682 17.2991C62.2544 17.2853 62.2093 17.3081 62.1679 17.3497C62.0131 17.5045 61.6818 17.5541 60.6673 17.5759L59.6391 17.5977V14.9712V12.3449L60.725 12.3638L61.8106 12.3824L62.0692 12.5426ZM87.4254 12.5282C87.5792 12.6141 87.6782 12.6442 87.6808 12.6058C87.6834 12.5712 87.6988 12.5788 87.7154 12.6227C87.7321 12.667 87.8106 12.7871 87.8897 12.89C88.1496 13.2268 88.1573 13.3033 88.1573 15.5146V17.5894H86.4218H84.6861V14.966V12.3424L85.9303 12.3651C87.1543 12.3875 87.1784 12.3901 87.4254 12.5282ZM47.8402 12.5699C47.9998 12.5994 48.187 12.6346 48.2562 12.6481C48.3251 12.6612 48.4154 12.7 48.4564 12.7343C48.4974 12.7682 48.5311 12.7765 48.5311 12.7528C48.5311 12.7288 48.5663 12.756 48.6093 12.8128C48.6525 12.8698 48.6884 12.8986 48.6894 12.8765C48.6923 12.8083 48.8871 13.0278 49.087 13.3248L49.278 13.6084L49.2649 18.1489C49.2527 22.4801 49.2472 22.6964 49.1524 22.8364C49.0976 22.9172 49.0678 22.9835 49.0861 22.9835C49.1383 22.9835 48.8464 23.2636 48.6189 23.4321C48.319 23.6545 48.127 23.6897 47.0757 23.716L46.1279 23.74V18.128V12.516H46.8389C47.2301 12.516 47.6807 12.5404 47.8402 12.5699Z" fill="#EC1C24"/>
<path fill-rule="evenodd" clip-rule="evenodd" d="M3.87711 5.92927C3.81014 6.01066 3.81527 6.01227 3.93735 5.94882C4.11647 5.85558 4.12993 5.84052 4.03284 5.84052C3.98766 5.84052 3.91749 5.88025 3.87711 5.92927ZM25.0684 7.00207C25.0418 7.04725 25.1209 7.28245 25.1629 7.28245C25.1776 7.28245 25.168 7.22477 25.1411 7.15428C25.1145 7.08378 25.1068 7.01168 25.1248 6.99406C25.1424 6.97644 25.1424 6.96202 25.1245 6.96202C25.1065 6.96202 25.0815 6.97996 25.0684 7.00207ZM98.066 9.14446C97.9141 9.17715 99.9805 9.16529 100.306 9.13164C100.395 9.12267 99.962 9.11434 99.3451 9.11306C98.7283 9.11178 98.1528 9.12588 98.066 9.14446ZM100.498 9.11754C100.51 9.12844 100.652 9.15087 100.814 9.16753C101.003 9.18708 101.06 9.18195 100.974 9.15343C100.842 9.10921 100.455 9.08005 100.498 9.11754ZM106.448 9.15183C106.379 9.18163 106.437 9.18708 106.608 9.16721C106.755 9.15023 106.885 9.1278 106.897 9.11722C106.944 9.07749 106.55 9.10761 106.448 9.15183ZM107.089 9.13164C107.436 9.16753 108.709 9.17618 108.623 9.1419C108.572 9.12203 108.17 9.10761 107.73 9.1105C107.289 9.11306 107.001 9.12267 107.089 9.13164ZM0.916025 10.9405C0.916025 11.5573 0.923715 11.8024 0.933008 11.4852C0.942621 11.1677 0.942621 10.663 0.933008 10.3637C0.923715 10.0641 0.915704 10.3236 0.916025 10.9405ZM31.0835 13.2905C31.0838 13.4667 31.0937 13.5324 31.1056 13.4363C31.1178 13.3402 31.1174 13.196 31.1053 13.1159C31.0931 13.0358 31.0832 13.1143 31.0835 13.2905ZM36.4744 13.3972C36.475 13.5148 36.4859 13.5565 36.4987 13.4901C36.5115 13.4235 36.5109 13.3273 36.4978 13.2764C36.4843 13.2254 36.4737 13.2796 36.4744 13.3972ZM73.1635 16.5047C73.2148 16.5182 73.2991 16.5182 73.3503 16.5047C73.4016 16.4913 73.3596 16.4804 73.2568 16.4804C73.1539 16.4804 73.1119 16.4913 73.1635 16.5047ZM73.699 16.5073C73.8396 16.5182 74.0559 16.5182 74.1796 16.507C74.3036 16.4958 74.1889 16.4868 73.9245 16.4868C73.6602 16.4871 73.5586 16.4964 73.699 16.5073ZM74.7387 16.5076C74.9223 16.5179 75.2229 16.5179 75.4065 16.5076C75.5901 16.497 75.4398 16.4887 75.0726 16.4887C74.7054 16.4887 74.5551 16.497 74.7387 16.5076ZM76.074 16.5076C76.2576 16.5179 76.5578 16.5179 76.7414 16.5076C76.925 16.497 76.7751 16.4887 76.4079 16.4887C76.0406 16.4887 75.8904 16.497 76.074 16.5076ZM77.1961 16.5057C77.2624 16.5185 77.3586 16.5182 77.4098 16.5047C77.4608 16.4913 77.4063 16.481 77.289 16.4813C77.1714 16.482 77.1298 16.4929 77.1961 16.5057ZM77.8088 16.5015C77.8937 16.5265 77.903 16.6646 77.9168 18.1405L77.9321 19.7523L77.9309 18.1242C77.9299 16.5358 77.9273 16.4957 77.8229 16.4852C77.7415 16.4768 77.738 16.4807 77.8088 16.5015ZM65.9939 19.568C66.1791 19.694 66.2845 19.7305 66.1541 19.6238C66.0807 19.5635 65.9965 19.5142 65.967 19.5142C65.9378 19.5139 65.9497 19.5382 65.9939 19.568Z" fill="#F01C24"/>
<path fill-rule="evenodd" clip-rule="evenodd" d="M3.87711 5.92927C3.81014 6.01066 3.81527 6.01227 3.93735 5.94882C4.11647 5.85558 4.12993 5.84052 4.03284 5.84052C3.98766 5.84052 3.91749 5.88025 3.87711 5.92927ZM25.0684 7.00207C25.0418 7.04725 25.1209 7.28245 25.1629 7.28245C25.1776 7.28245 25.168 7.22477 25.1411 7.15428C25.1145 7.08378 25.1068 7.01168 25.1248 6.99406C25.1424 6.97644 25.1424 6.96202 25.1245 6.96202C25.1065 6.96202 25.0815 6.97996 25.0684 7.00207ZM98.066 9.14446C97.9141 9.17715 99.9805 9.16529 100.306 9.13164C100.395 9.12267 99.962 9.11434 99.3451 9.11306C98.7283 9.11178 98.1528 9.12588 98.066 9.14446ZM100.498 9.11754C100.51 9.12844 100.652 9.15087 100.814 9.16753C101.003 9.18708 101.06 9.18195 100.974 9.15343C100.842 9.10921 100.455 9.08005 100.498 9.11754ZM106.448 9.15183C106.379 9.18163 106.437 9.18708 106.608 9.16721C106.755 9.15023 106.885 9.1278 106.897 9.11722C106.944 9.07749 106.55 9.10761 106.448 9.15183ZM107.089 9.13164C107.436 9.16753 108.709 9.17618 108.623 9.1419C108.572 9.12203 108.17 9.10761 107.73 9.1105C107.289 9.11306 107.001 9.12267 107.089 9.13164ZM0.916025 10.9405C0.916025 11.5573 0.923715 11.8024 0.933008 11.4852C0.942621 11.1677 0.942621 10.663 0.933008 10.3637C0.923715 10.0641 0.915704 10.3236 0.916025 10.9405ZM31.0835 13.2905C31.0838 13.4667 31.0937 13.5324 31.1056 13.4363C31.1178 13.3402 31.1174 13.196 31.1053 13.1159C31.0931 13.0358 31.0832 13.1143 31.0835 13.2905ZM36.4744 13.3972C36.475 13.5148 36.4859 13.5565 36.4987 13.4901C36.5115 13.4235 36.5109 13.3273 36.4978 13.2764C36.4843 13.2254 36.4737 13.2796 36.4744 13.3972ZM73.1635 16.5047C73.2148 16.5182 73.2991 16.5182 73.3503 16.5047C73.4016 16.4913 73.3596 16.4804 73.2568 16.4804C73.1539 16.4804 73.1119 16.4913 73.1635 16.5047ZM73.699 16.5073C73.8396 16.5182 74.0559 16.5182 74.1796 16.507C74.3036 16.4958 74.1889 16.4868 73.9245 16.4868C73.6602 16.4871 73.5586 16.4964 73.699 16.5073ZM74.7387 16.5076C74.9223 16.5179 75.2229 16.5179 75.4065 16.5076C75.5901 16.497 75.4398 16.4887 75.0726 16.4887C74.7054 16.4887 74.5551 16.497 74.7387 16.5076ZM76.074 16.5076C76.2576 16.5179 76.5578 16.5179 76.7414 16.5076C76.925 16.497 76.7751 16.4887 76.4079 16.4887C76.0406 16.4887 75.8904 16.497 76.074 16.5076ZM77.1961 16.5057C77.2624 16.5185 77.3586 16.5182 77.4098 16.5047C77.4608 16.4913 77.4063 16.481 77.289 16.4813C77.1714 16.482 77.1298 16.4929 77.1961 16.5057ZM77.8088 16.5015C77.8937 16.5265 77.903 16.6646 77.9168 18.1405L77.9321 19.7523L77.9309 18.1242C77.9299 16.5358 77.9273 16.4957 77.8229 16.4852C77.7415 16.4768 77.738 16.4807 77.8088 16.5015ZM65.9939 19.568C66.1791 19.694 66.2845 19.7305 66.1541 19.6238C66.0807 19.5635 65.9965 19.5142 65.967 19.5142C65.9378 19.5139 65.9497 19.5382 65.9939 19.568Z" fill="#F01C24"/>
<path fill-rule="evenodd" clip-rule="evenodd" d="M3.87711 5.92927C3.81014 6.01066 3.81527 6.01227 3.93735 5.94882C4.11647 5.85558 4.12993 5.84052 4.03284 5.84052C3.98766 5.84052 3.91749 5.88025 3.87711 5.92927ZM25.0684 7.00207C25.0418 7.04725 25.1209 7.28245 25.1629 7.28245C25.1776 7.28245 25.168 7.22477 25.1411 7.15428C25.1145 7.08378 25.1068 7.01168 25.1248 6.99406C25.1424 6.97644 25.1424 6.96202 25.1245 6.96202C25.1065 6.96202 25.0815 6.97996 25.0684 7.00207ZM98.066 9.14446C97.9141 9.17715 99.9805 9.16529 100.306 9.13164C100.395 9.12267 99.962 9.11434 99.3451 9.11306C98.7283 9.11178 98.1528 9.12588 98.066 9.14446ZM100.498 9.11754C100.51 9.12844 100.652 9.15087 100.814 9.16753C101.003 9.18708 101.06 9.18195 100.974 9.15343C100.842 9.10921 100.455 9.08005 100.498 9.11754ZM106.448 9.15183C106.379 9.18163 106.437 9.18708 106.608 9.16721C106.755 9.15023 106.885 9.1278 106.897 9.11722C106.944 9.07749 106.55 9.10761 106.448 9.15183ZM107.089 9.13164C107.436 9.16753 108.709 9.17618 108.623 9.1419C108.572 9.12203 108.17 9.10761 107.73 9.1105C107.289 9.11306 107.001 9.12267 107.089 9.13164ZM0.916025 10.9405C0.916025 11.5573 0.923715 11.8024 0.933008 11.4852C0.942621 11.1677 0.942621 10.663 0.933008 10.3637C0.923715 10.0641 0.915704 10.3236 0.916025 10.9405ZM31.0835 13.2905C31.0838 13.4667 31.0937 13.5324 31.1056 13.4363C31.1178 13.3402 31.1174 13.196 31.1053 13.1159C31.0931 13.0358 31.0832 13.1143 31.0835 13.2905ZM36.4744 13.3972C36.475 13.5148 36.4859 13.5565 36.4987 13.4901C36.5115 13.4235 36.5109 13.3273 36.4978 13.2764C36.4843 13.2254 36.4737 13.2796 36.4744 13.3972ZM73.1635 16.5047C73.2148 16.5182 73.2991 16.5182 73.3503 16.5047C73.4016 16.4913 73.3596 16.4804 73.2568 16.4804C73.1539 16.4804 73.1119 16.4913 73.1635 16.5047ZM73.699 16.5073C73.8396 16.5182 74.0559 16.5182 74.1796 16.507C74.3036 16.4958 74.1889 16.4868 73.9245 16.4868C73.6602 16.4871 73.5586 16.4964 73.699 16.5073ZM74.7387 16.5076C74.9223 16.5179 75.2229 16.5179 75.4065 16.5076C75.5901 16.497 75.4398 16.4887 75.0726 16.4887C74.7054 16.4887 74.5551 16.497 74.7387 16.5076ZM76.074 16.5076C76.2576 16.5179 76.5578 16.5179 76.7414 16.5076C76.925 16.497 76.7751 16.4887 76.4079 16.4887C76.0406 16.4887 75.8904 16.497 76.074 16.5076ZM77.1961 16.5057C77.2624 16.5185 77.3586 16.5182 77.4098 16.5047C77.4608 16.4913 77.4063 16.481 77.289 16.4813C77.1714 16.482 77.1298 16.4929 77.1961 16.5057ZM77.8088 16.5015C77.8937 16.5265 77.903 16.6646 77.9168 18.1405L77.9321 19.7523L77.9309 18.1242C77.9299 16.5358 77.9273 16.4957 77.8229 16.4852C77.7415 16.4768 77.738 16.4807 77.8088 16.5015ZM65.9939 19.568C66.1791 19.694 66.2845 19.7305 66.1541 19.6238C66.0807 19.5635 65.9965 19.5142 65.967 19.5142C65.9378 19.5139 65.9497 19.5382 65.9939 19.568Z" fill="#F01C24"/>
<path fill-rule="evenodd" clip-rule="evenodd" d="M3.87711 5.92927C3.81014 6.01066 3.81527 6.01227 3.93735 5.94882C4.11647 5.85558 4.12993 5.84052 4.03284 5.84052C3.98766 5.84052 3.91749 5.88025 3.87711 5.92927ZM25.0684 7.00207C25.0418 7.04725 25.1209 7.28245 25.1629 7.28245C25.1776 7.28245 25.168 7.22477 25.1411 7.15428C25.1145 7.08378 25.1068 7.01168 25.1248 6.99406C25.1424 6.97644 25.1424 6.96202 25.1245 6.96202C25.1065 6.96202 25.0815 6.97996 25.0684 7.00207ZM98.066 9.14446C97.9141 9.17715 99.9805 9.16529 100.306 9.13164C100.395 9.12267 99.962 9.11434 99.3451 9.11306C98.7283 9.11178 98.1528 9.12588 98.066 9.14446ZM100.498 9.11754C100.51 9.12844 100.652 9.15087 100.814 9.16753C101.003 9.18708 101.06 9.18195 100.974 9.15343C100.842 9.10921 100.455 9.08005 100.498 9.11754ZM106.448 9.15183C106.379 9.18163 106.437 9.18708 106.608 9.16721C106.755 9.15023 106.885 9.1278 106.897 9.11722C106.944 9.07749 106.55 9.10761 106.448 9.15183ZM107.089 9.13164C107.436 9.16753 108.709 9.17618 108.623 9.1419C108.572 9.12203 108.17 9.10761 107.73 9.1105C107.289 9.11306 107.001 9.12267 107.089 9.13164ZM0.916025 10.9405C0.916025 11.5573 0.923715 11.8024 0.933008 11.4852C0.942621 11.1677 0.942621 10.663 0.933008 10.3637C0.923715 10.0641 0.915704 10.3236 0.916025 10.9405ZM31.0835 13.2905C31.0838 13.4667 31.0937 13.5324 31.1056 13.4363C31.1178 13.3402 31.1174 13.196 31.1053 13.1159C31.0931 13.0358 31.0832 13.1143 31.0835 13.2905ZM36.4744 13.3972C36.475 13.5148 36.4859 13.5565 36.4987 13.4901C36.5115 13.4235 36.5109 13.3273 36.4978 13.2764C36.4843 13.2254 36.4737 13.2796 36.4744 13.3972ZM73.1635 16.5047C73.2148 16.5182 73.2991 16.5182 73.3503 16.5047C73.4016 16.4913 73.3596 16.4804 73.2568 16.4804C73.1539 16.4804 73.1119 16.4913 73.1635 16.5047ZM73.699 16.5073C73.8396 16.5182 74.0559 16.5182 74.1796 16.507C74.3036 16.4958 74.1889 16.4868 73.9245 16.4868C73.6602 16.4871 73.5586 16.4964 73.699 16.5073ZM74.7387 16.5076C74.9223 16.5179 75.2229 16.5179 75.4065 16.5076C75.5901 16.497 75.4398 16.4887 75.0726 16.4887C74.7054 16.4887 74.5551 16.497 74.7387 16.5076ZM76.074 16.5076C76.2576 16.5179 76.5578 16.5179 76.7414 16.5076C76.925 16.497 76.7751 16.4887 76.4079 16.4887C76.0406 16.4887 75.8904 16.497 76.074 16.5076ZM77.1961 16.5057C77.2624 16.5185 77.3586 16.5182 77.4098 16.5047C77.4608 16.4913 77.4063 16.481 77.289 16.4813C77.1714 16.482 77.1298 16.4929 77.1961 16.5057ZM77.8088 16.5015C77.8937 16.5265 77.903 16.6646 77.9168 18.1405L77.9321 19.7523L77.9309 18.1242C77.9299 16.5358 77.9273 16.4957 77.8229 16.4852C77.7415 16.4768 77.738 16.4807 77.8088 16.5015ZM65.9939 19.568C66.1791 19.694 66.2845 19.7305 66.1541 19.6238C66.0807 19.5635 65.9965 19.5142 65.967 19.5142C65.9378 19.5139 65.9497 19.5382 65.9939 19.568Z" fill="#F01C24"/>
</svg>
