<svg width="110" height="36" viewBox="0 0 110 36" fill="none" xmlns="http://www.w3.org/2000/svg">
<path d="M72.2525 35.4999C74.3711 35.4717 76.3768 34.6454 77.8316 33.1624C79.3147 31.6793 80.1409 29.6737 80.1409 27.5833V8.4731C80.1409 6.35446 79.3147 4.34881 77.8598 2.83751C76.3768 1.35446 74.3711 0.499939 72.2525 0.499939H53.0505C50.9319 0.528188 48.9262 1.35446 47.4714 2.83751C45.9884 4.34881 45.1621 6.35446 45.1621 8.4731V27.6115C45.1904 31.9547 48.7073 35.4717 53.0505 35.4999" fill="#E31E25"/>
<path d="M66.8152 19.0875C66.0737 21.5593 67.2813 24.0381 69.8378 23.0423C69.0963 24.829 67.8604 27.4985 67.8604 30.274C67.8604 30.274 67.8604 32.1454 69.2305 32.6115C69.2305 32.6115 71.1514 33.0776 70.7418 31.3757C70.4381 30.3022 70.3604 29.2076 70.4946 28.1059C70.9607 25.8248 71.674 23.5932 72.6133 21.4533C72.6133 21.4533 75.5511 15.3163 77.2531 12.4632C77.2531 12.4632 77.9664 11.0014 76.5116 11.0014C76.0737 11.0014 75.657 11.2203 75.3887 11.5805L71.2361 18.9745C70.6076 20.1327 70.0003 20.4858 69.5342 20.4858C68.489 20.4858 68.7079 18.8121 68.8774 18.2047C69.3435 16.1426 70.085 14.1652 71.0737 12.2655C71.8152 10.6483 70.3322 10.507 70.3322 10.507C69.3929 10.2598 68.6796 11.7994 68.6796 11.7994L67.0342 15.1539C65.9607 17.0254 64.7813 18.8121 63.5172 20.5423C63.5172 20.5423 63.2983 20.8177 63.1288 20.7118C62.9664 20.5706 63.0511 20.2951 63.0511 20.2951C63.3265 18.0141 63.7926 15.7612 64.4212 13.5296C64.4494 13.3954 64.4777 13.2824 64.4777 13.1483C64.5059 12.8446 64.4212 12.5409 64.2305 12.322C64.0398 12.0748 63.7644 11.9406 63.4607 11.9406C62.7192 11.8559 62.3661 12.209 61.7022 13.007C60.2474 14.7937 58.5455 17.4915 57.7192 18.6991C57.6344 18.8403 57.472 18.8121 57.472 18.6214C57.472 18.0706 59.3929 12.1313 59.3929 12.1313C59.3929 12.1313 59.6189 11.305 58.9551 11.0296C58.9551 11.0296 57.9381 10.4011 57.1189 11.637L53.157 17.0254C52.8604 17.435 52.6909 17.3008 52.6909 17.3008V16.9406L53.3265 13.4237C53.8209 10.7259 52.8816 10.5918 52.2813 10.4788C51.8435 10.4788 51.3703 10.62 50.989 10.8672C49.7531 11.4675 48.8209 13.918 48.8209 13.918C48.8209 13.918 48.5455 14.7937 49.1457 15.1539C49.3435 15.2669 49.5624 15.3446 49.7813 15.3163C50.657 15.2669 50.8265 13.6426 51.4551 13.6426C51.5681 13.6426 51.5681 13.7768 51.5681 13.805L49.5342 22.3573C49.3929 22.8516 49.6118 23.3742 50.0285 23.6497C50.3039 23.8121 50.6076 23.8403 50.9042 23.7909C51.1796 23.7062 51.4268 23.5155 51.5963 23.2683L52.3378 22.1101C53.4042 20.2104 55.3816 17.4915 55.5794 17.4915C55.657 17.4915 55.6853 17.4915 55.6853 17.5762L54.9438 22.6045C54.8661 23.0423 55.1133 23.5155 55.5229 23.7062C55.9042 23.8403 56.3209 23.8121 56.674 23.6214C57.0907 23.2895 57.4438 22.8799 57.6909 22.4138C58.1076 21.7499 60.085 19.4194 61.2926 17.2725C61.3774 17.1313 61.4551 17.2725 61.4268 17.3573C61.1796 18.4802 60.989 21.4816 60.9607 22.2231C60.9042 23.6779 62.0342 23.8403 62.0624 23.8403C62.8039 23.8968 63.5172 23.5649 63.9268 22.9646" fill="white"/>
<path fill-rule="evenodd" clip-rule="evenodd" d="M7.69068 22.4138H5.49435V17.4915C5.5226 16.9406 5.40961 16.3898 5.16243 15.9237C4.91525 15.5635 4.4774 15.3446 4.03249 15.4011C3.65113 15.4011 3.29096 15.4858 2.99435 15.6765C2.66243 15.8954 2.38701 16.1991 2.19633 16.531V22.4138H0V13.4802H1.23588L2.05508 14.6878C2.27401 14.4971 2.5 14.3276 2.71893 14.1652C2.93785 14.024 3.15678 13.918 3.40395 13.805C3.64878 13.6967 3.89595 13.6143 4.14548 13.5579C4.39266 13.5014 4.66808 13.4802 4.9435 13.4802C5.24718 13.4802 5.54379 13.5014 5.81921 13.5861C6.03814 13.6708 6.26412 13.7485 6.48305 13.8898C6.64548 14.024 6.80791 14.1934 6.94915 14.3559C7.11158 14.5748 7.22458 14.7725 7.33051 14.9915C7.5 14.822 7.69068 14.6313 7.90961 14.4689C8.12853 14.2994 8.37571 14.1369 8.65113 14.0028C8.90066 13.8333 9.17608 13.6944 9.4774 13.5861C9.80226 13.5014 10.1342 13.4519 10.4944 13.4519C10.9322 13.4519 11.3418 13.5579 11.7302 13.7485C12.0833 13.9745 12.387 14.2499 12.5777 14.5748C12.7966 14.9915 12.9661 15.4011 13.0438 15.8672C13.1568 16.3898 13.2133 16.9124 13.2133 17.4632V22.4138H10.9887V17.4915C11.0381 16.9406 10.9322 16.3898 10.6568 15.9237C10.4096 15.5635 10 15.3446 9.55509 15.4011C9.20198 15.4011 8.84181 15.4858 8.51695 15.6765C8.18503 15.8954 7.88136 16.1708 7.69068 16.531M20.3814 21.4251C20.0777 21.7288 19.6963 21.9759 19.3079 22.1384C18.7924 22.329 18.2415 22.442 17.6907 22.4138C17.3023 22.442 16.8927 22.3573 16.5396 22.2231C16.2053 22.0819 15.9016 21.8888 15.6285 21.644C15.3837 21.3662 15.1907 21.0626 15.0494 20.733C14.9153 20.3799 14.8588 19.9915 14.8588 19.6101C14.8588 17.9576 16.1511 16.8841 18.2133 16.8841H20.4096V16.3898C20.4096 16.0649 20.2189 15.7895 19.9435 15.6482C19.5057 15.4576 19.0113 15.3446 18.517 15.3728C17.9661 15.3728 17.4153 15.4576 16.8927 15.5635C16.4831 15.6765 16.0711 15.8154 15.6568 15.9802L15.4096 14.1369C15.5438 14.0522 15.7415 14.0028 15.9887 13.918C16.2076 13.8333 16.4831 13.7768 16.7302 13.6991C16.9774 13.6426 17.3023 13.5861 17.6342 13.5296C17.9661 13.4802 18.3192 13.4802 18.6794 13.4802C19.6963 13.3954 20.7415 13.7273 21.5113 14.3841C22.1963 15.0974 22.5283 16.0649 22.4718 17.0254V22.4138H20.904L20.3814 21.4251ZM20.3814 18.346H18.4322C18.0226 18.3177 17.6342 18.4237 17.274 18.6497C17.0551 18.8686 16.9209 19.1723 16.9209 19.4971C16.9209 19.8008 17.0268 20.0762 17.2528 20.2951C17.5 20.4858 17.8249 20.5988 18.1568 20.5706C18.404 20.5706 18.6511 20.5423 18.8983 20.4646C19.1172 20.4081 19.3362 20.3234 19.5268 20.2175C19.7199 20.0762 19.887 19.9373 20.0283 19.8008C20.1907 19.6384 20.2966 19.4689 20.4096 19.3064L20.3814 18.346ZM29.2302 17.7951L33.2698 22.3855H30.5226L26.7797 17.8516V22.3855H24.6116V10.1539H26.7797V17.8516L30.1059 13.346H32.7754L29.2302 17.7951ZM38.0438 20.4858C38.3757 20.4858 38.7359 20.4576 39.0607 20.3728C39.3644 20.3234 39.6681 20.2386 39.9435 20.1256C40.1907 20.048 40.4379 19.935 40.6568 19.8008C40.7627 19.7443 40.8757 19.6595 40.9887 19.5819L41.3983 21.531C40.9322 21.7782 40.4379 21.9971 39.9153 22.1666C39.3079 22.329 38.6794 22.4138 38.0438 22.4138C37.3588 22.4138 36.6737 22.3008 36.0099 22.0819C35.4873 21.8912 34.9718 21.5875 34.5551 21.1708C34.1455 20.7895 33.8418 20.2951 33.6511 19.7725C33.404 19.2217 33.291 18.6143 33.2627 17.9858C33.2627 17.4067 33.3475 16.8276 33.5381 16.2768C33.7359 15.733 34.0042 15.2598 34.3927 14.822C34.7458 14.4124 35.2189 14.0804 35.7415 13.8615C36.9209 13.3954 38.2627 13.3954 39.4492 13.8615C39.9435 14.0522 40.3531 14.3841 40.7133 14.7655C41.0381 15.1539 41.2853 15.5917 41.4548 16.0579C41.589 16.5522 41.6737 17.0748 41.6737 17.5974C41.6737 17.7386 41.6737 17.9011 41.6737 18.0635C41.6455 18.233 41.6172 18.3954 41.589 18.5367H35.5155C35.5438 18.838 35.6262 19.1111 35.7627 19.3559C35.8757 19.603 36.0664 19.829 36.2853 19.9915C36.5042 20.1821 36.7514 20.3234 37.0551 20.3728C37.3564 20.4858 37.686 20.5423 38.0438 20.5423V20.4858ZM37.6342 15.4576C37.3588 15.4576 37.0833 15.4788 36.8362 15.5635C36.6172 15.62 36.3983 15.733 36.2359 15.8672C36.0381 15.9802 35.904 16.1426 35.791 16.3333C35.685 16.524 35.6003 16.7217 35.5438 16.9406H39.4209C39.4209 16.7499 39.3927 16.5522 39.3079 16.3615C39.2514 16.1991 39.1172 16.0296 38.9831 15.8954C38.8136 15.7542 38.6229 15.6482 38.4322 15.5635C38.1568 15.4788 37.8814 15.4293 37.6342 15.4576ZM82.2811 14.7372L85.1907 11.2203H85.8475V13.4449H88.3475V15.3728H85.8475V19.0593C85.8475 19.2499 85.8757 19.4689 85.9322 19.6878C85.9887 19.8243 86.0711 19.9632 86.1794 20.1045C86.2924 20.1821 86.4266 20.2669 86.5678 20.2951C86.702 20.3516 86.8432 20.3728 87.0057 20.3728C87.2528 20.3728 87.5 20.3516 87.7189 20.2669C87.9379 20.2386 88.1285 20.1539 88.3263 20.0762V22.0254C88.105 22.1337 87.8555 22.216 87.5777 22.2725C86.815 22.435 86.017 22.4138 85.2754 22.1878C84.9153 22.0819 84.6116 21.8912 84.3362 21.644C84.1172 21.3968 83.9266 21.0932 83.8206 20.7612C83.7076 20.4011 83.6229 19.9915 83.6511 19.603V15.4293H82.2246L82.2811 14.7372ZM92.0904 15.3093C92.4153 14.7655 92.8319 14.2923 93.3545 13.9392C93.7924 13.6073 94.3432 13.4449 94.9223 13.4731C95.0871 13.4449 95.2519 13.4449 95.4167 13.4731L95.7133 13.5225C95.7133 13.5225 95.6638 14.0169 95.3319 15.5564C95.1695 15.5353 95 15.507 94.8376 15.5353C94.4492 15.507 94.096 15.5847 93.7359 15.7259C93.411 15.8601 93.1356 16.079 92.9167 16.3545C92.6907 16.6299 92.5 16.9618 92.3941 17.322C92.2811 17.7598 92.2246 18.2 92.2246 18.6426V22.4067H90.0283V13.4731H91.4054L92.0904 15.3093ZM106.179 13.466C106.787 13.4378 107.366 13.572 107.881 13.8191C108.355 14.0663 108.736 14.3982 109.068 14.8361C109.371 15.281 109.619 15.7754 109.753 16.298C109.887 16.8488 109.972 17.4208 109.972 17.9717C109.972 18.5508 109.887 19.1299 109.725 19.6807C109.59 20.2033 109.343 20.6694 109.011 21.079C108.679 21.4957 108.298 21.8206 107.832 22.0395C107.338 22.2937 106.758 22.3997 106.208 22.3997C105.657 22.3997 105.134 22.3149 104.64 22.1242C104.23 21.9336 103.849 21.6864 103.545 21.3262V25.9731H101.349V13.466H102.634L103.489 14.5395C103.821 14.2076 104.23 13.9321 104.696 13.7132C105.162 13.5437 105.657 13.4378 106.151 13.466H106.179ZM105.579 15.4152C105.332 15.3869 105.085 15.4434 104.866 15.5282C104.647 15.6059 104.449 15.7189 104.258 15.853C104.096 15.966 103.955 16.1285 103.821 16.298C103.708 16.4604 103.602 16.6228 103.545 16.8206V19.3488C103.63 19.5112 103.736 19.6525 103.877 19.7867C104.011 19.9279 104.153 20.0338 104.315 20.1468C104.508 20.2551 104.701 20.3375 104.894 20.394C105.438 20.5282 106.017 20.4999 106.54 20.3093C106.787 20.1751 107.034 20.0056 107.196 19.7867C107.394 19.5677 107.528 19.2923 107.613 19.0169C107.691 18.685 107.747 18.3319 107.775 17.9717C107.775 17.6468 107.719 17.2867 107.613 16.9265C107.528 16.6252 107.389 16.3498 107.196 16.1002C107.006 15.8813 106.787 15.6906 106.511 15.5776C106.236 15.4434 105.96 15.3869 105.657 15.3869L105.579 15.4152ZM97.9732 9.7796C98.2768 9.7796 98.5735 9.92084 98.7712 10.1398C98.9901 10.3587 99.1243 10.6341 99.0961 10.9378C99.0961 11.5663 98.6017 12.0889 97.9732 12.0889C97.3376 12.0889 96.8432 11.5663 96.8432 10.9378C96.8432 10.3022 97.3376 9.80785 97.9732 9.80785V9.7796ZM96.8432 13.466H99.0466V22.3997H96.8432V13.466Z" fill="#27447C"/>
</svg>
