<svg width="182" height="36" viewBox="0 0 182 36" fill="none" xmlns="http://www.w3.org/2000/svg">
<path d="M101.806 30.1654C101.546 30.1654 101.351 30.1003 101.221 29.9702C101.09 29.8401 101.025 29.6449 101.025 29.3847V8.56687C101.025 8.30665 101.09 8.04642 101.221 7.98137C101.351 7.85126 101.546 7.7862 101.806 7.7862H104.018C104.473 7.7862 104.799 8.04643 104.864 8.50182L105.059 9.28248C105.709 8.69698 106.425 8.17654 107.336 7.85126C108.247 7.52598 109.092 7.33081 110.003 7.33081C112.02 7.33081 113.581 8.04643 114.817 9.54271C115.988 11.039 116.574 12.9907 116.574 15.5278C116.574 17.2843 116.313 18.7806 115.728 20.0167C115.142 21.3178 114.362 22.2936 113.386 23.0093C112.41 23.7249 111.239 24.0501 109.938 24.0501C109.092 24.0501 108.247 23.92 107.531 23.6598C106.75 23.3996 106.1 23.0093 105.579 22.5539V29.3847C105.579 29.6449 105.514 29.9052 105.384 29.9702C105.254 30.1003 105.059 30.1654 104.799 30.1654H101.806ZM108.637 20.6672C109.808 20.6672 110.654 20.2769 111.239 19.4962C111.759 18.7156 112.085 17.4795 112.085 15.7881C112.085 14.0316 111.825 12.7955 111.304 12.0148C110.784 11.2342 109.873 10.8438 108.702 10.8438C107.596 10.8438 106.62 11.104 105.644 11.6895V19.8215C106.49 20.342 107.531 20.6672 108.637 20.6672Z" fill="#00A8E1"/>
<path d="M120.48 23.7248C120.22 23.7248 120.024 23.6598 119.894 23.5297C119.764 23.3996 119.699 23.2044 119.699 22.9442V8.56685C119.699 8.30663 119.764 8.0464 119.894 7.98135C120.024 7.85123 120.22 7.78618 120.48 7.78618H122.692C123.147 7.78618 123.472 8.0464 123.537 8.50179L123.928 10.1932C124.774 9.28246 125.554 8.6319 126.27 8.24157C126.985 7.85124 127.766 7.65607 128.612 7.65607H129.067C129.327 7.65607 129.588 7.72112 129.718 7.85124C129.848 7.98135 129.913 8.17651 129.913 8.43674V11.039C129.913 11.2992 129.848 11.4944 129.718 11.6245C129.588 11.7546 129.392 11.8196 129.132 11.8196C129.002 11.8196 128.807 11.8196 128.547 11.8196C128.286 11.8196 128.026 11.8196 127.701 11.8196C127.246 11.8196 126.66 11.8847 125.945 12.0148C125.229 12.1449 124.708 12.3401 124.188 12.5353V23.0092C124.188 23.2695 124.123 23.4646 123.993 23.5947C123.863 23.7248 123.668 23.7899 123.407 23.7899H120.48V23.7248Z" fill="#00A8E1"/>
<path d="M134.401 5.31407C133.62 5.31407 132.97 5.1189 132.514 4.66351C132.059 4.20812 131.799 3.62262 131.799 2.907C131.799 2.12633 132.059 1.54083 132.514 1.1505C132.97 0.695106 133.62 0.499939 134.401 0.499939C135.182 0.499939 135.832 0.695106 136.288 1.1505C136.743 1.60589 137.003 2.19139 137.003 2.907C137.003 3.62262 136.743 4.27318 136.288 4.66351C135.832 5.1189 135.247 5.31407 134.401 5.31407ZM132.905 23.7249C132.645 23.7249 132.449 23.6598 132.319 23.5297C132.189 23.3996 132.124 23.2044 132.124 22.9442V8.56686C132.124 8.30663 132.189 8.04641 132.319 7.98135C132.449 7.85124 132.645 7.78619 132.905 7.78619H135.897C136.158 7.78619 136.418 7.85124 136.483 7.98135C136.613 8.11147 136.678 8.30663 136.678 8.56686V22.9442C136.678 23.2044 136.613 23.3996 136.483 23.5297C136.353 23.6598 136.158 23.7249 135.897 23.7249H132.905Z" fill="#00A8E1"/>
<path d="M141.363 23.7249C141.102 23.7249 140.907 23.6598 140.777 23.5297C140.647 23.3996 140.582 23.2044 140.582 22.9442V8.56687C140.582 8.30665 140.647 8.04642 140.777 7.98137C140.907 7.85126 141.102 7.7862 141.363 7.7862H143.575C144.03 7.7862 144.355 8.04643 144.42 8.50182L144.68 9.34754C145.786 8.63193 146.762 8.11148 147.673 7.7862C148.584 7.46092 149.495 7.33081 150.405 7.33081C152.292 7.33081 153.593 7.98137 154.374 9.34754C155.415 8.63193 156.455 8.11148 157.366 7.85126C158.277 7.52598 159.253 7.39587 160.294 7.39587C161.725 7.39587 162.896 7.7862 163.677 8.63193C164.457 9.4126 164.848 10.5836 164.848 12.0148V23.0093C164.848 23.2695 164.783 23.4647 164.652 23.5948C164.522 23.7249 164.327 23.7899 164.067 23.7899H161.074C160.814 23.7899 160.619 23.7249 160.489 23.5948C160.359 23.4647 160.294 23.2695 160.294 23.0093V12.9256C160.294 11.4944 159.643 10.7788 158.407 10.7788C157.301 10.7788 156.13 11.039 155.024 11.5594V22.8791C155.024 23.1394 154.959 23.3345 154.829 23.4646C154.699 23.5948 154.504 23.6598 154.244 23.6598H151.251C150.991 23.6598 150.796 23.5948 150.666 23.4646C150.535 23.3345 150.47 23.1394 150.47 22.8791V12.9256C150.47 11.4944 149.82 10.7788 148.584 10.7788C147.413 10.7788 146.307 11.039 145.136 11.6245V22.8791C145.136 23.1394 145.071 23.3345 144.941 23.4646C144.811 23.5948 144.615 23.6598 144.355 23.6598H141.363V23.7249Z" fill="#00A8E1"/>
<path d="M175.648 24.1803C173.046 24.1803 171.094 23.4646 169.728 22.0334C168.362 20.6022 167.646 18.5855 167.646 15.9832C167.646 13.2509 168.362 11.1691 169.793 9.60776C171.225 8.04642 173.176 7.33081 175.713 7.33081C177.665 7.33081 179.161 7.7862 180.267 8.76204C181.373 9.67282 181.894 10.9739 181.894 12.4702C181.894 14.0316 181.308 15.2026 180.137 15.9832C178.966 16.7639 177.21 17.1542 174.933 17.1542C173.762 17.1542 172.721 17.0241 171.875 16.829C172.005 18.1951 172.396 19.236 173.111 19.8215C173.827 20.407 174.933 20.7323 176.364 20.7323C176.949 20.7323 177.535 20.6672 178.055 20.6022C178.576 20.5371 179.356 20.342 180.332 20.1468C180.397 20.1468 180.462 20.0817 180.527 20.0817C180.592 20.0817 180.658 20.0817 180.658 20.0817C180.983 20.0817 181.178 20.342 181.178 20.7974V22.2286C181.178 22.5539 181.113 22.8141 181.048 22.9442C180.983 23.0743 180.788 23.2044 180.527 23.3345C178.966 23.92 177.34 24.1803 175.648 24.1803ZM174.607 14.4219C175.648 14.4219 176.429 14.2918 176.884 13.9665C177.34 13.6412 177.6 13.1208 177.6 12.4702C177.6 11.1691 176.819 10.5185 175.258 10.5185C173.241 10.5185 172.135 11.7546 171.81 14.2267C172.656 14.2918 173.632 14.4219 174.607 14.4219Z" fill="#00A8E1"/>
<path fill-rule="evenodd" clip-rule="evenodd" d="M58.6756 29.3847C53.2761 33.3532 45.4695 35.5 38.7037 35.5C29.2707 35.5 20.7485 31.987 14.3081 26.197C13.7876 25.7416 14.243 25.0911 14.8936 25.4814C21.8545 29.5149 30.4417 31.987 39.2892 31.987C45.2743 31.987 51.8449 30.7509 57.895 28.1487C58.8058 27.7584 59.5214 28.7342 58.6756 29.3847Z" fill="#00A8E1"/>
<path fill-rule="evenodd" clip-rule="evenodd" d="M60.8876 26.8476C60.172 25.9368 56.3337 26.4573 54.5772 26.6524C54.0568 26.7175 53.9917 26.2621 54.4471 25.9368C57.5698 23.7249 62.6441 24.3755 63.2295 25.0911C63.815 25.8067 63.0994 30.8811 60.172 33.3532C59.7166 33.7435 59.3262 33.5484 59.5214 33.0279C60.1069 31.4015 61.6032 27.7584 60.8876 26.8476Z" fill="#00A8E1"/>
<path fill-rule="evenodd" clip-rule="evenodd" d="M54.7085 10.5835V8.50171C54.7085 8.17643 54.9688 7.98126 55.229 7.98126H64.662C64.9873 7.98126 65.1824 8.17643 65.1824 8.50171V10.3233C65.1824 10.6486 64.9222 11.0389 64.4668 11.6244L59.5877 18.6504C61.4092 18.5854 63.3609 18.9106 64.9873 19.8214C65.3776 20.0166 65.4426 20.3419 65.5077 20.6671V22.9441C65.5077 23.2694 65.1824 23.5947 64.7921 23.3995C61.8646 21.9032 58.0264 21.708 54.7736 23.3995C54.4483 23.5947 54.123 23.2043 54.123 22.879V20.7322C54.123 20.4069 54.123 19.8214 54.4483 19.301L60.1081 11.169H55.1639C54.9688 11.1039 54.7085 10.8437 54.7085 10.5835Z" fill="#1A1A1A"/>
<path fill-rule="evenodd" clip-rule="evenodd" d="M73.4436 10.6485C71.2968 10.6485 71.1667 13.511 71.1667 15.3325C71.1667 17.1541 71.1667 20.9924 73.3786 20.9924C75.5904 20.9924 75.7205 17.8697 75.7205 15.9831C75.7205 14.747 75.6555 13.2507 75.2652 12.0797C75.0049 11.0388 74.3544 10.6485 73.4436 10.6485ZM73.3786 7.65594C77.6722 7.65594 79.9491 11.2991 79.9491 15.9831C79.9491 20.4719 77.412 24.05 73.3786 24.05C69.215 24.05 66.873 20.4069 66.873 15.7879C66.9381 11.234 69.215 7.65594 73.3786 7.65594Z" fill="#1A1A1A"/>
<path fill-rule="evenodd" clip-rule="evenodd" d="M50.0891 23.7248C49.894 23.92 49.5687 23.92 49.4386 23.7899C48.4627 23.0092 47.8122 21.9033 47.8122 21.9033C46.2509 23.5297 45.1449 23.9851 43.0632 23.9851C40.6561 23.9851 38.7695 22.4888 38.7695 19.4962C38.7695 17.1542 40.0056 15.5929 41.8271 14.8122C43.3884 14.0966 45.6003 14.0315 47.2267 13.8364C47.2267 13.8364 47.3568 12.0148 46.9014 11.3642C46.5111 10.8438 45.8605 10.6486 45.275 10.6486C44.2342 10.6486 43.1933 11.2341 42.9981 12.3401C42.9331 12.6654 42.6728 12.9256 42.4777 12.9256L39.7454 12.6003C39.5502 12.6003 39.2249 12.3401 39.29 12.0148C39.9405 8.6319 42.9981 7.591 45.7304 7.591C47.1616 7.591 48.9832 7.98134 50.0891 9.02223C51.5203 10.3233 51.3252 12.0799 51.3252 13.9665V18.4553C51.3252 19.8215 51.9107 20.407 52.4311 21.1226C52.6263 21.3828 52.6263 21.7081 52.4311 21.9033C51.7155 22.2936 50.0891 23.7248 50.0891 23.7248ZM47.1616 16.6988C47.1616 17.8048 47.1616 18.7806 46.6412 19.7564C46.1858 20.5371 45.4702 21.0576 44.6245 21.0576C43.5186 21.0576 42.868 20.2118 42.868 18.9758C42.868 16.5036 45.0799 16.0483 47.1616 16.0483V16.6988Z" fill="#1A1A1A"/>
<path fill-rule="evenodd" clip-rule="evenodd" d="M12.3573 23.7249C12.1621 23.9201 11.8369 23.9201 11.7068 23.7899C10.7309 23.0093 10.0804 21.9033 10.0804 21.9033C8.51905 23.5297 7.41311 23.9851 5.33135 23.9851C2.85925 23.9201 0.972656 22.4238 0.972656 19.4312C0.972656 17.0892 2.2087 15.5279 4.03025 14.7472C5.59157 14.0316 7.80344 13.9665 9.42982 13.7714C9.42982 13.7714 9.55993 11.9498 9.10455 11.2992C8.71422 10.7788 8.06366 10.5836 7.47817 10.5836C6.43729 10.5836 5.3964 11.1691 5.20124 12.2751C5.13618 12.6004 4.87596 12.8606 4.6808 12.8606L1.94848 12.5353C1.75332 12.5353 1.42804 12.2751 1.4931 11.9498C2.14365 8.56689 5.20124 7.526 7.93355 7.526C9.36477 7.526 11.1863 7.91634 12.2922 8.95723C13.7235 10.2583 13.5283 12.0149 13.5283 13.9015V18.3903C13.5283 19.7565 14.1138 20.342 14.6342 21.0576C14.8294 21.3178 14.8294 21.6431 14.6342 21.8383C13.9837 22.2937 12.3573 23.7249 12.3573 23.7249ZM9.42982 16.6989C9.42982 17.8048 9.42982 18.7807 8.90938 19.7565C8.45399 20.5372 7.73839 21.0576 6.89267 21.0576C5.78674 21.0576 5.13618 20.2119 5.13618 18.9758C5.13618 16.5037 7.34806 16.0483 9.42982 16.0483V16.6989Z" fill="#1A1A1A"/>
<path fill-rule="evenodd" clip-rule="evenodd" d="M20.7504 15.3977C20.7504 13.7062 20.6853 11.2991 22.7671 11.2991C24.7838 11.2991 24.5236 13.7062 24.5236 15.3977V23.2043C24.5236 23.4646 24.7187 23.7248 25.044 23.7248H27.9064C28.2317 23.7248 28.4919 23.4646 28.4919 23.2043V15.3977C28.4919 14.5519 28.4919 13.3159 28.7521 12.6003C29.0774 11.8846 29.793 11.3642 30.4436 11.3642C31.2893 11.3642 31.9398 11.6244 32.135 12.6653C32.2651 13.2508 32.2001 14.8122 32.2001 15.4627V23.2694C32.2001 23.5296 32.3952 23.7898 32.7205 23.7898H35.5829C35.9082 23.7898 36.1684 23.5296 36.1684 23.2694V13.9664C36.1684 12.4051 36.3636 10.5835 35.4528 9.34746C34.6722 8.24152 33.306 7.72107 32.135 7.72107C30.4436 7.72107 28.8822 8.56679 28.1666 10.4534C27.386 8.56679 26.215 7.72107 24.4585 7.72107C22.702 7.72107 21.4009 8.56679 20.6853 10.4534H20.6203V8.5668C20.6203 8.24152 20.36 8.04635 20.0998 8.04635H17.4325C17.1073 8.04635 16.9121 8.30657 16.9121 8.5668V23.2694C16.9121 23.5947 17.1723 23.7898 17.4325 23.7898H20.295C20.6203 23.7898 20.8154 23.5296 20.8154 23.2694L20.7504 15.3977Z" fill="#1A1A1A"/>
<path fill-rule="evenodd" clip-rule="evenodd" d="M86.0615 23.2044C86.0615 23.5297 85.8013 23.7248 85.5411 23.7248H82.6786C82.3534 23.7248 82.1582 23.4646 82.1582 23.2044V8.50179C82.1582 8.17651 82.4184 7.98135 82.6786 7.98135H85.3459C85.6712 7.98135 85.8663 8.24157 85.8663 8.37168V10.6486H85.9314C86.7121 8.6319 87.8831 7.65607 89.8347 7.65607C91.1358 7.65607 92.3719 8.11146 93.2176 9.41257C93.9982 10.5836 93.9982 12.6003 93.9982 14.0315V23.3345C93.9982 23.5947 93.738 23.7899 93.4778 23.7899H90.6154C90.3551 23.7899 90.16 23.5947 90.0949 23.3345V14.4219C90.0949 11.4293 88.9239 11.3642 88.2734 11.3642C87.4927 11.3642 86.9072 11.9497 86.647 12.5353C86.2567 13.446 86.1916 14.3568 86.1916 15.3327L86.0615 23.2044Z" fill="#1A1A1A"/>
</svg>
